solid OpenSCAD_Model
  facet normal 0 -1 0
    outer loop
      vertex -3.20712 5.5549 1.5
      vertex 5.5041 5.5549 7.5
      vertex -3.20712 5.5549 7.5
    endloop
  endfacet
  facet normal 0 -1 -0
    outer loop
      vertex 5.5041 5.5549 7.5
      vertex -3.20712 5.5549 1.5
      vertex 5.5041 5.5549 1.5
    endloop
  endfacet
  facet normal 0.866025 -0.500001 0
    outer loop
      vertex -6.41425 0 7.5
      vertex -3.20712 5.5549 1.5
      vertex -3.20712 5.5549 7.5
    endloop
  endfacet
  facet normal 0.866025 -0.500001 0
    outer loop
      vertex -3.20712 5.5549 1.5
      vertex -6.41425 0 7.5
      vertex -6.41425 0 1.5
    endloop
  endfacet
  facet normal 0 0 -1
    outer loop
      vertex 5.5041 -5.5549 7.5
      vertex 7 -2 7.5
      vertex 6.96057 -2.62667 7.5
    endloop
  endfacet
  facet normal -0 0 -1
    outer loop
      vertex 7 -2 7.5
      vertex -3.20712 -5.5549 7.5
      vertex 7 2 7.5
    endloop
  endfacet
  facet normal 0 0 -1
    outer loop
      vertex 5.5041 -5.5549 7.5
      vertex 6.96057 -2.62667 7.5
      vertex 6.84292 -3.24345 7.5
    endloop
  endfacet
  facet normal 0 0 -1
    outer loop
      vertex -3.20712 5.5549 7.5
      vertex 7 2 7.5
      vertex -3.20712 -5.5549 7.5
    endloop
  endfacet
  facet normal 0 0 -1
    outer loop
      vertex 5.5041 -5.5549 7.5
      vertex 6.84292 -3.24345 7.5
      vertex 6.64888 -3.84062 7.5
    endloop
  endfacet
  facet normal -0 -0 -1
    outer loop
      vertex 5.5041 5.5549 7.5
      vertex 7 2 7.5
      vertex -3.20712 5.5549 7.5
    endloop
  endfacet
  facet normal 0 0 -1
    outer loop
      vertex 5.5041 -5.5549 7.5
      vertex 6.64888 -3.84062 7.5
      vertex 6.38153 -4.40877 7.5
    endloop
  endfacet
  facet normal 0 0 -1
    outer loop
      vertex 7 2 7.5
      vertex 5.5041 5.5549 7.5
      vertex 6.96057 2.62667 7.5
    endloop
  endfacet
  facet normal 0 0 -1
    outer loop
      vertex 5.5041 -5.5549 7.5
      vertex 6.38153 -4.40877 7.5
      vertex 6.04508 -4.93893 7.5
    endloop
  endfacet
  facet normal 0 0 -1
    outer loop
      vertex 6.96057 2.62667 7.5
      vertex 5.5041 5.5549 7.5
      vertex 6.84292 3.24345 7.5
    endloop
  endfacet
  facet normal 0 0 -1
    outer loop
      vertex 5.5041 -5.5549 7.5
      vertex 6.04508 -4.93893 7.5
      vertex 5.64484 -5.42274 7.5
    endloop
  endfacet
  facet normal 0 0 -1
    outer loop
      vertex 6.84292 3.24345 7.5
      vertex 5.5041 5.5549 7.5
      vertex 6.64888 3.84062 7.5
    endloop
  endfacet
  facet normal 0 0 -1
    outer loop
      vertex 7 -2 7.5
      vertex 5.5041 -5.5549 7.5
      vertex -3.20712 -5.5549 7.5
    endloop
  endfacet
  facet normal 0 0 -1
    outer loop
      vertex 6.64888 3.84062 7.5
      vertex 5.5041 5.5549 7.5
      vertex 6.38153 4.40877 7.5
    endloop
  endfacet
  facet normal 0 0 -1
    outer loop
      vertex 6.38153 4.40877 7.5
      vertex 5.5041 5.5549 7.5
      vertex 6.04508 4.93893 7.5
    endloop
  endfacet
  facet normal 0 0 -1
    outer loop
      vertex 6.04508 4.93893 7.5
      vertex 5.5041 5.5549 7.5
      vertex 5.64484 5.42274 7.5
    endloop
  endfacet
  facet normal 0 -0 -1
    outer loop
      vertex -3.20712 5.5549 7.5
      vertex -3.20712 -5.5549 7.5
      vertex -6.41425 0 7.5
    endloop
  endfacet
  facet normal 0 0 1
    outer loop
      vertex -0.204069 3.24359 1.5
      vertex 6.64888 3.84062 1.5
      vertex 6.38153 4.40877 1.5
    endloop
  endfacet
  facet normal 0 0 1
    outer loop
      vertex -0.204069 3.24359 1.5
      vertex 6.38153 4.40877 1.5
      vertex 6.04508 4.93893 1.5
    endloop
  endfacet
  facet normal 0 0 1
    outer loop
      vertex -0.204069 3.24359 1.5
      vertex 6.04508 4.93893 1.5
      vertex 5.64484 5.42274 1.5
    endloop
  endfacet
  facet normal 0 0 1
    outer loop
      vertex -0.204069 3.24359 1.5
      vertex 5.64484 5.42274 1.5
      vertex 5.5041 5.5549 1.5
    endloop
  endfacet
  facet normal 0 0 1
    outer loop
      vertex 6.64888 3.84062 1.5
      vertex -0.204069 3.24359 1.5
      vertex 6.84287 3.24359 1.5
    endloop
  endfacet
  facet normal -0 0 1
    outer loop
      vertex -3.20712 5.5549 1.5
      vertex -0.204069 3.24359 1.5
      vertex 5.5041 5.5549 1.5
    endloop
  endfacet
  facet normal 0 0 1
    outer loop
      vertex -0.204069 3.24359 1.5
      vertex -3.20712 5.5549 1.5
      vertex -0.608989 3.19243 1.5
    endloop
  endfacet
  facet normal 0 0 1
    outer loop
      vertex -0.608989 3.19243 1.5
      vertex -3.20712 5.5549 1.5
      vertex -1.0043 3.09093 1.5
    endloop
  endfacet
  facet normal 0 0 1
    outer loop
      vertex -3.20712 5.5549 1.5
      vertex -1.38378 2.94069 1.5
      vertex -1.0043 3.09093 1.5
    endloop
  endfacet
  facet normal 0 0 1
    outer loop
      vertex -3.20712 5.5549 1.5
      vertex -1.74144 2.74407 1.5
      vertex -1.38378 2.94069 1.5
    endloop
  endfacet
  facet normal 0 0 1
    outer loop
      vertex -3.20712 5.5549 1.5
      vertex -2.07163 2.50417 1.5
      vertex -1.74144 2.74407 1.5
    endloop
  endfacet
  facet normal 0 0 1
    outer loop
      vertex -3.20712 5.5549 1.5
      vertex -2.36915 2.22478 1.5
      vertex -2.07163 2.50417 1.5
    endloop
  endfacet
  facet normal 0 0 1
    outer loop
      vertex -3.20712 5.5549 1.5
      vertex -2.6293 1.9103 1.5
      vertex -2.36915 2.22478 1.5
    endloop
  endfacet
  facet normal 0 0 1
    outer loop
      vertex -3.20712 5.5549 1.5
      vertex -2.848 1.5657 1.5
      vertex -2.6293 1.9103 1.5
    endloop
  endfacet
  facet normal 0 0 1
    outer loop
      vertex -6.41425 0 1.5
      vertex -2.848 1.5657 1.5
      vertex -3.20712 5.5549 1.5
    endloop
  endfacet
  facet normal 0 0 1
    outer loop
      vertex -2.848 1.5657 1.5
      vertex -6.41425 0 1.5
      vertex -3.02177 1.1964 1.5
    endloop
  endfacet
  facet normal 0 0 1
    outer loop
      vertex -3.02177 1.1964 1.5
      vertex -6.41425 0 1.5
      vertex -3.14789 0.808242 1.5
    endloop
  endfacet
  facet normal 0 0 1
    outer loop
      vertex -3.14789 0.808242 1.5
      vertex -6.41425 0 1.5
      vertex -3.22437 0.407332 1.5
    endloop
  endfacet
  facet normal 0 0 1
    outer loop
      vertex -3.22437 0.407332 1.5
      vertex -6.41425 0 1.5
      vertex -3.25 0 1.5
    endloop
  endfacet
  facet normal -0 0 1
    outer loop
      vertex -0.204069 -3.24359 1.5
      vertex 6.64888 -3.84062 1.5
      vertex 6.84287 -3.24359 1.5
    endloop
  endfacet
  facet normal 0 0 1
    outer loop
      vertex 6.64888 -3.84062 1.5
      vertex -0.204069 -3.24359 1.5
      vertex 6.38153 -4.40877 1.5
    endloop
  endfacet
  facet normal 0 0 1
    outer loop
      vertex 6.38153 -4.40877 1.5
      vertex -0.204069 -3.24359 1.5
      vertex 6.04508 -4.93893 1.5
    endloop
  endfacet
  facet normal 0 0 1
    outer loop
      vertex 6.04508 -4.93893 1.5
      vertex -0.204069 -3.24359 1.5
      vertex 5.64484 -5.42274 1.5
    endloop
  endfacet
  facet normal 0 0 1
    outer loop
      vertex 5.64484 -5.42274 1.5
      vertex -0.204069 -3.24359 1.5
      vertex 5.5041 -5.5549 1.5
    endloop
  endfacet
  facet normal 0 0 1
    outer loop
      vertex -3.20712 -5.5549 1.5
      vertex -0.204069 -3.24359 1.5
      vertex -0.608989 -3.19243 1.5
    endloop
  endfacet
  facet normal 0 0 1
    outer loop
      vertex -3.20712 -5.5549 1.5
      vertex -0.608989 -3.19243 1.5
      vertex -1.0043 -3.09093 1.5
    endloop
  endfacet
  facet normal 0 0 1
    outer loop
      vertex -0.204069 -3.24359 1.5
      vertex -3.20712 -5.5549 1.5
      vertex 5.5041 -5.5549 1.5
    endloop
  endfacet
  facet normal 0 0 1
    outer loop
      vertex -1.38378 -2.94069 1.5
      vertex -3.20712 -5.5549 1.5
      vertex -1.0043 -3.09093 1.5
    endloop
  endfacet
  facet normal 0 0 1
    outer loop
      vertex -1.74144 -2.74407 1.5
      vertex -3.20712 -5.5549 1.5
      vertex -1.38378 -2.94069 1.5
    endloop
  endfacet
  facet normal 0 0 1
    outer loop
      vertex -2.07163 -2.50417 1.5
      vertex -3.20712 -5.5549 1.5
      vertex -1.74144 -2.74407 1.5
    endloop
  endfacet
  facet normal 0 0 1
    outer loop
      vertex -2.36915 -2.22478 1.5
      vertex -3.20712 -5.5549 1.5
      vertex -2.07163 -2.50417 1.5
    endloop
  endfacet
  facet normal 0 0 1
    outer loop
      vertex -2.6293 -1.9103 1.5
      vertex -3.20712 -5.5549 1.5
      vertex -2.36915 -2.22478 1.5
    endloop
  endfacet
  facet normal 0 0 1
    outer loop
      vertex -2.848 -1.5657 1.5
      vertex -3.20712 -5.5549 1.5
      vertex -2.6293 -1.9103 1.5
    endloop
  endfacet
  facet normal 0 0 1
    outer loop
      vertex -6.41425 0 1.5
      vertex -2.848 -1.5657 1.5
      vertex -3.02177 -1.1964 1.5
    endloop
  endfacet
  facet normal 0 0 1
    outer loop
      vertex -6.41425 0 1.5
      vertex -3.02177 -1.1964 1.5
      vertex -3.14789 -0.808242 1.5
    endloop
  endfacet
  facet normal 0 0 1
    outer loop
      vertex -6.41425 0 1.5
      vertex -3.14789 -0.808242 1.5
      vertex -3.22437 -0.407332 1.5
    endloop
  endfacet
  facet normal -0 0 1
    outer loop
      vertex -6.41425 0 1.5
      vertex -3.22437 -0.407332 1.5
      vertex -3.25 0 1.5
    endloop
  endfacet
  facet normal 0 0 1
    outer loop
      vertex -2.848 -1.5657 1.5
      vertex -6.41425 0 1.5
      vertex -3.20712 -5.5549 1.5
    endloop
  endfacet
  facet normal 0.866025 0.500001 0
    outer loop
      vertex -3.20712 -5.5549 7.5
      vertex -6.41425 0 1.5
      vertex -6.41425 0 7.5
    endloop
  endfacet
  facet normal 0.866025 0.500001 0
    outer loop
      vertex -6.41425 0 1.5
      vertex -3.20712 -5.5549 7.5
      vertex -3.20712 -5.5549 1.5
    endloop
  endfacet
  facet normal 0 1 -0
    outer loop
      vertex 5.5041 -5.5549 1.5
      vertex -3.20712 -5.5549 7.5
      vertex 5.5041 -5.5549 7.5
    endloop
  endfacet
  facet normal 0 1 0
    outer loop
      vertex -3.20712 -5.5549 7.5
      vertex 5.5041 -5.5549 1.5
      vertex -3.20712 -5.5549 1.5
    endloop
  endfacet
  facet normal 0.998026 -0.0627975 0
    outer loop
      vertex -3.25 0 1.5
      vertex -3.22437 0.407332 0
      vertex -3.22437 0.407332 1.5
    endloop
  endfacet
  facet normal 0.998026 -0.0627975 0
    outer loop
      vertex -3.22437 0.407332 0
      vertex -3.25 0 1.5
      vertex -3.25 0 0
    endloop
  endfacet
  facet normal 0 1 -0
    outer loop
      vertex 6.84287 -3.24359 0
      vertex -0.204069 -3.24359 1.5
      vertex 6.84287 -3.24359 1.5
    endloop
  endfacet
  facet normal 0 1 0
    outer loop
      vertex -0.204069 -3.24359 1.5
      vertex 6.84287 -3.24359 0
      vertex -0.204069 -3.24359 0
    endloop
  endfacet
  facet normal 0 -1 0
    outer loop
      vertex -0.204069 3.24359 0
      vertex 6.84287 3.24359 1.5
      vertex -0.204069 3.24359 1.5
    endloop
  endfacet
  facet normal 0 -1 -0
    outer loop
      vertex 6.84287 3.24359 1.5
      vertex -0.204069 3.24359 0
      vertex 6.84287 3.24359 0
    endloop
  endfacet
  facet normal 0.684547 -0.728968 0
    outer loop
      vertex -2.36915 2.22478 0
      vertex -2.07163 2.50417 1.5
      vertex -2.36915 2.22478 1.5
    endloop
  endfacet
  facet normal 0.684547 -0.728968 0
    outer loop
      vertex -2.07163 2.50417 1.5
      vertex -2.36915 2.22478 0
      vertex -2.07163 2.50417 0
    endloop
  endfacet
  facet normal 0.904836 -0.42576 0
    outer loop
      vertex -3.02177 1.1964 1.5
      vertex -2.848 1.5657 0
      vertex -2.848 1.5657 1.5
    endloop
  endfacet
  facet normal 0.904836 -0.42576 0
    outer loop
      vertex -2.848 1.5657 0
      vertex -3.02177 1.1964 1.5
      vertex -3.02177 1.1964 0
    endloop
  endfacet
  facet normal 0.36811 -0.929782 0
    outer loop
      vertex -1.38378 2.94069 0
      vertex -1.0043 3.09093 1.5
      vertex -1.38378 2.94069 1.5
    endloop
  endfacet
  facet normal 0.36811 -0.929782 0
    outer loop
      vertex -1.0043 3.09093 1.5
      vertex -1.38378 2.94069 0
      vertex -1.0043 3.09093 0
    endloop
  endfacet
  facet normal 0.125349 -0.992113 0
    outer loop
      vertex -0.608989 3.19243 0
      vertex -0.204069 3.24359 1.5
      vertex -0.608989 3.19243 1.5
    endloop
  endfacet
  facet normal 0.125349 -0.992113 0
    outer loop
      vertex -0.204069 3.24359 1.5
      vertex -0.608989 3.19243 0
      vertex -0.204069 3.24359 0
    endloop
  endfacet
  facet normal 0.481744 -0.876312 0
    outer loop
      vertex -1.74144 2.74407 0
      vertex -1.38378 2.94069 1.5
      vertex -1.74144 2.74407 1.5
    endloop
  endfacet
  facet normal 0.481744 -0.876312 0
    outer loop
      vertex -1.38378 2.94069 1.5
      vertex -1.74144 2.74407 0
      vertex -1.38378 2.94069 0
    endloop
  endfacet
  facet normal 0.770526 -0.637409 0
    outer loop
      vertex -2.6293 1.9103 1.5
      vertex -2.36915 2.22478 0
      vertex -2.36915 2.22478 1.5
    endloop
  endfacet
  facet normal 0.770526 -0.637409 0
    outer loop
      vertex -2.36915 2.22478 0
      vertex -2.6293 1.9103 1.5
      vertex -2.6293 1.9103 0
    endloop
  endfacet
  facet normal 0.770526 0.637409 0
    outer loop
      vertex -2.36915 -2.22478 1.5
      vertex -2.6293 -1.9103 0
      vertex -2.6293 -1.9103 1.5
    endloop
  endfacet
  facet normal 0.770526 0.637409 0
    outer loop
      vertex -2.6293 -1.9103 0
      vertex -2.36915 -2.22478 1.5
      vertex -2.36915 -2.22478 0
    endloop
  endfacet
  facet normal 0.951057 -0.309017 0
    outer loop
      vertex -3.14789 0.808242 1.5
      vertex -3.02177 1.1964 0
      vertex -3.02177 1.1964 1.5
    endloop
  endfacet
  facet normal 0.951057 -0.309017 0
    outer loop
      vertex -3.02177 1.1964 0
      vertex -3.14789 0.808242 1.5
      vertex -3.14789 0.808242 0
    endloop
  endfacet
  facet normal 0.125349 0.992113 -0
    outer loop
      vertex -0.204069 -3.24359 0
      vertex -0.608989 -3.19243 1.5
      vertex -0.204069 -3.24359 1.5
    endloop
  endfacet
  facet normal 0.125349 0.992113 0
    outer loop
      vertex -0.608989 -3.19243 1.5
      vertex -0.204069 -3.24359 0
      vertex -0.608989 -3.19243 0
    endloop
  endfacet
  facet normal 0.58779 0.809014 -0
    outer loop
      vertex -1.74144 -2.74407 0
      vertex -2.07163 -2.50417 1.5
      vertex -1.74144 -2.74407 1.5
    endloop
  endfacet
  facet normal 0.58779 0.809014 0
    outer loop
      vertex -2.07163 -2.50417 1.5
      vertex -1.74144 -2.74407 0
      vertex -2.07163 -2.50417 0
    endloop
  endfacet
  facet normal 0.36811 0.929782 -0
    outer loop
      vertex -1.0043 -3.09093 0
      vertex -1.38378 -2.94069 1.5
      vertex -1.0043 -3.09093 1.5
    endloop
  endfacet
  facet normal 0.36811 0.929782 0
    outer loop
      vertex -1.38378 -2.94069 1.5
      vertex -1.0043 -3.09093 0
      vertex -1.38378 -2.94069 0
    endloop
  endfacet
  facet normal 0.904836 0.42576 0
    outer loop
      vertex -2.848 -1.5657 1.5
      vertex -3.02177 -1.1964 0
      vertex -3.02177 -1.1964 1.5
    endloop
  endfacet
  facet normal 0.904836 0.42576 0
    outer loop
      vertex -3.02177 -1.1964 0
      vertex -2.848 -1.5657 1.5
      vertex -2.848 -1.5657 0
    endloop
  endfacet
  facet normal 0.951057 0.309017 0
    outer loop
      vertex -3.02177 -1.1964 1.5
      vertex -3.14789 -0.808242 0
      vertex -3.14789 -0.808242 1.5
    endloop
  endfacet
  facet normal 0.951057 0.309017 0
    outer loop
      vertex -3.14789 -0.808242 0
      vertex -3.02177 -1.1964 1.5
      vertex -3.02177 -1.1964 0
    endloop
  endfacet
  facet normal 0.844317 0.535845 0
    outer loop
      vertex -2.6293 -1.9103 1.5
      vertex -2.848 -1.5657 0
      vertex -2.848 -1.5657 1.5
    endloop
  endfacet
  facet normal 0.844317 0.535845 0
    outer loop
      vertex -2.848 -1.5657 0
      vertex -2.6293 -1.9103 1.5
      vertex -2.6293 -1.9103 0
    endloop
  endfacet
  facet normal 0.248693 -0.968582 0
    outer loop
      vertex -1.0043 3.09093 0
      vertex -0.608989 3.19243 1.5
      vertex -1.0043 3.09093 1.5
    endloop
  endfacet
  facet normal 0.248693 -0.968582 0
    outer loop
      vertex -0.608989 3.19243 1.5
      vertex -1.0043 3.09093 0
      vertex -0.608989 3.19243 0
    endloop
  endfacet
  facet normal 0.58779 -0.809014 0
    outer loop
      vertex -2.07163 2.50417 0
      vertex -1.74144 2.74407 1.5
      vertex -2.07163 2.50417 1.5
    endloop
  endfacet
  facet normal 0.58779 -0.809014 0
    outer loop
      vertex -1.74144 2.74407 1.5
      vertex -2.07163 2.50417 0
      vertex -1.74144 2.74407 0
    endloop
  endfacet
  facet normal 0.844317 -0.535845 0
    outer loop
      vertex -2.848 1.5657 1.5
      vertex -2.6293 1.9103 0
      vertex -2.6293 1.9103 1.5
    endloop
  endfacet
  facet normal 0.844317 -0.535845 0
    outer loop
      vertex -2.6293 1.9103 0
      vertex -2.848 1.5657 1.5
      vertex -2.848 1.5657 0
    endloop
  endfacet
  facet normal 0.982286 -0.187387 0
    outer loop
      vertex -3.22437 0.407332 1.5
      vertex -3.14789 0.808242 0
      vertex -3.14789 0.808242 1.5
    endloop
  endfacet
  facet normal 0.982286 -0.187387 0
    outer loop
      vertex -3.14789 0.808242 0
      vertex -3.22437 0.407332 1.5
      vertex -3.22437 0.407332 0
    endloop
  endfacet
  facet normal 0.481744 0.876312 -0
    outer loop
      vertex -1.38378 -2.94069 0
      vertex -1.74144 -2.74407 1.5
      vertex -1.38378 -2.94069 1.5
    endloop
  endfacet
  facet normal 0.481744 0.876312 0
    outer loop
      vertex -1.74144 -2.74407 1.5
      vertex -1.38378 -2.94069 0
      vertex -1.74144 -2.74407 0
    endloop
  endfacet
  facet normal 0.248693 0.968582 -0
    outer loop
      vertex -0.608989 -3.19243 0
      vertex -1.0043 -3.09093 1.5
      vertex -0.608989 -3.19243 1.5
    endloop
  endfacet
  facet normal 0.248693 0.968582 0
    outer loop
      vertex -1.0043 -3.09093 1.5
      vertex -0.608989 -3.19243 0
      vertex -1.0043 -3.09093 0
    endloop
  endfacet
  facet normal 0.982286 0.187387 0
    outer loop
      vertex -3.14789 -0.808242 1.5
      vertex -3.22437 -0.407332 0
      vertex -3.22437 -0.407332 1.5
    endloop
  endfacet
  facet normal 0.982286 0.187387 0
    outer loop
      vertex -3.22437 -0.407332 0
      vertex -3.14789 -0.808242 1.5
      vertex -3.14789 -0.808242 0
    endloop
  endfacet
  facet normal 0.998026 0.0627975 0
    outer loop
      vertex -3.22437 -0.407332 1.5
      vertex -3.25 0 0
      vertex -3.25 0 1.5
    endloop
  endfacet
  facet normal 0.998026 0.0627975 0
    outer loop
      vertex -3.25 0 0
      vertex -3.22437 -0.407332 1.5
      vertex -3.22437 -0.407332 0
    endloop
  endfacet
  facet normal 0.684547 0.728968 -0
    outer loop
      vertex -2.07163 -2.50417 0
      vertex -2.36915 -2.22478 1.5
      vertex -2.07163 -2.50417 1.5
    endloop
  endfacet
  facet normal 0.684547 0.728968 0
    outer loop
      vertex -2.36915 -2.22478 1.5
      vertex -2.07163 -2.50417 0
      vertex -2.36915 -2.22478 0
    endloop
  endfacet
  facet normal -1 0 0
    outer loop
      vertex -7 -2 0
      vertex -7 2 9
      vertex -7 2 0
    endloop
  endfacet
  facet normal -1 -0 0
    outer loop
      vertex -7 2 9
      vertex -7 -2 0
      vertex -7 -2 9
    endloop
  endfacet
  facet normal -0.368124 0.929777 0
    outer loop
      vertex -3.54508 6.75528 0
      vertex -4.1289 6.52413 9
      vertex -3.54508 6.75528 9
    endloop
  endfacet
  facet normal -0.368124 0.929777 0
    outer loop
      vertex -4.1289 6.52413 9
      vertex -3.54508 6.75528 0
      vertex -4.1289 6.52413 0
    endloop
  endfacet
  facet normal 0 0 1
    outer loop
      vertex 2.31395 6.99013 9
      vertex 7 2 9
      vertex 6.96057 2.62667 9
    endloop
  endfacet
  facet normal 0 0 1
    outer loop
      vertex -7 2 9
      vertex 7 2 9
      vertex 2.31395 6.99013 9
    endloop
  endfacet
  facet normal 0 0 1
    outer loop
      vertex 2.31395 6.99013 9
      vertex 6.96057 2.62667 9
      vertex 6.84292 3.24345 9
    endloop
  endfacet
  facet normal 0 0 1
    outer loop
      vertex 7 2 9
      vertex -7 2 9
      vertex 7 -2 9
    endloop
  endfacet
  facet normal 0 0 1
    outer loop
      vertex 2.31395 6.99013 9
      vertex 6.84292 3.24345 9
      vertex 6.64888 3.84062 9
    endloop
  endfacet
  facet normal 0 0 1
    outer loop
      vertex 7 -2 9
      vertex 2.31395 -6.99013 9
      vertex 6.96057 -2.62667 9
    endloop
  endfacet
  facet normal 0 0 1
    outer loop
      vertex 2.31395 6.99013 9
      vertex 6.64888 3.84062 9
      vertex 6.38153 4.40877 9
    endloop
  endfacet
  facet normal 0 0 1
    outer loop
      vertex 6.96057 -2.62667 9
      vertex 2.31395 -6.99013 9
      vertex 6.84292 -3.24345 9
    endloop
  endfacet
  facet normal 0 0 1
    outer loop
      vertex 2.31395 6.99013 9
      vertex 6.38153 4.40877 9
      vertex 6.04508 4.93893 9
    endloop
  endfacet
  facet normal 0 0 1
    outer loop
      vertex 6.84292 -3.24345 9
      vertex 2.31395 -6.99013 9
      vertex 6.64888 -3.84062 9
    endloop
  endfacet
  facet normal 0 0 1
    outer loop
      vertex 2.31395 6.99013 9
      vertex 6.04508 4.93893 9
      vertex 5.64484 5.42274 9
    endloop
  endfacet
  facet normal 0 0 1
    outer loop
      vertex 6.64888 -3.84062 9
      vertex 2.31395 -6.99013 9
      vertex 6.38153 -4.40877 9
    endloop
  endfacet
  facet normal 0 0 1
    outer loop
      vertex 2.31395 6.99013 9
      vertex 5.64484 5.42274 9
      vertex 5.18712 5.85257 9
    endloop
  endfacet
  facet normal 0 0 1
    outer loop
      vertex 6.38153 -4.40877 9
      vertex 2.31395 -6.99013 9
      vertex 6.04508 -4.93893 9
    endloop
  endfacet
  facet normal 0 0 1
    outer loop
      vertex 2.31395 6.99013 9
      vertex 5.18712 5.85257 9
      vertex 4.67913 6.22164 9
    endloop
  endfacet
  facet normal 0 0 1
    outer loop
      vertex 6.04508 -4.93893 9
      vertex 2.31395 -6.99013 9
      vertex 5.64484 -5.42274 9
    endloop
  endfacet
  facet normal 0 0 1
    outer loop
      vertex 2.31395 6.99013 9
      vertex 4.67913 6.22164 9
      vertex 4.1289 6.52413 9
    endloop
  endfacet
  facet normal 0 0 1
    outer loop
      vertex 5.64484 -5.42274 9
      vertex 2.31395 -6.99013 9
      vertex 5.18712 -5.85257 9
    endloop
  endfacet
  facet normal 0 0 1
    outer loop
      vertex 2.31395 6.99013 9
      vertex 4.1289 6.52413 9
      vertex 3.54508 6.75528 9
    endloop
  endfacet
  facet normal 0 0 1
    outer loop
      vertex 5.18712 -5.85257 9
      vertex 2.31395 -6.99013 9
      vertex 4.67913 -6.22164 9
    endloop
  endfacet
  facet normal 0 0 1
    outer loop
      vertex 2.31395 6.99013 9
      vertex 3.54508 6.75528 9
      vertex 2.93691 6.91144 9
    endloop
  endfacet
  facet normal 0 0 1
    outer loop
      vertex 4.67913 -6.22164 9
      vertex 2.31395 -6.99013 9
      vertex 4.1289 -6.52413 9
    endloop
  endfacet
  facet normal 0 0 1
    outer loop
      vertex 4.1289 -6.52413 9
      vertex 2.31395 -6.99013 9
      vertex 3.54508 -6.75528 9
    endloop
  endfacet
  facet normal 0 0 1
    outer loop
      vertex 3.54508 -6.75528 9
      vertex 2.31395 -6.99013 9
      vertex 2.93691 -6.91144 9
    endloop
  endfacet
  facet normal 0 0 1
    outer loop
      vertex -7 2 9
      vertex 2.31395 6.99013 9
      vertex -2.31395 6.99013 9
    endloop
  endfacet
  facet normal 0 0 1
    outer loop
      vertex -7 -2 9
      vertex 7 -2 9
      vertex -7 2 9
    endloop
  endfacet
  facet normal 0 0 1
    outer loop
      vertex -7 2 9
      vertex -2.31395 6.99013 9
      vertex -2.93691 6.91144 9
    endloop
  endfacet
  facet normal 0 0 1
    outer loop
      vertex 7 -2 9
      vertex -7 -2 9
      vertex 2.31395 -6.99013 9
    endloop
  endfacet
  facet normal 0 0 1
    outer loop
      vertex -7 2 9
      vertex -2.93691 6.91144 9
      vertex -3.54508 6.75528 9
    endloop
  endfacet
  facet normal 0 0 1
    outer loop
      vertex 2.31395 -6.99013 9
      vertex -7 -2 9
      vertex -2.31395 -6.99013 9
    endloop
  endfacet
  facet normal 0 0 1
    outer loop
      vertex -7 2 9
      vertex -3.54508 6.75528 9
      vertex -4.1289 6.52413 9
    endloop
  endfacet
  facet normal 0 0 1
    outer loop
      vertex -2.31395 -6.99013 9
      vertex -7 -2 9
      vertex -2.93691 -6.91144 9
    endloop
  endfacet
  facet normal 0 0 1
    outer loop
      vertex -7 2 9
      vertex -4.1289 6.52413 9
      vertex -4.67913 6.22164 9
    endloop
  endfacet
  facet normal 0 0 1
    outer loop
      vertex -2.93691 -6.91144 9
      vertex -7 -2 9
      vertex -3.54508 -6.75528 9
    endloop
  endfacet
  facet normal 0 0 1
    outer loop
      vertex -7 2 9
      vertex -4.67913 6.22164 9
      vertex -5.18712 5.85257 9
    endloop
  endfacet
  facet normal 0 0 1
    outer loop
      vertex -3.54508 -6.75528 9
      vertex -7 -2 9
      vertex -4.1289 -6.52413 9
    endloop
  endfacet
  facet normal 0 0 1
    outer loop
      vertex -7 2 9
      vertex -5.18712 5.85257 9
      vertex -5.64484 5.42274 9
    endloop
  endfacet
  facet normal 0 0 1
    outer loop
      vertex -4.1289 -6.52413 9
      vertex -7 -2 9
      vertex -4.67913 -6.22164 9
    endloop
  endfacet
  facet normal 0 0 1
    outer loop
      vertex -7 2 9
      vertex -5.64484 5.42274 9
      vertex -6.04508 4.93893 9
    endloop
  endfacet
  facet normal 0 0 1
    outer loop
      vertex -4.67913 -6.22164 9
      vertex -7 -2 9
      vertex -5.18712 -5.85257 9
    endloop
  endfacet
  facet normal 0 0 1
    outer loop
      vertex -7 2 9
      vertex -6.04508 4.93893 9
      vertex -6.38153 4.40877 9
    endloop
  endfacet
  facet normal 0 0 1
    outer loop
      vertex -5.18712 -5.85257 9
      vertex -7 -2 9
      vertex -5.64484 -5.42274 9
    endloop
  endfacet
  facet normal 0 0 1
    outer loop
      vertex -7 2 9
      vertex -6.38153 4.40877 9
      vertex -6.64888 3.84062 9
    endloop
  endfacet
  facet normal 0 0 1
    outer loop
      vertex -5.64484 -5.42274 9
      vertex -7 -2 9
      vertex -6.04508 -4.93893 9
    endloop
  endfacet
  facet normal 0 0 1
    outer loop
      vertex -7 2 9
      vertex -6.64888 3.84062 9
      vertex -6.84292 3.24345 9
    endloop
  endfacet
  facet normal 0 0 1
    outer loop
      vertex -6.04508 -4.93893 9
      vertex -7 -2 9
      vertex -6.38153 -4.40877 9
    endloop
  endfacet
  facet normal 0 0 1
    outer loop
      vertex -7 2 9
      vertex -6.84292 3.24345 9
      vertex -6.96057 2.62667 9
    endloop
  endfacet
  facet normal 0 0 1
    outer loop
      vertex -6.38153 -4.40877 9
      vertex -7 -2 9
      vertex -6.64888 -3.84062 9
    endloop
  endfacet
  facet normal 0 0 1
    outer loop
      vertex -6.64888 -3.84062 9
      vertex -7 -2 9
      vertex -6.84292 -3.24345 9
    endloop
  endfacet
  facet normal 0 0 1
    outer loop
      vertex -6.84292 -3.24345 9
      vertex -7 -2 9
      vertex -6.96057 -2.62667 9
    endloop
  endfacet
  facet normal 0.844328 0.535827 0
    outer loop
      vertex 6.38153 4.40877 1.5
      vertex 6.04508 4.93893 0
      vertex 6.04508 4.93893 1.5
    endloop
  endfacet
  facet normal 0.844328 0.535827 0
    outer loop
      vertex 6.04508 4.93893 0
      vertex 6.38153 4.40877 1.5
      vertex 6.38153 4.40877 0
    endloop
  endfacet
  facet normal 0.844328 0.535827 0
    outer loop
      vertex 6.38153 4.40877 9
      vertex 6.04508 4.93893 7.5
      vertex 6.04508 4.93893 9
    endloop
  endfacet
  facet normal 0.844328 0.535827 0
    outer loop
      vertex 6.04508 4.93893 7.5
      vertex 6.38153 4.40877 9
      vertex 6.38153 4.40877 7.5
    endloop
  endfacet
  facet normal -0.368124 -0.929777 0
    outer loop
      vertex -4.1289 -6.52413 0
      vertex -3.54508 -6.75528 9
      vertex -4.1289 -6.52413 9
    endloop
  endfacet
  facet normal -0.368124 -0.929777 -0
    outer loop
      vertex -3.54508 -6.75528 9
      vertex -4.1289 -6.52413 0
      vertex -3.54508 -6.75528 0
    endloop
  endfacet
  facet normal -0.770515 -0.637422 0
    outer loop
      vertex -5.64484 -5.42274 0
      vertex -6.04508 -4.93893 9
      vertex -6.04508 -4.93893 0
    endloop
  endfacet
  facet normal -0.770515 -0.637422 0
    outer loop
      vertex -6.04508 -4.93893 9
      vertex -5.64484 -5.42274 0
      vertex -5.64484 -5.42274 9
    endloop
  endfacet
  facet normal 0.770515 -0.637422 0
    outer loop
      vertex 5.64484 -5.42274 9
      vertex 6.04508 -4.93893 7.5
      vertex 6.04508 -4.93893 9
    endloop
  endfacet
  facet normal 0.770515 -0.637422 0
    outer loop
      vertex 6.04508 -4.93893 7.5
      vertex 5.64484 -5.42274 9
      vertex 5.64484 -5.42274 7.5
    endloop
  endfacet
  facet normal 0.770515 -0.637422 0
    outer loop
      vertex 5.64484 -5.42274 1.5
      vertex 6.04508 -4.93893 0
      vertex 6.04508 -4.93893 1.5
    endloop
  endfacet
  facet normal 0.770515 -0.637422 0
    outer loop
      vertex 6.04508 -4.93893 0
      vertex 5.64484 -5.42274 1.5
      vertex 5.64484 -5.42274 0
    endloop
  endfacet
  facet normal -0.904828 0.425778 0
    outer loop
      vertex -6.64888 3.84062 0
      vertex -6.38153 4.40877 9
      vertex -6.38153 4.40877 0
    endloop
  endfacet
  facet normal -0.904828 0.425778 0
    outer loop
      vertex -6.38153 4.40877 9
      vertex -6.64888 3.84062 0
      vertex -6.64888 3.84062 9
    endloop
  endfacet
  facet normal -0.951053 0.309028 0
    outer loop
      vertex -6.84292 3.24345 0
      vertex -6.64888 3.84062 9
      vertex -6.64888 3.84062 0
    endloop
  endfacet
  facet normal -0.951053 0.309028 0
    outer loop
      vertex -6.64888 3.84062 9
      vertex -6.84292 3.24345 0
      vertex -6.84292 3.24345 9
    endloop
  endfacet
  facet normal 0 -1 0
    outer loop
      vertex -2.31395 -6.99013 0
      vertex 2.31395 -6.99013 9
      vertex -2.31395 -6.99013 9
    endloop
  endfacet
  facet normal 0 -1 -0
    outer loop
      vertex 2.31395 -6.99013 9
      vertex -2.31395 -6.99013 0
      vertex 2.31395 -6.99013 0
    endloop
  endfacet
  facet normal 1 -0 0
    outer loop
      vertex 7 -2 9
      vertex 7 2 7.5
      vertex 7 2 9
    endloop
  endfacet
  facet normal 1 0 0
    outer loop
      vertex 7 2 7.5
      vertex 7 -2 9
      vertex 7 -2 7.5
    endloop
  endfacet
  facet normal 0.951053 -0.309028 0
    outer loop
      vertex 6.64888 -3.84062 9
      vertex 6.84292 -3.24345 7.5
      vertex 6.84292 -3.24345 9
    endloop
  endfacet
  facet normal 0.951053 -0.309028 0
    outer loop
      vertex 6.84292 -3.24345 7.5
      vertex 6.64888 -3.84062 9
      vertex 6.64888 -3.84062 7.5
    endloop
  endfacet
  facet normal 0.951055 -0.309022 0
    outer loop
      vertex 6.64888 -3.84062 1.5
      vertex 6.84287 -3.24359 0
      vertex 6.84287 -3.24359 1.5
    endloop
  endfacet
  facet normal 0.951055 -0.309022 0
    outer loop
      vertex 6.84287 -3.24359 0
      vertex 6.64888 -3.84062 1.5
      vertex 6.64888 -3.84062 0
    endloop
  endfacet
  facet normal -0.770515 0.637422 0
    outer loop
      vertex -6.04508 4.93893 0
      vertex -5.64484 5.42274 9
      vertex -5.64484 5.42274 0
    endloop
  endfacet
  facet normal -0.770515 0.637422 0
    outer loop
      vertex -5.64484 5.42274 9
      vertex -6.04508 4.93893 0
      vertex -6.04508 4.93893 9
    endloop
  endfacet
  facet normal -0.982289 0.18737 0
    outer loop
      vertex -6.96057 2.62667 0
      vertex -6.84292 3.24345 9
      vertex -6.84292 3.24345 0
    endloop
  endfacet
  facet normal -0.982289 0.18737 0
    outer loop
      vertex -6.84292 3.24345 9
      vertex -6.96057 2.62667 0
      vertex -6.96057 2.62667 9
    endloop
  endfacet
  facet normal -0.248703 0.96858 0
    outer loop
      vertex -2.93691 6.91144 0
      vertex -3.54508 6.75528 9
      vertex -2.93691 6.91144 9
    endloop
  endfacet
  facet normal -0.248703 0.96858 0
    outer loop
      vertex -3.54508 6.75528 9
      vertex -2.93691 6.91144 0
      vertex -3.54508 6.75528 0
    endloop
  endfacet
  facet normal 0.998026 0.0627957 0
    outer loop
      vertex 7 2 9
      vertex 6.96057 2.62667 7.5
      vertex 6.96057 2.62667 9
    endloop
  endfacet
  facet normal 0.998026 0.0627957 0
    outer loop
      vertex 6.96057 2.62667 7.5
      vertex 7 2 9
      vertex 7 2 7.5
    endloop
  endfacet
  facet normal 0.368124 0.929777 -0
    outer loop
      vertex 4.1289 6.52413 0
      vertex 3.54508 6.75528 9
      vertex 4.1289 6.52413 9
    endloop
  endfacet
  facet normal 0.368124 0.929777 0
    outer loop
      vertex 3.54508 6.75528 9
      vertex 4.1289 6.52413 0
      vertex 3.54508 6.75528 0
    endloop
  endfacet
  facet normal 0 0 -1
    outer loop
      vertex -0.204069 -3.24359 0
      vertex 6.64888 -3.84062 0
      vertex 6.38153 -4.40877 0
    endloop
  endfacet
  facet normal 0 0 -1
    outer loop
      vertex -0.204069 -3.24359 0
      vertex 6.38153 -4.40877 0
      vertex 6.04508 -4.93893 0
    endloop
  endfacet
  facet normal 0 0 -1
    outer loop
      vertex -0.204069 -3.24359 0
      vertex 6.04508 -4.93893 0
      vertex 5.64484 -5.42274 0
    endloop
  endfacet
  facet normal 0 0 -1
    outer loop
      vertex -0.204069 -3.24359 0
      vertex 5.64484 -5.42274 0
      vertex 5.18712 -5.85257 0
    endloop
  endfacet
  facet normal 0 0 -1
    outer loop
      vertex -0.204069 -3.24359 0
      vertex 5.18712 -5.85257 0
      vertex 4.67913 -6.22164 0
    endloop
  endfacet
  facet normal 0 0 -1
    outer loop
      vertex -0.204069 -3.24359 0
      vertex 4.67913 -6.22164 0
      vertex 4.1289 -6.52413 0
    endloop
  endfacet
  facet normal 0 0 -1
    outer loop
      vertex -0.204069 -3.24359 0
      vertex 4.1289 -6.52413 0
      vertex 3.54508 -6.75528 0
    endloop
  endfacet
  facet normal 0 0 -1
    outer loop
      vertex -0.204069 -3.24359 0
      vertex 3.54508 -6.75528 0
      vertex 2.93691 -6.91144 0
    endloop
  endfacet
  facet normal 0 0 -1
    outer loop
      vertex -0.204069 -3.24359 0
      vertex 2.93691 -6.91144 0
      vertex 2.31395 -6.99013 0
    endloop
  endfacet
  facet normal 0 0 -1
    outer loop
      vertex 6.64888 -3.84062 0
      vertex -0.204069 -3.24359 0
      vertex 6.84287 -3.24359 0
    endloop
  endfacet
  facet normal 0 0 -1
    outer loop
      vertex -2.31395 -6.99013 0
      vertex -0.204069 -3.24359 0
      vertex 2.31395 -6.99013 0
    endloop
  endfacet
  facet normal -0 0 -1
    outer loop
      vertex -0.204069 -3.24359 0
      vertex -2.31395 -6.99013 0
      vertex -0.608989 -3.19243 0
    endloop
  endfacet
  facet normal -0 0 -1
    outer loop
      vertex -0.608989 -3.19243 0
      vertex -2.31395 -6.99013 0
      vertex -1.0043 -3.09093 0
    endloop
  endfacet
  facet normal -0 0 -1
    outer loop
      vertex -1.0043 -3.09093 0
      vertex -2.31395 -6.99013 0
      vertex -1.38378 -2.94069 0
    endloop
  endfacet
  facet normal 0 0 -1
    outer loop
      vertex -2.93691 -6.91144 0
      vertex -1.38378 -2.94069 0
      vertex -2.31395 -6.99013 0
    endloop
  endfacet
  facet normal -0 0 -1
    outer loop
      vertex -1.38378 -2.94069 0
      vertex -2.93691 -6.91144 0
      vertex -1.74144 -2.74407 0
    endloop
  endfacet
  facet normal 0 0 -1
    outer loop
      vertex -3.54508 -6.75528 0
      vertex -1.74144 -2.74407 0
      vertex -2.93691 -6.91144 0
    endloop
  endfacet
  facet normal 0 0 -1
    outer loop
      vertex -4.1289 -6.52413 0
      vertex -1.74144 -2.74407 0
      vertex -3.54508 -6.75528 0
    endloop
  endfacet
  facet normal -0 0 -1
    outer loop
      vertex -1.74144 -2.74407 0
      vertex -4.1289 -6.52413 0
      vertex -2.07163 -2.50417 0
    endloop
  endfacet
  facet normal 0 0 -1
    outer loop
      vertex -4.67913 -6.22164 0
      vertex -2.07163 -2.50417 0
      vertex -4.1289 -6.52413 0
    endloop
  endfacet
  facet normal 0 0 -1
    outer loop
      vertex -5.18712 -5.85257 0
      vertex -2.07163 -2.50417 0
      vertex -4.67913 -6.22164 0
    endloop
  endfacet
  facet normal -0 0 -1
    outer loop
      vertex -2.07163 -2.50417 0
      vertex -5.18712 -5.85257 0
      vertex -2.36915 -2.22478 0
    endloop
  endfacet
  facet normal 0 0 -1
    outer loop
      vertex -5.64484 -5.42274 0
      vertex -2.36915 -2.22478 0
      vertex -5.18712 -5.85257 0
    endloop
  endfacet
  facet normal 0 0 -1
    outer loop
      vertex -6.04508 -4.93893 0
      vertex -2.36915 -2.22478 0
      vertex -5.64484 -5.42274 0
    endloop
  endfacet
  facet normal -0 0 -1
    outer loop
      vertex -2.36915 -2.22478 0
      vertex -6.04508 -4.93893 0
      vertex -2.6293 -1.9103 0
    endloop
  endfacet
  facet normal 0 0 -1
    outer loop
      vertex -0.204069 3.24359 0
      vertex 6.64888 3.84062 0
      vertex 6.84287 3.24359 0
    endloop
  endfacet
  facet normal -0 0 -1
    outer loop
      vertex 6.64888 3.84062 0
      vertex -0.204069 3.24359 0
      vertex 6.38153 4.40877 0
    endloop
  endfacet
  facet normal -0 0 -1
    outer loop
      vertex 6.38153 4.40877 0
      vertex -0.204069 3.24359 0
      vertex 6.04508 4.93893 0
    endloop
  endfacet
  facet normal -0 0 -1
    outer loop
      vertex 6.04508 4.93893 0
      vertex -0.204069 3.24359 0
      vertex 5.64484 5.42274 0
    endloop
  endfacet
  facet normal -0 0 -1
    outer loop
      vertex 5.64484 5.42274 0
      vertex -0.204069 3.24359 0
      vertex 5.18712 5.85257 0
    endloop
  endfacet
  facet normal -0 0 -1
    outer loop
      vertex 5.18712 5.85257 0
      vertex -0.204069 3.24359 0
      vertex 4.67913 6.22164 0
    endloop
  endfacet
  facet normal -0 0 -1
    outer loop
      vertex 4.67913 6.22164 0
      vertex -0.204069 3.24359 0
      vertex 4.1289 6.52413 0
    endloop
  endfacet
  facet normal -0 0 -1
    outer loop
      vertex 4.1289 6.52413 0
      vertex -0.204069 3.24359 0
      vertex 3.54508 6.75528 0
    endloop
  endfacet
  facet normal -0 0 -1
    outer loop
      vertex 3.54508 6.75528 0
      vertex -0.204069 3.24359 0
      vertex 2.93691 6.91144 0
    endloop
  endfacet
  facet normal -0 0 -1
    outer loop
      vertex 2.93691 6.91144 0
      vertex -0.204069 3.24359 0
      vertex 2.31395 6.99013 0
    endloop
  endfacet
  facet normal 0 0 -1
    outer loop
      vertex -2.31395 6.99013 0
      vertex -0.204069 3.24359 0
      vertex -0.608989 3.19243 0
    endloop
  endfacet
  facet normal 0 0 -1
    outer loop
      vertex -2.31395 6.99013 0
      vertex -0.608989 3.19243 0
      vertex -1.0043 3.09093 0
    endloop
  endfacet
  facet normal 0 0 -1
    outer loop
      vertex -2.31395 6.99013 0
      vertex -1.0043 3.09093 0
      vertex -1.38378 2.94069 0
    endloop
  endfacet
  facet normal 0 0 -1
    outer loop
      vertex -2.93691 6.91144 0
      vertex -1.38378 2.94069 0
      vertex -1.74144 2.74407 0
    endloop
  endfacet
  facet normal 0 0 -1
    outer loop
      vertex -4.1289 6.52413 0
      vertex -1.74144 2.74407 0
      vertex -2.07163 2.50417 0
    endloop
  endfacet
  facet normal 0 0 -1
    outer loop
      vertex -0.204069 3.24359 0
      vertex -2.31395 6.99013 0
      vertex 2.31395 6.99013 0
    endloop
  endfacet
  facet normal 0 0 -1
    outer loop
      vertex -5.18712 5.85257 0
      vertex -2.07163 2.50417 0
      vertex -2.36915 2.22478 0
    endloop
  endfacet
  facet normal 0 0 -1
    outer loop
      vertex -6.04508 4.93893 0
      vertex -2.36915 2.22478 0
      vertex -2.6293 1.9103 0
    endloop
  endfacet
  facet normal 0 0 -1
    outer loop
      vertex -6.64888 3.84062 0
      vertex -2.6293 1.9103 0
      vertex -2.848 1.5657 0
    endloop
  endfacet
  facet normal 0 0 -1
    outer loop
      vertex -1.38378 2.94069 0
      vertex -2.93691 6.91144 0
      vertex -2.31395 6.99013 0
    endloop
  endfacet
  facet normal 0 0 -1
    outer loop
      vertex -6.96057 2.62667 0
      vertex -2.848 1.5657 0
      vertex -3.02177 1.1964 0
    endloop
  endfacet
  facet normal 0 0 -1
    outer loop
      vertex -7 2 0
      vertex -3.02177 1.1964 0
      vertex -3.14789 0.808242 0
    endloop
  endfacet
  facet normal 0 0 -1
    outer loop
      vertex -7 2 0
      vertex -3.14789 0.808242 0
      vertex -3.22437 0.407332 0
    endloop
  endfacet
  facet normal 0 0 -1
    outer loop
      vertex -7 2 0
      vertex -3.22437 0.407332 0
      vertex -3.25 0 0
    endloop
  endfacet
  facet normal 0 0 -1
    outer loop
      vertex -1.74144 2.74407 0
      vertex -3.54508 6.75528 0
      vertex -2.93691 6.91144 0
    endloop
  endfacet
  facet normal 0 0 -1
    outer loop
      vertex -6.38153 -4.40877 0
      vertex -2.6293 -1.9103 0
      vertex -6.04508 -4.93893 0
    endloop
  endfacet
  facet normal 0 0 -1
    outer loop
      vertex -6.64888 -3.84062 0
      vertex -2.6293 -1.9103 0
      vertex -6.38153 -4.40877 0
    endloop
  endfacet
  facet normal 0 0 -1
    outer loop
      vertex -7 2 0
      vertex -3.25 0 0
      vertex -7 -2 0
    endloop
  endfacet
  facet normal -0 0 -1
    outer loop
      vertex -2.6293 -1.9103 0
      vertex -6.64888 -3.84062 0
      vertex -2.848 -1.5657 0
    endloop
  endfacet
  facet normal 0 0 -1
    outer loop
      vertex -3.02177 1.1964 0
      vertex -7 2 0
      vertex -6.96057 2.62667 0
    endloop
  endfacet
  facet normal 0 0 -1
    outer loop
      vertex -6.84292 -3.24345 0
      vertex -2.848 -1.5657 0
      vertex -6.64888 -3.84062 0
    endloop
  endfacet
  facet normal 0 0 -1
    outer loop
      vertex -1.74144 2.74407 0
      vertex -4.1289 6.52413 0
      vertex -3.54508 6.75528 0
    endloop
  endfacet
  facet normal 0 0 -1
    outer loop
      vertex -6.96057 -2.62667 0
      vertex -2.848 -1.5657 0
      vertex -6.84292 -3.24345 0
    endloop
  endfacet
  facet normal 0 0 -1
    outer loop
      vertex -2.07163 2.50417 0
      vertex -4.67913 6.22164 0
      vertex -4.1289 6.52413 0
    endloop
  endfacet
  facet normal -0 0 -1
    outer loop
      vertex -2.848 -1.5657 0
      vertex -6.96057 -2.62667 0
      vertex -3.02177 -1.1964 0
    endloop
  endfacet
  facet normal 0 0 -1
    outer loop
      vertex -2.07163 2.50417 0
      vertex -5.18712 5.85257 0
      vertex -4.67913 6.22164 0
    endloop
  endfacet
  facet normal 0 0 -1
    outer loop
      vertex -7 -2 0
      vertex -3.02177 -1.1964 0
      vertex -6.96057 -2.62667 0
    endloop
  endfacet
  facet normal 0 0 -1
    outer loop
      vertex -2.36915 2.22478 0
      vertex -5.64484 5.42274 0
      vertex -5.18712 5.85257 0
    endloop
  endfacet
  facet normal -0 0 -1
    outer loop
      vertex -3.02177 -1.1964 0
      vertex -7 -2 0
      vertex -3.14789 -0.808242 0
    endloop
  endfacet
  facet normal 0 0 -1
    outer loop
      vertex -2.36915 2.22478 0
      vertex -6.04508 4.93893 0
      vertex -5.64484 5.42274 0
    endloop
  endfacet
  facet normal -0 0 -1
    outer loop
      vertex -3.14789 -0.808242 0
      vertex -7 -2 0
      vertex -3.22437 -0.407332 0
    endloop
  endfacet
  facet normal 0 0 -1
    outer loop
      vertex -2.6293 1.9103 0
      vertex -6.38153 4.40877 0
      vertex -6.04508 4.93893 0
    endloop
  endfacet
  facet normal -0 0 -1
    outer loop
      vertex -3.22437 -0.407332 0
      vertex -7 -2 0
      vertex -3.25 0 0
    endloop
  endfacet
  facet normal 0 0 -1
    outer loop
      vertex -2.6293 1.9103 0
      vertex -6.64888 3.84062 0
      vertex -6.38153 4.40877 0
    endloop
  endfacet
  facet normal 0 0 -1
    outer loop
      vertex -2.848 1.5657 0
      vertex -6.84292 3.24345 0
      vertex -6.64888 3.84062 0
    endloop
  endfacet
  facet normal 0 0 -1
    outer loop
      vertex -2.848 1.5657 0
      vertex -6.96057 2.62667 0
      vertex -6.84292 3.24345 0
    endloop
  endfacet
  facet normal -0.844328 -0.535827 0
    outer loop
      vertex -6.04508 -4.93893 0
      vertex -6.38153 -4.40877 9
      vertex -6.38153 -4.40877 0
    endloop
  endfacet
  facet normal -0.844328 -0.535827 0
    outer loop
      vertex -6.38153 -4.40877 9
      vertex -6.04508 -4.93893 0
      vertex -6.04508 -4.93893 9
    endloop
  endfacet
  facet normal -0.951053 -0.309028 0
    outer loop
      vertex -6.64888 -3.84062 0
      vertex -6.84292 -3.24345 9
      vertex -6.84292 -3.24345 0
    endloop
  endfacet
  facet normal -0.951053 -0.309028 0
    outer loop
      vertex -6.84292 -3.24345 9
      vertex -6.64888 -3.84062 0
      vertex -6.64888 -3.84062 9
    endloop
  endfacet
  facet normal 0.248703 -0.96858 0
    outer loop
      vertex 2.93691 -6.91144 0
      vertex 3.54508 -6.75528 9
      vertex 2.93691 -6.91144 9
    endloop
  endfacet
  facet normal 0.248703 -0.96858 0
    outer loop
      vertex 3.54508 -6.75528 9
      vertex 2.93691 -6.91144 0
      vertex 3.54508 -6.75528 0
    endloop
  endfacet
  facet normal 0.12532 -0.992116 0
    outer loop
      vertex 2.31395 -6.99013 0
      vertex 2.93691 -6.91144 9
      vertex 2.31395 -6.99013 9
    endloop
  endfacet
  facet normal 0.12532 -0.992116 0
    outer loop
      vertex 2.93691 -6.91144 9
      vertex 2.31395 -6.99013 0
      vertex 2.93691 -6.91144 0
    endloop
  endfacet
  facet normal -0.248703 -0.96858 0
    outer loop
      vertex -3.54508 -6.75528 0
      vertex -2.93691 -6.91144 9
      vertex -3.54508 -6.75528 9
    endloop
  endfacet
  facet normal -0.248703 -0.96858 -0
    outer loop
      vertex -2.93691 -6.91144 9
      vertex -3.54508 -6.75528 0
      vertex -2.93691 -6.91144 0
    endloop
  endfacet
  facet normal -0.12532 -0.992116 0
    outer loop
      vertex -2.93691 -6.91144 0
      vertex -2.31395 -6.99013 9
      vertex -2.93691 -6.91144 9
    endloop
  endfacet
  facet normal -0.12532 -0.992116 -0
    outer loop
      vertex -2.31395 -6.99013 9
      vertex -2.93691 -6.91144 0
      vertex -2.31395 -6.99013 0
    endloop
  endfacet
  facet normal -0.587779 -0.809022 0
    outer loop
      vertex -5.18712 -5.85257 0
      vertex -4.67913 -6.22164 9
      vertex -5.18712 -5.85257 9
    endloop
  endfacet
  facet normal -0.587779 -0.809022 -0
    outer loop
      vertex -4.67913 -6.22164 9
      vertex -5.18712 -5.85257 0
      vertex -4.67913 -6.22164 0
    endloop
  endfacet
  facet normal -0.481752 -0.876308 0
    outer loop
      vertex -4.67913 -6.22164 0
      vertex -4.1289 -6.52413 9
      vertex -4.67913 -6.22164 9
    endloop
  endfacet
  facet normal -0.481752 -0.876308 -0
    outer loop
      vertex -4.1289 -6.52413 9
      vertex -4.67913 -6.22164 0
      vertex -4.1289 -6.52413 0
    endloop
  endfacet
  facet normal 0.684549 -0.728967 -2.12241e-06
    outer loop
      vertex 5.18712 -5.85257 9
      vertex 5.5041 -5.5549 7.5
      vertex 5.64484 -5.42274 9
    endloop
  endfacet
  facet normal 0.684554 -0.728962 0
    outer loop
      vertex 5.18712 -5.85257 9
      vertex 5.5041 -5.5549 1.5
      vertex 5.5041 -5.5549 7.5
    endloop
  endfacet
  facet normal 0.684554 -0.728962 0
    outer loop
      vertex 5.18712 -5.85257 0
      vertex 5.5041 -5.5549 1.5
      vertex 5.18712 -5.85257 9
    endloop
  endfacet
  facet normal 0.684549 -0.728967 2.12241e-06
    outer loop
      vertex 5.64484 -5.42274 0
      vertex 5.5041 -5.5549 1.5
      vertex 5.18712 -5.85257 0
    endloop
  endfacet
  facet normal 0.684537 -0.728978 0
    outer loop
      vertex 5.5041 -5.5549 1.5
      vertex 5.64484 -5.42274 0
      vertex 5.64484 -5.42274 1.5
    endloop
  endfacet
  facet normal 0.684537 -0.728978 0
    outer loop
      vertex 5.64484 -5.42274 9
      vertex 5.5041 -5.5549 7.5
      vertex 5.64484 -5.42274 7.5
    endloop
  endfacet
  facet normal 0.587779 -0.809022 0
    outer loop
      vertex 4.67913 -6.22164 0
      vertex 5.18712 -5.85257 9
      vertex 4.67913 -6.22164 9
    endloop
  endfacet
  facet normal 0.587779 -0.809022 0
    outer loop
      vertex 5.18712 -5.85257 9
      vertex 4.67913 -6.22164 0
      vertex 5.18712 -5.85257 0
    endloop
  endfacet
  facet normal 0.844328 -0.535827 0
    outer loop
      vertex 6.04508 -4.93893 9
      vertex 6.38153 -4.40877 7.5
      vertex 6.38153 -4.40877 9
    endloop
  endfacet
  facet normal 0.844328 -0.535827 0
    outer loop
      vertex 6.38153 -4.40877 7.5
      vertex 6.04508 -4.93893 9
      vertex 6.04508 -4.93893 7.5
    endloop
  endfacet
  facet normal 0.844328 -0.535827 0
    outer loop
      vertex 6.04508 -4.93893 1.5
      vertex 6.38153 -4.40877 0
      vertex 6.38153 -4.40877 1.5
    endloop
  endfacet
  facet normal 0.844328 -0.535827 0
    outer loop
      vertex 6.38153 -4.40877 0
      vertex 6.04508 -4.93893 1.5
      vertex 6.04508 -4.93893 0
    endloop
  endfacet
  facet normal 0.904828 -0.425778 0
    outer loop
      vertex 6.38153 -4.40877 9
      vertex 6.64888 -3.84062 7.5
      vertex 6.64888 -3.84062 9
    endloop
  endfacet
  facet normal 0.904828 -0.425778 0
    outer loop
      vertex 6.64888 -3.84062 7.5
      vertex 6.38153 -4.40877 9
      vertex 6.38153 -4.40877 7.5
    endloop
  endfacet
  facet normal 0.904828 -0.425778 0
    outer loop
      vertex 6.38153 -4.40877 1.5
      vertex 6.64888 -3.84062 0
      vertex 6.64888 -3.84062 1.5
    endloop
  endfacet
  facet normal 0.904828 -0.425778 0
    outer loop
      vertex 6.64888 -3.84062 0
      vertex 6.38153 -4.40877 1.5
      vertex 6.38153 -4.40877 0
    endloop
  endfacet
  facet normal 0.982289 -0.18737 0
    outer loop
      vertex 6.84292 -3.24345 9
      vertex 6.96057 -2.62667 7.5
      vertex 6.96057 -2.62667 9
    endloop
  endfacet
  facet normal 0.982289 -0.18737 0
    outer loop
      vertex 6.96057 -2.62667 7.5
      vertex 6.84292 -3.24345 9
      vertex 6.84292 -3.24345 7.5
    endloop
  endfacet
  facet normal 0.998026 -0.0627957 0
    outer loop
      vertex 6.96057 -2.62667 9
      vertex 7 -2 7.5
      vertex 7 -2 9
    endloop
  endfacet
  facet normal 0.998026 -0.0627957 0
    outer loop
      vertex 7 -2 7.5
      vertex 6.96057 -2.62667 9
      vertex 6.96057 -2.62667 7.5
    endloop
  endfacet
  facet normal -0.844328 0.535827 0
    outer loop
      vertex -6.38153 4.40877 0
      vertex -6.04508 4.93893 9
      vertex -6.04508 4.93893 0
    endloop
  endfacet
  facet normal -0.844328 0.535827 0
    outer loop
      vertex -6.04508 4.93893 9
      vertex -6.38153 4.40877 0
      vertex -6.38153 4.40877 9
    endloop
  endfacet
  facet normal -0.998026 0.0627957 0
    outer loop
      vertex -7 2 0
      vertex -6.96057 2.62667 9
      vertex -6.96057 2.62667 0
    endloop
  endfacet
  facet normal -0.998026 0.0627957 0
    outer loop
      vertex -6.96057 2.62667 9
      vertex -7 2 0
      vertex -7 2 9
    endloop
  endfacet
  facet normal -0.684549 0.728967 0
    outer loop
      vertex -5.18712 5.85257 0
      vertex -5.64484 5.42274 9
      vertex -5.18712 5.85257 9
    endloop
  endfacet
  facet normal -0.684549 0.728967 0
    outer loop
      vertex -5.64484 5.42274 9
      vertex -5.18712 5.85257 0
      vertex -5.64484 5.42274 0
    endloop
  endfacet
  facet normal -0.12532 0.992116 0
    outer loop
      vertex -2.31395 6.99013 0
      vertex -2.93691 6.91144 9
      vertex -2.31395 6.99013 9
    endloop
  endfacet
  facet normal -0.12532 0.992116 0
    outer loop
      vertex -2.93691 6.91144 9
      vertex -2.31395 6.99013 0
      vertex -2.93691 6.91144 0
    endloop
  endfacet
  facet normal 0.951053 0.309028 0
    outer loop
      vertex 6.84292 3.24345 9
      vertex 6.64888 3.84062 7.5
      vertex 6.64888 3.84062 9
    endloop
  endfacet
  facet normal 0.951053 0.309028 0
    outer loop
      vertex 6.64888 3.84062 7.5
      vertex 6.84292 3.24345 9
      vertex 6.84292 3.24345 7.5
    endloop
  endfacet
  facet normal 0.951055 0.309022 0
    outer loop
      vertex 6.84287 3.24359 1.5
      vertex 6.64888 3.84062 0
      vertex 6.64888 3.84062 1.5
    endloop
  endfacet
  facet normal 0.951055 0.309022 0
    outer loop
      vertex 6.64888 3.84062 0
      vertex 6.84287 3.24359 1.5
      vertex 6.84287 3.24359 0
    endloop
  endfacet
  facet normal 0.982289 0.18737 0
    outer loop
      vertex 6.96057 2.62667 9
      vertex 6.84292 3.24345 7.5
      vertex 6.84292 3.24345 9
    endloop
  endfacet
  facet normal 0.982289 0.18737 0
    outer loop
      vertex 6.84292 3.24345 7.5
      vertex 6.96057 2.62667 9
      vertex 6.96057 2.62667 7.5
    endloop
  endfacet
  facet normal 0 1 -0
    outer loop
      vertex 2.31395 6.99013 0
      vertex -2.31395 6.99013 9
      vertex 2.31395 6.99013 9
    endloop
  endfacet
  facet normal 0 1 0
    outer loop
      vertex -2.31395 6.99013 9
      vertex 2.31395 6.99013 0
      vertex -2.31395 6.99013 0
    endloop
  endfacet
  facet normal 0.248703 0.96858 -0
    outer loop
      vertex 3.54508 6.75528 0
      vertex 2.93691 6.91144 9
      vertex 3.54508 6.75528 9
    endloop
  endfacet
  facet normal 0.248703 0.96858 0
    outer loop
      vertex 2.93691 6.91144 9
      vertex 3.54508 6.75528 0
      vertex 2.93691 6.91144 0
    endloop
  endfacet
  facet normal -0.904828 -0.425778 0
    outer loop
      vertex -6.38153 -4.40877 0
      vertex -6.64888 -3.84062 9
      vertex -6.64888 -3.84062 0
    endloop
  endfacet
  facet normal -0.904828 -0.425778 0
    outer loop
      vertex -6.64888 -3.84062 9
      vertex -6.38153 -4.40877 0
      vertex -6.38153 -4.40877 9
    endloop
  endfacet
  facet normal -0.982289 -0.18737 0
    outer loop
      vertex -6.84292 -3.24345 0
      vertex -6.96057 -2.62667 9
      vertex -6.96057 -2.62667 0
    endloop
  endfacet
  facet normal -0.982289 -0.18737 0
    outer loop
      vertex -6.96057 -2.62667 9
      vertex -6.84292 -3.24345 0
      vertex -6.84292 -3.24345 9
    endloop
  endfacet
  facet normal -0.998026 -0.0627957 0
    outer loop
      vertex -6.96057 -2.62667 0
      vertex -7 -2 9
      vertex -7 -2 0
    endloop
  endfacet
  facet normal -0.998026 -0.0627957 0
    outer loop
      vertex -7 -2 9
      vertex -6.96057 -2.62667 0
      vertex -6.96057 -2.62667 9
    endloop
  endfacet
  facet normal -0.684549 -0.728967 0
    outer loop
      vertex -5.64484 -5.42274 0
      vertex -5.18712 -5.85257 9
      vertex -5.64484 -5.42274 9
    endloop
  endfacet
  facet normal -0.684549 -0.728967 -0
    outer loop
      vertex -5.18712 -5.85257 9
      vertex -5.64484 -5.42274 0
      vertex -5.18712 -5.85257 0
    endloop
  endfacet
  facet normal 0.481752 -0.876308 0
    outer loop
      vertex 4.1289 -6.52413 0
      vertex 4.67913 -6.22164 9
      vertex 4.1289 -6.52413 9
    endloop
  endfacet
  facet normal 0.481752 -0.876308 0
    outer loop
      vertex 4.67913 -6.22164 9
      vertex 4.1289 -6.52413 0
      vertex 4.67913 -6.22164 0
    endloop
  endfacet
  facet normal 0.368124 -0.929777 0
    outer loop
      vertex 3.54508 -6.75528 0
      vertex 4.1289 -6.52413 9
      vertex 3.54508 -6.75528 9
    endloop
  endfacet
  facet normal 0.368124 -0.929777 0
    outer loop
      vertex 4.1289 -6.52413 9
      vertex 3.54508 -6.75528 0
      vertex 4.1289 -6.52413 0
    endloop
  endfacet
  facet normal -0.587779 0.809022 0
    outer loop
      vertex -4.67913 6.22164 0
      vertex -5.18712 5.85257 9
      vertex -4.67913 6.22164 9
    endloop
  endfacet
  facet normal -0.587779 0.809022 0
    outer loop
      vertex -5.18712 5.85257 9
      vertex -4.67913 6.22164 0
      vertex -5.18712 5.85257 0
    endloop
  endfacet
  facet normal -0.481752 0.876308 0
    outer loop
      vertex -4.1289 6.52413 0
      vertex -4.67913 6.22164 9
      vertex -4.1289 6.52413 9
    endloop
  endfacet
  facet normal -0.481752 0.876308 0
    outer loop
      vertex -4.67913 6.22164 9
      vertex -4.1289 6.52413 0
      vertex -4.67913 6.22164 0
    endloop
  endfacet
  facet normal 0.587779 0.809022 -0
    outer loop
      vertex 5.18712 5.85257 0
      vertex 4.67913 6.22164 9
      vertex 5.18712 5.85257 9
    endloop
  endfacet
  facet normal 0.587779 0.809022 0
    outer loop
      vertex 4.67913 6.22164 9
      vertex 5.18712 5.85257 0
      vertex 4.67913 6.22164 0
    endloop
  endfacet
  facet normal 0.904828 0.425778 0
    outer loop
      vertex 6.64888 3.84062 1.5
      vertex 6.38153 4.40877 0
      vertex 6.38153 4.40877 1.5
    endloop
  endfacet
  facet normal 0.904828 0.425778 0
    outer loop
      vertex 6.38153 4.40877 0
      vertex 6.64888 3.84062 1.5
      vertex 6.64888 3.84062 0
    endloop
  endfacet
  facet normal 0.904828 0.425778 0
    outer loop
      vertex 6.64888 3.84062 9
      vertex 6.38153 4.40877 7.5
      vertex 6.38153 4.40877 9
    endloop
  endfacet
  facet normal 0.904828 0.425778 0
    outer loop
      vertex 6.38153 4.40877 7.5
      vertex 6.64888 3.84062 9
      vertex 6.64888 3.84062 7.5
    endloop
  endfacet
  facet normal 0.12532 0.992116 -0
    outer loop
      vertex 2.93691 6.91144 0
      vertex 2.31395 6.99013 9
      vertex 2.93691 6.91144 9
    endloop
  endfacet
  facet normal 0.12532 0.992116 0
    outer loop
      vertex 2.31395 6.99013 9
      vertex 2.93691 6.91144 0
      vertex 2.31395 6.99013 0
    endloop
  endfacet
  facet normal 0.481752 0.876308 -0
    outer loop
      vertex 4.67913 6.22164 0
      vertex 4.1289 6.52413 9
      vertex 4.67913 6.22164 9
    endloop
  endfacet
  facet normal 0.481752 0.876308 0
    outer loop
      vertex 4.1289 6.52413 9
      vertex 4.67913 6.22164 0
      vertex 4.1289 6.52413 0
    endloop
  endfacet
  facet normal 0.684537 0.728978 0
    outer loop
      vertex 5.64484 5.42274 1.5
      vertex 5.64484 5.42274 0
      vertex 5.5041 5.5549 1.5
    endloop
  endfacet
  facet normal 0.684537 0.728978 0
    outer loop
      vertex 5.5041 5.5549 7.5
      vertex 5.64484 5.42274 9
      vertex 5.64484 5.42274 7.5
    endloop
  endfacet
  facet normal 0.684549 0.728967 -2.12241e-06
    outer loop
      vertex 5.64484 5.42274 9
      vertex 5.5041 5.5549 7.5
      vertex 5.18712 5.85257 9
    endloop
  endfacet
  facet normal 0.684554 0.728962 -0
    outer loop
      vertex 5.5041 5.5549 1.5
      vertex 5.18712 5.85257 9
      vertex 5.5041 5.5549 7.5
    endloop
  endfacet
  facet normal 0.684554 0.728962 0
    outer loop
      vertex 5.5041 5.5549 1.5
      vertex 5.18712 5.85257 0
      vertex 5.18712 5.85257 9
    endloop
  endfacet
  facet normal 0.684549 0.728967 2.12241e-06
    outer loop
      vertex 5.18712 5.85257 0
      vertex 5.5041 5.5549 1.5
      vertex 5.64484 5.42274 0
    endloop
  endfacet
  facet normal 0.770515 0.637422 0
    outer loop
      vertex 6.04508 4.93893 1.5
      vertex 5.64484 5.42274 0
      vertex 5.64484 5.42274 1.5
    endloop
  endfacet
  facet normal 0.770515 0.637422 0
    outer loop
      vertex 5.64484 5.42274 0
      vertex 6.04508 4.93893 1.5
      vertex 6.04508 4.93893 0
    endloop
  endfacet
  facet normal 0.770515 0.637422 0
    outer loop
      vertex 6.04508 4.93893 9
      vertex 5.64484 5.42274 7.5
      vertex 5.64484 5.42274 9
    endloop
  endfacet
  facet normal 0.770515 0.637422 0
    outer loop
      vertex 5.64484 5.42274 7.5
      vertex 6.04508 4.93893 9
      vertex 6.04508 4.93893 7.5
    endloop
  endfacet
endsolid OpenSCAD_Model
