solid OpenSCAD_Model
  facet normal 0 1 -0
    outer loop
      vertex 2.89462 -5.01363 0
      vertex -2.89462 -5.01363 4.75
      vertex 2.89462 -5.01363 4.75
    endloop
  endfacet
  facet normal 0 1 0
    outer loop
      vertex -2.89462 -5.01363 4.75
      vertex 2.89462 -5.01363 0
      vertex -2.89462 -5.01363 0
    endloop
  endfacet
  facet normal 0 0 -1
    outer loop
      vertex 2.89462 -5.01363 0
      vertex 10 -5 0
      vertex 9.96057 -5.62667 0
    endloop
  endfacet
  facet normal 0 0 -1
    outer loop
      vertex 10 -5 0
      vertex 5.78925 0 0
      vertex 10 5 0
    endloop
  endfacet
  facet normal 0 0 -1
    outer loop
      vertex 2.89462 -5.01363 0
      vertex 9.96057 -5.62667 0
      vertex 9.84292 -6.24345 0
    endloop
  endfacet
  facet normal 0 0 -1
    outer loop
      vertex 2.89462 5.01363 0
      vertex 10 5 0
      vertex 5.78925 0 0
    endloop
  endfacet
  facet normal 0 0 -1
    outer loop
      vertex 2.89462 -5.01363 0
      vertex 9.84292 -6.24345 0
      vertex 9.64888 -6.84062 0
    endloop
  endfacet
  facet normal 0 0 -1
    outer loop
      vertex 10 5 0
      vertex 2.89462 5.01363 0
      vertex 9.96057 5.62667 0
    endloop
  endfacet
  facet normal 0 0 -1
    outer loop
      vertex 2.89462 -5.01363 0
      vertex 9.64888 -6.84062 0
      vertex 9.38153 -7.40877 0
    endloop
  endfacet
  facet normal -0 0 -1
    outer loop
      vertex 9.96057 5.62667 0
      vertex 2.89462 5.01363 0
      vertex 9.84292 6.24345 0
    endloop
  endfacet
  facet normal 0 0 -1
    outer loop
      vertex 2.89462 -5.01363 0
      vertex 9.38153 -7.40877 0
      vertex 9.04508 -7.93893 0
    endloop
  endfacet
  facet normal -0 0 -1
    outer loop
      vertex 9.84292 6.24345 0
      vertex 2.89462 5.01363 0
      vertex 9.64888 6.84062 0
    endloop
  endfacet
  facet normal 0 0 -1
    outer loop
      vertex 2.89462 -5.01363 0
      vertex 9.04508 -7.93893 0
      vertex 8.64484 -8.42274 0
    endloop
  endfacet
  facet normal -0 0 -1
    outer loop
      vertex 9.64888 6.84062 0
      vertex 2.89462 5.01363 0
      vertex 9.38153 7.40877 0
    endloop
  endfacet
  facet normal 0 0 -1
    outer loop
      vertex 2.89462 -5.01363 0
      vertex 8.64484 -8.42274 0
      vertex 8.18712 -8.85257 0
    endloop
  endfacet
  facet normal -0 0 -1
    outer loop
      vertex 9.38153 7.40877 0
      vertex 2.89462 5.01363 0
      vertex 9.04508 7.93893 0
    endloop
  endfacet
  facet normal 0 0 -1
    outer loop
      vertex 2.89462 -5.01363 0
      vertex 8.18712 -8.85257 0
      vertex 7.67913 -9.22164 0
    endloop
  endfacet
  facet normal -0 0 -1
    outer loop
      vertex 9.04508 7.93893 0
      vertex 2.89462 5.01363 0
      vertex 8.64484 8.42274 0
    endloop
  endfacet
  facet normal 0 0 -1
    outer loop
      vertex 2.89462 -5.01363 0
      vertex 7.67913 -9.22164 0
      vertex 7.1289 -9.52413 0
    endloop
  endfacet
  facet normal -0 0 -1
    outer loop
      vertex 8.64484 8.42274 0
      vertex 2.89462 5.01363 0
      vertex 8.18712 8.85257 0
    endloop
  endfacet
  facet normal 0 0 -1
    outer loop
      vertex 2.89462 -5.01363 0
      vertex 7.1289 -9.52413 0
      vertex 6.54508 -9.75528 0
    endloop
  endfacet
  facet normal -0 0 -1
    outer loop
      vertex 8.18712 8.85257 0
      vertex 2.89462 5.01363 0
      vertex 7.67913 9.22164 0
    endloop
  endfacet
  facet normal 0 0 -1
    outer loop
      vertex 2.89462 -5.01363 0
      vertex 6.54508 -9.75528 0
      vertex 5.93691 -9.91144 0
    endloop
  endfacet
  facet normal -0 0 -1
    outer loop
      vertex 7.67913 9.22164 0
      vertex 2.89462 5.01363 0
      vertex 7.1289 9.52413 0
    endloop
  endfacet
  facet normal -0 0 -1
    outer loop
      vertex 7.1289 9.52413 0
      vertex 2.89462 5.01363 0
      vertex 6.54508 9.75528 0
    endloop
  endfacet
  facet normal 0 0 -1
    outer loop
      vertex 2.89462 -5.01363 0
      vertex 5.93691 -9.91144 0
      vertex 5.31395 -9.99013 0
    endloop
  endfacet
  facet normal -0 0 -1
    outer loop
      vertex 10 -5 0
      vertex 2.89462 -5.01363 0
      vertex 5.78925 0 0
    endloop
  endfacet
  facet normal 0 0 -1
    outer loop
      vertex 5.31395 -9.99013 0
      vertex -2.89462 -5.01363 0
      vertex 2.89462 -5.01363 0
    endloop
  endfacet
  facet normal 0 0 -1
    outer loop
      vertex -5.31395 -9.99013 0
      vertex -2.89462 -5.01363 0
      vertex 5.31395 -9.99013 0
    endloop
  endfacet
  facet normal 0 0 -1
    outer loop
      vertex -5.93691 -9.91144 0
      vertex -2.89462 -5.01363 0
      vertex -5.31395 -9.99013 0
    endloop
  endfacet
  facet normal 0 0 -1
    outer loop
      vertex -6.54508 -9.75528 0
      vertex -2.89462 -5.01363 0
      vertex -5.93691 -9.91144 0
    endloop
  endfacet
  facet normal -0 0 -1
    outer loop
      vertex 6.54508 9.75528 0
      vertex 2.89462 5.01363 0
      vertex 5.93691 9.91144 0
    endloop
  endfacet
  facet normal -0 0 -1
    outer loop
      vertex 5.93691 9.91144 0
      vertex 2.89462 5.01363 0
      vertex 5.31395 9.99013 0
    endloop
  endfacet
  facet normal 0 0 -1
    outer loop
      vertex -2.89462 5.01363 0
      vertex 5.31395 9.99013 0
      vertex 2.89462 5.01363 0
    endloop
  endfacet
  facet normal 0 0 -1
    outer loop
      vertex -2.89462 5.01363 0
      vertex -5.31395 9.99013 0
      vertex 5.31395 9.99013 0
    endloop
  endfacet
  facet normal 0 0 -1
    outer loop
      vertex -10 5 0
      vertex -2.89462 5.01363 0
      vertex -5.78925 0 0
    endloop
  endfacet
  facet normal 0 0 -1
    outer loop
      vertex -2.89462 5.01363 0
      vertex -5.93691 9.91144 0
      vertex -5.31395 9.99013 0
    endloop
  endfacet
  facet normal 0 0 -1
    outer loop
      vertex -2.89462 -5.01363 0
      vertex -10 -5 0
      vertex -5.78925 0 0
    endloop
  endfacet
  facet normal 0 0 -1
    outer loop
      vertex -7.1289 -9.52413 0
      vertex -2.89462 -5.01363 0
      vertex -6.54508 -9.75528 0
    endloop
  endfacet
  facet normal 0 0 -1
    outer loop
      vertex -10 5 0
      vertex -5.78925 0 0
      vertex -10 -5 0
    endloop
  endfacet
  facet normal 0 0 -1
    outer loop
      vertex -7.67913 -9.22164 0
      vertex -2.89462 -5.01363 0
      vertex -7.1289 -9.52413 0
    endloop
  endfacet
  facet normal 0 -0 -1
    outer loop
      vertex -9.96057 5.62667 0
      vertex -2.89462 5.01363 0
      vertex -10 5 0
    endloop
  endfacet
  facet normal 0 0 -1
    outer loop
      vertex -8.18712 -8.85257 0
      vertex -2.89462 -5.01363 0
      vertex -7.67913 -9.22164 0
    endloop
  endfacet
  facet normal 0 0 -1
    outer loop
      vertex -2.89462 5.01363 0
      vertex -6.54508 9.75528 0
      vertex -5.93691 9.91144 0
    endloop
  endfacet
  facet normal 0 0 -1
    outer loop
      vertex -8.64484 -8.42274 0
      vertex -2.89462 -5.01363 0
      vertex -8.18712 -8.85257 0
    endloop
  endfacet
  facet normal 0 0 -1
    outer loop
      vertex -2.89462 5.01363 0
      vertex -7.1289 9.52413 0
      vertex -6.54508 9.75528 0
    endloop
  endfacet
  facet normal 0 0 -1
    outer loop
      vertex -9.04508 -7.93893 0
      vertex -2.89462 -5.01363 0
      vertex -8.64484 -8.42274 0
    endloop
  endfacet
  facet normal 0 0 -1
    outer loop
      vertex -2.89462 5.01363 0
      vertex -7.67913 9.22164 0
      vertex -7.1289 9.52413 0
    endloop
  endfacet
  facet normal 0 0 -1
    outer loop
      vertex -9.38153 -7.40877 0
      vertex -2.89462 -5.01363 0
      vertex -9.04508 -7.93893 0
    endloop
  endfacet
  facet normal 0 0 -1
    outer loop
      vertex -2.89462 5.01363 0
      vertex -8.18712 8.85257 0
      vertex -7.67913 9.22164 0
    endloop
  endfacet
  facet normal 0 0 -1
    outer loop
      vertex -9.64888 -6.84062 0
      vertex -2.89462 -5.01363 0
      vertex -9.38153 -7.40877 0
    endloop
  endfacet
  facet normal 0 0 -1
    outer loop
      vertex -2.89462 5.01363 0
      vertex -8.64484 8.42274 0
      vertex -8.18712 8.85257 0
    endloop
  endfacet
  facet normal 0 0 -1
    outer loop
      vertex -9.84292 -6.24345 0
      vertex -2.89462 -5.01363 0
      vertex -9.64888 -6.84062 0
    endloop
  endfacet
  facet normal 0 0 -1
    outer loop
      vertex -2.89462 5.01363 0
      vertex -9.04508 7.93893 0
      vertex -8.64484 8.42274 0
    endloop
  endfacet
  facet normal 0 0 -1
    outer loop
      vertex -9.96057 -5.62667 0
      vertex -2.89462 -5.01363 0
      vertex -9.84292 -6.24345 0
    endloop
  endfacet
  facet normal 0 0 -1
    outer loop
      vertex -2.89462 5.01363 0
      vertex -9.38153 7.40877 0
      vertex -9.04508 7.93893 0
    endloop
  endfacet
  facet normal -0 0 -1
    outer loop
      vertex -2.89462 -5.01363 0
      vertex -9.96057 -5.62667 0
      vertex -10 -5 0
    endloop
  endfacet
  facet normal 0 0 -1
    outer loop
      vertex -2.89462 5.01363 0
      vertex -9.64888 6.84062 0
      vertex -9.38153 7.40877 0
    endloop
  endfacet
  facet normal 0 0 -1
    outer loop
      vertex -2.89462 5.01363 0
      vertex -9.84292 6.24345 0
      vertex -9.64888 6.84062 0
    endloop
  endfacet
  facet normal 0 0 -1
    outer loop
      vertex -2.89462 5.01363 0
      vertex -9.96057 5.62667 0
      vertex -9.84292 6.24345 0
    endloop
  endfacet
  facet normal -0.866025 0.500001 0
    outer loop
      vertex 2.89462 -5.01363 0
      vertex 5.78925 0 4.75
      vertex 5.78925 0 0
    endloop
  endfacet
  facet normal -0.866025 0.500001 0
    outer loop
      vertex 5.78925 0 4.75
      vertex 2.89462 -5.01363 0
      vertex 2.89462 -5.01363 4.75
    endloop
  endfacet
  facet normal -0.866025 -0.500001 0
    outer loop
      vertex 5.78925 0 0
      vertex 2.89462 5.01363 4.75
      vertex 2.89462 5.01363 0
    endloop
  endfacet
  facet normal -0.866025 -0.500001 0
    outer loop
      vertex 2.89462 5.01363 4.75
      vertex 5.78925 0 0
      vertex 5.78925 0 4.75
    endloop
  endfacet
  facet normal 0.866025 0.500001 0
    outer loop
      vertex -2.89462 -5.01363 4.75
      vertex -5.78925 0 0
      vertex -5.78925 0 4.75
    endloop
  endfacet
  facet normal 0.866025 0.500001 0
    outer loop
      vertex -5.78925 0 0
      vertex -2.89462 -5.01363 4.75
      vertex -2.89462 -5.01363 0
    endloop
  endfacet
  facet normal 0 0 -1
    outer loop
      vertex 2.89462 -5.01363 4.75
      vertex 2.89462 5.01363 4.75
      vertex 5.78925 0 4.75
    endloop
  endfacet
  facet normal 0 0 -1
    outer loop
      vertex -2.89462 -5.01363 4.75
      vertex 2.89462 5.01363 4.75
      vertex 2.89462 -5.01363 4.75
    endloop
  endfacet
  facet normal 0 0 -1
    outer loop
      vertex -2.89462 -5.01363 4.75
      vertex -2.89462 5.01363 4.75
      vertex 2.89462 5.01363 4.75
    endloop
  endfacet
  facet normal 0 -0 -1
    outer loop
      vertex -2.89462 5.01363 4.75
      vertex -2.89462 -5.01363 4.75
      vertex -5.78925 0 4.75
    endloop
  endfacet
  facet normal 0.866025 -0.500001 0
    outer loop
      vertex -5.78925 0 4.75
      vertex -2.89462 5.01363 0
      vertex -2.89462 5.01363 4.75
    endloop
  endfacet
  facet normal 0.866025 -0.500001 0
    outer loop
      vertex -2.89462 5.01363 0
      vertex -5.78925 0 4.75
      vertex -5.78925 0 0
    endloop
  endfacet
  facet normal 0 -1 0
    outer loop
      vertex -2.89462 5.01363 0
      vertex 2.89462 5.01363 4.75
      vertex -2.89462 5.01363 4.75
    endloop
  endfacet
  facet normal 0 -1 -0
    outer loop
      vertex 2.89462 5.01363 4.75
      vertex -2.89462 5.01363 0
      vertex 2.89462 5.01363 0
    endloop
  endfacet
  facet normal -1 0 0
    outer loop
      vertex -10 -5 0
      vertex -10 5 9
      vertex -10 5 0
    endloop
  endfacet
  facet normal -1 -0 0
    outer loop
      vertex -10 5 9
      vertex -10 -5 0
      vertex -10 -5 9
    endloop
  endfacet
  facet normal 0 0 1
    outer loop
      vertex 5.31395 9.99013 9
      vertex 10 5 9
      vertex 9.96057 5.62667 9
    endloop
  endfacet
  facet normal 0 0 1
    outer loop
      vertex -10 5 9
      vertex 10 5 9
      vertex 5.31395 9.99013 9
    endloop
  endfacet
  facet normal 0 0 1
    outer loop
      vertex 5.31395 9.99013 9
      vertex 9.96057 5.62667 9
      vertex 9.84292 6.24345 9
    endloop
  endfacet
  facet normal 0 0 1
    outer loop
      vertex 10 5 9
      vertex -10 5 9
      vertex 10 -5 9
    endloop
  endfacet
  facet normal 0 0 1
    outer loop
      vertex 5.31395 9.99013 9
      vertex 9.84292 6.24345 9
      vertex 9.64888 6.84062 9
    endloop
  endfacet
  facet normal 0 0 1
    outer loop
      vertex 10 -5 9
      vertex 5.31395 -9.99013 9
      vertex 9.96057 -5.62667 9
    endloop
  endfacet
  facet normal 0 0 1
    outer loop
      vertex 5.31395 9.99013 9
      vertex 9.64888 6.84062 9
      vertex 9.38153 7.40877 9
    endloop
  endfacet
  facet normal 0 0 1
    outer loop
      vertex 9.96057 -5.62667 9
      vertex 5.31395 -9.99013 9
      vertex 9.84292 -6.24345 9
    endloop
  endfacet
  facet normal 0 0 1
    outer loop
      vertex 5.31395 9.99013 9
      vertex 9.38153 7.40877 9
      vertex 9.04508 7.93893 9
    endloop
  endfacet
  facet normal 0 0 1
    outer loop
      vertex 9.84292 -6.24345 9
      vertex 5.31395 -9.99013 9
      vertex 9.64888 -6.84062 9
    endloop
  endfacet
  facet normal 0 0 1
    outer loop
      vertex 5.31395 9.99013 9
      vertex 9.04508 7.93893 9
      vertex 8.64484 8.42274 9
    endloop
  endfacet
  facet normal 0 0 1
    outer loop
      vertex 9.64888 -6.84062 9
      vertex 5.31395 -9.99013 9
      vertex 9.38153 -7.40877 9
    endloop
  endfacet
  facet normal 0 0 1
    outer loop
      vertex 5.31395 9.99013 9
      vertex 8.64484 8.42274 9
      vertex 8.18712 8.85257 9
    endloop
  endfacet
  facet normal 0 0 1
    outer loop
      vertex 9.38153 -7.40877 9
      vertex 5.31395 -9.99013 9
      vertex 9.04508 -7.93893 9
    endloop
  endfacet
  facet normal 0 0 1
    outer loop
      vertex 5.31395 9.99013 9
      vertex 8.18712 8.85257 9
      vertex 7.67913 9.22164 9
    endloop
  endfacet
  facet normal 0 0 1
    outer loop
      vertex 9.04508 -7.93893 9
      vertex 5.31395 -9.99013 9
      vertex 8.64484 -8.42274 9
    endloop
  endfacet
  facet normal 0 0 1
    outer loop
      vertex 5.31395 9.99013 9
      vertex 7.67913 9.22164 9
      vertex 7.1289 9.52413 9
    endloop
  endfacet
  facet normal 0 0 1
    outer loop
      vertex 8.64484 -8.42274 9
      vertex 5.31395 -9.99013 9
      vertex 8.18712 -8.85257 9
    endloop
  endfacet
  facet normal 0 0 1
    outer loop
      vertex 5.31395 9.99013 9
      vertex 7.1289 9.52413 9
      vertex 6.54508 9.75528 9
    endloop
  endfacet
  facet normal 0 0 1
    outer loop
      vertex 8.18712 -8.85257 9
      vertex 5.31395 -9.99013 9
      vertex 7.67913 -9.22164 9
    endloop
  endfacet
  facet normal 0 0 1
    outer loop
      vertex 5.31395 9.99013 9
      vertex 6.54508 9.75528 9
      vertex 5.93691 9.91144 9
    endloop
  endfacet
  facet normal 0 0 1
    outer loop
      vertex 7.67913 -9.22164 9
      vertex 5.31395 -9.99013 9
      vertex 7.1289 -9.52413 9
    endloop
  endfacet
  facet normal 0 0 1
    outer loop
      vertex 7.1289 -9.52413 9
      vertex 5.31395 -9.99013 9
      vertex 6.54508 -9.75528 9
    endloop
  endfacet
  facet normal 0 0 1
    outer loop
      vertex 6.54508 -9.75528 9
      vertex 5.31395 -9.99013 9
      vertex 5.93691 -9.91144 9
    endloop
  endfacet
  facet normal 0 0 1
    outer loop
      vertex -10 5 9
      vertex 5.31395 9.99013 9
      vertex -5.31395 9.99013 9
    endloop
  endfacet
  facet normal 0 0 1
    outer loop
      vertex -10 -5 9
      vertex 10 -5 9
      vertex -10 5 9
    endloop
  endfacet
  facet normal 0 0 1
    outer loop
      vertex -10 5 9
      vertex -5.31395 9.99013 9
      vertex -5.93691 9.91144 9
    endloop
  endfacet
  facet normal 0 0 1
    outer loop
      vertex 10 -5 9
      vertex -10 -5 9
      vertex 5.31395 -9.99013 9
    endloop
  endfacet
  facet normal 0 0 1
    outer loop
      vertex -10 5 9
      vertex -5.93691 9.91144 9
      vertex -6.54508 9.75528 9
    endloop
  endfacet
  facet normal 0 0 1
    outer loop
      vertex 5.31395 -9.99013 9
      vertex -10 -5 9
      vertex -5.31395 -9.99013 9
    endloop
  endfacet
  facet normal 0 0 1
    outer loop
      vertex -10 5 9
      vertex -6.54508 9.75528 9
      vertex -7.1289 9.52413 9
    endloop
  endfacet
  facet normal 0 0 1
    outer loop
      vertex -5.31395 -9.99013 9
      vertex -10 -5 9
      vertex -5.93691 -9.91144 9
    endloop
  endfacet
  facet normal 0 0 1
    outer loop
      vertex -10 5 9
      vertex -7.1289 9.52413 9
      vertex -7.67913 9.22164 9
    endloop
  endfacet
  facet normal 0 0 1
    outer loop
      vertex -5.93691 -9.91144 9
      vertex -10 -5 9
      vertex -6.54508 -9.75528 9
    endloop
  endfacet
  facet normal 0 0 1
    outer loop
      vertex -10 5 9
      vertex -7.67913 9.22164 9
      vertex -8.18712 8.85257 9
    endloop
  endfacet
  facet normal 0 0 1
    outer loop
      vertex -6.54508 -9.75528 9
      vertex -10 -5 9
      vertex -7.1289 -9.52413 9
    endloop
  endfacet
  facet normal 0 0 1
    outer loop
      vertex -10 5 9
      vertex -8.18712 8.85257 9
      vertex -8.64484 8.42274 9
    endloop
  endfacet
  facet normal 0 0 1
    outer loop
      vertex -7.1289 -9.52413 9
      vertex -10 -5 9
      vertex -7.67913 -9.22164 9
    endloop
  endfacet
  facet normal 0 0 1
    outer loop
      vertex -10 5 9
      vertex -8.64484 8.42274 9
      vertex -9.04508 7.93893 9
    endloop
  endfacet
  facet normal 0 0 1
    outer loop
      vertex -7.67913 -9.22164 9
      vertex -10 -5 9
      vertex -8.18712 -8.85257 9
    endloop
  endfacet
  facet normal 0 0 1
    outer loop
      vertex -10 5 9
      vertex -9.04508 7.93893 9
      vertex -9.38153 7.40877 9
    endloop
  endfacet
  facet normal 0 0 1
    outer loop
      vertex -8.18712 -8.85257 9
      vertex -10 -5 9
      vertex -8.64484 -8.42274 9
    endloop
  endfacet
  facet normal 0 0 1
    outer loop
      vertex -10 5 9
      vertex -9.38153 7.40877 9
      vertex -9.64888 6.84062 9
    endloop
  endfacet
  facet normal 0 0 1
    outer loop
      vertex -8.64484 -8.42274 9
      vertex -10 -5 9
      vertex -9.04508 -7.93893 9
    endloop
  endfacet
  facet normal 0 0 1
    outer loop
      vertex -10 5 9
      vertex -9.64888 6.84062 9
      vertex -9.84292 6.24345 9
    endloop
  endfacet
  facet normal 0 0 1
    outer loop
      vertex -9.04508 -7.93893 9
      vertex -10 -5 9
      vertex -9.38153 -7.40877 9
    endloop
  endfacet
  facet normal 0 0 1
    outer loop
      vertex -10 5 9
      vertex -9.84292 6.24345 9
      vertex -9.96057 5.62667 9
    endloop
  endfacet
  facet normal 0 0 1
    outer loop
      vertex -9.38153 -7.40877 9
      vertex -10 -5 9
      vertex -9.64888 -6.84062 9
    endloop
  endfacet
  facet normal 0 0 1
    outer loop
      vertex -9.64888 -6.84062 9
      vertex -10 -5 9
      vertex -9.84292 -6.24345 9
    endloop
  endfacet
  facet normal 0 0 1
    outer loop
      vertex -9.84292 -6.24345 9
      vertex -10 -5 9
      vertex -9.96057 -5.62667 9
    endloop
  endfacet
  facet normal -0.951053 0.309028 0
    outer loop
      vertex -9.84292 6.24345 0
      vertex -9.64888 6.84062 9
      vertex -9.64888 6.84062 0
    endloop
  endfacet
  facet normal -0.951053 0.309028 0
    outer loop
      vertex -9.64888 6.84062 9
      vertex -9.84292 6.24345 0
      vertex -9.84292 6.24345 9
    endloop
  endfacet
  facet normal -0.248703 -0.96858 0
    outer loop
      vertex -6.54508 -9.75528 0
      vertex -5.93691 -9.91144 9
      vertex -6.54508 -9.75528 9
    endloop
  endfacet
  facet normal -0.248703 -0.96858 -0
    outer loop
      vertex -5.93691 -9.91144 9
      vertex -6.54508 -9.75528 0
      vertex -5.93691 -9.91144 0
    endloop
  endfacet
  facet normal 0 1 -0
    outer loop
      vertex 5.31395 9.99013 0
      vertex -5.31395 9.99013 9
      vertex 5.31395 9.99013 9
    endloop
  endfacet
  facet normal 0 1 0
    outer loop
      vertex -5.31395 9.99013 9
      vertex 5.31395 9.99013 0
      vertex -5.31395 9.99013 0
    endloop
  endfacet
  facet normal -0.368124 0.929777 0
    outer loop
      vertex -6.54508 9.75528 0
      vertex -7.1289 9.52413 9
      vertex -6.54508 9.75528 9
    endloop
  endfacet
  facet normal -0.368124 0.929777 0
    outer loop
      vertex -7.1289 9.52413 9
      vertex -6.54508 9.75528 0
      vertex -7.1289 9.52413 0
    endloop
  endfacet
  facet normal -0.982289 0.18737 0
    outer loop
      vertex -9.96057 5.62667 0
      vertex -9.84292 6.24345 9
      vertex -9.84292 6.24345 0
    endloop
  endfacet
  facet normal -0.982289 0.18737 0
    outer loop
      vertex -9.84292 6.24345 9
      vertex -9.96057 5.62667 0
      vertex -9.96057 5.62667 9
    endloop
  endfacet
  facet normal 1 -0 0
    outer loop
      vertex 10 -5 9
      vertex 10 5 0
      vertex 10 5 9
    endloop
  endfacet
  facet normal 1 0 0
    outer loop
      vertex 10 5 0
      vertex 10 -5 9
      vertex 10 -5 0
    endloop
  endfacet
  facet normal 0.12532 0.992116 -0
    outer loop
      vertex 5.93691 9.91144 0
      vertex 5.31395 9.99013 9
      vertex 5.93691 9.91144 9
    endloop
  endfacet
  facet normal 0.12532 0.992116 0
    outer loop
      vertex 5.31395 9.99013 9
      vertex 5.93691 9.91144 0
      vertex 5.31395 9.99013 0
    endloop
  endfacet
  facet normal 0.684549 0.728967 -0
    outer loop
      vertex 8.64484 8.42274 0
      vertex 8.18712 8.85257 9
      vertex 8.64484 8.42274 9
    endloop
  endfacet
  facet normal 0.684549 0.728967 0
    outer loop
      vertex 8.18712 8.85257 9
      vertex 8.64484 8.42274 0
      vertex 8.18712 8.85257 0
    endloop
  endfacet
  facet normal -0.770515 0.637422 0
    outer loop
      vertex -9.04508 7.93893 0
      vertex -8.64484 8.42274 9
      vertex -8.64484 8.42274 0
    endloop
  endfacet
  facet normal -0.770515 0.637422 0
    outer loop
      vertex -8.64484 8.42274 9
      vertex -9.04508 7.93893 0
      vertex -9.04508 7.93893 9
    endloop
  endfacet
  facet normal -0.248703 0.96858 0
    outer loop
      vertex -5.93691 9.91144 0
      vertex -6.54508 9.75528 9
      vertex -5.93691 9.91144 9
    endloop
  endfacet
  facet normal -0.248703 0.96858 0
    outer loop
      vertex -6.54508 9.75528 9
      vertex -5.93691 9.91144 0
      vertex -6.54508 9.75528 0
    endloop
  endfacet
  facet normal -0.998026 -0.0627957 0
    outer loop
      vertex -9.96057 -5.62667 0
      vertex -10 -5 9
      vertex -10 -5 0
    endloop
  endfacet
  facet normal -0.998026 -0.0627957 0
    outer loop
      vertex -10 -5 9
      vertex -9.96057 -5.62667 0
      vertex -9.96057 -5.62667 9
    endloop
  endfacet
  facet normal 0 -1 0
    outer loop
      vertex -5.31395 -9.99013 0
      vertex 5.31395 -9.99013 9
      vertex -5.31395 -9.99013 9
    endloop
  endfacet
  facet normal 0 -1 -0
    outer loop
      vertex 5.31395 -9.99013 9
      vertex -5.31395 -9.99013 0
      vertex 5.31395 -9.99013 0
    endloop
  endfacet
  facet normal 0.982289 -0.18737 0
    outer loop
      vertex 9.84292 -6.24345 9
      vertex 9.96057 -5.62667 0
      vertex 9.96057 -5.62667 9
    endloop
  endfacet
  facet normal 0.982289 -0.18737 0
    outer loop
      vertex 9.96057 -5.62667 0
      vertex 9.84292 -6.24345 9
      vertex 9.84292 -6.24345 0
    endloop
  endfacet
  facet normal 0.998026 -0.0627957 0
    outer loop
      vertex 9.96057 -5.62667 9
      vertex 10 -5 0
      vertex 10 -5 9
    endloop
  endfacet
  facet normal 0.998026 -0.0627957 0
    outer loop
      vertex 10 -5 0
      vertex 9.96057 -5.62667 9
      vertex 9.96057 -5.62667 0
    endloop
  endfacet
  facet normal 0.982289 0.18737 0
    outer loop
      vertex 9.96057 5.62667 9
      vertex 9.84292 6.24345 0
      vertex 9.84292 6.24345 9
    endloop
  endfacet
  facet normal 0.982289 0.18737 0
    outer loop
      vertex 9.84292 6.24345 0
      vertex 9.96057 5.62667 9
      vertex 9.96057 5.62667 0
    endloop
  endfacet
  facet normal 0.481752 0.876308 -0
    outer loop
      vertex 7.67913 9.22164 0
      vertex 7.1289 9.52413 9
      vertex 7.67913 9.22164 9
    endloop
  endfacet
  facet normal 0.481752 0.876308 0
    outer loop
      vertex 7.1289 9.52413 9
      vertex 7.67913 9.22164 0
      vertex 7.1289 9.52413 0
    endloop
  endfacet
  facet normal -0.998026 0.0627957 0
    outer loop
      vertex -10 5 0
      vertex -9.96057 5.62667 9
      vertex -9.96057 5.62667 0
    endloop
  endfacet
  facet normal -0.998026 0.0627957 0
    outer loop
      vertex -9.96057 5.62667 9
      vertex -10 5 0
      vertex -10 5 9
    endloop
  endfacet
  facet normal -0.904828 0.425778 0
    outer loop
      vertex -9.64888 6.84062 0
      vertex -9.38153 7.40877 9
      vertex -9.38153 7.40877 0
    endloop
  endfacet
  facet normal -0.904828 0.425778 0
    outer loop
      vertex -9.38153 7.40877 9
      vertex -9.64888 6.84062 0
      vertex -9.64888 6.84062 9
    endloop
  endfacet
  facet normal -0.587779 0.809022 0
    outer loop
      vertex -7.67913 9.22164 0
      vertex -8.18712 8.85257 9
      vertex -7.67913 9.22164 9
    endloop
  endfacet
  facet normal -0.587779 0.809022 0
    outer loop
      vertex -8.18712 8.85257 9
      vertex -7.67913 9.22164 0
      vertex -8.18712 8.85257 0
    endloop
  endfacet
  facet normal -0.684549 0.728967 0
    outer loop
      vertex -8.18712 8.85257 0
      vertex -8.64484 8.42274 9
      vertex -8.18712 8.85257 9
    endloop
  endfacet
  facet normal -0.684549 0.728967 0
    outer loop
      vertex -8.64484 8.42274 9
      vertex -8.18712 8.85257 0
      vertex -8.64484 8.42274 0
    endloop
  endfacet
  facet normal -0.982289 -0.18737 0
    outer loop
      vertex -9.84292 -6.24345 0
      vertex -9.96057 -5.62667 9
      vertex -9.96057 -5.62667 0
    endloop
  endfacet
  facet normal -0.982289 -0.18737 0
    outer loop
      vertex -9.96057 -5.62667 9
      vertex -9.84292 -6.24345 0
      vertex -9.84292 -6.24345 9
    endloop
  endfacet
  facet normal -0.844328 -0.535827 0
    outer loop
      vertex -9.04508 -7.93893 0
      vertex -9.38153 -7.40877 9
      vertex -9.38153 -7.40877 0
    endloop
  endfacet
  facet normal -0.844328 -0.535827 0
    outer loop
      vertex -9.38153 -7.40877 9
      vertex -9.04508 -7.93893 0
      vertex -9.04508 -7.93893 9
    endloop
  endfacet
  facet normal -0.770515 -0.637422 0
    outer loop
      vertex -8.64484 -8.42274 0
      vertex -9.04508 -7.93893 9
      vertex -9.04508 -7.93893 0
    endloop
  endfacet
  facet normal -0.770515 -0.637422 0
    outer loop
      vertex -9.04508 -7.93893 9
      vertex -8.64484 -8.42274 0
      vertex -8.64484 -8.42274 9
    endloop
  endfacet
  facet normal -0.684549 -0.728967 0
    outer loop
      vertex -8.64484 -8.42274 0
      vertex -8.18712 -8.85257 9
      vertex -8.64484 -8.42274 9
    endloop
  endfacet
  facet normal -0.684549 -0.728967 -0
    outer loop
      vertex -8.18712 -8.85257 9
      vertex -8.64484 -8.42274 0
      vertex -8.18712 -8.85257 0
    endloop
  endfacet
  facet normal -0.587779 -0.809022 0
    outer loop
      vertex -8.18712 -8.85257 0
      vertex -7.67913 -9.22164 9
      vertex -8.18712 -8.85257 9
    endloop
  endfacet
  facet normal -0.587779 -0.809022 -0
    outer loop
      vertex -7.67913 -9.22164 9
      vertex -8.18712 -8.85257 0
      vertex -7.67913 -9.22164 0
    endloop
  endfacet
  facet normal -0.368124 -0.929777 0
    outer loop
      vertex -7.1289 -9.52413 0
      vertex -6.54508 -9.75528 9
      vertex -7.1289 -9.52413 9
    endloop
  endfacet
  facet normal -0.368124 -0.929777 -0
    outer loop
      vertex -6.54508 -9.75528 9
      vertex -7.1289 -9.52413 0
      vertex -6.54508 -9.75528 0
    endloop
  endfacet
  facet normal -0.481752 -0.876308 0
    outer loop
      vertex -7.67913 -9.22164 0
      vertex -7.1289 -9.52413 9
      vertex -7.67913 -9.22164 9
    endloop
  endfacet
  facet normal -0.481752 -0.876308 -0
    outer loop
      vertex -7.1289 -9.52413 9
      vertex -7.67913 -9.22164 0
      vertex -7.1289 -9.52413 0
    endloop
  endfacet
  facet normal 0.12532 -0.992116 0
    outer loop
      vertex 5.31395 -9.99013 0
      vertex 5.93691 -9.91144 9
      vertex 5.31395 -9.99013 9
    endloop
  endfacet
  facet normal 0.12532 -0.992116 0
    outer loop
      vertex 5.93691 -9.91144 9
      vertex 5.31395 -9.99013 0
      vertex 5.93691 -9.91144 0
    endloop
  endfacet
  facet normal 0.368124 -0.929777 0
    outer loop
      vertex 6.54508 -9.75528 0
      vertex 7.1289 -9.52413 9
      vertex 6.54508 -9.75528 9
    endloop
  endfacet
  facet normal 0.368124 -0.929777 0
    outer loop
      vertex 7.1289 -9.52413 9
      vertex 6.54508 -9.75528 0
      vertex 7.1289 -9.52413 0
    endloop
  endfacet
  facet normal 0.248703 -0.96858 0
    outer loop
      vertex 5.93691 -9.91144 0
      vertex 6.54508 -9.75528 9
      vertex 5.93691 -9.91144 9
    endloop
  endfacet
  facet normal 0.248703 -0.96858 0
    outer loop
      vertex 6.54508 -9.75528 9
      vertex 5.93691 -9.91144 0
      vertex 6.54508 -9.75528 0
    endloop
  endfacet
  facet normal 0.481752 -0.876308 0
    outer loop
      vertex 7.1289 -9.52413 0
      vertex 7.67913 -9.22164 9
      vertex 7.1289 -9.52413 9
    endloop
  endfacet
  facet normal 0.481752 -0.876308 0
    outer loop
      vertex 7.67913 -9.22164 9
      vertex 7.1289 -9.52413 0
      vertex 7.67913 -9.22164 0
    endloop
  endfacet
  facet normal 0.951053 -0.309028 0
    outer loop
      vertex 9.64888 -6.84062 9
      vertex 9.84292 -6.24345 0
      vertex 9.84292 -6.24345 9
    endloop
  endfacet
  facet normal 0.951053 -0.309028 0
    outer loop
      vertex 9.84292 -6.24345 0
      vertex 9.64888 -6.84062 9
      vertex 9.64888 -6.84062 0
    endloop
  endfacet
  facet normal 0.248703 0.96858 -0
    outer loop
      vertex 6.54508 9.75528 0
      vertex 5.93691 9.91144 9
      vertex 6.54508 9.75528 9
    endloop
  endfacet
  facet normal 0.248703 0.96858 0
    outer loop
      vertex 5.93691 9.91144 9
      vertex 6.54508 9.75528 0
      vertex 5.93691 9.91144 0
    endloop
  endfacet
  facet normal 0.951053 0.309028 0
    outer loop
      vertex 9.84292 6.24345 9
      vertex 9.64888 6.84062 0
      vertex 9.64888 6.84062 9
    endloop
  endfacet
  facet normal 0.951053 0.309028 0
    outer loop
      vertex 9.64888 6.84062 0
      vertex 9.84292 6.24345 9
      vertex 9.84292 6.24345 0
    endloop
  endfacet
  facet normal 0.770515 0.637422 0
    outer loop
      vertex 9.04508 7.93893 9
      vertex 8.64484 8.42274 0
      vertex 8.64484 8.42274 9
    endloop
  endfacet
  facet normal 0.770515 0.637422 0
    outer loop
      vertex 8.64484 8.42274 0
      vertex 9.04508 7.93893 9
      vertex 9.04508 7.93893 0
    endloop
  endfacet
  facet normal 0.368124 0.929777 -0
    outer loop
      vertex 7.1289 9.52413 0
      vertex 6.54508 9.75528 9
      vertex 7.1289 9.52413 9
    endloop
  endfacet
  facet normal 0.368124 0.929777 0
    outer loop
      vertex 6.54508 9.75528 9
      vertex 7.1289 9.52413 0
      vertex 6.54508 9.75528 0
    endloop
  endfacet
  facet normal -0.844328 0.535827 0
    outer loop
      vertex -9.38153 7.40877 0
      vertex -9.04508 7.93893 9
      vertex -9.04508 7.93893 0
    endloop
  endfacet
  facet normal -0.844328 0.535827 0
    outer loop
      vertex -9.04508 7.93893 9
      vertex -9.38153 7.40877 0
      vertex -9.38153 7.40877 9
    endloop
  endfacet
  facet normal -0.481752 0.876308 0
    outer loop
      vertex -7.1289 9.52413 0
      vertex -7.67913 9.22164 9
      vertex -7.1289 9.52413 9
    endloop
  endfacet
  facet normal -0.481752 0.876308 0
    outer loop
      vertex -7.67913 9.22164 9
      vertex -7.1289 9.52413 0
      vertex -7.67913 9.22164 0
    endloop
  endfacet
  facet normal -0.12532 0.992116 0
    outer loop
      vertex -5.31395 9.99013 0
      vertex -5.93691 9.91144 9
      vertex -5.31395 9.99013 9
    endloop
  endfacet
  facet normal -0.12532 0.992116 0
    outer loop
      vertex -5.93691 9.91144 9
      vertex -5.31395 9.99013 0
      vertex -5.93691 9.91144 0
    endloop
  endfacet
  facet normal -0.951053 -0.309028 0
    outer loop
      vertex -9.64888 -6.84062 0
      vertex -9.84292 -6.24345 9
      vertex -9.84292 -6.24345 0
    endloop
  endfacet
  facet normal -0.951053 -0.309028 0
    outer loop
      vertex -9.84292 -6.24345 9
      vertex -9.64888 -6.84062 0
      vertex -9.64888 -6.84062 9
    endloop
  endfacet
  facet normal -0.904828 -0.425778 0
    outer loop
      vertex -9.38153 -7.40877 0
      vertex -9.64888 -6.84062 9
      vertex -9.64888 -6.84062 0
    endloop
  endfacet
  facet normal -0.904828 -0.425778 0
    outer loop
      vertex -9.64888 -6.84062 9
      vertex -9.38153 -7.40877 0
      vertex -9.38153 -7.40877 9
    endloop
  endfacet
  facet normal -0.12532 -0.992116 0
    outer loop
      vertex -5.93691 -9.91144 0
      vertex -5.31395 -9.99013 9
      vertex -5.93691 -9.91144 9
    endloop
  endfacet
  facet normal -0.12532 -0.992116 -0
    outer loop
      vertex -5.31395 -9.99013 9
      vertex -5.93691 -9.91144 0
      vertex -5.31395 -9.99013 0
    endloop
  endfacet
  facet normal 0.684549 -0.728967 0
    outer loop
      vertex 8.18712 -8.85257 0
      vertex 8.64484 -8.42274 9
      vertex 8.18712 -8.85257 9
    endloop
  endfacet
  facet normal 0.684549 -0.728967 0
    outer loop
      vertex 8.64484 -8.42274 9
      vertex 8.18712 -8.85257 0
      vertex 8.64484 -8.42274 0
    endloop
  endfacet
  facet normal 0.998026 0.0627957 0
    outer loop
      vertex 10 5 9
      vertex 9.96057 5.62667 0
      vertex 9.96057 5.62667 9
    endloop
  endfacet
  facet normal 0.998026 0.0627957 0
    outer loop
      vertex 9.96057 5.62667 0
      vertex 10 5 9
      vertex 10 5 0
    endloop
  endfacet
  facet normal 0.587779 0.809022 -0
    outer loop
      vertex 8.18712 8.85257 0
      vertex 7.67913 9.22164 9
      vertex 8.18712 8.85257 9
    endloop
  endfacet
  facet normal 0.587779 0.809022 0
    outer loop
      vertex 7.67913 9.22164 9
      vertex 8.18712 8.85257 0
      vertex 7.67913 9.22164 0
    endloop
  endfacet
  facet normal 0.770515 -0.637422 0
    outer loop
      vertex 8.64484 -8.42274 9
      vertex 9.04508 -7.93893 0
      vertex 9.04508 -7.93893 9
    endloop
  endfacet
  facet normal 0.770515 -0.637422 0
    outer loop
      vertex 9.04508 -7.93893 0
      vertex 8.64484 -8.42274 9
      vertex 8.64484 -8.42274 0
    endloop
  endfacet
  facet normal 0.844328 -0.535827 0
    outer loop
      vertex 9.04508 -7.93893 9
      vertex 9.38153 -7.40877 0
      vertex 9.38153 -7.40877 9
    endloop
  endfacet
  facet normal 0.844328 -0.535827 0
    outer loop
      vertex 9.38153 -7.40877 0
      vertex 9.04508 -7.93893 9
      vertex 9.04508 -7.93893 0
    endloop
  endfacet
  facet normal 0.587779 -0.809022 0
    outer loop
      vertex 7.67913 -9.22164 0
      vertex 8.18712 -8.85257 9
      vertex 7.67913 -9.22164 9
    endloop
  endfacet
  facet normal 0.587779 -0.809022 0
    outer loop
      vertex 8.18712 -8.85257 9
      vertex 7.67913 -9.22164 0
      vertex 8.18712 -8.85257 0
    endloop
  endfacet
  facet normal 0.844328 0.535827 0
    outer loop
      vertex 9.38153 7.40877 9
      vertex 9.04508 7.93893 0
      vertex 9.04508 7.93893 9
    endloop
  endfacet
  facet normal 0.844328 0.535827 0
    outer loop
      vertex 9.04508 7.93893 0
      vertex 9.38153 7.40877 9
      vertex 9.38153 7.40877 0
    endloop
  endfacet
  facet normal 0.904828 0.425778 0
    outer loop
      vertex 9.64888 6.84062 9
      vertex 9.38153 7.40877 0
      vertex 9.38153 7.40877 9
    endloop
  endfacet
  facet normal 0.904828 0.425778 0
    outer loop
      vertex 9.38153 7.40877 0
      vertex 9.64888 6.84062 9
      vertex 9.64888 6.84062 0
    endloop
  endfacet
  facet normal 0.904828 -0.425778 0
    outer loop
      vertex 9.38153 -7.40877 9
      vertex 9.64888 -6.84062 0
      vertex 9.64888 -6.84062 9
    endloop
  endfacet
  facet normal 0.904828 -0.425778 0
    outer loop
      vertex 9.64888 -6.84062 0
      vertex 9.38153 -7.40877 9
      vertex 9.38153 -7.40877 0
    endloop
  endfacet
endsolid OpenSCAD_Model
