solid OpenSCAD_Model
  facet normal 0 1 -0
    outer loop
      vertex 1.98099 -3.43118 1.5
      vertex -1.98099 -3.43118 5
      vertex 1.98099 -3.43118 5
    endloop
  endfacet
  facet normal 0 1 0
    outer loop
      vertex -1.98099 -3.43118 5
      vertex 1.98099 -3.43118 1.5
      vertex -1.98099 -3.43118 1.5
    endloop
  endfacet
  facet normal 0 0 1
    outer loop
      vertex 3.01901 3.43118 1.5
      vertex 7 2 1.5
      vertex 6.96057 2.62667 1.5
    endloop
  endfacet
  facet normal 0 0 1
    outer loop
      vertex 3.01901 3.43118 1.5
      vertex 6.96057 2.62667 1.5
      vertex 6.84292 3.24345 1.5
    endloop
  endfacet
  facet normal -0 0 1
    outer loop
      vertex 3.01901 3.43118 1.5
      vertex 6.84292 3.24345 1.5
      vertex 6.78192 3.43118 1.5
    endloop
  endfacet
  facet normal 0 0 1
    outer loop
      vertex 7 2 1.5
      vertex 3.01901 3.43118 1.5
      vertex 7 1.79645 1.5
    endloop
  endfacet
  facet normal -0 0 1
    outer loop
      vertex 2.5 2.53223 1.5
      vertex 7 1.79645 1.5
      vertex 3.01901 3.43118 1.5
    endloop
  endfacet
  facet normal 0 0 1
    outer loop
      vertex 2.5 2.53223 1.5
      vertex -0.113023 1.79645 1.5
      vertex 7 1.79645 1.5
    endloop
  endfacet
  facet normal 0 0 1
    outer loop
      vertex 1.98099 3.43118 1.5
      vertex -0.113023 1.79645 1.5
      vertex 2.5 2.53223 1.5
    endloop
  endfacet
  facet normal -0 0 1
    outer loop
      vertex -1.98099 3.43118 1.5
      vertex -0.113023 1.79645 1.5
      vertex 1.98099 3.43118 1.5
    endloop
  endfacet
  facet normal 0 0 1
    outer loop
      vertex -0.113023 1.79645 1.5
      vertex -1.98099 3.43118 1.5
      vertex -0.337286 1.76812 1.5
    endloop
  endfacet
  facet normal 0 0 1
    outer loop
      vertex -0.337286 1.76812 1.5
      vertex -1.98099 3.43118 1.5
      vertex -0.556231 1.7119 1.5
    endloop
  endfacet
  facet normal 0 0 1
    outer loop
      vertex -0.556231 1.7119 1.5
      vertex -1.98099 3.43118 1.5
      vertex -0.766402 1.62869 1.5
    endloop
  endfacet
  facet normal 0 0 1
    outer loop
      vertex -1.74345 0.447641 1.5
      vertex -3.96199 0 1.5
      vertex -1.78581 0.225599 1.5
    endloop
  endfacet
  facet normal 0 0 1
    outer loop
      vertex -1.6736 0.662623 1.5
      vertex -3.96199 0 1.5
      vertex -1.74345 0.447641 1.5
    endloop
  endfacet
  facet normal 0 0 1
    outer loop
      vertex -1.57735 0.867156 1.5
      vertex -3.96199 0 1.5
      vertex -1.6736 0.662623 1.5
    endloop
  endfacet
  facet normal 0 0 1
    outer loop
      vertex -3.96199 0 1.5
      vertex -1.57735 0.867156 1.5
      vertex -1.98099 3.43118 1.5
    endloop
  endfacet
  facet normal 0 0 1
    outer loop
      vertex -1.45623 1.05801 1.5
      vertex -1.98099 3.43118 1.5
      vertex -1.57735 0.867156 1.5
    endloop
  endfacet
  facet normal 0 0 1
    outer loop
      vertex -1.31214 1.23218 1.5
      vertex -1.98099 3.43118 1.5
      vertex -1.45623 1.05801 1.5
    endloop
  endfacet
  facet normal 0 0 1
    outer loop
      vertex -1.14736 1.38692 1.5
      vertex -1.98099 3.43118 1.5
      vertex -1.31214 1.23218 1.5
    endloop
  endfacet
  facet normal 0 0 1
    outer loop
      vertex -0.964488 1.51979 1.5
      vertex -1.98099 3.43118 1.5
      vertex -1.14736 1.38692 1.5
    endloop
  endfacet
  facet normal 0 0 1
    outer loop
      vertex -0.766402 1.62869 1.5
      vertex -1.98099 3.43118 1.5
      vertex -0.964488 1.51979 1.5
    endloop
  endfacet
  facet normal 0 0 1
    outer loop
      vertex 3.01901 -3.43118 1.5
      vertex 7 -2 1.5
      vertex 7 -1.79645 1.5
    endloop
  endfacet
  facet normal 0 0 1
    outer loop
      vertex 7 -2 1.5
      vertex 3.01901 -3.43118 1.5
      vertex 6.96057 -2.62667 1.5
    endloop
  endfacet
  facet normal 0 0 1
    outer loop
      vertex 6.96057 -2.62667 1.5
      vertex 3.01901 -3.43118 1.5
      vertex 6.84292 -3.24345 1.5
    endloop
  endfacet
  facet normal 0 0 1
    outer loop
      vertex 6.84292 -3.24345 1.5
      vertex 3.01901 -3.43118 1.5
      vertex 6.78192 -3.43118 1.5
    endloop
  endfacet
  facet normal 0 0 1
    outer loop
      vertex 7 -1.79645 1.5
      vertex 2.5 -2.53223 1.5
      vertex 3.01901 -3.43118 1.5
    endloop
  endfacet
  facet normal -0 0 1
    outer loop
      vertex -0.113023 -1.79645 1.5
      vertex 2.5 -2.53223 1.5
      vertex 7 -1.79645 1.5
    endloop
  endfacet
  facet normal 0 0 1
    outer loop
      vertex -0.113023 -1.79645 1.5
      vertex 1.98099 -3.43118 1.5
      vertex 2.5 -2.53223 1.5
    endloop
  endfacet
  facet normal 0 0 1
    outer loop
      vertex -1.98099 -3.43118 1.5
      vertex -0.113023 -1.79645 1.5
      vertex -0.337286 -1.76812 1.5
    endloop
  endfacet
  facet normal 0 0 1
    outer loop
      vertex -1.98099 -3.43118 1.5
      vertex -0.337286 -1.76812 1.5
      vertex -0.556231 -1.7119 1.5
    endloop
  endfacet
  facet normal 0 0 1
    outer loop
      vertex -1.98099 -3.43118 1.5
      vertex -0.556231 -1.7119 1.5
      vertex -0.766402 -1.62869 1.5
    endloop
  endfacet
  facet normal 0 0 1
    outer loop
      vertex -1.98099 -3.43118 1.5
      vertex -0.766402 -1.62869 1.5
      vertex -0.964488 -1.51979 1.5
    endloop
  endfacet
  facet normal 0 0 1
    outer loop
      vertex -0.113023 -1.79645 1.5
      vertex -1.98099 -3.43118 1.5
      vertex 1.98099 -3.43118 1.5
    endloop
  endfacet
  facet normal 0 0 1
    outer loop
      vertex -1.14736 -1.38692 1.5
      vertex -1.98099 -3.43118 1.5
      vertex -0.964488 -1.51979 1.5
    endloop
  endfacet
  facet normal 0 0 1
    outer loop
      vertex -1.31214 -1.23218 1.5
      vertex -1.98099 -3.43118 1.5
      vertex -1.14736 -1.38692 1.5
    endloop
  endfacet
  facet normal 0 0 1
    outer loop
      vertex -1.45623 -1.05801 1.5
      vertex -1.98099 -3.43118 1.5
      vertex -1.31214 -1.23218 1.5
    endloop
  endfacet
  facet normal 0 0 1
    outer loop
      vertex -1.57735 -0.867156 1.5
      vertex -1.98099 -3.43118 1.5
      vertex -1.45623 -1.05801 1.5
    endloop
  endfacet
  facet normal 0 0 1
    outer loop
      vertex -3.96199 0 1.5
      vertex -1.57735 -0.867156 1.5
      vertex -1.6736 -0.662623 1.5
    endloop
  endfacet
  facet normal 0 0 1
    outer loop
      vertex -3.96199 0 1.5
      vertex -1.6736 -0.662623 1.5
      vertex -1.74345 -0.447641 1.5
    endloop
  endfacet
  facet normal 0 0 1
    outer loop
      vertex -3.96199 0 1.5
      vertex -1.74345 -0.447641 1.5
      vertex -1.78581 -0.225599 1.5
    endloop
  endfacet
  facet normal -0 0 1
    outer loop
      vertex -3.96199 0 1.5
      vertex -1.78581 -0.225599 1.5
      vertex -1.8 0 1.5
    endloop
  endfacet
  facet normal 0 0 1
    outer loop
      vertex -1.78581 0.225599 1.5
      vertex -3.96199 0 1.5
      vertex -1.8 0 1.5
    endloop
  endfacet
  facet normal 0 0 1
    outer loop
      vertex -1.57735 -0.867156 1.5
      vertex -3.96199 0 1.5
      vertex -1.98099 -3.43118 1.5
    endloop
  endfacet
  facet normal -0.866025 0.500001 0
    outer loop
      vertex 1.98099 -3.43118 1.5
      vertex 2.5 -2.53223 5
      vertex 2.5 -2.53223 1.5
    endloop
  endfacet
  facet normal -0.866025 0.500001 0
    outer loop
      vertex 2.5 -2.53223 5
      vertex 1.98099 -3.43118 1.5
      vertex 1.98099 -3.43118 5
    endloop
  endfacet
  facet normal -0.866025 -0.500001 0
    outer loop
      vertex 2.5 2.53223 1.5
      vertex 1.98099 3.43118 5
      vertex 1.98099 3.43118 1.5
    endloop
  endfacet
  facet normal -0.866025 -0.500001 0
    outer loop
      vertex 1.98099 3.43118 5
      vertex 2.5 2.53223 1.5
      vertex 2.5 2.53223 5
    endloop
  endfacet
  facet normal 0 0 -1
    outer loop
      vertex 3.01901 -3.43118 5
      vertex 7 -2 5
      vertex 6.96057 -2.62667 5
    endloop
  endfacet
  facet normal -0 0 -1
    outer loop
      vertex 7 -2 5
      vertex 2.5 -2.53223 5
      vertex 7 2 5
    endloop
  endfacet
  facet normal 0 0 -1
    outer loop
      vertex 3.01901 -3.43118 5
      vertex 6.96057 -2.62667 5
      vertex 6.84292 -3.24345 5
    endloop
  endfacet
  facet normal 0 0 -1
    outer loop
      vertex 2.5 2.53223 5
      vertex 7 2 5
      vertex 2.5 -2.53223 5
    endloop
  endfacet
  facet normal 0 0 -1
    outer loop
      vertex 3.01901 -3.43118 5
      vertex 6.84292 -3.24345 5
      vertex 6.78192 -3.43118 5
    endloop
  endfacet
  facet normal 0 -0 -1
    outer loop
      vertex 3.01901 3.43118 5
      vertex 7 2 5
      vertex 2.5 2.53223 5
    endloop
  endfacet
  facet normal 0 0 -1
    outer loop
      vertex 7 -2 5
      vertex 3.01901 -3.43118 5
      vertex 2.5 -2.53223 5
    endloop
  endfacet
  facet normal 0 0 -1
    outer loop
      vertex 7 2 5
      vertex 3.01901 3.43118 5
      vertex 6.96057 2.62667 5
    endloop
  endfacet
  facet normal 0 0 -1
    outer loop
      vertex 6.96057 2.62667 5
      vertex 3.01901 3.43118 5
      vertex 6.84292 3.24345 5
    endloop
  endfacet
  facet normal 0 0 -1
    outer loop
      vertex 6.84292 3.24345 5
      vertex 3.01901 3.43118 5
      vertex 6.78192 3.43118 5
    endloop
  endfacet
  facet normal 0 0 -1
    outer loop
      vertex -1.98099 -3.43118 5
      vertex 2.5 -2.53223 5
      vertex 1.98099 -3.43118 5
    endloop
  endfacet
  facet normal 0 0 -1
    outer loop
      vertex -3.96199 0 5
      vertex 2.5 -2.53223 5
      vertex -1.98099 -3.43118 5
    endloop
  endfacet
  facet normal 0 0 -1
    outer loop
      vertex 2.5 -2.53223 5
      vertex -3.96199 0 5
      vertex 2.5 2.53223 5
    endloop
  endfacet
  facet normal 0 0 -1
    outer loop
      vertex 2.5 2.53223 5
      vertex -1.98099 3.43118 5
      vertex 1.98099 3.43118 5
    endloop
  endfacet
  facet normal -0 0 -1
    outer loop
      vertex 2.5 2.53223 5
      vertex -3.96199 0 5
      vertex -1.98099 3.43118 5
    endloop
  endfacet
  facet normal 0.866025 -0.500001 0
    outer loop
      vertex -3.96199 0 5
      vertex -1.98099 3.43118 1.5
      vertex -1.98099 3.43118 5
    endloop
  endfacet
  facet normal 0.866025 -0.500001 0
    outer loop
      vertex -1.98099 3.43118 1.5
      vertex -3.96199 0 5
      vertex -3.96199 0 1.5
    endloop
  endfacet
  facet normal 0.866025 0.500001 0
    outer loop
      vertex -1.98099 -3.43118 5
      vertex -3.96199 0 1.5
      vertex -3.96199 0 5
    endloop
  endfacet
  facet normal 0.866025 0.500001 0
    outer loop
      vertex -3.96199 0 1.5
      vertex -1.98099 -3.43118 5
      vertex -1.98099 -3.43118 1.5
    endloop
  endfacet
  facet normal 0 -1 0
    outer loop
      vertex -1.98099 3.43118 1.5
      vertex 1.98099 3.43118 5
      vertex -1.98099 3.43118 5
    endloop
  endfacet
  facet normal 0 -1 -0
    outer loop
      vertex 1.98099 3.43118 5
      vertex -1.98099 3.43118 1.5
      vertex 1.98099 3.43118 1.5
    endloop
  endfacet
  facet normal 0 1 -0
    outer loop
      vertex 6.78192 -3.43118 1.5
      vertex 3.01901 -3.43118 5
      vertex 6.78192 -3.43118 5
    endloop
  endfacet
  facet normal 0 1 0
    outer loop
      vertex 3.01901 -3.43118 5
      vertex 6.78192 -3.43118 1.5
      vertex 3.01901 -3.43118 1.5
    endloop
  endfacet
  facet normal 0.866025 -0.500001 0
    outer loop
      vertex 2.5 2.53223 5
      vertex 3.01901 3.43118 1.5
      vertex 3.01901 3.43118 5
    endloop
  endfacet
  facet normal 0.866025 -0.500001 0
    outer loop
      vertex 3.01901 3.43118 1.5
      vertex 2.5 2.53223 5
      vertex 2.5 2.53223 1.5
    endloop
  endfacet
  facet normal 0.866025 0.500001 0
    outer loop
      vertex 3.01901 -3.43118 5
      vertex 2.5 -2.53223 1.5
      vertex 2.5 -2.53223 5
    endloop
  endfacet
  facet normal 0.866025 0.500001 0
    outer loop
      vertex 2.5 -2.53223 1.5
      vertex 3.01901 -3.43118 5
      vertex 3.01901 -3.43118 1.5
    endloop
  endfacet
  facet normal 0 -1 0
    outer loop
      vertex 3.01901 3.43118 1.5
      vertex 6.78192 3.43118 5
      vertex 3.01901 3.43118 5
    endloop
  endfacet
  facet normal 0 -1 -0
    outer loop
      vertex 6.78192 3.43118 5
      vertex 3.01901 3.43118 1.5
      vertex 6.78192 3.43118 1.5
    endloop
  endfacet
  facet normal 0 1 -0
    outer loop
      vertex 7 -1.79645 0
      vertex -0.113023 -1.79645 1.5
      vertex 7 -1.79645 1.5
    endloop
  endfacet
  facet normal 0 1 0
    outer loop
      vertex -0.113023 -1.79645 1.5
      vertex 7 -1.79645 0
      vertex -0.113023 -1.79645 0
    endloop
  endfacet
  facet normal 0 -1 0
    outer loop
      vertex -0.113023 1.79645 0
      vertex 7 1.79645 1.5
      vertex -0.113023 1.79645 1.5
    endloop
  endfacet
  facet normal 0 -1 -0
    outer loop
      vertex 7 1.79645 1.5
      vertex -0.113023 1.79645 0
      vertex 7 1.79645 0
    endloop
  endfacet
  facet normal 0.248708 -0.968578 0
    outer loop
      vertex -0.556231 1.7119 0
      vertex -0.337286 1.76812 1.5
      vertex -0.556231 1.7119 1.5
    endloop
  endfacet
  facet normal 0.248708 -0.968578 0
    outer loop
      vertex -0.337286 1.76812 1.5
      vertex -0.556231 1.7119 0
      vertex -0.337286 1.76812 0
    endloop
  endfacet
  facet normal 0.368115 -0.92978 0
    outer loop
      vertex -0.766402 1.62869 0
      vertex -0.556231 1.7119 1.5
      vertex -0.766402 1.62869 1.5
    endloop
  endfacet
  facet normal 0.368115 -0.92978 0
    outer loop
      vertex -0.556231 1.7119 1.5
      vertex -0.766402 1.62869 0
      vertex -0.556231 1.7119 0
    endloop
  endfacet
  facet normal 0.844327 -0.535828 0
    outer loop
      vertex -1.57735 0.867156 1.5
      vertex -1.45623 1.05801 0
      vertex -1.45623 1.05801 1.5
    endloop
  endfacet
  facet normal 0.844327 -0.535828 0
    outer loop
      vertex -1.45623 1.05801 0
      vertex -1.57735 0.867156 1.5
      vertex -1.57735 0.867156 0
    endloop
  endfacet
  facet normal 0.951059 -0.309009 0
    outer loop
      vertex -1.74345 0.447641 1.5
      vertex -1.6736 0.662623 0
      vertex -1.6736 0.662623 1.5
    endloop
  endfacet
  facet normal 0.951059 -0.309009 0
    outer loop
      vertex -1.6736 0.662623 0
      vertex -1.74345 0.447641 1.5
      vertex -1.74345 0.447641 0
    endloop
  endfacet
  facet normal 0.998028 -0.0627752 0
    outer loop
      vertex -1.8 0 1.5
      vertex -1.78581 0.225599 0
      vertex -1.78581 0.225599 1.5
    endloop
  endfacet
  facet normal 0.998028 -0.0627752 0
    outer loop
      vertex -1.78581 0.225599 0
      vertex -1.8 0 1.5
      vertex -1.8 0 0
    endloop
  endfacet
  facet normal 0.68455 0.728966 -0
    outer loop
      vertex -1.14736 -1.38692 0
      vertex -1.31214 -1.23218 1.5
      vertex -1.14736 -1.38692 1.5
    endloop
  endfacet
  facet normal 0.68455 0.728966 0
    outer loop
      vertex -1.31214 -1.23218 1.5
      vertex -1.14736 -1.38692 0
      vertex -1.31214 -1.23218 0
    endloop
  endfacet
  facet normal 0.951059 0.309009 0
    outer loop
      vertex -1.6736 -0.662623 1.5
      vertex -1.74345 -0.447641 0
      vertex -1.74345 -0.447641 1.5
    endloop
  endfacet
  facet normal 0.951059 0.309009 0
    outer loop
      vertex -1.74345 -0.447641 0
      vertex -1.6736 -0.662623 1.5
      vertex -1.6736 -0.662623 0
    endloop
  endfacet
  facet normal 0.125329 -0.992115 0
    outer loop
      vertex -0.337286 1.76812 0
      vertex -0.113023 1.79645 1.5
      vertex -0.337286 1.76812 1.5
    endloop
  endfacet
  facet normal 0.125329 -0.992115 0
    outer loop
      vertex -0.113023 1.79645 1.5
      vertex -0.337286 1.76812 0
      vertex -0.113023 1.79645 0
    endloop
  endfacet
  facet normal 0.68455 -0.728966 0
    outer loop
      vertex -1.31214 1.23218 0
      vertex -1.14736 1.38692 1.5
      vertex -1.31214 1.23218 1.5
    endloop
  endfacet
  facet normal 0.68455 -0.728966 0
    outer loop
      vertex -1.14736 1.38692 1.5
      vertex -1.31214 1.23218 0
      vertex -1.14736 1.38692 0
    endloop
  endfacet
  facet normal 0.587802 -0.809005 0
    outer loop
      vertex -1.14736 1.38692 0
      vertex -0.964488 1.51979 1.5
      vertex -1.14736 1.38692 1.5
    endloop
  endfacet
  facet normal 0.587802 -0.809005 0
    outer loop
      vertex -0.964488 1.51979 1.5
      vertex -1.14736 1.38692 0
      vertex -0.964488 1.51979 0
    endloop
  endfacet
  facet normal 0.90482 -0.425794 0
    outer loop
      vertex -1.6736 0.662623 1.5
      vertex -1.57735 0.867156 0
      vertex -1.57735 0.867156 1.5
    endloop
  endfacet
  facet normal 0.90482 -0.425794 0
    outer loop
      vertex -1.57735 0.867156 0
      vertex -1.6736 0.662623 1.5
      vertex -1.6736 0.662623 0
    endloop
  endfacet
  facet normal 0.770504 -0.637435 0
    outer loop
      vertex -1.45623 1.05801 1.5
      vertex -1.31214 1.23218 0
      vertex -1.31214 1.23218 1.5
    endloop
  endfacet
  facet normal 0.770504 -0.637435 0
    outer loop
      vertex -1.31214 1.23218 0
      vertex -1.45623 1.05801 1.5
      vertex -1.45623 1.05801 0
    endloop
  endfacet
  facet normal 0.982285 -0.187395 0
    outer loop
      vertex -1.78581 0.225599 1.5
      vertex -1.74345 0.447641 0
      vertex -1.74345 0.447641 1.5
    endloop
  endfacet
  facet normal 0.982285 -0.187395 0
    outer loop
      vertex -1.74345 0.447641 0
      vertex -1.78581 0.225599 1.5
      vertex -1.78581 0.225599 0
    endloop
  endfacet
  facet normal 0.125329 0.992115 -0
    outer loop
      vertex -0.113023 -1.79645 0
      vertex -0.337286 -1.76812 1.5
      vertex -0.113023 -1.79645 1.5
    endloop
  endfacet
  facet normal 0.125329 0.992115 0
    outer loop
      vertex -0.337286 -1.76812 1.5
      vertex -0.113023 -1.79645 0
      vertex -0.337286 -1.76812 0
    endloop
  endfacet
  facet normal 0.248708 0.968578 -0
    outer loop
      vertex -0.337286 -1.76812 0
      vertex -0.556231 -1.7119 1.5
      vertex -0.337286 -1.76812 1.5
    endloop
  endfacet
  facet normal 0.248708 0.968578 0
    outer loop
      vertex -0.556231 -1.7119 1.5
      vertex -0.337286 -1.76812 0
      vertex -0.556231 -1.7119 0
    endloop
  endfacet
  facet normal 0.587802 0.809005 -0
    outer loop
      vertex -0.964488 -1.51979 0
      vertex -1.14736 -1.38692 1.5
      vertex -0.964488 -1.51979 1.5
    endloop
  endfacet
  facet normal 0.587802 0.809005 0
    outer loop
      vertex -1.14736 -1.38692 1.5
      vertex -0.964488 -1.51979 0
      vertex -1.14736 -1.38692 0
    endloop
  endfacet
  facet normal 0.844327 0.535828 0
    outer loop
      vertex -1.45623 -1.05801 1.5
      vertex -1.57735 -0.867156 0
      vertex -1.57735 -0.867156 1.5
    endloop
  endfacet
  facet normal 0.844327 0.535828 0
    outer loop
      vertex -1.57735 -0.867156 0
      vertex -1.45623 -1.05801 1.5
      vertex -1.45623 -1.05801 0
    endloop
  endfacet
  facet normal 0.481758 -0.876304 0
    outer loop
      vertex -0.964488 1.51979 0
      vertex -0.766402 1.62869 1.5
      vertex -0.964488 1.51979 1.5
    endloop
  endfacet
  facet normal 0.481758 -0.876304 0
    outer loop
      vertex -0.766402 1.62869 1.5
      vertex -0.964488 1.51979 0
      vertex -0.766402 1.62869 0
    endloop
  endfacet
  facet normal 0.368115 0.92978 -0
    outer loop
      vertex -0.556231 -1.7119 0
      vertex -0.766402 -1.62869 1.5
      vertex -0.556231 -1.7119 1.5
    endloop
  endfacet
  facet normal 0.368115 0.92978 0
    outer loop
      vertex -0.766402 -1.62869 1.5
      vertex -0.556231 -1.7119 0
      vertex -0.766402 -1.62869 0
    endloop
  endfacet
  facet normal 0.481758 0.876304 -0
    outer loop
      vertex -0.766402 -1.62869 0
      vertex -0.964488 -1.51979 1.5
      vertex -0.766402 -1.62869 1.5
    endloop
  endfacet
  facet normal 0.481758 0.876304 0
    outer loop
      vertex -0.964488 -1.51979 1.5
      vertex -0.766402 -1.62869 0
      vertex -0.964488 -1.51979 0
    endloop
  endfacet
  facet normal 0.90482 0.425794 0
    outer loop
      vertex -1.57735 -0.867156 1.5
      vertex -1.6736 -0.662623 0
      vertex -1.6736 -0.662623 1.5
    endloop
  endfacet
  facet normal 0.90482 0.425794 0
    outer loop
      vertex -1.6736 -0.662623 0
      vertex -1.57735 -0.867156 1.5
      vertex -1.57735 -0.867156 0
    endloop
  endfacet
  facet normal 0.998028 0.0627752 0
    outer loop
      vertex -1.78581 -0.225599 1.5
      vertex -1.8 0 0
      vertex -1.8 0 1.5
    endloop
  endfacet
  facet normal 0.998028 0.0627752 0
    outer loop
      vertex -1.8 0 0
      vertex -1.78581 -0.225599 1.5
      vertex -1.78581 -0.225599 0
    endloop
  endfacet
  facet normal 0.770504 0.637435 0
    outer loop
      vertex -1.31214 -1.23218 1.5
      vertex -1.45623 -1.05801 0
      vertex -1.45623 -1.05801 1.5
    endloop
  endfacet
  facet normal 0.770504 0.637435 0
    outer loop
      vertex -1.45623 -1.05801 0
      vertex -1.31214 -1.23218 1.5
      vertex -1.31214 -1.23218 0
    endloop
  endfacet
  facet normal 0.982285 0.187395 0
    outer loop
      vertex -1.74345 -0.447641 1.5
      vertex -1.78581 -0.225599 0
      vertex -1.78581 -0.225599 1.5
    endloop
  endfacet
  facet normal 0.982285 0.187395 0
    outer loop
      vertex -1.78581 -0.225599 0
      vertex -1.74345 -0.447641 1.5
      vertex -1.74345 -0.447641 0
    endloop
  endfacet
  facet normal -1 0 0
    outer loop
      vertex -7 -2 0
      vertex -7 2 6
      vertex -7 2 0
    endloop
  endfacet
  facet normal -1 -0 0
    outer loop
      vertex -7 2 6
      vertex -7 -2 0
      vertex -7 -2 6
    endloop
  endfacet
  facet normal 1 -0 0
    outer loop
      vertex 7 1.79645 1.5
      vertex 7 2 0
      vertex 7 2 1.5
    endloop
  endfacet
  facet normal 1 0 0
    outer loop
      vertex 7 2 0
      vertex 7 1.79645 1.5
      vertex 7 1.79645 0
    endloop
  endfacet
  facet normal 1 -0 0
    outer loop
      vertex 7 -2 6
      vertex 7 2 5
      vertex 7 2 6
    endloop
  endfacet
  facet normal 1 0 0
    outer loop
      vertex 7 2 5
      vertex 7 -2 6
      vertex 7 -2 5
    endloop
  endfacet
  facet normal 1 -0 0
    outer loop
      vertex 7 -2 1.5
      vertex 7 -1.79645 0
      vertex 7 -1.79645 1.5
    endloop
  endfacet
  facet normal 1 0 0
    outer loop
      vertex 7 -1.79645 0
      vertex 7 -2 1.5
      vertex 7 -2 0
    endloop
  endfacet
  facet normal 0.684549 -0.728967 0
    outer loop
      vertex 5.18712 -5.85257 0
      vertex 5.64484 -5.42274 6
      vertex 5.18712 -5.85257 6
    endloop
  endfacet
  facet normal 0.684549 -0.728967 0
    outer loop
      vertex 5.64484 -5.42274 6
      vertex 5.18712 -5.85257 0
      vertex 5.64484 -5.42274 0
    endloop
  endfacet
  facet normal -0.248703 0.96858 0
    outer loop
      vertex -2.93691 6.91144 0
      vertex -3.54508 6.75528 6
      vertex -2.93691 6.91144 6
    endloop
  endfacet
  facet normal -0.248703 0.96858 0
    outer loop
      vertex -3.54508 6.75528 6
      vertex -2.93691 6.91144 0
      vertex -3.54508 6.75528 0
    endloop
  endfacet
  facet normal 0 0 1
    outer loop
      vertex 2.31395 6.99013 6
      vertex 7 2 6
      vertex 6.96057 2.62667 6
    endloop
  endfacet
  facet normal 0 0 1
    outer loop
      vertex -7 2 6
      vertex 7 2 6
      vertex 2.31395 6.99013 6
    endloop
  endfacet
  facet normal 0 0 1
    outer loop
      vertex 2.31395 6.99013 6
      vertex 6.96057 2.62667 6
      vertex 6.84292 3.24345 6
    endloop
  endfacet
  facet normal 0 0 1
    outer loop
      vertex 7 2 6
      vertex -7 2 6
      vertex 7 -2 6
    endloop
  endfacet
  facet normal 0 0 1
    outer loop
      vertex 2.31395 6.99013 6
      vertex 6.84292 3.24345 6
      vertex 6.64888 3.84062 6
    endloop
  endfacet
  facet normal 0 0 1
    outer loop
      vertex 7 -2 6
      vertex 2.31395 -6.99013 6
      vertex 6.96057 -2.62667 6
    endloop
  endfacet
  facet normal 0 0 1
    outer loop
      vertex 2.31395 6.99013 6
      vertex 6.64888 3.84062 6
      vertex 6.38153 4.40877 6
    endloop
  endfacet
  facet normal 0 0 1
    outer loop
      vertex 6.96057 -2.62667 6
      vertex 2.31395 -6.99013 6
      vertex 6.84292 -3.24345 6
    endloop
  endfacet
  facet normal 0 0 1
    outer loop
      vertex 2.31395 6.99013 6
      vertex 6.38153 4.40877 6
      vertex 6.04508 4.93893 6
    endloop
  endfacet
  facet normal 0 0 1
    outer loop
      vertex 6.84292 -3.24345 6
      vertex 2.31395 -6.99013 6
      vertex 6.64888 -3.84062 6
    endloop
  endfacet
  facet normal 0 0 1
    outer loop
      vertex 2.31395 6.99013 6
      vertex 6.04508 4.93893 6
      vertex 5.64484 5.42274 6
    endloop
  endfacet
  facet normal 0 0 1
    outer loop
      vertex 6.64888 -3.84062 6
      vertex 2.31395 -6.99013 6
      vertex 6.38153 -4.40877 6
    endloop
  endfacet
  facet normal 0 0 1
    outer loop
      vertex 2.31395 6.99013 6
      vertex 5.64484 5.42274 6
      vertex 5.18712 5.85257 6
    endloop
  endfacet
  facet normal 0 0 1
    outer loop
      vertex 6.38153 -4.40877 6
      vertex 2.31395 -6.99013 6
      vertex 6.04508 -4.93893 6
    endloop
  endfacet
  facet normal 0 0 1
    outer loop
      vertex 2.31395 6.99013 6
      vertex 5.18712 5.85257 6
      vertex 4.67913 6.22164 6
    endloop
  endfacet
  facet normal 0 0 1
    outer loop
      vertex 6.04508 -4.93893 6
      vertex 2.31395 -6.99013 6
      vertex 5.64484 -5.42274 6
    endloop
  endfacet
  facet normal 0 0 1
    outer loop
      vertex 2.31395 6.99013 6
      vertex 4.67913 6.22164 6
      vertex 4.1289 6.52413 6
    endloop
  endfacet
  facet normal 0 0 1
    outer loop
      vertex 5.64484 -5.42274 6
      vertex 2.31395 -6.99013 6
      vertex 5.18712 -5.85257 6
    endloop
  endfacet
  facet normal 0 0 1
    outer loop
      vertex 2.31395 6.99013 6
      vertex 4.1289 6.52413 6
      vertex 3.54508 6.75528 6
    endloop
  endfacet
  facet normal 0 0 1
    outer loop
      vertex 5.18712 -5.85257 6
      vertex 2.31395 -6.99013 6
      vertex 4.67913 -6.22164 6
    endloop
  endfacet
  facet normal 0 0 1
    outer loop
      vertex 2.31395 6.99013 6
      vertex 3.54508 6.75528 6
      vertex 2.93691 6.91144 6
    endloop
  endfacet
  facet normal 0 0 1
    outer loop
      vertex 4.67913 -6.22164 6
      vertex 2.31395 -6.99013 6
      vertex 4.1289 -6.52413 6
    endloop
  endfacet
  facet normal 0 0 1
    outer loop
      vertex 4.1289 -6.52413 6
      vertex 2.31395 -6.99013 6
      vertex 3.54508 -6.75528 6
    endloop
  endfacet
  facet normal 0 0 1
    outer loop
      vertex 3.54508 -6.75528 6
      vertex 2.31395 -6.99013 6
      vertex 2.93691 -6.91144 6
    endloop
  endfacet
  facet normal 0 0 1
    outer loop
      vertex -7 2 6
      vertex 2.31395 6.99013 6
      vertex -2.31395 6.99013 6
    endloop
  endfacet
  facet normal 0 0 1
    outer loop
      vertex -7 -2 6
      vertex 7 -2 6
      vertex -7 2 6
    endloop
  endfacet
  facet normal 0 0 1
    outer loop
      vertex -7 2 6
      vertex -2.31395 6.99013 6
      vertex -2.93691 6.91144 6
    endloop
  endfacet
  facet normal 0 0 1
    outer loop
      vertex 7 -2 6
      vertex -7 -2 6
      vertex 2.31395 -6.99013 6
    endloop
  endfacet
  facet normal 0 0 1
    outer loop
      vertex -7 2 6
      vertex -2.93691 6.91144 6
      vertex -3.54508 6.75528 6
    endloop
  endfacet
  facet normal 0 0 1
    outer loop
      vertex 2.31395 -6.99013 6
      vertex -7 -2 6
      vertex -2.31395 -6.99013 6
    endloop
  endfacet
  facet normal 0 0 1
    outer loop
      vertex -7 2 6
      vertex -3.54508 6.75528 6
      vertex -4.1289 6.52413 6
    endloop
  endfacet
  facet normal 0 0 1
    outer loop
      vertex -2.31395 -6.99013 6
      vertex -7 -2 6
      vertex -2.93691 -6.91144 6
    endloop
  endfacet
  facet normal 0 0 1
    outer loop
      vertex -7 2 6
      vertex -4.1289 6.52413 6
      vertex -4.67913 6.22164 6
    endloop
  endfacet
  facet normal 0 0 1
    outer loop
      vertex -2.93691 -6.91144 6
      vertex -7 -2 6
      vertex -3.54508 -6.75528 6
    endloop
  endfacet
  facet normal 0 0 1
    outer loop
      vertex -7 2 6
      vertex -4.67913 6.22164 6
      vertex -5.18712 5.85257 6
    endloop
  endfacet
  facet normal 0 0 1
    outer loop
      vertex -3.54508 -6.75528 6
      vertex -7 -2 6
      vertex -4.1289 -6.52413 6
    endloop
  endfacet
  facet normal 0 0 1
    outer loop
      vertex -7 2 6
      vertex -5.18712 5.85257 6
      vertex -5.64484 5.42274 6
    endloop
  endfacet
  facet normal 0 0 1
    outer loop
      vertex -4.1289 -6.52413 6
      vertex -7 -2 6
      vertex -4.67913 -6.22164 6
    endloop
  endfacet
  facet normal 0 0 1
    outer loop
      vertex -7 2 6
      vertex -5.64484 5.42274 6
      vertex -6.04508 4.93893 6
    endloop
  endfacet
  facet normal 0 0 1
    outer loop
      vertex -4.67913 -6.22164 6
      vertex -7 -2 6
      vertex -5.18712 -5.85257 6
    endloop
  endfacet
  facet normal 0 0 1
    outer loop
      vertex -7 2 6
      vertex -6.04508 4.93893 6
      vertex -6.38153 4.40877 6
    endloop
  endfacet
  facet normal 0 0 1
    outer loop
      vertex -5.18712 -5.85257 6
      vertex -7 -2 6
      vertex -5.64484 -5.42274 6
    endloop
  endfacet
  facet normal 0 0 1
    outer loop
      vertex -7 2 6
      vertex -6.38153 4.40877 6
      vertex -6.64888 3.84062 6
    endloop
  endfacet
  facet normal 0 0 1
    outer loop
      vertex -5.64484 -5.42274 6
      vertex -7 -2 6
      vertex -6.04508 -4.93893 6
    endloop
  endfacet
  facet normal 0 0 1
    outer loop
      vertex -7 2 6
      vertex -6.64888 3.84062 6
      vertex -6.84292 3.24345 6
    endloop
  endfacet
  facet normal 0 0 1
    outer loop
      vertex -6.04508 -4.93893 6
      vertex -7 -2 6
      vertex -6.38153 -4.40877 6
    endloop
  endfacet
  facet normal 0 0 1
    outer loop
      vertex -7 2 6
      vertex -6.84292 3.24345 6
      vertex -6.96057 2.62667 6
    endloop
  endfacet
  facet normal 0 0 1
    outer loop
      vertex -6.38153 -4.40877 6
      vertex -7 -2 6
      vertex -6.64888 -3.84062 6
    endloop
  endfacet
  facet normal 0 0 1
    outer loop
      vertex -6.64888 -3.84062 6
      vertex -7 -2 6
      vertex -6.84292 -3.24345 6
    endloop
  endfacet
  facet normal 0 0 1
    outer loop
      vertex -6.84292 -3.24345 6
      vertex -7 -2 6
      vertex -6.96057 -2.62667 6
    endloop
  endfacet
  facet normal -0.770515 0.637422 0
    outer loop
      vertex -6.04508 4.93893 0
      vertex -5.64484 5.42274 6
      vertex -5.64484 5.42274 0
    endloop
  endfacet
  facet normal -0.770515 0.637422 0
    outer loop
      vertex -5.64484 5.42274 6
      vertex -6.04508 4.93893 0
      vertex -6.04508 4.93893 6
    endloop
  endfacet
  facet normal -0.998026 0.0627957 0
    outer loop
      vertex -7 2 0
      vertex -6.96057 2.62667 6
      vertex -6.96057 2.62667 0
    endloop
  endfacet
  facet normal -0.998026 0.0627957 0
    outer loop
      vertex -6.96057 2.62667 6
      vertex -7 2 0
      vertex -7 2 6
    endloop
  endfacet
  facet normal -0.951053 0.309028 0
    outer loop
      vertex -6.84292 3.24345 0
      vertex -6.64888 3.84062 6
      vertex -6.64888 3.84062 0
    endloop
  endfacet
  facet normal -0.951053 0.309028 0
    outer loop
      vertex -6.64888 3.84062 6
      vertex -6.84292 3.24345 0
      vertex -6.84292 3.24345 6
    endloop
  endfacet
  facet normal 0.12532 -0.992116 0
    outer loop
      vertex 2.31395 -6.99013 0
      vertex 2.93691 -6.91144 6
      vertex 2.31395 -6.99013 6
    endloop
  endfacet
  facet normal 0.12532 -0.992116 0
    outer loop
      vertex 2.93691 -6.91144 6
      vertex 2.31395 -6.99013 0
      vertex 2.93691 -6.91144 0
    endloop
  endfacet
  facet normal 0.684549 0.728967 -0
    outer loop
      vertex 5.64484 5.42274 0
      vertex 5.18712 5.85257 6
      vertex 5.64484 5.42274 6
    endloop
  endfacet
  facet normal 0.684549 0.728967 0
    outer loop
      vertex 5.18712 5.85257 6
      vertex 5.64484 5.42274 0
      vertex 5.18712 5.85257 0
    endloop
  endfacet
  facet normal 0.844328 0.535827 0
    outer loop
      vertex 6.38153 4.40877 6
      vertex 6.04508 4.93893 0
      vertex 6.04508 4.93893 6
    endloop
  endfacet
  facet normal 0.844328 0.535827 0
    outer loop
      vertex 6.04508 4.93893 0
      vertex 6.38153 4.40877 6
      vertex 6.38153 4.40877 0
    endloop
  endfacet
  facet normal 0 1 -0
    outer loop
      vertex 2.31395 6.99013 0
      vertex -2.31395 6.99013 6
      vertex 2.31395 6.99013 6
    endloop
  endfacet
  facet normal 0 1 0
    outer loop
      vertex -2.31395 6.99013 6
      vertex 2.31395 6.99013 0
      vertex -2.31395 6.99013 0
    endloop
  endfacet
  facet normal -0.904828 0.425778 0
    outer loop
      vertex -6.64888 3.84062 0
      vertex -6.38153 4.40877 6
      vertex -6.38153 4.40877 0
    endloop
  endfacet
  facet normal -0.904828 0.425778 0
    outer loop
      vertex -6.38153 4.40877 6
      vertex -6.64888 3.84062 0
      vertex -6.64888 3.84062 6
    endloop
  endfacet
  facet normal 0.998026 -0.0627957 0
    outer loop
      vertex 6.96057 -2.62667 6
      vertex 7 -2 5
      vertex 7 -2 6
    endloop
  endfacet
  facet normal 0.998026 -0.0627957 0
    outer loop
      vertex 7 -2 5
      vertex 6.96057 -2.62667 6
      vertex 6.96057 -2.62667 5
    endloop
  endfacet
  facet normal 0.998026 -0.0627957 0
    outer loop
      vertex 6.96057 -2.62667 1.5
      vertex 7 -2 0
      vertex 7 -2 1.5
    endloop
  endfacet
  facet normal 0.998026 -0.0627957 0
    outer loop
      vertex 7 -2 0
      vertex 6.96057 -2.62667 1.5
      vertex 6.96057 -2.62667 0
    endloop
  endfacet
  facet normal 0.982289 -0.18737 0
    outer loop
      vertex 6.84292 -3.24345 1.5
      vertex 6.96057 -2.62667 0
      vertex 6.96057 -2.62667 1.5
    endloop
  endfacet
  facet normal 0.982289 -0.18737 0
    outer loop
      vertex 6.96057 -2.62667 0
      vertex 6.84292 -3.24345 1.5
      vertex 6.84292 -3.24345 0
    endloop
  endfacet
  facet normal 0.982289 -0.18737 0
    outer loop
      vertex 6.84292 -3.24345 6
      vertex 6.96057 -2.62667 5
      vertex 6.96057 -2.62667 6
    endloop
  endfacet
  facet normal 0.982289 -0.18737 0
    outer loop
      vertex 6.96057 -2.62667 5
      vertex 6.84292 -3.24345 6
      vertex 6.84292 -3.24345 5
    endloop
  endfacet
  facet normal -0.587779 -0.809022 0
    outer loop
      vertex -5.18712 -5.85257 0
      vertex -4.67913 -6.22164 6
      vertex -5.18712 -5.85257 6
    endloop
  endfacet
  facet normal -0.587779 -0.809022 -0
    outer loop
      vertex -4.67913 -6.22164 6
      vertex -5.18712 -5.85257 0
      vertex -4.67913 -6.22164 0
    endloop
  endfacet
  facet normal 0.368124 -0.929777 0
    outer loop
      vertex 3.54508 -6.75528 0
      vertex 4.1289 -6.52413 6
      vertex 3.54508 -6.75528 6
    endloop
  endfacet
  facet normal 0.368124 -0.929777 0
    outer loop
      vertex 4.1289 -6.52413 6
      vertex 3.54508 -6.75528 0
      vertex 4.1289 -6.52413 0
    endloop
  endfacet
  facet normal 0.368124 0.929777 -0
    outer loop
      vertex 4.1289 6.52413 0
      vertex 3.54508 6.75528 6
      vertex 4.1289 6.52413 6
    endloop
  endfacet
  facet normal 0.368124 0.929777 0
    outer loop
      vertex 3.54508 6.75528 6
      vertex 4.1289 6.52413 0
      vertex 3.54508 6.75528 0
    endloop
  endfacet
  facet normal 0.951053 0.309027 -0
    outer loop
      vertex 6.78192 3.43118 1.5
      vertex 6.64888 3.84062 6
      vertex 6.78192 3.43118 5
    endloop
  endfacet
  facet normal 0.951053 0.309028 -3.83498e-07
    outer loop
      vertex 6.84292 3.24345 6
      vertex 6.78192 3.43118 5
      vertex 6.64888 3.84062 6
    endloop
  endfacet
  facet normal 0.951052 0.30903 0
    outer loop
      vertex 6.78192 3.43118 5
      vertex 6.84292 3.24345 6
      vertex 6.84292 3.24345 5
    endloop
  endfacet
  facet normal 0.951053 0.309027 0
    outer loop
      vertex 6.64888 3.84062 6
      vertex 6.78192 3.43118 1.5
      vertex 6.64888 3.84062 0
    endloop
  endfacet
  facet normal 0.951052 0.30903 -0
    outer loop
      vertex 6.84292 3.24345 0
      vertex 6.78192 3.43118 1.5
      vertex 6.84292 3.24345 1.5
    endloop
  endfacet
  facet normal 0.951053 0.309028 2.55665e-07
    outer loop
      vertex 6.78192 3.43118 1.5
      vertex 6.84292 3.24345 0
      vertex 6.64888 3.84062 0
    endloop
  endfacet
  facet normal 0.982289 0.18737 0
    outer loop
      vertex 6.96057 2.62667 6
      vertex 6.84292 3.24345 5
      vertex 6.84292 3.24345 6
    endloop
  endfacet
  facet normal 0.982289 0.18737 0
    outer loop
      vertex 6.84292 3.24345 5
      vertex 6.96057 2.62667 6
      vertex 6.96057 2.62667 5
    endloop
  endfacet
  facet normal 0.982289 0.18737 0
    outer loop
      vertex 6.96057 2.62667 1.5
      vertex 6.84292 3.24345 0
      vertex 6.84292 3.24345 1.5
    endloop
  endfacet
  facet normal 0.982289 0.18737 0
    outer loop
      vertex 6.84292 3.24345 0
      vertex 6.96057 2.62667 1.5
      vertex 6.96057 2.62667 0
    endloop
  endfacet
  facet normal 0.998026 0.0627957 0
    outer loop
      vertex 7 2 1.5
      vertex 6.96057 2.62667 0
      vertex 6.96057 2.62667 1.5
    endloop
  endfacet
  facet normal 0.998026 0.0627957 0
    outer loop
      vertex 6.96057 2.62667 0
      vertex 7 2 1.5
      vertex 7 2 0
    endloop
  endfacet
  facet normal 0.998026 0.0627957 0
    outer loop
      vertex 7 2 6
      vertex 6.96057 2.62667 5
      vertex 6.96057 2.62667 6
    endloop
  endfacet
  facet normal 0.998026 0.0627957 0
    outer loop
      vertex 6.96057 2.62667 5
      vertex 7 2 6
      vertex 7 2 5
    endloop
  endfacet
  facet normal -0.587779 0.809022 0
    outer loop
      vertex -4.67913 6.22164 0
      vertex -5.18712 5.85257 6
      vertex -4.67913 6.22164 6
    endloop
  endfacet
  facet normal -0.587779 0.809022 0
    outer loop
      vertex -5.18712 5.85257 6
      vertex -4.67913 6.22164 0
      vertex -5.18712 5.85257 0
    endloop
  endfacet
  facet normal -0.684549 0.728967 0
    outer loop
      vertex -5.18712 5.85257 0
      vertex -5.64484 5.42274 6
      vertex -5.18712 5.85257 6
    endloop
  endfacet
  facet normal -0.684549 0.728967 0
    outer loop
      vertex -5.64484 5.42274 6
      vertex -5.18712 5.85257 0
      vertex -5.64484 5.42274 0
    endloop
  endfacet
  facet normal -0.481752 0.876308 0
    outer loop
      vertex -4.1289 6.52413 0
      vertex -4.67913 6.22164 6
      vertex -4.1289 6.52413 6
    endloop
  endfacet
  facet normal -0.481752 0.876308 0
    outer loop
      vertex -4.67913 6.22164 6
      vertex -4.1289 6.52413 0
      vertex -4.67913 6.22164 0
    endloop
  endfacet
  facet normal -0.368124 0.929777 0
    outer loop
      vertex -3.54508 6.75528 0
      vertex -4.1289 6.52413 6
      vertex -3.54508 6.75528 6
    endloop
  endfacet
  facet normal -0.368124 0.929777 0
    outer loop
      vertex -4.1289 6.52413 6
      vertex -3.54508 6.75528 0
      vertex -4.1289 6.52413 0
    endloop
  endfacet
  facet normal -0.12532 0.992116 0
    outer loop
      vertex -2.31395 6.99013 0
      vertex -2.93691 6.91144 6
      vertex -2.31395 6.99013 6
    endloop
  endfacet
  facet normal -0.12532 0.992116 0
    outer loop
      vertex -2.93691 6.91144 6
      vertex -2.31395 6.99013 0
      vertex -2.93691 6.91144 0
    endloop
  endfacet
  facet normal 0.12532 0.992116 -0
    outer loop
      vertex 2.93691 6.91144 0
      vertex 2.31395 6.99013 6
      vertex 2.93691 6.91144 6
    endloop
  endfacet
  facet normal 0.12532 0.992116 0
    outer loop
      vertex 2.31395 6.99013 6
      vertex 2.93691 6.91144 0
      vertex 2.31395 6.99013 0
    endloop
  endfacet
  facet normal -0.844328 0.535827 0
    outer loop
      vertex -6.38153 4.40877 0
      vertex -6.04508 4.93893 6
      vertex -6.04508 4.93893 0
    endloop
  endfacet
  facet normal -0.844328 0.535827 0
    outer loop
      vertex -6.04508 4.93893 6
      vertex -6.38153 4.40877 0
      vertex -6.38153 4.40877 6
    endloop
  endfacet
  facet normal -0.982289 0.18737 0
    outer loop
      vertex -6.96057 2.62667 0
      vertex -6.84292 3.24345 6
      vertex -6.84292 3.24345 0
    endloop
  endfacet
  facet normal -0.982289 0.18737 0
    outer loop
      vertex -6.84292 3.24345 6
      vertex -6.96057 2.62667 0
      vertex -6.96057 2.62667 6
    endloop
  endfacet
  facet normal 0.904828 -0.425778 0
    outer loop
      vertex 6.38153 -4.40877 6
      vertex 6.64888 -3.84062 0
      vertex 6.64888 -3.84062 6
    endloop
  endfacet
  facet normal 0.904828 -0.425778 0
    outer loop
      vertex 6.64888 -3.84062 0
      vertex 6.38153 -4.40877 6
      vertex 6.38153 -4.40877 0
    endloop
  endfacet
  facet normal -0.844328 -0.535827 0
    outer loop
      vertex -6.04508 -4.93893 0
      vertex -6.38153 -4.40877 6
      vertex -6.38153 -4.40877 0
    endloop
  endfacet
  facet normal -0.844328 -0.535827 0
    outer loop
      vertex -6.38153 -4.40877 6
      vertex -6.04508 -4.93893 0
      vertex -6.04508 -4.93893 6
    endloop
  endfacet
  facet normal -0.368124 -0.929777 0
    outer loop
      vertex -4.1289 -6.52413 0
      vertex -3.54508 -6.75528 6
      vertex -4.1289 -6.52413 6
    endloop
  endfacet
  facet normal -0.368124 -0.929777 -0
    outer loop
      vertex -3.54508 -6.75528 6
      vertex -4.1289 -6.52413 0
      vertex -3.54508 -6.75528 0
    endloop
  endfacet
  facet normal -0.248703 -0.96858 0
    outer loop
      vertex -3.54508 -6.75528 0
      vertex -2.93691 -6.91144 6
      vertex -3.54508 -6.75528 6
    endloop
  endfacet
  facet normal -0.248703 -0.96858 -0
    outer loop
      vertex -2.93691 -6.91144 6
      vertex -3.54508 -6.75528 0
      vertex -2.93691 -6.91144 0
    endloop
  endfacet
  facet normal 0 -1 0
    outer loop
      vertex -2.31395 -6.99013 0
      vertex 2.31395 -6.99013 6
      vertex -2.31395 -6.99013 6
    endloop
  endfacet
  facet normal 0 -1 -0
    outer loop
      vertex 2.31395 -6.99013 6
      vertex -2.31395 -6.99013 0
      vertex 2.31395 -6.99013 0
    endloop
  endfacet
  facet normal 0.481752 -0.876308 0
    outer loop
      vertex 4.1289 -6.52413 0
      vertex 4.67913 -6.22164 6
      vertex 4.1289 -6.52413 6
    endloop
  endfacet
  facet normal 0.481752 -0.876308 0
    outer loop
      vertex 4.67913 -6.22164 6
      vertex 4.1289 -6.52413 0
      vertex 4.67913 -6.22164 0
    endloop
  endfacet
  facet normal 0.904828 0.425778 0
    outer loop
      vertex 6.64888 3.84062 6
      vertex 6.38153 4.40877 0
      vertex 6.38153 4.40877 6
    endloop
  endfacet
  facet normal 0.904828 0.425778 0
    outer loop
      vertex 6.38153 4.40877 0
      vertex 6.64888 3.84062 6
      vertex 6.64888 3.84062 0
    endloop
  endfacet
  facet normal 0.770515 0.637422 0
    outer loop
      vertex 6.04508 4.93893 6
      vertex 5.64484 5.42274 0
      vertex 5.64484 5.42274 6
    endloop
  endfacet
  facet normal 0.770515 0.637422 0
    outer loop
      vertex 5.64484 5.42274 0
      vertex 6.04508 4.93893 6
      vertex 6.04508 4.93893 0
    endloop
  endfacet
  facet normal 0.587779 0.809022 -0
    outer loop
      vertex 5.18712 5.85257 0
      vertex 4.67913 6.22164 6
      vertex 5.18712 5.85257 6
    endloop
  endfacet
  facet normal 0.587779 0.809022 0
    outer loop
      vertex 4.67913 6.22164 6
      vertex 5.18712 5.85257 0
      vertex 4.67913 6.22164 0
    endloop
  endfacet
  facet normal 0.481752 0.876308 -0
    outer loop
      vertex 4.67913 6.22164 0
      vertex 4.1289 6.52413 6
      vertex 4.67913 6.22164 6
    endloop
  endfacet
  facet normal 0.481752 0.876308 0
    outer loop
      vertex 4.1289 6.52413 6
      vertex 4.67913 6.22164 0
      vertex 4.1289 6.52413 0
    endloop
  endfacet
  facet normal 0.248703 0.96858 -0
    outer loop
      vertex 3.54508 6.75528 0
      vertex 2.93691 6.91144 6
      vertex 3.54508 6.75528 6
    endloop
  endfacet
  facet normal 0.248703 0.96858 0
    outer loop
      vertex 2.93691 6.91144 6
      vertex 3.54508 6.75528 0
      vertex 2.93691 6.91144 0
    endloop
  endfacet
  facet normal 0.844328 -0.535827 0
    outer loop
      vertex 6.04508 -4.93893 6
      vertex 6.38153 -4.40877 0
      vertex 6.38153 -4.40877 6
    endloop
  endfacet
  facet normal 0.844328 -0.535827 0
    outer loop
      vertex 6.38153 -4.40877 0
      vertex 6.04508 -4.93893 6
      vertex 6.04508 -4.93893 0
    endloop
  endfacet
  facet normal 0.770515 -0.637422 0
    outer loop
      vertex 5.64484 -5.42274 6
      vertex 6.04508 -4.93893 0
      vertex 6.04508 -4.93893 6
    endloop
  endfacet
  facet normal 0.770515 -0.637422 0
    outer loop
      vertex 6.04508 -4.93893 0
      vertex 5.64484 -5.42274 6
      vertex 5.64484 -5.42274 0
    endloop
  endfacet
  facet normal 0.951052 -0.30903 0
    outer loop
      vertex 6.84292 -3.24345 6
      vertex 6.78192 -3.43118 5
      vertex 6.84292 -3.24345 5
    endloop
  endfacet
  facet normal 0.951053 -0.309027 0
    outer loop
      vertex 6.78192 -3.43118 5
      vertex 6.64888 -3.84062 6
      vertex 6.78192 -3.43118 1.5
    endloop
  endfacet
  facet normal 0.951053 -0.309028 -3.83498e-07
    outer loop
      vertex 6.64888 -3.84062 6
      vertex 6.78192 -3.43118 5
      vertex 6.84292 -3.24345 6
    endloop
  endfacet
  facet normal 0.951052 -0.30903 0
    outer loop
      vertex 6.78192 -3.43118 1.5
      vertex 6.84292 -3.24345 0
      vertex 6.84292 -3.24345 1.5
    endloop
  endfacet
  facet normal 0.951053 -0.309028 2.55665e-07
    outer loop
      vertex 6.78192 -3.43118 1.5
      vertex 6.64888 -3.84062 0
      vertex 6.84292 -3.24345 0
    endloop
  endfacet
  facet normal 0.951053 -0.309027 0
    outer loop
      vertex 6.64888 -3.84062 0
      vertex 6.78192 -3.43118 1.5
      vertex 6.64888 -3.84062 6
    endloop
  endfacet
  facet normal -0.481752 -0.876308 0
    outer loop
      vertex -4.67913 -6.22164 0
      vertex -4.1289 -6.52413 6
      vertex -4.67913 -6.22164 6
    endloop
  endfacet
  facet normal -0.481752 -0.876308 -0
    outer loop
      vertex -4.1289 -6.52413 6
      vertex -4.67913 -6.22164 0
      vertex -4.1289 -6.52413 0
    endloop
  endfacet
  facet normal -0.770515 -0.637422 0
    outer loop
      vertex -5.64484 -5.42274 0
      vertex -6.04508 -4.93893 6
      vertex -6.04508 -4.93893 0
    endloop
  endfacet
  facet normal -0.770515 -0.637422 0
    outer loop
      vertex -6.04508 -4.93893 6
      vertex -5.64484 -5.42274 0
      vertex -5.64484 -5.42274 6
    endloop
  endfacet
  facet normal 0 0 -1
    outer loop
      vertex -0.113023 -1.79645 0
      vertex 7 -2 0
      vertex 6.96057 -2.62667 0
    endloop
  endfacet
  facet normal 0 0 -1
    outer loop
      vertex -0.113023 -1.79645 0
      vertex 6.96057 -2.62667 0
      vertex 6.84292 -3.24345 0
    endloop
  endfacet
  facet normal 0 0 -1
    outer loop
      vertex -0.113023 -1.79645 0
      vertex 6.84292 -3.24345 0
      vertex 6.64888 -3.84062 0
    endloop
  endfacet
  facet normal 0 0 -1
    outer loop
      vertex -0.113023 -1.79645 0
      vertex 6.64888 -3.84062 0
      vertex 6.38153 -4.40877 0
    endloop
  endfacet
  facet normal 0 0 -1
    outer loop
      vertex -0.113023 -1.79645 0
      vertex 6.38153 -4.40877 0
      vertex 6.04508 -4.93893 0
    endloop
  endfacet
  facet normal 0 0 -1
    outer loop
      vertex -0.113023 -1.79645 0
      vertex 6.04508 -4.93893 0
      vertex 5.64484 -5.42274 0
    endloop
  endfacet
  facet normal 0 0 -1
    outer loop
      vertex -0.113023 -1.79645 0
      vertex 5.64484 -5.42274 0
      vertex 5.18712 -5.85257 0
    endloop
  endfacet
  facet normal 0 0 -1
    outer loop
      vertex -0.113023 -1.79645 0
      vertex 5.18712 -5.85257 0
      vertex 4.67913 -6.22164 0
    endloop
  endfacet
  facet normal 0 0 -1
    outer loop
      vertex -0.113023 -1.79645 0
      vertex 4.67913 -6.22164 0
      vertex 4.1289 -6.52413 0
    endloop
  endfacet
  facet normal 0 0 -1
    outer loop
      vertex -0.113023 -1.79645 0
      vertex 4.1289 -6.52413 0
      vertex 3.54508 -6.75528 0
    endloop
  endfacet
  facet normal 0 0 -1
    outer loop
      vertex -0.113023 -1.79645 0
      vertex 3.54508 -6.75528 0
      vertex 2.93691 -6.91144 0
    endloop
  endfacet
  facet normal 0 0 -1
    outer loop
      vertex -0.113023 -1.79645 0
      vertex 2.93691 -6.91144 0
      vertex 2.31395 -6.99013 0
    endloop
  endfacet
  facet normal 0 0 -1
    outer loop
      vertex 7 -2 0
      vertex -0.113023 -1.79645 0
      vertex 7 -1.79645 0
    endloop
  endfacet
  facet normal 0 0 -1
    outer loop
      vertex -2.31395 -6.99013 0
      vertex -0.113023 -1.79645 0
      vertex 2.31395 -6.99013 0
    endloop
  endfacet
  facet normal -0 0 -1
    outer loop
      vertex -0.113023 -1.79645 0
      vertex -2.31395 -6.99013 0
      vertex -0.337286 -1.76812 0
    endloop
  endfacet
  facet normal -0 0 -1
    outer loop
      vertex -0.337286 -1.76812 0
      vertex -2.31395 -6.99013 0
      vertex -0.556231 -1.7119 0
    endloop
  endfacet
  facet normal -0 0 -1
    outer loop
      vertex -0.556231 -1.7119 0
      vertex -2.31395 -6.99013 0
      vertex -0.766402 -1.62869 0
    endloop
  endfacet
  facet normal -0 0 -1
    outer loop
      vertex -0.766402 -1.62869 0
      vertex -2.31395 -6.99013 0
      vertex -0.964488 -1.51979 0
    endloop
  endfacet
  facet normal 0 0 -1
    outer loop
      vertex -2.93691 -6.91144 0
      vertex -0.964488 -1.51979 0
      vertex -2.31395 -6.99013 0
    endloop
  endfacet
  facet normal 0 0 -1
    outer loop
      vertex -3.54508 -6.75528 0
      vertex -0.964488 -1.51979 0
      vertex -2.93691 -6.91144 0
    endloop
  endfacet
  facet normal 0 0 -1
    outer loop
      vertex -5.64484 -5.42274 0
      vertex -1.31214 -1.23218 0
      vertex -5.18712 -5.85257 0
    endloop
  endfacet
  facet normal -0 0 -1
    outer loop
      vertex -1.14736 -1.38692 0
      vertex -5.18712 -5.85257 0
      vertex -1.31214 -1.23218 0
    endloop
  endfacet
  facet normal 0 0 -1
    outer loop
      vertex -5.18712 -5.85257 0
      vertex -1.14736 -1.38692 0
      vertex -4.67913 -6.22164 0
    endloop
  endfacet
  facet normal 0 0 -1
    outer loop
      vertex -4.67913 -6.22164 0
      vertex -1.14736 -1.38692 0
      vertex -4.1289 -6.52413 0
    endloop
  endfacet
  facet normal -0 0 -1
    outer loop
      vertex -0.964488 -1.51979 0
      vertex -4.1289 -6.52413 0
      vertex -1.14736 -1.38692 0
    endloop
  endfacet
  facet normal 0 0 -1
    outer loop
      vertex -4.1289 -6.52413 0
      vertex -0.964488 -1.51979 0
      vertex -3.54508 -6.75528 0
    endloop
  endfacet
  facet normal 0 0 -1
    outer loop
      vertex -0.113023 1.79645 0
      vertex 7 2 0
      vertex 7 1.79645 0
    endloop
  endfacet
  facet normal -0 0 -1
    outer loop
      vertex 7 2 0
      vertex -0.113023 1.79645 0
      vertex 6.96057 2.62667 0
    endloop
  endfacet
  facet normal -0 0 -1
    outer loop
      vertex 6.96057 2.62667 0
      vertex -0.113023 1.79645 0
      vertex 6.84292 3.24345 0
    endloop
  endfacet
  facet normal -0 0 -1
    outer loop
      vertex 6.84292 3.24345 0
      vertex -0.113023 1.79645 0
      vertex 6.64888 3.84062 0
    endloop
  endfacet
  facet normal -0 0 -1
    outer loop
      vertex 6.64888 3.84062 0
      vertex -0.113023 1.79645 0
      vertex 6.38153 4.40877 0
    endloop
  endfacet
  facet normal -0 0 -1
    outer loop
      vertex 6.38153 4.40877 0
      vertex -0.113023 1.79645 0
      vertex 6.04508 4.93893 0
    endloop
  endfacet
  facet normal -0 0 -1
    outer loop
      vertex 6.04508 4.93893 0
      vertex -0.113023 1.79645 0
      vertex 5.64484 5.42274 0
    endloop
  endfacet
  facet normal -0 0 -1
    outer loop
      vertex 5.64484 5.42274 0
      vertex -0.113023 1.79645 0
      vertex 5.18712 5.85257 0
    endloop
  endfacet
  facet normal -0 0 -1
    outer loop
      vertex 5.18712 5.85257 0
      vertex -0.113023 1.79645 0
      vertex 4.67913 6.22164 0
    endloop
  endfacet
  facet normal -0 0 -1
    outer loop
      vertex 4.67913 6.22164 0
      vertex -0.113023 1.79645 0
      vertex 4.1289 6.52413 0
    endloop
  endfacet
  facet normal -0 0 -1
    outer loop
      vertex 4.1289 6.52413 0
      vertex -0.113023 1.79645 0
      vertex 3.54508 6.75528 0
    endloop
  endfacet
  facet normal -0 0 -1
    outer loop
      vertex 3.54508 6.75528 0
      vertex -0.113023 1.79645 0
      vertex 2.93691 6.91144 0
    endloop
  endfacet
  facet normal -0 0 -1
    outer loop
      vertex 2.93691 6.91144 0
      vertex -0.113023 1.79645 0
      vertex 2.31395 6.99013 0
    endloop
  endfacet
  facet normal 0 0 -1
    outer loop
      vertex -2.31395 6.99013 0
      vertex -0.113023 1.79645 0
      vertex -0.337286 1.76812 0
    endloop
  endfacet
  facet normal 0 0 -1
    outer loop
      vertex -2.31395 6.99013 0
      vertex -0.337286 1.76812 0
      vertex -0.556231 1.7119 0
    endloop
  endfacet
  facet normal 0 0 -1
    outer loop
      vertex -2.31395 6.99013 0
      vertex -0.556231 1.7119 0
      vertex -0.766402 1.62869 0
    endloop
  endfacet
  facet normal 0 0 -1
    outer loop
      vertex -2.31395 6.99013 0
      vertex -0.766402 1.62869 0
      vertex -0.964488 1.51979 0
    endloop
  endfacet
  facet normal 0 0 -1
    outer loop
      vertex -4.1289 6.52413 0
      vertex -0.964488 1.51979 0
      vertex -1.14736 1.38692 0
    endloop
  endfacet
  facet normal 0 0 -1
    outer loop
      vertex -5.18712 5.85257 0
      vertex -1.14736 1.38692 0
      vertex -1.31214 1.23218 0
    endloop
  endfacet
  facet normal 0 0 -1
    outer loop
      vertex -6.04508 4.93893 0
      vertex -1.31214 1.23218 0
      vertex -1.45623 1.05801 0
    endloop
  endfacet
  facet normal 0 0 -1
    outer loop
      vertex -6.04508 -4.93893 0
      vertex -1.31214 -1.23218 0
      vertex -5.64484 -5.42274 0
    endloop
  endfacet
  facet normal 0 0 -1
    outer loop
      vertex -0.113023 1.79645 0
      vertex -2.31395 6.99013 0
      vertex 2.31395 6.99013 0
    endloop
  endfacet
  facet normal 0 0 -1
    outer loop
      vertex -6.84292 3.24345 0
      vertex -1.45623 1.05801 0
      vertex -1.57735 0.867156 0
    endloop
  endfacet
  facet normal 0 0 -1
    outer loop
      vertex -7 2 0
      vertex -1.57735 0.867156 0
      vertex -1.6736 0.662623 0
    endloop
  endfacet
  facet normal 0 0 -1
    outer loop
      vertex -7 2 0
      vertex -1.6736 0.662623 0
      vertex -1.74345 0.447641 0
    endloop
  endfacet
  facet normal 0 0 -1
    outer loop
      vertex -7 2 0
      vertex -1.74345 0.447641 0
      vertex -1.78581 0.225599 0
    endloop
  endfacet
  facet normal -0 0 -1
    outer loop
      vertex -1.31214 -1.23218 0
      vertex -6.04508 -4.93893 0
      vertex -1.45623 -1.05801 0
    endloop
  endfacet
  facet normal 0 0 -1
    outer loop
      vertex -6.38153 -4.40877 0
      vertex -1.45623 -1.05801 0
      vertex -6.04508 -4.93893 0
    endloop
  endfacet
  facet normal 0 0 -1
    outer loop
      vertex -1.8 0 0
      vertex -7 2 0
      vertex -1.78581 0.225599 0
    endloop
  endfacet
  facet normal 0 0 -1
    outer loop
      vertex -6.64888 -3.84062 0
      vertex -1.45623 -1.05801 0
      vertex -6.38153 -4.40877 0
    endloop
  endfacet
  facet normal 0 0 -1
    outer loop
      vertex -1.57735 0.867156 0
      vertex -7 2 0
      vertex -6.96057 2.62667 0
    endloop
  endfacet
  facet normal 0 0 -1
    outer loop
      vertex -6.84292 -3.24345 0
      vertex -1.45623 -1.05801 0
      vertex -6.64888 -3.84062 0
    endloop
  endfacet
  facet normal 0 0 -1
    outer loop
      vertex -0.964488 1.51979 0
      vertex -2.93691 6.91144 0
      vertex -2.31395 6.99013 0
    endloop
  endfacet
  facet normal -0 0 -1
    outer loop
      vertex -1.45623 -1.05801 0
      vertex -6.84292 -3.24345 0
      vertex -1.57735 -0.867156 0
    endloop
  endfacet
  facet normal 0 0 -1
    outer loop
      vertex -0.964488 1.51979 0
      vertex -3.54508 6.75528 0
      vertex -2.93691 6.91144 0
    endloop
  endfacet
  facet normal 0 0 -1
    outer loop
      vertex -6.96057 -2.62667 0
      vertex -1.57735 -0.867156 0
      vertex -6.84292 -3.24345 0
    endloop
  endfacet
  facet normal 0 0 -1
    outer loop
      vertex -0.964488 1.51979 0
      vertex -4.1289 6.52413 0
      vertex -3.54508 6.75528 0
    endloop
  endfacet
  facet normal 0 0 -1
    outer loop
      vertex -7 -2 0
      vertex -1.57735 -0.867156 0
      vertex -6.96057 -2.62667 0
    endloop
  endfacet
  facet normal 0 0 -1
    outer loop
      vertex -1.14736 1.38692 0
      vertex -4.67913 6.22164 0
      vertex -4.1289 6.52413 0
    endloop
  endfacet
  facet normal -0 0 -1
    outer loop
      vertex -1.57735 -0.867156 0
      vertex -7 -2 0
      vertex -1.6736 -0.662623 0
    endloop
  endfacet
  facet normal 0 0 -1
    outer loop
      vertex -1.14736 1.38692 0
      vertex -5.18712 5.85257 0
      vertex -4.67913 6.22164 0
    endloop
  endfacet
  facet normal -0 0 -1
    outer loop
      vertex -1.6736 -0.662623 0
      vertex -7 -2 0
      vertex -1.74345 -0.447641 0
    endloop
  endfacet
  facet normal 0 0 -1
    outer loop
      vertex -1.31214 1.23218 0
      vertex -5.64484 5.42274 0
      vertex -5.18712 5.85257 0
    endloop
  endfacet
  facet normal -0 0 -1
    outer loop
      vertex -1.74345 -0.447641 0
      vertex -7 -2 0
      vertex -1.78581 -0.225599 0
    endloop
  endfacet
  facet normal 0 0 -1
    outer loop
      vertex -1.31214 1.23218 0
      vertex -6.04508 4.93893 0
      vertex -5.64484 5.42274 0
    endloop
  endfacet
  facet normal -0 0 -1
    outer loop
      vertex -1.78581 -0.225599 0
      vertex -7 -2 0
      vertex -1.8 0 0
    endloop
  endfacet
  facet normal 0 0 -1
    outer loop
      vertex -1.45623 1.05801 0
      vertex -6.38153 4.40877 0
      vertex -6.04508 4.93893 0
    endloop
  endfacet
  facet normal 0 0 -1
    outer loop
      vertex -7 2 0
      vertex -1.8 0 0
      vertex -7 -2 0
    endloop
  endfacet
  facet normal 0 0 -1
    outer loop
      vertex -1.45623 1.05801 0
      vertex -6.64888 3.84062 0
      vertex -6.38153 4.40877 0
    endloop
  endfacet
  facet normal 0 0 -1
    outer loop
      vertex -1.45623 1.05801 0
      vertex -6.84292 3.24345 0
      vertex -6.64888 3.84062 0
    endloop
  endfacet
  facet normal 0 0 -1
    outer loop
      vertex -1.57735 0.867156 0
      vertex -6.96057 2.62667 0
      vertex -6.84292 3.24345 0
    endloop
  endfacet
  facet normal 0.587779 -0.809022 0
    outer loop
      vertex 4.67913 -6.22164 0
      vertex 5.18712 -5.85257 6
      vertex 4.67913 -6.22164 6
    endloop
  endfacet
  facet normal 0.587779 -0.809022 0
    outer loop
      vertex 5.18712 -5.85257 6
      vertex 4.67913 -6.22164 0
      vertex 5.18712 -5.85257 0
    endloop
  endfacet
  facet normal 0.248703 -0.96858 0
    outer loop
      vertex 2.93691 -6.91144 0
      vertex 3.54508 -6.75528 6
      vertex 2.93691 -6.91144 6
    endloop
  endfacet
  facet normal 0.248703 -0.96858 0
    outer loop
      vertex 3.54508 -6.75528 6
      vertex 2.93691 -6.91144 0
      vertex 3.54508 -6.75528 0
    endloop
  endfacet
  facet normal -0.684549 -0.728967 0
    outer loop
      vertex -5.64484 -5.42274 0
      vertex -5.18712 -5.85257 6
      vertex -5.64484 -5.42274 6
    endloop
  endfacet
  facet normal -0.684549 -0.728967 -0
    outer loop
      vertex -5.18712 -5.85257 6
      vertex -5.64484 -5.42274 0
      vertex -5.18712 -5.85257 0
    endloop
  endfacet
  facet normal -0.951053 -0.309028 0
    outer loop
      vertex -6.64888 -3.84062 0
      vertex -6.84292 -3.24345 6
      vertex -6.84292 -3.24345 0
    endloop
  endfacet
  facet normal -0.951053 -0.309028 0
    outer loop
      vertex -6.84292 -3.24345 6
      vertex -6.64888 -3.84062 0
      vertex -6.64888 -3.84062 6
    endloop
  endfacet
  facet normal -0.998026 -0.0627957 0
    outer loop
      vertex -6.96057 -2.62667 0
      vertex -7 -2 6
      vertex -7 -2 0
    endloop
  endfacet
  facet normal -0.998026 -0.0627957 0
    outer loop
      vertex -7 -2 6
      vertex -6.96057 -2.62667 0
      vertex -6.96057 -2.62667 6
    endloop
  endfacet
  facet normal -0.12532 -0.992116 0
    outer loop
      vertex -2.93691 -6.91144 0
      vertex -2.31395 -6.99013 6
      vertex -2.93691 -6.91144 6
    endloop
  endfacet
  facet normal -0.12532 -0.992116 -0
    outer loop
      vertex -2.31395 -6.99013 6
      vertex -2.93691 -6.91144 0
      vertex -2.31395 -6.99013 0
    endloop
  endfacet
  facet normal -0.904828 -0.425778 0
    outer loop
      vertex -6.38153 -4.40877 0
      vertex -6.64888 -3.84062 6
      vertex -6.64888 -3.84062 0
    endloop
  endfacet
  facet normal -0.904828 -0.425778 0
    outer loop
      vertex -6.64888 -3.84062 6
      vertex -6.38153 -4.40877 0
      vertex -6.38153 -4.40877 6
    endloop
  endfacet
  facet normal -0.982289 -0.18737 0
    outer loop
      vertex -6.84292 -3.24345 0
      vertex -6.96057 -2.62667 6
      vertex -6.96057 -2.62667 0
    endloop
  endfacet
  facet normal -0.982289 -0.18737 0
    outer loop
      vertex -6.96057 -2.62667 6
      vertex -6.84292 -3.24345 0
      vertex -6.84292 -3.24345 6
    endloop
  endfacet
endsolid OpenSCAD_Model
