solid OpenSCAD_Model
  facet normal 0 0 -1
    outer loop
      vertex 4.96057 -0.626666 4.75
      vertex 4.96057 0.626666 4.75
      vertex 5 0 4.75
    endloop
  endfacet
  facet normal 0 0 -1
    outer loop
      vertex 4.84292 -1.24345 4.75
      vertex 4.96057 0.626666 4.75
      vertex 4.96057 -0.626666 4.75
    endloop
  endfacet
  facet normal 0 0 -1
    outer loop
      vertex 4.84292 -1.24345 4.75
      vertex 4.84292 1.24345 4.75
      vertex 4.96057 0.626666 4.75
    endloop
  endfacet
  facet normal 0 0 -1
    outer loop
      vertex 4.64888 -1.84062 4.75
      vertex 4.84292 1.24345 4.75
      vertex 4.84292 -1.24345 4.75
    endloop
  endfacet
  facet normal 0 0 -1
    outer loop
      vertex 4.64888 -1.84062 4.75
      vertex 4.64888 1.84062 4.75
      vertex 4.84292 1.24345 4.75
    endloop
  endfacet
  facet normal 0 0 -1
    outer loop
      vertex 4.38153 -2.40877 4.75
      vertex 4.64888 1.84062 4.75
      vertex 4.64888 -1.84062 4.75
    endloop
  endfacet
  facet normal 0 0 -1
    outer loop
      vertex 4.38153 -2.40877 4.75
      vertex 4.38153 2.40877 4.75
      vertex 4.64888 1.84062 4.75
    endloop
  endfacet
  facet normal 0 0 -1
    outer loop
      vertex 4.04508 -2.93893 4.75
      vertex 4.38153 2.40877 4.75
      vertex 4.38153 -2.40877 4.75
    endloop
  endfacet
  facet normal 0 0 -1
    outer loop
      vertex 4.04508 -2.93893 4.75
      vertex 4.04508 2.93893 4.75
      vertex 4.38153 2.40877 4.75
    endloop
  endfacet
  facet normal 0 0 -1
    outer loop
      vertex 3.64484 -3.42274 4.75
      vertex 4.04508 2.93893 4.75
      vertex 4.04508 -2.93893 4.75
    endloop
  endfacet
  facet normal 0 0 -1
    outer loop
      vertex 3.64484 -3.42274 4.75
      vertex 3.64484 3.42274 4.75
      vertex 4.04508 2.93893 4.75
    endloop
  endfacet
  facet normal 0 0 -1
    outer loop
      vertex 3.18712 -3.85257 4.75
      vertex 3.64484 3.42274 4.75
      vertex 3.64484 -3.42274 4.75
    endloop
  endfacet
  facet normal 0 0 -1
    outer loop
      vertex 3.18712 -3.85257 4.75
      vertex 3.18712 3.85257 4.75
      vertex 3.64484 3.42274 4.75
    endloop
  endfacet
  facet normal 0 0 -1
    outer loop
      vertex 2.67913 -4.22164 4.75
      vertex 3.18712 3.85257 4.75
      vertex 3.18712 -3.85257 4.75
    endloop
  endfacet
  facet normal 0 0 -1
    outer loop
      vertex 2.67913 -4.22164 4.75
      vertex 2.67913 4.22164 4.75
      vertex 3.18712 3.85257 4.75
    endloop
  endfacet
  facet normal 0 0 -1
    outer loop
      vertex 2.1289 -4.52413 4.75
      vertex 2.67913 4.22164 4.75
      vertex 2.67913 -4.22164 4.75
    endloop
  endfacet
  facet normal 0 0 -1
    outer loop
      vertex 2.1289 -4.52413 4.75
      vertex 2.1289 4.52413 4.75
      vertex 2.67913 4.22164 4.75
    endloop
  endfacet
  facet normal 0 0 -1
    outer loop
      vertex 1.54508 -4.75528 4.75
      vertex 2.1289 4.52413 4.75
      vertex 2.1289 -4.52413 4.75
    endloop
  endfacet
  facet normal 0 0 -1
    outer loop
      vertex 1.54508 -4.75528 4.75
      vertex 1.54508 4.75528 4.75
      vertex 2.1289 4.52413 4.75
    endloop
  endfacet
  facet normal 0 0 -1
    outer loop
      vertex 0.936906 -4.91144 4.75
      vertex 1.54508 4.75528 4.75
      vertex 1.54508 -4.75528 4.75
    endloop
  endfacet
  facet normal 0 0 -1
    outer loop
      vertex 0.936906 -4.91144 4.75
      vertex 0.936906 4.91144 4.75
      vertex 1.54508 4.75528 4.75
    endloop
  endfacet
  facet normal 0 0 -1
    outer loop
      vertex 0.313952 -4.99013 4.75
      vertex 0.936906 4.91144 4.75
      vertex 0.936906 -4.91144 4.75
    endloop
  endfacet
  facet normal 0 0 -1
    outer loop
      vertex 0.313952 -4.99013 4.75
      vertex 0.313952 4.99013 4.75
      vertex 0.936906 4.91144 4.75
    endloop
  endfacet
  facet normal 0 0 -1
    outer loop
      vertex -0.313952 -4.99013 4.75
      vertex 0.313952 4.99013 4.75
      vertex 0.313952 -4.99013 4.75
    endloop
  endfacet
  facet normal 0 0 -1
    outer loop
      vertex -0.313952 -4.99013 4.75
      vertex -0.313952 4.99013 4.75
      vertex 0.313952 4.99013 4.75
    endloop
  endfacet
  facet normal 0 0 -1
    outer loop
      vertex -0.936906 -4.91144 4.75
      vertex -0.313952 4.99013 4.75
      vertex -0.313952 -4.99013 4.75
    endloop
  endfacet
  facet normal 0 0 -1
    outer loop
      vertex -0.936906 -4.91144 4.75
      vertex -0.936906 4.91144 4.75
      vertex -0.313952 4.99013 4.75
    endloop
  endfacet
  facet normal 0 0 -1
    outer loop
      vertex -1.54508 -4.75528 4.75
      vertex -0.936906 4.91144 4.75
      vertex -0.936906 -4.91144 4.75
    endloop
  endfacet
  facet normal 0 0 -1
    outer loop
      vertex -1.54508 -4.75528 4.75
      vertex -1.54508 4.75528 4.75
      vertex -0.936906 4.91144 4.75
    endloop
  endfacet
  facet normal 0 0 -1
    outer loop
      vertex -2.1289 -4.52413 4.75
      vertex -1.54508 4.75528 4.75
      vertex -1.54508 -4.75528 4.75
    endloop
  endfacet
  facet normal 0 0 -1
    outer loop
      vertex -2.1289 -4.52413 4.75
      vertex -2.1289 4.52413 4.75
      vertex -1.54508 4.75528 4.75
    endloop
  endfacet
  facet normal 0 0 -1
    outer loop
      vertex -2.67913 -4.22164 4.75
      vertex -2.1289 4.52413 4.75
      vertex -2.1289 -4.52413 4.75
    endloop
  endfacet
  facet normal 0 0 -1
    outer loop
      vertex -2.67913 -4.22164 4.75
      vertex -2.67913 4.22164 4.75
      vertex -2.1289 4.52413 4.75
    endloop
  endfacet
  facet normal 0 0 -1
    outer loop
      vertex -3.18712 -3.85257 4.75
      vertex -2.67913 4.22164 4.75
      vertex -2.67913 -4.22164 4.75
    endloop
  endfacet
  facet normal 0 0 -1
    outer loop
      vertex -3.18712 -3.85257 4.75
      vertex -3.18712 3.85257 4.75
      vertex -2.67913 4.22164 4.75
    endloop
  endfacet
  facet normal 0 0 -1
    outer loop
      vertex -3.64484 -3.42274 4.75
      vertex -3.18712 3.85257 4.75
      vertex -3.18712 -3.85257 4.75
    endloop
  endfacet
  facet normal 0 0 -1
    outer loop
      vertex -3.64484 -3.42274 4.75
      vertex -3.64484 3.42274 4.75
      vertex -3.18712 3.85257 4.75
    endloop
  endfacet
  facet normal 0 0 -1
    outer loop
      vertex -4.04508 -2.93893 4.75
      vertex -3.64484 3.42274 4.75
      vertex -3.64484 -3.42274 4.75
    endloop
  endfacet
  facet normal 0 0 -1
    outer loop
      vertex -4.04508 -2.93893 4.75
      vertex -4.04508 2.93893 4.75
      vertex -3.64484 3.42274 4.75
    endloop
  endfacet
  facet normal 0 0 -1
    outer loop
      vertex -4.38153 -2.40877 4.75
      vertex -4.04508 2.93893 4.75
      vertex -4.04508 -2.93893 4.75
    endloop
  endfacet
  facet normal 0 0 -1
    outer loop
      vertex -4.38153 -2.40877 4.75
      vertex -4.38153 2.40877 4.75
      vertex -4.04508 2.93893 4.75
    endloop
  endfacet
  facet normal 0 0 -1
    outer loop
      vertex -4.64888 -1.84062 4.75
      vertex -4.38153 2.40877 4.75
      vertex -4.38153 -2.40877 4.75
    endloop
  endfacet
  facet normal 0 0 -1
    outer loop
      vertex -4.64888 -1.84062 4.75
      vertex -4.64888 1.84062 4.75
      vertex -4.38153 2.40877 4.75
    endloop
  endfacet
  facet normal 0 0 -1
    outer loop
      vertex -4.84292 -1.24345 4.75
      vertex -4.64888 1.84062 4.75
      vertex -4.64888 -1.84062 4.75
    endloop
  endfacet
  facet normal 0 0 -1
    outer loop
      vertex -4.84292 -1.24345 4.75
      vertex -4.84292 1.24345 4.75
      vertex -4.64888 1.84062 4.75
    endloop
  endfacet
  facet normal 0 0 -1
    outer loop
      vertex -4.96057 -0.626666 4.75
      vertex -4.84292 1.24345 4.75
      vertex -4.84292 -1.24345 4.75
    endloop
  endfacet
  facet normal 0 0 -1
    outer loop
      vertex -4.96057 -0.626666 4.75
      vertex -4.96057 0.626666 4.75
      vertex -4.84292 1.24345 4.75
    endloop
  endfacet
  facet normal 0 -0 -1
    outer loop
      vertex -4.96057 0.626666 4.75
      vertex -4.96057 -0.626666 4.75
      vertex -5 0 4.75
    endloop
  endfacet
  facet normal 0.98229 0.187369 0
    outer loop
      vertex 4.96057 0.626666 9
      vertex 4.84292 1.24345 4.75
      vertex 4.84292 1.24345 9
    endloop
  endfacet
  facet normal 0.98229 0.187369 0
    outer loop
      vertex 4.84292 1.24345 4.75
      vertex 4.96057 0.626666 9
      vertex 4.96057 0.626666 4.75
    endloop
  endfacet
  facet normal -0.998026 0.0627961 0
    outer loop
      vertex -5 0 4.75
      vertex -4.96057 0.626666 9
      vertex -4.96057 0.626666 4.75
    endloop
  endfacet
  facet normal -0.998026 0.0627961 0
    outer loop
      vertex -4.96057 0.626666 9
      vertex -5 0 4.75
      vertex -5 0 9
    endloop
  endfacet
  facet normal 0 -1 0
    outer loop
      vertex -0.313952 -4.99013 4.75
      vertex 0.313952 -4.99013 9
      vertex -0.313952 -4.99013 9
    endloop
  endfacet
  facet normal 0 -1 -0
    outer loop
      vertex 0.313952 -4.99013 9
      vertex -0.313952 -4.99013 4.75
      vertex 0.313952 -4.99013 4.75
    endloop
  endfacet
  facet normal 0 1 -0
    outer loop
      vertex 0.313952 4.99013 4.75
      vertex -0.313952 4.99013 9
      vertex 0.313952 4.99013 9
    endloop
  endfacet
  facet normal 0 1 0
    outer loop
      vertex -0.313952 4.99013 9
      vertex 0.313952 4.99013 4.75
      vertex -0.313952 4.99013 4.75
    endloop
  endfacet
  facet normal 0.684549 0.728967 -0
    outer loop
      vertex 3.64484 3.42274 4.75
      vertex 3.18712 3.85257 9
      vertex 3.64484 3.42274 9
    endloop
  endfacet
  facet normal 0.684549 0.728967 0
    outer loop
      vertex 3.18712 3.85257 9
      vertex 3.64484 3.42274 4.75
      vertex 3.18712 3.85257 4.75
    endloop
  endfacet
  facet normal -0.684549 0.728967 0
    outer loop
      vertex -3.18712 3.85257 4.75
      vertex -3.64484 3.42274 9
      vertex -3.18712 3.85257 9
    endloop
  endfacet
  facet normal -0.684549 0.728967 0
    outer loop
      vertex -3.64484 3.42274 9
      vertex -3.18712 3.85257 4.75
      vertex -3.64484 3.42274 4.75
    endloop
  endfacet
  facet normal 0.368124 -0.929777 0
    outer loop
      vertex 1.54508 -4.75528 4.75
      vertex 2.1289 -4.52413 9
      vertex 1.54508 -4.75528 9
    endloop
  endfacet
  facet normal 0.368124 -0.929777 0
    outer loop
      vertex 2.1289 -4.52413 9
      vertex 1.54508 -4.75528 4.75
      vertex 2.1289 -4.52413 4.75
    endloop
  endfacet
  facet normal 0.998026 0.0627961 0
    outer loop
      vertex 5 0 9
      vertex 4.96057 0.626666 4.75
      vertex 4.96057 0.626666 9
    endloop
  endfacet
  facet normal 0.998026 0.0627961 0
    outer loop
      vertex 4.96057 0.626666 4.75
      vertex 5 0 9
      vertex 5 0 4.75
    endloop
  endfacet
  facet normal 0.951053 0.309028 0
    outer loop
      vertex 4.84292 1.24345 9
      vertex 4.64888 1.84062 4.75
      vertex 4.64888 1.84062 9
    endloop
  endfacet
  facet normal 0.951053 0.309028 0
    outer loop
      vertex 4.64888 1.84062 4.75
      vertex 4.84292 1.24345 9
      vertex 4.84292 1.24345 4.75
    endloop
  endfacet
  facet normal -0.844328 0.535827 0
    outer loop
      vertex -4.38153 2.40877 4.75
      vertex -4.04508 2.93893 9
      vertex -4.04508 2.93893 4.75
    endloop
  endfacet
  facet normal -0.844328 0.535827 0
    outer loop
      vertex -4.04508 2.93893 9
      vertex -4.38153 2.40877 4.75
      vertex -4.38153 2.40877 9
    endloop
  endfacet
  facet normal 0.368124 0.929777 -0
    outer loop
      vertex 2.1289 4.52413 4.75
      vertex 1.54508 4.75528 9
      vertex 2.1289 4.52413 9
    endloop
  endfacet
  facet normal 0.368124 0.929777 0
    outer loop
      vertex 1.54508 4.75528 9
      vertex 2.1289 4.52413 4.75
      vertex 1.54508 4.75528 4.75
    endloop
  endfacet
  facet normal 0.248701 0.96858 -0
    outer loop
      vertex 1.54508 4.75528 4.75
      vertex 0.936906 4.91144 9
      vertex 1.54508 4.75528 9
    endloop
  endfacet
  facet normal 0.248701 0.96858 0
    outer loop
      vertex 0.936906 4.91144 9
      vertex 1.54508 4.75528 4.75
      vertex 0.936906 4.91144 4.75
    endloop
  endfacet
  facet normal 0.481752 0.876308 -0
    outer loop
      vertex 2.67913 4.22164 4.75
      vertex 2.1289 4.52413 9
      vertex 2.67913 4.22164 9
    endloop
  endfacet
  facet normal 0.481752 0.876308 0
    outer loop
      vertex 2.1289 4.52413 9
      vertex 2.67913 4.22164 4.75
      vertex 2.1289 4.52413 4.75
    endloop
  endfacet
  facet normal -0.368124 0.929777 0
    outer loop
      vertex -1.54508 4.75528 4.75
      vertex -2.1289 4.52413 9
      vertex -1.54508 4.75528 9
    endloop
  endfacet
  facet normal -0.368124 0.929777 0
    outer loop
      vertex -2.1289 4.52413 9
      vertex -1.54508 4.75528 4.75
      vertex -2.1289 4.52413 4.75
    endloop
  endfacet
  facet normal -0.770515 0.637422 0
    outer loop
      vertex -4.04508 2.93893 4.75
      vertex -3.64484 3.42274 9
      vertex -3.64484 3.42274 4.75
    endloop
  endfacet
  facet normal -0.770515 0.637422 0
    outer loop
      vertex -3.64484 3.42274 9
      vertex -4.04508 2.93893 4.75
      vertex -4.04508 2.93893 9
    endloop
  endfacet
  facet normal -0.951053 0.309028 0
    outer loop
      vertex -4.84292 1.24345 4.75
      vertex -4.64888 1.84062 9
      vertex -4.64888 1.84062 4.75
    endloop
  endfacet
  facet normal -0.951053 0.309028 0
    outer loop
      vertex -4.64888 1.84062 9
      vertex -4.84292 1.24345 4.75
      vertex -4.84292 1.24345 9
    endloop
  endfacet
  facet normal -0.684549 -0.728967 0
    outer loop
      vertex -3.64484 -3.42274 4.75
      vertex -3.18712 -3.85257 9
      vertex -3.64484 -3.42274 9
    endloop
  endfacet
  facet normal -0.684549 -0.728967 -0
    outer loop
      vertex -3.18712 -3.85257 9
      vertex -3.64484 -3.42274 4.75
      vertex -3.18712 -3.85257 4.75
    endloop
  endfacet
  facet normal -0.904828 -0.425778 0
    outer loop
      vertex -4.38153 -2.40877 4.75
      vertex -4.64888 -1.84062 9
      vertex -4.64888 -1.84062 4.75
    endloop
  endfacet
  facet normal -0.904828 -0.425778 0
    outer loop
      vertex -4.64888 -1.84062 9
      vertex -4.38153 -2.40877 4.75
      vertex -4.38153 -2.40877 9
    endloop
  endfacet
  facet normal 0.98229 -0.187369 0
    outer loop
      vertex 4.84292 -1.24345 9
      vertex 4.96057 -0.626666 4.75
      vertex 4.96057 -0.626666 9
    endloop
  endfacet
  facet normal 0.98229 -0.187369 0
    outer loop
      vertex 4.96057 -0.626666 4.75
      vertex 4.84292 -1.24345 9
      vertex 4.84292 -1.24345 4.75
    endloop
  endfacet
  facet normal 0.998026 -0.0627961 0
    outer loop
      vertex 4.96057 -0.626666 9
      vertex 5 0 4.75
      vertex 5 0 9
    endloop
  endfacet
  facet normal 0.998026 -0.0627961 0
    outer loop
      vertex 5 0 4.75
      vertex 4.96057 -0.626666 9
      vertex 4.96057 -0.626666 4.75
    endloop
  endfacet
  facet normal 0.904828 0.425778 0
    outer loop
      vertex 4.64888 1.84062 9
      vertex 4.38153 2.40877 4.75
      vertex 4.38153 2.40877 9
    endloop
  endfacet
  facet normal 0.904828 0.425778 0
    outer loop
      vertex 4.38153 2.40877 4.75
      vertex 4.64888 1.84062 9
      vertex 4.64888 1.84062 4.75
    endloop
  endfacet
  facet normal 0.844328 0.535827 0
    outer loop
      vertex 4.38153 2.40877 9
      vertex 4.04508 2.93893 4.75
      vertex 4.04508 2.93893 9
    endloop
  endfacet
  facet normal 0.844328 0.535827 0
    outer loop
      vertex 4.04508 2.93893 4.75
      vertex 4.38153 2.40877 9
      vertex 4.38153 2.40877 4.75
    endloop
  endfacet
  facet normal 0.770515 0.637422 0
    outer loop
      vertex 4.04508 2.93893 9
      vertex 3.64484 3.42274 4.75
      vertex 3.64484 3.42274 9
    endloop
  endfacet
  facet normal 0.770515 0.637422 0
    outer loop
      vertex 3.64484 3.42274 4.75
      vertex 4.04508 2.93893 9
      vertex 4.04508 2.93893 4.75
    endloop
  endfacet
  facet normal 0.125322 0.992116 -0
    outer loop
      vertex 0.936906 4.91144 4.75
      vertex 0.313952 4.99013 9
      vertex 0.936906 4.91144 9
    endloop
  endfacet
  facet normal 0.125322 0.992116 0
    outer loop
      vertex 0.313952 4.99013 9
      vertex 0.936906 4.91144 4.75
      vertex 0.313952 4.99013 4.75
    endloop
  endfacet
  facet normal 0.587779 0.809022 -0
    outer loop
      vertex 3.18712 3.85257 4.75
      vertex 2.67913 4.22164 9
      vertex 3.18712 3.85257 9
    endloop
  endfacet
  facet normal 0.587779 0.809022 0
    outer loop
      vertex 2.67913 4.22164 9
      vertex 3.18712 3.85257 4.75
      vertex 2.67913 4.22164 4.75
    endloop
  endfacet
  facet normal -0.248701 0.96858 0
    outer loop
      vertex -0.936906 4.91144 4.75
      vertex -1.54508 4.75528 9
      vertex -0.936906 4.91144 9
    endloop
  endfacet
  facet normal -0.248701 0.96858 0
    outer loop
      vertex -1.54508 4.75528 9
      vertex -0.936906 4.91144 4.75
      vertex -1.54508 4.75528 4.75
    endloop
  endfacet
  facet normal -0.125322 0.992116 0
    outer loop
      vertex -0.313952 4.99013 4.75
      vertex -0.936906 4.91144 9
      vertex -0.313952 4.99013 9
    endloop
  endfacet
  facet normal -0.125322 0.992116 0
    outer loop
      vertex -0.936906 4.91144 9
      vertex -0.313952 4.99013 4.75
      vertex -0.936906 4.91144 4.75
    endloop
  endfacet
  facet normal -0.481752 0.876308 0
    outer loop
      vertex -2.1289 4.52413 4.75
      vertex -2.67913 4.22164 9
      vertex -2.1289 4.52413 9
    endloop
  endfacet
  facet normal -0.481752 0.876308 0
    outer loop
      vertex -2.67913 4.22164 9
      vertex -2.1289 4.52413 4.75
      vertex -2.67913 4.22164 4.75
    endloop
  endfacet
  facet normal -0.587779 0.809022 0
    outer loop
      vertex -2.67913 4.22164 4.75
      vertex -3.18712 3.85257 9
      vertex -2.67913 4.22164 9
    endloop
  endfacet
  facet normal -0.587779 0.809022 0
    outer loop
      vertex -3.18712 3.85257 9
      vertex -2.67913 4.22164 4.75
      vertex -3.18712 3.85257 4.75
    endloop
  endfacet
  facet normal -0.904828 0.425778 0
    outer loop
      vertex -4.64888 1.84062 4.75
      vertex -4.38153 2.40877 9
      vertex -4.38153 2.40877 4.75
    endloop
  endfacet
  facet normal -0.904828 0.425778 0
    outer loop
      vertex -4.38153 2.40877 9
      vertex -4.64888 1.84062 4.75
      vertex -4.64888 1.84062 9
    endloop
  endfacet
  facet normal -0.98229 0.187369 0
    outer loop
      vertex -4.96057 0.626666 4.75
      vertex -4.84292 1.24345 9
      vertex -4.84292 1.24345 4.75
    endloop
  endfacet
  facet normal -0.98229 0.187369 0
    outer loop
      vertex -4.84292 1.24345 9
      vertex -4.96057 0.626666 4.75
      vertex -4.96057 0.626666 9
    endloop
  endfacet
  facet normal 0 0 1
    outer loop
      vertex 4.96057 0.626666 9
      vertex 4.96057 -0.626666 9
      vertex 5 0 9
    endloop
  endfacet
  facet normal 0 0 1
    outer loop
      vertex 4.84292 1.24345 9
      vertex 4.96057 -0.626666 9
      vertex 4.96057 0.626666 9
    endloop
  endfacet
  facet normal 0 0 1
    outer loop
      vertex 4.84292 1.24345 9
      vertex 4.84292 -1.24345 9
      vertex 4.96057 -0.626666 9
    endloop
  endfacet
  facet normal 0 0 1
    outer loop
      vertex 4.64888 1.84062 9
      vertex 4.84292 -1.24345 9
      vertex 4.84292 1.24345 9
    endloop
  endfacet
  facet normal 0 0 1
    outer loop
      vertex 4.64888 1.84062 9
      vertex 4.64888 -1.84062 9
      vertex 4.84292 -1.24345 9
    endloop
  endfacet
  facet normal 0 0 1
    outer loop
      vertex 4.38153 2.40877 9
      vertex 4.64888 -1.84062 9
      vertex 4.64888 1.84062 9
    endloop
  endfacet
  facet normal 0 0 1
    outer loop
      vertex 4.38153 2.40877 9
      vertex 4.38153 -2.40877 9
      vertex 4.64888 -1.84062 9
    endloop
  endfacet
  facet normal 0 0 1
    outer loop
      vertex 4.04508 2.93893 9
      vertex 4.38153 -2.40877 9
      vertex 4.38153 2.40877 9
    endloop
  endfacet
  facet normal 0 0 1
    outer loop
      vertex 4.04508 2.93893 9
      vertex 4.04508 -2.93893 9
      vertex 4.38153 -2.40877 9
    endloop
  endfacet
  facet normal 0 0 1
    outer loop
      vertex 3.64484 3.42274 9
      vertex 4.04508 -2.93893 9
      vertex 4.04508 2.93893 9
    endloop
  endfacet
  facet normal 0 0 1
    outer loop
      vertex 3.64484 3.42274 9
      vertex 3.64484 -3.42274 9
      vertex 4.04508 -2.93893 9
    endloop
  endfacet
  facet normal 0 0 1
    outer loop
      vertex 3.18712 3.85257 9
      vertex 3.64484 -3.42274 9
      vertex 3.64484 3.42274 9
    endloop
  endfacet
  facet normal 0 0 1
    outer loop
      vertex 3.18712 3.85257 9
      vertex 3.18712 -3.85257 9
      vertex 3.64484 -3.42274 9
    endloop
  endfacet
  facet normal 0 0 1
    outer loop
      vertex 2.67913 4.22164 9
      vertex 3.18712 -3.85257 9
      vertex 3.18712 3.85257 9
    endloop
  endfacet
  facet normal 0 0 1
    outer loop
      vertex 2.67913 4.22164 9
      vertex 2.67913 -4.22164 9
      vertex 3.18712 -3.85257 9
    endloop
  endfacet
  facet normal 0 0 1
    outer loop
      vertex 2.1289 4.52413 9
      vertex 2.67913 -4.22164 9
      vertex 2.67913 4.22164 9
    endloop
  endfacet
  facet normal 0 0 1
    outer loop
      vertex 2.1289 4.52413 9
      vertex 2.1289 -4.52413 9
      vertex 2.67913 -4.22164 9
    endloop
  endfacet
  facet normal 0 0 1
    outer loop
      vertex 1.54508 4.75528 9
      vertex 2.1289 -4.52413 9
      vertex 2.1289 4.52413 9
    endloop
  endfacet
  facet normal 0 0 1
    outer loop
      vertex 1.54508 4.75528 9
      vertex 1.54508 -4.75528 9
      vertex 2.1289 -4.52413 9
    endloop
  endfacet
  facet normal 0 0 1
    outer loop
      vertex 0.936906 4.91144 9
      vertex 1.54508 -4.75528 9
      vertex 1.54508 4.75528 9
    endloop
  endfacet
  facet normal 0 0 1
    outer loop
      vertex 0.936906 4.91144 9
      vertex 0.936906 -4.91144 9
      vertex 1.54508 -4.75528 9
    endloop
  endfacet
  facet normal 0 0 1
    outer loop
      vertex 0.313952 4.99013 9
      vertex 0.936906 -4.91144 9
      vertex 0.936906 4.91144 9
    endloop
  endfacet
  facet normal 0 0 1
    outer loop
      vertex 0.313952 4.99013 9
      vertex 0.313952 -4.99013 9
      vertex 0.936906 -4.91144 9
    endloop
  endfacet
  facet normal -0 0 1
    outer loop
      vertex -0.313952 4.99013 9
      vertex 0.313952 -4.99013 9
      vertex 0.313952 4.99013 9
    endloop
  endfacet
  facet normal 0 0 1
    outer loop
      vertex -0.313952 4.99013 9
      vertex -0.313952 -4.99013 9
      vertex 0.313952 -4.99013 9
    endloop
  endfacet
  facet normal -0 0 1
    outer loop
      vertex -0.936906 4.91144 9
      vertex -0.313952 -4.99013 9
      vertex -0.313952 4.99013 9
    endloop
  endfacet
  facet normal 0 0 1
    outer loop
      vertex -0.936906 4.91144 9
      vertex -0.936906 -4.91144 9
      vertex -0.313952 -4.99013 9
    endloop
  endfacet
  facet normal -0 0 1
    outer loop
      vertex -1.54508 4.75528 9
      vertex -0.936906 -4.91144 9
      vertex -0.936906 4.91144 9
    endloop
  endfacet
  facet normal 0 0 1
    outer loop
      vertex -1.54508 4.75528 9
      vertex -1.54508 -4.75528 9
      vertex -0.936906 -4.91144 9
    endloop
  endfacet
  facet normal -0 0 1
    outer loop
      vertex -2.1289 4.52413 9
      vertex -1.54508 -4.75528 9
      vertex -1.54508 4.75528 9
    endloop
  endfacet
  facet normal 0 0 1
    outer loop
      vertex -2.1289 4.52413 9
      vertex -2.1289 -4.52413 9
      vertex -1.54508 -4.75528 9
    endloop
  endfacet
  facet normal -0 0 1
    outer loop
      vertex -2.67913 4.22164 9
      vertex -2.1289 -4.52413 9
      vertex -2.1289 4.52413 9
    endloop
  endfacet
  facet normal 0 0 1
    outer loop
      vertex -2.67913 4.22164 9
      vertex -2.67913 -4.22164 9
      vertex -2.1289 -4.52413 9
    endloop
  endfacet
  facet normal -0 0 1
    outer loop
      vertex -3.18712 3.85257 9
      vertex -2.67913 -4.22164 9
      vertex -2.67913 4.22164 9
    endloop
  endfacet
  facet normal 0 0 1
    outer loop
      vertex -3.18712 3.85257 9
      vertex -3.18712 -3.85257 9
      vertex -2.67913 -4.22164 9
    endloop
  endfacet
  facet normal -0 0 1
    outer loop
      vertex -3.64484 3.42274 9
      vertex -3.18712 -3.85257 9
      vertex -3.18712 3.85257 9
    endloop
  endfacet
  facet normal 0 0 1
    outer loop
      vertex -3.64484 3.42274 9
      vertex -3.64484 -3.42274 9
      vertex -3.18712 -3.85257 9
    endloop
  endfacet
  facet normal -0 0 1
    outer loop
      vertex -4.04508 2.93893 9
      vertex -3.64484 -3.42274 9
      vertex -3.64484 3.42274 9
    endloop
  endfacet
  facet normal 0 0 1
    outer loop
      vertex -4.04508 2.93893 9
      vertex -4.04508 -2.93893 9
      vertex -3.64484 -3.42274 9
    endloop
  endfacet
  facet normal -0 0 1
    outer loop
      vertex -4.38153 2.40877 9
      vertex -4.04508 -2.93893 9
      vertex -4.04508 2.93893 9
    endloop
  endfacet
  facet normal 0 0 1
    outer loop
      vertex -4.38153 2.40877 9
      vertex -4.38153 -2.40877 9
      vertex -4.04508 -2.93893 9
    endloop
  endfacet
  facet normal -0 0 1
    outer loop
      vertex -4.64888 1.84062 9
      vertex -4.38153 -2.40877 9
      vertex -4.38153 2.40877 9
    endloop
  endfacet
  facet normal 0 0 1
    outer loop
      vertex -4.64888 1.84062 9
      vertex -4.64888 -1.84062 9
      vertex -4.38153 -2.40877 9
    endloop
  endfacet
  facet normal -0 0 1
    outer loop
      vertex -4.84292 1.24345 9
      vertex -4.64888 -1.84062 9
      vertex -4.64888 1.84062 9
    endloop
  endfacet
  facet normal 0 0 1
    outer loop
      vertex -4.84292 1.24345 9
      vertex -4.84292 -1.24345 9
      vertex -4.64888 -1.84062 9
    endloop
  endfacet
  facet normal -0 0 1
    outer loop
      vertex -4.96057 0.626666 9
      vertex -4.84292 -1.24345 9
      vertex -4.84292 1.24345 9
    endloop
  endfacet
  facet normal 0 0 1
    outer loop
      vertex -4.96057 0.626666 9
      vertex -4.96057 -0.626666 9
      vertex -4.84292 -1.24345 9
    endloop
  endfacet
  facet normal 0 -0 1
    outer loop
      vertex -4.96057 -0.626666 9
      vertex -4.96057 0.626666 9
      vertex -5 0 9
    endloop
  endfacet
  facet normal -0.770515 -0.637422 0
    outer loop
      vertex -3.64484 -3.42274 4.75
      vertex -4.04508 -2.93893 9
      vertex -4.04508 -2.93893 4.75
    endloop
  endfacet
  facet normal -0.770515 -0.637422 0
    outer loop
      vertex -4.04508 -2.93893 9
      vertex -3.64484 -3.42274 4.75
      vertex -3.64484 -3.42274 9
    endloop
  endfacet
  facet normal -0.951053 -0.309028 0
    outer loop
      vertex -4.64888 -1.84062 4.75
      vertex -4.84292 -1.24345 9
      vertex -4.84292 -1.24345 4.75
    endloop
  endfacet
  facet normal -0.951053 -0.309028 0
    outer loop
      vertex -4.84292 -1.24345 9
      vertex -4.64888 -1.84062 4.75
      vertex -4.64888 -1.84062 9
    endloop
  endfacet
  facet normal -0.125322 -0.992116 0
    outer loop
      vertex -0.936906 -4.91144 4.75
      vertex -0.313952 -4.99013 9
      vertex -0.936906 -4.91144 9
    endloop
  endfacet
  facet normal -0.125322 -0.992116 -0
    outer loop
      vertex -0.313952 -4.99013 9
      vertex -0.936906 -4.91144 4.75
      vertex -0.313952 -4.99013 4.75
    endloop
  endfacet
  facet normal -0.844328 -0.535827 0
    outer loop
      vertex -4.04508 -2.93893 4.75
      vertex -4.38153 -2.40877 9
      vertex -4.38153 -2.40877 4.75
    endloop
  endfacet
  facet normal -0.844328 -0.535827 0
    outer loop
      vertex -4.38153 -2.40877 9
      vertex -4.04508 -2.93893 4.75
      vertex -4.04508 -2.93893 9
    endloop
  endfacet
  facet normal -0.98229 -0.187369 0
    outer loop
      vertex -4.84292 -1.24345 4.75
      vertex -4.96057 -0.626666 9
      vertex -4.96057 -0.626666 4.75
    endloop
  endfacet
  facet normal -0.98229 -0.187369 0
    outer loop
      vertex -4.96057 -0.626666 9
      vertex -4.84292 -1.24345 4.75
      vertex -4.84292 -1.24345 9
    endloop
  endfacet
  facet normal -0.998026 -0.0627961 0
    outer loop
      vertex -4.96057 -0.626666 4.75
      vertex -5 0 9
      vertex -5 0 4.75
    endloop
  endfacet
  facet normal -0.998026 -0.0627961 0
    outer loop
      vertex -5 0 9
      vertex -4.96057 -0.626666 4.75
      vertex -4.96057 -0.626666 9
    endloop
  endfacet
  facet normal 0.587779 -0.809022 0
    outer loop
      vertex 2.67913 -4.22164 4.75
      vertex 3.18712 -3.85257 9
      vertex 2.67913 -4.22164 9
    endloop
  endfacet
  facet normal 0.587779 -0.809022 0
    outer loop
      vertex 3.18712 -3.85257 9
      vertex 2.67913 -4.22164 4.75
      vertex 3.18712 -3.85257 4.75
    endloop
  endfacet
  facet normal 0.248701 -0.96858 0
    outer loop
      vertex 0.936906 -4.91144 4.75
      vertex 1.54508 -4.75528 9
      vertex 0.936906 -4.91144 9
    endloop
  endfacet
  facet normal 0.248701 -0.96858 0
    outer loop
      vertex 1.54508 -4.75528 9
      vertex 0.936906 -4.91144 4.75
      vertex 1.54508 -4.75528 4.75
    endloop
  endfacet
  facet normal 0.125322 -0.992116 0
    outer loop
      vertex 0.313952 -4.99013 4.75
      vertex 0.936906 -4.91144 9
      vertex 0.313952 -4.99013 9
    endloop
  endfacet
  facet normal 0.125322 -0.992116 0
    outer loop
      vertex 0.936906 -4.91144 9
      vertex 0.313952 -4.99013 4.75
      vertex 0.936906 -4.91144 4.75
    endloop
  endfacet
  facet normal 0.951053 -0.309028 0
    outer loop
      vertex 4.64888 -1.84062 9
      vertex 4.84292 -1.24345 4.75
      vertex 4.84292 -1.24345 9
    endloop
  endfacet
  facet normal 0.951053 -0.309028 0
    outer loop
      vertex 4.84292 -1.24345 4.75
      vertex 4.64888 -1.84062 9
      vertex 4.64888 -1.84062 4.75
    endloop
  endfacet
  facet normal 0.904828 -0.425778 0
    outer loop
      vertex 4.38153 -2.40877 9
      vertex 4.64888 -1.84062 4.75
      vertex 4.64888 -1.84062 9
    endloop
  endfacet
  facet normal 0.904828 -0.425778 0
    outer loop
      vertex 4.64888 -1.84062 4.75
      vertex 4.38153 -2.40877 9
      vertex 4.38153 -2.40877 4.75
    endloop
  endfacet
  facet normal 0.844328 -0.535827 0
    outer loop
      vertex 4.04508 -2.93893 9
      vertex 4.38153 -2.40877 4.75
      vertex 4.38153 -2.40877 9
    endloop
  endfacet
  facet normal 0.844328 -0.535827 0
    outer loop
      vertex 4.38153 -2.40877 4.75
      vertex 4.04508 -2.93893 9
      vertex 4.04508 -2.93893 4.75
    endloop
  endfacet
  facet normal 0.770515 -0.637422 0
    outer loop
      vertex 3.64484 -3.42274 9
      vertex 4.04508 -2.93893 4.75
      vertex 4.04508 -2.93893 9
    endloop
  endfacet
  facet normal 0.770515 -0.637422 0
    outer loop
      vertex 4.04508 -2.93893 4.75
      vertex 3.64484 -3.42274 9
      vertex 3.64484 -3.42274 4.75
    endloop
  endfacet
  facet normal -0.248701 -0.96858 0
    outer loop
      vertex -1.54508 -4.75528 4.75
      vertex -0.936906 -4.91144 9
      vertex -1.54508 -4.75528 9
    endloop
  endfacet
  facet normal -0.248701 -0.96858 -0
    outer loop
      vertex -0.936906 -4.91144 9
      vertex -1.54508 -4.75528 4.75
      vertex -0.936906 -4.91144 4.75
    endloop
  endfacet
  facet normal 0.481752 -0.876308 0
    outer loop
      vertex 2.1289 -4.52413 4.75
      vertex 2.67913 -4.22164 9
      vertex 2.1289 -4.52413 9
    endloop
  endfacet
  facet normal 0.481752 -0.876308 0
    outer loop
      vertex 2.67913 -4.22164 9
      vertex 2.1289 -4.52413 4.75
      vertex 2.67913 -4.22164 4.75
    endloop
  endfacet
  facet normal 0.684549 -0.728967 0
    outer loop
      vertex 3.18712 -3.85257 4.75
      vertex 3.64484 -3.42274 9
      vertex 3.18712 -3.85257 9
    endloop
  endfacet
  facet normal 0.684549 -0.728967 0
    outer loop
      vertex 3.64484 -3.42274 9
      vertex 3.18712 -3.85257 4.75
      vertex 3.64484 -3.42274 4.75
    endloop
  endfacet
  facet normal -0.481752 -0.876308 0
    outer loop
      vertex -2.67913 -4.22164 4.75
      vertex -2.1289 -4.52413 9
      vertex -2.67913 -4.22164 9
    endloop
  endfacet
  facet normal -0.481752 -0.876308 -0
    outer loop
      vertex -2.1289 -4.52413 9
      vertex -2.67913 -4.22164 4.75
      vertex -2.1289 -4.52413 4.75
    endloop
  endfacet
  facet normal -0.587779 -0.809022 0
    outer loop
      vertex -3.18712 -3.85257 4.75
      vertex -2.67913 -4.22164 9
      vertex -3.18712 -3.85257 9
    endloop
  endfacet
  facet normal -0.587779 -0.809022 -0
    outer loop
      vertex -2.67913 -4.22164 9
      vertex -3.18712 -3.85257 4.75
      vertex -2.67913 -4.22164 4.75
    endloop
  endfacet
  facet normal -0.368124 -0.929777 0
    outer loop
      vertex -2.1289 -4.52413 4.75
      vertex -1.54508 -4.75528 9
      vertex -2.1289 -4.52413 9
    endloop
  endfacet
  facet normal -0.368124 -0.929777 -0
    outer loop
      vertex -1.54508 -4.75528 9
      vertex -2.1289 -4.52413 4.75
      vertex -1.54508 -4.75528 4.75
    endloop
  endfacet
endsolid OpenSCAD_Model
