solid OpenSCAD_Model
  facet normal 0 0 -1
    outer loop
      vertex 3.33699 0 0
      vertex 5 0 0
      vertex 4.96057 -0.626666 0
    endloop
  endfacet
  facet normal 0 0 -1
    outer loop
      vertex 3.33699 0 0
      vertex 4.96057 -0.626666 0
      vertex 4.84292 -1.24345 0
    endloop
  endfacet
  facet normal 0 0 -1
    outer loop
      vertex 5 0 0
      vertex 3.33699 0 0
      vertex 4.96057 0.626666 0
    endloop
  endfacet
  facet normal 0 0 -1
    outer loop
      vertex 3.33699 0 0
      vertex 4.84292 -1.24345 0
      vertex 4.64888 -1.84062 0
    endloop
  endfacet
  facet normal -0 0 -1
    outer loop
      vertex 4.96057 0.626666 0
      vertex 3.33699 0 0
      vertex 4.84292 1.24345 0
    endloop
  endfacet
  facet normal 0 0 -1
    outer loop
      vertex 3.33699 0 0
      vertex 4.64888 -1.84062 0
      vertex 4.38153 -2.40877 0
    endloop
  endfacet
  facet normal -0 0 -1
    outer loop
      vertex 4.84292 1.24345 0
      vertex 3.33699 0 0
      vertex 4.64888 1.84062 0
    endloop
  endfacet
  facet normal 0 0 -1
    outer loop
      vertex 1.66849 -2.88992 0
      vertex 4.38153 -2.40877 0
      vertex 4.04508 -2.93893 0
    endloop
  endfacet
  facet normal -0 0 -1
    outer loop
      vertex 4.64888 1.84062 0
      vertex 3.33699 0 0
      vertex 4.38153 2.40877 0
    endloop
  endfacet
  facet normal 0 0 -1
    outer loop
      vertex 1.66849 -2.88992 0
      vertex 4.04508 -2.93893 0
      vertex 3.64484 -3.42274 0
    endloop
  endfacet
  facet normal 0 0 -1
    outer loop
      vertex 1.66849 2.88992 0
      vertex 4.38153 2.40877 0
      vertex 3.33699 0 0
    endloop
  endfacet
  facet normal 0 0 -1
    outer loop
      vertex 4.38153 2.40877 0
      vertex 1.66849 2.88992 0
      vertex 4.04508 2.93893 0
    endloop
  endfacet
  facet normal 0 0 -1
    outer loop
      vertex 1.66849 -2.88992 0
      vertex 3.64484 -3.42274 0
      vertex 3.18712 -3.85257 0
    endloop
  endfacet
  facet normal 0 0 -1
    outer loop
      vertex 1.66849 -2.88992 0
      vertex 3.18712 -3.85257 0
      vertex 2.67913 -4.22164 0
    endloop
  endfacet
  facet normal 0 0 -1
    outer loop
      vertex 1.66849 -2.88992 0
      vertex 2.67913 -4.22164 0
      vertex 2.1289 -4.52413 0
    endloop
  endfacet
  facet normal -0 0 -1
    outer loop
      vertex 4.38153 -2.40877 0
      vertex 1.66849 -2.88992 0
      vertex 3.33699 0 0
    endloop
  endfacet
  facet normal 0 0 -1
    outer loop
      vertex 1.54508 -4.75528 0
      vertex 1.66849 -2.88992 0
      vertex 2.1289 -4.52413 0
    endloop
  endfacet
  facet normal 0 0 -1
    outer loop
      vertex 0.936906 -4.91144 0
      vertex 1.66849 -2.88992 0
      vertex 1.54508 -4.75528 0
    endloop
  endfacet
  facet normal 0 0 -1
    outer loop
      vertex 0.313952 -4.99013 0
      vertex 1.66849 -2.88992 0
      vertex 0.936906 -4.91144 0
    endloop
  endfacet
  facet normal 0 0 -1
    outer loop
      vertex -0.313952 -4.99013 0
      vertex 1.66849 -2.88992 0
      vertex 0.313952 -4.99013 0
    endloop
  endfacet
  facet normal 0 0 -1
    outer loop
      vertex -1.66849 -2.88992 0
      vertex -0.313952 -4.99013 0
      vertex -0.936906 -4.91144 0
    endloop
  endfacet
  facet normal 0 0 -1
    outer loop
      vertex -1.66849 -2.88992 0
      vertex -0.936906 -4.91144 0
      vertex -1.54508 -4.75528 0
    endloop
  endfacet
  facet normal 0 0 -1
    outer loop
      vertex -0.313952 -4.99013 0
      vertex -1.66849 -2.88992 0
      vertex 1.66849 -2.88992 0
    endloop
  endfacet
  facet normal 0 0 -1
    outer loop
      vertex -2.1289 -4.52413 0
      vertex -1.66849 -2.88992 0
      vertex -1.54508 -4.75528 0
    endloop
  endfacet
  facet normal 0 0 -1
    outer loop
      vertex -2.67913 -4.22164 0
      vertex -1.66849 -2.88992 0
      vertex -2.1289 -4.52413 0
    endloop
  endfacet
  facet normal 0 0 -1
    outer loop
      vertex -3.18712 -3.85257 0
      vertex -1.66849 -2.88992 0
      vertex -2.67913 -4.22164 0
    endloop
  endfacet
  facet normal 0 0 -1
    outer loop
      vertex -3.64484 -3.42274 0
      vertex -1.66849 -2.88992 0
      vertex -3.18712 -3.85257 0
    endloop
  endfacet
  facet normal 0 0 -1
    outer loop
      vertex -4.04508 -2.93893 0
      vertex -1.66849 -2.88992 0
      vertex -3.64484 -3.42274 0
    endloop
  endfacet
  facet normal -0 0 -1
    outer loop
      vertex 4.04508 2.93893 0
      vertex 1.66849 2.88992 0
      vertex 3.64484 3.42274 0
    endloop
  endfacet
  facet normal -0 0 -1
    outer loop
      vertex 3.64484 3.42274 0
      vertex 1.66849 2.88992 0
      vertex 3.18712 3.85257 0
    endloop
  endfacet
  facet normal -0 0 -1
    outer loop
      vertex 3.18712 3.85257 0
      vertex 1.66849 2.88992 0
      vertex 2.67913 4.22164 0
    endloop
  endfacet
  facet normal -0 0 -1
    outer loop
      vertex 2.67913 4.22164 0
      vertex 1.66849 2.88992 0
      vertex 2.1289 4.52413 0
    endloop
  endfacet
  facet normal 0 0 -1
    outer loop
      vertex 1.66849 2.88992 0
      vertex 1.54508 4.75528 0
      vertex 2.1289 4.52413 0
    endloop
  endfacet
  facet normal 0 0 -1
    outer loop
      vertex 1.66849 2.88992 0
      vertex 0.936906 4.91144 0
      vertex 1.54508 4.75528 0
    endloop
  endfacet
  facet normal 0 0 -1
    outer loop
      vertex 1.66849 2.88992 0
      vertex 0.313952 4.99013 0
      vertex 0.936906 4.91144 0
    endloop
  endfacet
  facet normal 0 0 -1
    outer loop
      vertex 1.66849 2.88992 0
      vertex -0.313952 4.99013 0
      vertex 0.313952 4.99013 0
    endloop
  endfacet
  facet normal 0 0 -1
    outer loop
      vertex -1.66849 2.88992 0
      vertex -0.313952 4.99013 0
      vertex 1.66849 2.88992 0
    endloop
  endfacet
  facet normal 0 0 -1
    outer loop
      vertex -0.313952 4.99013 0
      vertex -1.66849 2.88992 0
      vertex -0.936906 4.91144 0
    endloop
  endfacet
  facet normal 0 0 -1
    outer loop
      vertex -0.936906 4.91144 0
      vertex -1.66849 2.88992 0
      vertex -1.54508 4.75528 0
    endloop
  endfacet
  facet normal 0 0 -1
    outer loop
      vertex -1.66849 2.88992 0
      vertex -2.1289 4.52413 0
      vertex -1.54508 4.75528 0
    endloop
  endfacet
  facet normal 0 0 -1
    outer loop
      vertex -1.66849 2.88992 0
      vertex -2.67913 4.22164 0
      vertex -2.1289 4.52413 0
    endloop
  endfacet
  facet normal 0 0 -1
    outer loop
      vertex -1.66849 2.88992 0
      vertex -3.18712 3.85257 0
      vertex -2.67913 4.22164 0
    endloop
  endfacet
  facet normal 0 0 -1
    outer loop
      vertex -4.38153 2.40877 0
      vertex -1.66849 2.88992 0
      vertex -3.33699 0 0
    endloop
  endfacet
  facet normal 0 0 -1
    outer loop
      vertex -4.38153 -2.40877 0
      vertex -1.66849 -2.88992 0
      vertex -4.04508 -2.93893 0
    endloop
  endfacet
  facet normal 0 0 -1
    outer loop
      vertex -1.66849 2.88992 0
      vertex -3.64484 3.42274 0
      vertex -3.18712 3.85257 0
    endloop
  endfacet
  facet normal 0 0 -1
    outer loop
      vertex -1.66849 -2.88992 0
      vertex -4.38153 -2.40877 0
      vertex -3.33699 0 0
    endloop
  endfacet
  facet normal 0 0 -1
    outer loop
      vertex -1.66849 2.88992 0
      vertex -4.04508 2.93893 0
      vertex -3.64484 3.42274 0
    endloop
  endfacet
  facet normal 0 0 -1
    outer loop
      vertex -4.64888 -1.84062 0
      vertex -3.33699 0 0
      vertex -4.38153 -2.40877 0
    endloop
  endfacet
  facet normal -0 0 -1
    outer loop
      vertex -1.66849 2.88992 0
      vertex -4.38153 2.40877 0
      vertex -4.04508 2.93893 0
    endloop
  endfacet
  facet normal 0 0 -1
    outer loop
      vertex -4.84292 -1.24345 0
      vertex -3.33699 0 0
      vertex -4.64888 -1.84062 0
    endloop
  endfacet
  facet normal 0 0 -1
    outer loop
      vertex -3.33699 0 0
      vertex -4.64888 1.84062 0
      vertex -4.38153 2.40877 0
    endloop
  endfacet
  facet normal 0 0 -1
    outer loop
      vertex -4.96057 -0.626666 0
      vertex -3.33699 0 0
      vertex -4.84292 -1.24345 0
    endloop
  endfacet
  facet normal 0 0 -1
    outer loop
      vertex -3.33699 0 0
      vertex -4.84292 1.24345 0
      vertex -4.64888 1.84062 0
    endloop
  endfacet
  facet normal 0 0 -1
    outer loop
      vertex -5 0 0
      vertex -3.33699 0 0
      vertex -4.96057 -0.626666 0
    endloop
  endfacet
  facet normal 0 0 -1
    outer loop
      vertex -3.33699 0 0
      vertex -4.96057 0.626666 0
      vertex -4.84292 1.24345 0
    endloop
  endfacet
  facet normal 0 0 -1
    outer loop
      vertex -3.33699 0 0
      vertex -5 0 0
      vertex -4.96057 0.626666 0
    endloop
  endfacet
  facet normal 0 -1 0
    outer loop
      vertex -1.66849 2.88992 0
      vertex 1.66849 2.88992 2.25
      vertex -1.66849 2.88992 2.25
    endloop
  endfacet
  facet normal 0 -1 -0
    outer loop
      vertex 1.66849 2.88992 2.25
      vertex -1.66849 2.88992 0
      vertex 1.66849 2.88992 0
    endloop
  endfacet
  facet normal -0.866025 -0.500001 0
    outer loop
      vertex 3.33699 0 0
      vertex 1.66849 2.88992 2.25
      vertex 1.66849 2.88992 0
    endloop
  endfacet
  facet normal -0.866025 -0.500001 0
    outer loop
      vertex 1.66849 2.88992 2.25
      vertex 3.33699 0 0
      vertex 3.33699 0 2.25
    endloop
  endfacet
  facet normal -0.866025 0.500001 0
    outer loop
      vertex 1.66849 -2.88992 0
      vertex 3.33699 0 2.25
      vertex 3.33699 0 0
    endloop
  endfacet
  facet normal -0.866025 0.500001 0
    outer loop
      vertex 3.33699 0 2.25
      vertex 1.66849 -2.88992 0
      vertex 1.66849 -2.88992 2.25
    endloop
  endfacet
  facet normal 0 0 -1
    outer loop
      vertex 1.66849 -2.88992 2.25
      vertex 1.66849 2.88992 2.25
      vertex 3.33699 0 2.25
    endloop
  endfacet
  facet normal 0 0 -1
    outer loop
      vertex -1.66849 -2.88992 2.25
      vertex 1.66849 2.88992 2.25
      vertex 1.66849 -2.88992 2.25
    endloop
  endfacet
  facet normal 0 0 -1
    outer loop
      vertex -1.66849 -2.88992 2.25
      vertex -1.66849 2.88992 2.25
      vertex 1.66849 2.88992 2.25
    endloop
  endfacet
  facet normal 0 -0 -1
    outer loop
      vertex -1.66849 2.88992 2.25
      vertex -1.66849 -2.88992 2.25
      vertex -3.33699 0 2.25
    endloop
  endfacet
  facet normal 0.866025 -0.500001 0
    outer loop
      vertex -3.33699 0 2.25
      vertex -1.66849 2.88992 0
      vertex -1.66849 2.88992 2.25
    endloop
  endfacet
  facet normal 0.866025 -0.500001 0
    outer loop
      vertex -1.66849 2.88992 0
      vertex -3.33699 0 2.25
      vertex -3.33699 0 0
    endloop
  endfacet
  facet normal 0 1 -0
    outer loop
      vertex 1.66849 -2.88992 0
      vertex -1.66849 -2.88992 2.25
      vertex 1.66849 -2.88992 2.25
    endloop
  endfacet
  facet normal 0 1 0
    outer loop
      vertex -1.66849 -2.88992 2.25
      vertex 1.66849 -2.88992 0
      vertex -1.66849 -2.88992 0
    endloop
  endfacet
  facet normal 0.866025 0.500001 0
    outer loop
      vertex -1.66849 -2.88992 2.25
      vertex -3.33699 0 0
      vertex -3.33699 0 2.25
    endloop
  endfacet
  facet normal 0.866025 0.500001 0
    outer loop
      vertex -3.33699 0 0
      vertex -1.66849 -2.88992 2.25
      vertex -1.66849 -2.88992 0
    endloop
  endfacet
  facet normal 0.98229 0.187369 0
    outer loop
      vertex 4.96057 0.626666 6
      vertex 4.84292 1.24345 0
      vertex 4.84292 1.24345 6
    endloop
  endfacet
  facet normal 0.98229 0.187369 0
    outer loop
      vertex 4.84292 1.24345 0
      vertex 4.96057 0.626666 6
      vertex 4.96057 0.626666 0
    endloop
  endfacet
  facet normal -0.998026 0.0627961 0
    outer loop
      vertex -5 0 0
      vertex -4.96057 0.626666 6
      vertex -4.96057 0.626666 0
    endloop
  endfacet
  facet normal -0.998026 0.0627961 0
    outer loop
      vertex -4.96057 0.626666 6
      vertex -5 0 0
      vertex -5 0 6
    endloop
  endfacet
  facet normal 0 1 -0
    outer loop
      vertex 0.313952 4.99013 0
      vertex -0.313952 4.99013 6
      vertex 0.313952 4.99013 6
    endloop
  endfacet
  facet normal 0 1 0
    outer loop
      vertex -0.313952 4.99013 6
      vertex 0.313952 4.99013 0
      vertex -0.313952 4.99013 0
    endloop
  endfacet
  facet normal 0.98229 -0.187369 0
    outer loop
      vertex 4.84292 -1.24345 6
      vertex 4.96057 -0.626666 0
      vertex 4.96057 -0.626666 6
    endloop
  endfacet
  facet normal 0.98229 -0.187369 0
    outer loop
      vertex 4.96057 -0.626666 0
      vertex 4.84292 -1.24345 6
      vertex 4.84292 -1.24345 0
    endloop
  endfacet
  facet normal 0.684549 0.728967 -0
    outer loop
      vertex 3.64484 3.42274 0
      vertex 3.18712 3.85257 6
      vertex 3.64484 3.42274 6
    endloop
  endfacet
  facet normal 0.684549 0.728967 0
    outer loop
      vertex 3.18712 3.85257 6
      vertex 3.64484 3.42274 0
      vertex 3.18712 3.85257 0
    endloop
  endfacet
  facet normal -0.684549 0.728967 0
    outer loop
      vertex -3.18712 3.85257 0
      vertex -3.64484 3.42274 6
      vertex -3.18712 3.85257 6
    endloop
  endfacet
  facet normal -0.684549 0.728967 0
    outer loop
      vertex -3.64484 3.42274 6
      vertex -3.18712 3.85257 0
      vertex -3.64484 3.42274 0
    endloop
  endfacet
  facet normal -0.248701 0.96858 0
    outer loop
      vertex -0.936906 4.91144 0
      vertex -1.54508 4.75528 6
      vertex -0.936906 4.91144 6
    endloop
  endfacet
  facet normal -0.248701 0.96858 0
    outer loop
      vertex -1.54508 4.75528 6
      vertex -0.936906 4.91144 0
      vertex -1.54508 4.75528 0
    endloop
  endfacet
  facet normal 0.368124 -0.929777 0
    outer loop
      vertex 1.54508 -4.75528 0
      vertex 2.1289 -4.52413 6
      vertex 1.54508 -4.75528 6
    endloop
  endfacet
  facet normal 0.368124 -0.929777 0
    outer loop
      vertex 2.1289 -4.52413 6
      vertex 1.54508 -4.75528 0
      vertex 2.1289 -4.52413 0
    endloop
  endfacet
  facet normal 0.998026 0.0627961 0
    outer loop
      vertex 5 0 6
      vertex 4.96057 0.626666 0
      vertex 4.96057 0.626666 6
    endloop
  endfacet
  facet normal 0.998026 0.0627961 0
    outer loop
      vertex 4.96057 0.626666 0
      vertex 5 0 6
      vertex 5 0 0
    endloop
  endfacet
  facet normal 0.951053 0.309028 0
    outer loop
      vertex 4.84292 1.24345 6
      vertex 4.64888 1.84062 0
      vertex 4.64888 1.84062 6
    endloop
  endfacet
  facet normal 0.951053 0.309028 0
    outer loop
      vertex 4.64888 1.84062 0
      vertex 4.84292 1.24345 6
      vertex 4.84292 1.24345 0
    endloop
  endfacet
  facet normal -0.844328 0.535827 0
    outer loop
      vertex -4.38153 2.40877 0
      vertex -4.04508 2.93893 6
      vertex -4.04508 2.93893 0
    endloop
  endfacet
  facet normal -0.844328 0.535827 0
    outer loop
      vertex -4.04508 2.93893 6
      vertex -4.38153 2.40877 0
      vertex -4.38153 2.40877 6
    endloop
  endfacet
  facet normal 0.368124 0.929777 -0
    outer loop
      vertex 2.1289 4.52413 0
      vertex 1.54508 4.75528 6
      vertex 2.1289 4.52413 6
    endloop
  endfacet
  facet normal 0.368124 0.929777 0
    outer loop
      vertex 1.54508 4.75528 6
      vertex 2.1289 4.52413 0
      vertex 1.54508 4.75528 0
    endloop
  endfacet
  facet normal 0.248701 0.96858 -0
    outer loop
      vertex 1.54508 4.75528 0
      vertex 0.936906 4.91144 6
      vertex 1.54508 4.75528 6
    endloop
  endfacet
  facet normal 0.248701 0.96858 0
    outer loop
      vertex 0.936906 4.91144 6
      vertex 1.54508 4.75528 0
      vertex 0.936906 4.91144 0
    endloop
  endfacet
  facet normal 0.587779 0.809022 -0
    outer loop
      vertex 3.18712 3.85257 0
      vertex 2.67913 4.22164 6
      vertex 3.18712 3.85257 6
    endloop
  endfacet
  facet normal 0.587779 0.809022 0
    outer loop
      vertex 2.67913 4.22164 6
      vertex 3.18712 3.85257 0
      vertex 2.67913 4.22164 0
    endloop
  endfacet
  facet normal -0.368124 0.929777 0
    outer loop
      vertex -1.54508 4.75528 0
      vertex -2.1289 4.52413 6
      vertex -1.54508 4.75528 6
    endloop
  endfacet
  facet normal -0.368124 0.929777 0
    outer loop
      vertex -2.1289 4.52413 6
      vertex -1.54508 4.75528 0
      vertex -2.1289 4.52413 0
    endloop
  endfacet
  facet normal -0.770515 0.637422 0
    outer loop
      vertex -4.04508 2.93893 0
      vertex -3.64484 3.42274 6
      vertex -3.64484 3.42274 0
    endloop
  endfacet
  facet normal -0.770515 0.637422 0
    outer loop
      vertex -3.64484 3.42274 6
      vertex -4.04508 2.93893 0
      vertex -4.04508 2.93893 6
    endloop
  endfacet
  facet normal -0.951053 0.309028 0
    outer loop
      vertex -4.84292 1.24345 0
      vertex -4.64888 1.84062 6
      vertex -4.64888 1.84062 0
    endloop
  endfacet
  facet normal -0.951053 0.309028 0
    outer loop
      vertex -4.64888 1.84062 6
      vertex -4.84292 1.24345 0
      vertex -4.84292 1.24345 6
    endloop
  endfacet
  facet normal -0.904828 -0.425778 0
    outer loop
      vertex -4.38153 -2.40877 0
      vertex -4.64888 -1.84062 6
      vertex -4.64888 -1.84062 0
    endloop
  endfacet
  facet normal -0.904828 -0.425778 0
    outer loop
      vertex -4.64888 -1.84062 6
      vertex -4.38153 -2.40877 0
      vertex -4.38153 -2.40877 6
    endloop
  endfacet
  facet normal 0.684549 -0.728967 0
    outer loop
      vertex 3.18712 -3.85257 0
      vertex 3.64484 -3.42274 6
      vertex 3.18712 -3.85257 6
    endloop
  endfacet
  facet normal 0.684549 -0.728967 0
    outer loop
      vertex 3.64484 -3.42274 6
      vertex 3.18712 -3.85257 0
      vertex 3.64484 -3.42274 0
    endloop
  endfacet
  facet normal 0.125322 -0.992116 0
    outer loop
      vertex 0.313952 -4.99013 0
      vertex 0.936906 -4.91144 6
      vertex 0.313952 -4.99013 6
    endloop
  endfacet
  facet normal 0.125322 -0.992116 0
    outer loop
      vertex 0.936906 -4.91144 6
      vertex 0.313952 -4.99013 0
      vertex 0.936906 -4.91144 0
    endloop
  endfacet
  facet normal 0.770515 -0.637422 0
    outer loop
      vertex 3.64484 -3.42274 6
      vertex 4.04508 -2.93893 0
      vertex 4.04508 -2.93893 6
    endloop
  endfacet
  facet normal 0.770515 -0.637422 0
    outer loop
      vertex 4.04508 -2.93893 0
      vertex 3.64484 -3.42274 6
      vertex 3.64484 -3.42274 0
    endloop
  endfacet
  facet normal 0.904828 0.425778 0
    outer loop
      vertex 4.64888 1.84062 6
      vertex 4.38153 2.40877 0
      vertex 4.38153 2.40877 6
    endloop
  endfacet
  facet normal 0.904828 0.425778 0
    outer loop
      vertex 4.38153 2.40877 0
      vertex 4.64888 1.84062 6
      vertex 4.64888 1.84062 0
    endloop
  endfacet
  facet normal 0.844328 0.535827 0
    outer loop
      vertex 4.38153 2.40877 6
      vertex 4.04508 2.93893 0
      vertex 4.04508 2.93893 6
    endloop
  endfacet
  facet normal 0.844328 0.535827 0
    outer loop
      vertex 4.04508 2.93893 0
      vertex 4.38153 2.40877 6
      vertex 4.38153 2.40877 0
    endloop
  endfacet
  facet normal 0.770515 0.637422 0
    outer loop
      vertex 4.04508 2.93893 6
      vertex 3.64484 3.42274 0
      vertex 3.64484 3.42274 6
    endloop
  endfacet
  facet normal 0.770515 0.637422 0
    outer loop
      vertex 3.64484 3.42274 0
      vertex 4.04508 2.93893 6
      vertex 4.04508 2.93893 0
    endloop
  endfacet
  facet normal 0.481752 0.876308 -0
    outer loop
      vertex 2.67913 4.22164 0
      vertex 2.1289 4.52413 6
      vertex 2.67913 4.22164 6
    endloop
  endfacet
  facet normal 0.481752 0.876308 0
    outer loop
      vertex 2.1289 4.52413 6
      vertex 2.67913 4.22164 0
      vertex 2.1289 4.52413 0
    endloop
  endfacet
  facet normal -0.125322 0.992116 0
    outer loop
      vertex -0.313952 4.99013 0
      vertex -0.936906 4.91144 6
      vertex -0.313952 4.99013 6
    endloop
  endfacet
  facet normal -0.125322 0.992116 0
    outer loop
      vertex -0.936906 4.91144 6
      vertex -0.313952 4.99013 0
      vertex -0.936906 4.91144 0
    endloop
  endfacet
  facet normal -0.481752 0.876308 0
    outer loop
      vertex -2.1289 4.52413 0
      vertex -2.67913 4.22164 6
      vertex -2.1289 4.52413 6
    endloop
  endfacet
  facet normal -0.481752 0.876308 0
    outer loop
      vertex -2.67913 4.22164 6
      vertex -2.1289 4.52413 0
      vertex -2.67913 4.22164 0
    endloop
  endfacet
  facet normal -0.587779 0.809022 0
    outer loop
      vertex -2.67913 4.22164 0
      vertex -3.18712 3.85257 6
      vertex -2.67913 4.22164 6
    endloop
  endfacet
  facet normal -0.587779 0.809022 0
    outer loop
      vertex -3.18712 3.85257 6
      vertex -2.67913 4.22164 0
      vertex -3.18712 3.85257 0
    endloop
  endfacet
  facet normal -0.904828 0.425778 0
    outer loop
      vertex -4.64888 1.84062 0
      vertex -4.38153 2.40877 6
      vertex -4.38153 2.40877 0
    endloop
  endfacet
  facet normal -0.904828 0.425778 0
    outer loop
      vertex -4.38153 2.40877 6
      vertex -4.64888 1.84062 0
      vertex -4.64888 1.84062 6
    endloop
  endfacet
  facet normal -0.125322 -0.992116 0
    outer loop
      vertex -0.936906 -4.91144 0
      vertex -0.313952 -4.99013 6
      vertex -0.936906 -4.91144 6
    endloop
  endfacet
  facet normal -0.125322 -0.992116 -0
    outer loop
      vertex -0.313952 -4.99013 6
      vertex -0.936906 -4.91144 0
      vertex -0.313952 -4.99013 0
    endloop
  endfacet
  facet normal -0.684549 -0.728967 0
    outer loop
      vertex -3.64484 -3.42274 0
      vertex -3.18712 -3.85257 6
      vertex -3.64484 -3.42274 6
    endloop
  endfacet
  facet normal -0.684549 -0.728967 -0
    outer loop
      vertex -3.18712 -3.85257 6
      vertex -3.64484 -3.42274 0
      vertex -3.18712 -3.85257 0
    endloop
  endfacet
  facet normal -0.770515 -0.637422 0
    outer loop
      vertex -3.64484 -3.42274 0
      vertex -4.04508 -2.93893 6
      vertex -4.04508 -2.93893 0
    endloop
  endfacet
  facet normal -0.770515 -0.637422 0
    outer loop
      vertex -4.04508 -2.93893 6
      vertex -3.64484 -3.42274 0
      vertex -3.64484 -3.42274 6
    endloop
  endfacet
  facet normal -0.951053 -0.309028 0
    outer loop
      vertex -4.64888 -1.84062 0
      vertex -4.84292 -1.24345 6
      vertex -4.84292 -1.24345 0
    endloop
  endfacet
  facet normal -0.951053 -0.309028 0
    outer loop
      vertex -4.84292 -1.24345 6
      vertex -4.64888 -1.84062 0
      vertex -4.64888 -1.84062 6
    endloop
  endfacet
  facet normal -0.998026 -0.0627961 0
    outer loop
      vertex -4.96057 -0.626666 0
      vertex -5 0 6
      vertex -5 0 0
    endloop
  endfacet
  facet normal -0.998026 -0.0627961 0
    outer loop
      vertex -5 0 6
      vertex -4.96057 -0.626666 0
      vertex -4.96057 -0.626666 6
    endloop
  endfacet
  facet normal -0.98229 -0.187369 0
    outer loop
      vertex -4.84292 -1.24345 0
      vertex -4.96057 -0.626666 6
      vertex -4.96057 -0.626666 0
    endloop
  endfacet
  facet normal -0.98229 -0.187369 0
    outer loop
      vertex -4.96057 -0.626666 6
      vertex -4.84292 -1.24345 0
      vertex -4.84292 -1.24345 6
    endloop
  endfacet
  facet normal 0.248701 -0.96858 0
    outer loop
      vertex 0.936906 -4.91144 0
      vertex 1.54508 -4.75528 6
      vertex 0.936906 -4.91144 6
    endloop
  endfacet
  facet normal 0.248701 -0.96858 0
    outer loop
      vertex 1.54508 -4.75528 6
      vertex 0.936906 -4.91144 0
      vertex 1.54508 -4.75528 0
    endloop
  endfacet
  facet normal 0.998026 -0.0627961 0
    outer loop
      vertex 4.96057 -0.626666 6
      vertex 5 0 0
      vertex 5 0 6
    endloop
  endfacet
  facet normal 0.998026 -0.0627961 0
    outer loop
      vertex 5 0 0
      vertex 4.96057 -0.626666 6
      vertex 4.96057 -0.626666 0
    endloop
  endfacet
  facet normal 0.125322 0.992116 -0
    outer loop
      vertex 0.936906 4.91144 0
      vertex 0.313952 4.99013 6
      vertex 0.936906 4.91144 6
    endloop
  endfacet
  facet normal 0.125322 0.992116 0
    outer loop
      vertex 0.313952 4.99013 6
      vertex 0.936906 4.91144 0
      vertex 0.313952 4.99013 0
    endloop
  endfacet
  facet normal 0 0 1
    outer loop
      vertex 4.96057 0.626666 6
      vertex 4.96057 -0.626666 6
      vertex 5 0 6
    endloop
  endfacet
  facet normal 0 0 1
    outer loop
      vertex 4.84292 1.24345 6
      vertex 4.96057 -0.626666 6
      vertex 4.96057 0.626666 6
    endloop
  endfacet
  facet normal 0 0 1
    outer loop
      vertex 4.84292 1.24345 6
      vertex 4.84292 -1.24345 6
      vertex 4.96057 -0.626666 6
    endloop
  endfacet
  facet normal 0 0 1
    outer loop
      vertex 4.64888 1.84062 6
      vertex 4.84292 -1.24345 6
      vertex 4.84292 1.24345 6
    endloop
  endfacet
  facet normal 0 0 1
    outer loop
      vertex 4.64888 1.84062 6
      vertex 4.64888 -1.84062 6
      vertex 4.84292 -1.24345 6
    endloop
  endfacet
  facet normal 0 0 1
    outer loop
      vertex 4.38153 2.40877 6
      vertex 4.64888 -1.84062 6
      vertex 4.64888 1.84062 6
    endloop
  endfacet
  facet normal 0 0 1
    outer loop
      vertex 4.38153 2.40877 6
      vertex 4.38153 -2.40877 6
      vertex 4.64888 -1.84062 6
    endloop
  endfacet
  facet normal 0 0 1
    outer loop
      vertex 4.04508 2.93893 6
      vertex 4.38153 -2.40877 6
      vertex 4.38153 2.40877 6
    endloop
  endfacet
  facet normal 0 0 1
    outer loop
      vertex 4.04508 2.93893 6
      vertex 4.04508 -2.93893 6
      vertex 4.38153 -2.40877 6
    endloop
  endfacet
  facet normal 0 0 1
    outer loop
      vertex 3.64484 3.42274 6
      vertex 4.04508 -2.93893 6
      vertex 4.04508 2.93893 6
    endloop
  endfacet
  facet normal 0 0 1
    outer loop
      vertex 3.64484 3.42274 6
      vertex 3.64484 -3.42274 6
      vertex 4.04508 -2.93893 6
    endloop
  endfacet
  facet normal 0 0 1
    outer loop
      vertex 3.18712 3.85257 6
      vertex 3.64484 -3.42274 6
      vertex 3.64484 3.42274 6
    endloop
  endfacet
  facet normal 0 0 1
    outer loop
      vertex 3.18712 3.85257 6
      vertex 3.18712 -3.85257 6
      vertex 3.64484 -3.42274 6
    endloop
  endfacet
  facet normal 0 0 1
    outer loop
      vertex 2.67913 4.22164 6
      vertex 3.18712 -3.85257 6
      vertex 3.18712 3.85257 6
    endloop
  endfacet
  facet normal 0 0 1
    outer loop
      vertex 2.67913 4.22164 6
      vertex 2.67913 -4.22164 6
      vertex 3.18712 -3.85257 6
    endloop
  endfacet
  facet normal 0 0 1
    outer loop
      vertex 2.1289 4.52413 6
      vertex 2.67913 -4.22164 6
      vertex 2.67913 4.22164 6
    endloop
  endfacet
  facet normal 0 0 1
    outer loop
      vertex 2.1289 4.52413 6
      vertex 2.1289 -4.52413 6
      vertex 2.67913 -4.22164 6
    endloop
  endfacet
  facet normal 0 0 1
    outer loop
      vertex 1.54508 4.75528 6
      vertex 2.1289 -4.52413 6
      vertex 2.1289 4.52413 6
    endloop
  endfacet
  facet normal 0 0 1
    outer loop
      vertex 1.54508 4.75528 6
      vertex 1.54508 -4.75528 6
      vertex 2.1289 -4.52413 6
    endloop
  endfacet
  facet normal 0 0 1
    outer loop
      vertex 0.936906 4.91144 6
      vertex 1.54508 -4.75528 6
      vertex 1.54508 4.75528 6
    endloop
  endfacet
  facet normal 0 0 1
    outer loop
      vertex 0.936906 4.91144 6
      vertex 0.936906 -4.91144 6
      vertex 1.54508 -4.75528 6
    endloop
  endfacet
  facet normal 0 0 1
    outer loop
      vertex 0.313952 4.99013 6
      vertex 0.936906 -4.91144 6
      vertex 0.936906 4.91144 6
    endloop
  endfacet
  facet normal 0 0 1
    outer loop
      vertex 0.313952 4.99013 6
      vertex 0.313952 -4.99013 6
      vertex 0.936906 -4.91144 6
    endloop
  endfacet
  facet normal -0 0 1
    outer loop
      vertex -0.313952 4.99013 6
      vertex 0.313952 -4.99013 6
      vertex 0.313952 4.99013 6
    endloop
  endfacet
  facet normal 0 0 1
    outer loop
      vertex -0.313952 4.99013 6
      vertex -0.313952 -4.99013 6
      vertex 0.313952 -4.99013 6
    endloop
  endfacet
  facet normal -0 0 1
    outer loop
      vertex -0.936906 4.91144 6
      vertex -0.313952 -4.99013 6
      vertex -0.313952 4.99013 6
    endloop
  endfacet
  facet normal 0 0 1
    outer loop
      vertex -0.936906 4.91144 6
      vertex -0.936906 -4.91144 6
      vertex -0.313952 -4.99013 6
    endloop
  endfacet
  facet normal -0 0 1
    outer loop
      vertex -1.54508 4.75528 6
      vertex -0.936906 -4.91144 6
      vertex -0.936906 4.91144 6
    endloop
  endfacet
  facet normal 0 0 1
    outer loop
      vertex -1.54508 4.75528 6
      vertex -1.54508 -4.75528 6
      vertex -0.936906 -4.91144 6
    endloop
  endfacet
  facet normal -0 0 1
    outer loop
      vertex -2.1289 4.52413 6
      vertex -1.54508 -4.75528 6
      vertex -1.54508 4.75528 6
    endloop
  endfacet
  facet normal 0 0 1
    outer loop
      vertex -2.1289 4.52413 6
      vertex -2.1289 -4.52413 6
      vertex -1.54508 -4.75528 6
    endloop
  endfacet
  facet normal -0 0 1
    outer loop
      vertex -2.67913 4.22164 6
      vertex -2.1289 -4.52413 6
      vertex -2.1289 4.52413 6
    endloop
  endfacet
  facet normal 0 0 1
    outer loop
      vertex -2.67913 4.22164 6
      vertex -2.67913 -4.22164 6
      vertex -2.1289 -4.52413 6
    endloop
  endfacet
  facet normal -0 0 1
    outer loop
      vertex -3.18712 3.85257 6
      vertex -2.67913 -4.22164 6
      vertex -2.67913 4.22164 6
    endloop
  endfacet
  facet normal 0 0 1
    outer loop
      vertex -3.18712 3.85257 6
      vertex -3.18712 -3.85257 6
      vertex -2.67913 -4.22164 6
    endloop
  endfacet
  facet normal -0 0 1
    outer loop
      vertex -3.64484 3.42274 6
      vertex -3.18712 -3.85257 6
      vertex -3.18712 3.85257 6
    endloop
  endfacet
  facet normal 0 0 1
    outer loop
      vertex -3.64484 3.42274 6
      vertex -3.64484 -3.42274 6
      vertex -3.18712 -3.85257 6
    endloop
  endfacet
  facet normal -0 0 1
    outer loop
      vertex -4.04508 2.93893 6
      vertex -3.64484 -3.42274 6
      vertex -3.64484 3.42274 6
    endloop
  endfacet
  facet normal 0 0 1
    outer loop
      vertex -4.04508 2.93893 6
      vertex -4.04508 -2.93893 6
      vertex -3.64484 -3.42274 6
    endloop
  endfacet
  facet normal -0 0 1
    outer loop
      vertex -4.38153 2.40877 6
      vertex -4.04508 -2.93893 6
      vertex -4.04508 2.93893 6
    endloop
  endfacet
  facet normal 0 0 1
    outer loop
      vertex -4.38153 2.40877 6
      vertex -4.38153 -2.40877 6
      vertex -4.04508 -2.93893 6
    endloop
  endfacet
  facet normal -0 0 1
    outer loop
      vertex -4.64888 1.84062 6
      vertex -4.38153 -2.40877 6
      vertex -4.38153 2.40877 6
    endloop
  endfacet
  facet normal 0 0 1
    outer loop
      vertex -4.64888 1.84062 6
      vertex -4.64888 -1.84062 6
      vertex -4.38153 -2.40877 6
    endloop
  endfacet
  facet normal -0 0 1
    outer loop
      vertex -4.84292 1.24345 6
      vertex -4.64888 -1.84062 6
      vertex -4.64888 1.84062 6
    endloop
  endfacet
  facet normal 0 0 1
    outer loop
      vertex -4.84292 1.24345 6
      vertex -4.84292 -1.24345 6
      vertex -4.64888 -1.84062 6
    endloop
  endfacet
  facet normal -0 0 1
    outer loop
      vertex -4.96057 0.626666 6
      vertex -4.84292 -1.24345 6
      vertex -4.84292 1.24345 6
    endloop
  endfacet
  facet normal 0 0 1
    outer loop
      vertex -4.96057 0.626666 6
      vertex -4.96057 -0.626666 6
      vertex -4.84292 -1.24345 6
    endloop
  endfacet
  facet normal 0 -0 1
    outer loop
      vertex -4.96057 -0.626666 6
      vertex -4.96057 0.626666 6
      vertex -5 0 6
    endloop
  endfacet
  facet normal -0.98229 0.187369 0
    outer loop
      vertex -4.96057 0.626666 0
      vertex -4.84292 1.24345 6
      vertex -4.84292 1.24345 0
    endloop
  endfacet
  facet normal -0.98229 0.187369 0
    outer loop
      vertex -4.84292 1.24345 6
      vertex -4.96057 0.626666 0
      vertex -4.96057 0.626666 6
    endloop
  endfacet
  facet normal 0 -1 0
    outer loop
      vertex -0.313952 -4.99013 0
      vertex 0.313952 -4.99013 6
      vertex -0.313952 -4.99013 6
    endloop
  endfacet
  facet normal 0 -1 -0
    outer loop
      vertex 0.313952 -4.99013 6
      vertex -0.313952 -4.99013 0
      vertex 0.313952 -4.99013 0
    endloop
  endfacet
  facet normal -0.844328 -0.535827 0
    outer loop
      vertex -4.04508 -2.93893 0
      vertex -4.38153 -2.40877 6
      vertex -4.38153 -2.40877 0
    endloop
  endfacet
  facet normal -0.844328 -0.535827 0
    outer loop
      vertex -4.38153 -2.40877 6
      vertex -4.04508 -2.93893 0
      vertex -4.04508 -2.93893 6
    endloop
  endfacet
  facet normal 0.587779 -0.809022 0
    outer loop
      vertex 2.67913 -4.22164 0
      vertex 3.18712 -3.85257 6
      vertex 2.67913 -4.22164 6
    endloop
  endfacet
  facet normal 0.587779 -0.809022 0
    outer loop
      vertex 3.18712 -3.85257 6
      vertex 2.67913 -4.22164 0
      vertex 3.18712 -3.85257 0
    endloop
  endfacet
  facet normal 0.844328 -0.535827 0
    outer loop
      vertex 4.04508 -2.93893 6
      vertex 4.38153 -2.40877 0
      vertex 4.38153 -2.40877 6
    endloop
  endfacet
  facet normal 0.844328 -0.535827 0
    outer loop
      vertex 4.38153 -2.40877 0
      vertex 4.04508 -2.93893 6
      vertex 4.04508 -2.93893 0
    endloop
  endfacet
  facet normal 0.951053 -0.309028 0
    outer loop
      vertex 4.64888 -1.84062 6
      vertex 4.84292 -1.24345 0
      vertex 4.84292 -1.24345 6
    endloop
  endfacet
  facet normal 0.951053 -0.309028 0
    outer loop
      vertex 4.84292 -1.24345 0
      vertex 4.64888 -1.84062 6
      vertex 4.64888 -1.84062 0
    endloop
  endfacet
  facet normal 0.904828 -0.425778 0
    outer loop
      vertex 4.38153 -2.40877 6
      vertex 4.64888 -1.84062 0
      vertex 4.64888 -1.84062 6
    endloop
  endfacet
  facet normal 0.904828 -0.425778 0
    outer loop
      vertex 4.64888 -1.84062 0
      vertex 4.38153 -2.40877 6
      vertex 4.38153 -2.40877 0
    endloop
  endfacet
  facet normal -0.248701 -0.96858 0
    outer loop
      vertex -1.54508 -4.75528 0
      vertex -0.936906 -4.91144 6
      vertex -1.54508 -4.75528 6
    endloop
  endfacet
  facet normal -0.248701 -0.96858 -0
    outer loop
      vertex -0.936906 -4.91144 6
      vertex -1.54508 -4.75528 0
      vertex -0.936906 -4.91144 0
    endloop
  endfacet
  facet normal 0.481752 -0.876308 0
    outer loop
      vertex 2.1289 -4.52413 0
      vertex 2.67913 -4.22164 6
      vertex 2.1289 -4.52413 6
    endloop
  endfacet
  facet normal 0.481752 -0.876308 0
    outer loop
      vertex 2.67913 -4.22164 6
      vertex 2.1289 -4.52413 0
      vertex 2.67913 -4.22164 0
    endloop
  endfacet
  facet normal -0.481752 -0.876308 0
    outer loop
      vertex -2.67913 -4.22164 0
      vertex -2.1289 -4.52413 6
      vertex -2.67913 -4.22164 6
    endloop
  endfacet
  facet normal -0.481752 -0.876308 -0
    outer loop
      vertex -2.1289 -4.52413 6
      vertex -2.67913 -4.22164 0
      vertex -2.1289 -4.52413 0
    endloop
  endfacet
  facet normal -0.587779 -0.809022 0
    outer loop
      vertex -3.18712 -3.85257 0
      vertex -2.67913 -4.22164 6
      vertex -3.18712 -3.85257 6
    endloop
  endfacet
  facet normal -0.587779 -0.809022 -0
    outer loop
      vertex -2.67913 -4.22164 6
      vertex -3.18712 -3.85257 0
      vertex -2.67913 -4.22164 0
    endloop
  endfacet
  facet normal -0.368124 -0.929777 0
    outer loop
      vertex -2.1289 -4.52413 0
      vertex -1.54508 -4.75528 6
      vertex -2.1289 -4.52413 6
    endloop
  endfacet
  facet normal -0.368124 -0.929777 -0
    outer loop
      vertex -1.54508 -4.75528 6
      vertex -2.1289 -4.52413 0
      vertex -1.54508 -4.75528 0
    endloop
  endfacet
endsolid OpenSCAD_Model
