  0
SECTION
  2
HEADER
  9
$ACADVER
  1
AC1021
  9
$ACADMAINTVER
 70
    25
  9
$DWGCODEPAGE
  3
ANSI_1252
  9
$INSBASE
 10
0.0
 20
0.0
 30
0.0
  9
$EXTMIN
 10
-3.76701
 20
-0.27144
 30
0.0
  9
$EXTMAX
 10
3.77369
 20
6.82843
 30
0.0
  9
$LIMMIN
 10
0.0
 20
0.0
  9
$LIMMAX
 10
12.0
 20
9.0
  9
$ORTHOMODE
 70
     0
  9
$REGENMODE
 70
     1
  9
$FILLMODE
 70
     1
  9
$QTEXTMODE
 70
     0
  9
$MIRRTEXT
 70
     1
  9
$LTSCALE
 40
1.0
  9
$ATTMODE
 70
     1
  9
$TEXTSIZE
 40
0.2
  9
$TRACEWID
 40
0.05
  9
$TEXTSTYLE
  7
Standard
  9
$CLAYER
  8
0
  9
$CELTYPE
  6
ByLayer
  9
$CECOLOR
 62
   256
  9
$CELTSCALE
 40
1.0
  9
$DISPSILH
 70
     0
  9
$DIMSCALE
 40
1.0
  9
$DIMASZ
 40
0.18
  9
$DIMEXO
 40
0.0625
  9
$DIMDLI
 40
0.38
  9
$DIMRND
 40
0.0
  9
$DIMDLE
 40
0.0
  9
$DIMEXE
 40
0.18
  9
$DIMTP
 40
0.0
  9
$DIMTM
 40
0.0
  9
$DIMTXT
 40
0.18
  9
$DIMCEN
 40
0.09
  9
$DIMTSZ
 40
0.0
  9
$DIMTOL
 70
     0
  9
$DIMLIM
 70
     0
  9
$DIMTIH
 70
     1
  9
$DIMTOH
 70
     1
  9
$DIMSE1
 70
     0
  9
$DIMSE2
 70
     0
  9
$DIMTAD
 70
     0
  9
$DIMZIN
 70
     0
  9
$DIMBLK
  1

  9
$DIMASO
 70
     1
  9
$DIMSHO
 70
     1
  9
$DIMPOST
  1

  9
$DIMAPOST
  1

  9
$DIMALT
 70
     0
  9
$DIMALTD
 70
     2
  9
$DIMALTF
 40
25.4
  9
$DIMLFAC
 40
1.0
  9
$DIMTOFL
 70
     0
  9
$DIMTVP
 40
0.0
  9
$DIMTIX
 70
     0
  9
$DIMSOXD
 70
     0
  9
$DIMSAH
 70
     0
  9
$DIMBLK1
  1

  9
$DIMBLK2
  1

  9
$DIMSTYLE
  2
Standard
  9
$DIMCLRD
 70
     0
  9
$DIMCLRE
 70
     0
  9
$DIMCLRT
 70
     0
  9
$DIMTFAC
 40
1.0
  9
$DIMGAP
 40
0.09
  9
$DIMJUST
 70
     0
  9
$DIMSD1
 70
     0
  9
$DIMSD2
 70
     0
  9
$DIMTOLJ
 70
     1
  9
$DIMTZIN
 70
     0
  9
$DIMALTZ
 70
     0
  9
$DIMALTTZ
 70
     0
  9
$DIMUPT
 70
     0
  9
$DIMDEC
 70
     4
  9
$DIMTDEC
 70
     4
  9
$DIMALTU
 70
     2
  9
$DIMALTTD
 70
     2
  9
$DIMTXSTY
  7
Standard
  9
$DIMAUNIT
 70
     0
  9
$DIMADEC
 70
     0
  9
$DIMALTRND
 40
0.0
  9
$DIMAZIN
 70
     0
  9
$DIMDSEP
 70
    46
  9
$DIMATFIT
 70
     3
  9
$DIMFRAC
 70
     0
  9
$DIMLDRBLK
  1

  9
$DIMLUNIT
 70
     2
  9
$DIMLWD
 70
    -2
  9
$DIMLWE
 70
    -2
  9
$DIMTMOVE
 70
     0
  9
$DIMFXL
 40
1.0
  9
$DIMFXLON
 70
     0
  9
$DIMJOGANG
 40
0.7853981633974483
  9
$DIMTFILL
 70
     0
  9
$DIMTFILLCLR
 70
     0
  9
$DIMARCSYM
 70
     0
  9
$DIMLTYPE
  6

  9
$DIMLTEX1
  6

  9
$DIMLTEX2
  6

  9
$LUNITS
 70
     2
  9
$LUPREC
 70
     4
  9
$SKETCHINC
 40
0.1
  9
$FILLETRAD
 40
0.5
  9
$AUNITS
 70
     0
  9
$AUPREC
 70
     0
  9
$MENU
  1
.
  9
$ELEVATION
 40
0.0
  9
$PELEVATION
 40
0.0
  9
$THICKNESS
 40
0.0
  9
$LIMCHECK
 70
     0
  9
$CHAMFERA
 40
0.5
  9
$CHAMFERB
 40
0.5
  9
$CHAMFERC
 40
1.0
  9
$CHAMFERD
 40
0.0
  9
$SKPOLY
 70
     0
  9
$TDCREATE
 40
2460684.488090185
  9
$TDUCREATE
 40
2460684.488090185
  9
$TDUPDATE
 40
2460684.488090278
  9
$TDUUPDATE
 40
2460684.488090278
  9
$TDINDWG
 40
0.0000000116
  9
$TDUSRTIMER
 40
0.0000000116
  9
$USRTIMER
 70
     1
  9
$ANGBASE
 50
0.0
  9
$ANGDIR
 70
     0
  9
$PDMODE
 70
     0
  9
$PDSIZE
 40
0.0
  9
$PLINEWID
 40
0.0
  9
$SPLFRAME
 70
     0
  9
$SPLINETYPE
 70
     6
  9
$SPLINESEGS
 70
     8
  9
$HANDSEED
  5
9E
  9
$SURFTAB1
 70
     6
  9
$SURFTAB2
 70
     6
  9
$SURFTYPE
 70
     6
  9
$SURFU
 70
     6
  9
$SURFV
 70
     6
  9
$UCSBASE
  2

  9
$UCSNAME
  2

  9
$UCSORG
 10
0.0
 20
0.0
 30
0.0
  9
$UCSXDIR
 10
1.0
 20
0.0
 30
0.0
  9
$UCSYDIR
 10
0.0
 20
1.0
 30
0.0
  9
$UCSORTHOREF
  2

  9
$UCSORTHOVIEW
 70
     0
  9
$UCSORGTOP
 10
0.0
 20
0.0
 30
0.0
  9
$UCSORGBOTTOM
 10
0.0
 20
0.0
 30
0.0
  9
$UCSORGLEFT
 10
0.0
 20
0.0
 30
0.0
  9
$UCSORGRIGHT
 10
0.0
 20
0.0
 30
0.0
  9
$UCSORGFRONT
 10
0.0
 20
0.0
 30
0.0
  9
$UCSORGBACK
 10
0.0
 20
0.0
 30
0.0
  9
$PUCSBASE
  2

  9
$PUCSNAME
  2

  9
$PUCSORG
 10
0.0
 20
0.0
 30
0.0
  9
$PUCSXDIR
 10
1.0
 20
0.0
 30
0.0
  9
$PUCSYDIR
 10
0.0
 20
1.0
 30
0.0
  9
$PUCSORTHOREF
  2

  9
$PUCSORTHOVIEW
 70
     0
  9
$PUCSORGTOP
 10
0.0
 20
0.0
 30
0.0
  9
$PUCSORGBOTTOM
 10
0.0
 20
0.0
 30
0.0
  9
$PUCSORGLEFT
 10
0.0
 20
0.0
 30
0.0
  9
$PUCSORGRIGHT
 10
0.0
 20
0.0
 30
0.0
  9
$PUCSORGFRONT
 10
0.0
 20
0.0
 30
0.0
  9
$PUCSORGBACK
 10
0.0
 20
0.0
 30
0.0
  9
$USERI1
 70
     0
  9
$USERI2
 70
     0
  9
$USERI3
 70
     0
  9
$USERI4
 70
     0
  9
$USERI5
 70
     0
  9
$USERR1
 40
0.0
  9
$USERR2
 40
0.0
  9
$USERR3
 40
0.0
  9
$USERR4
 40
0.0
  9
$USERR5
 40
0.0
  9
$WORLDVIEW
 70
     1
  9
$SHADEDGE
 70
     3
  9
$SHADEDIF
 70
    70
  9
$TILEMODE
 70
     1
  9
$MAXACTVP
 70
    64
  9
$PINSBASE
 10
0.0
 20
0.0
 30
0.0
  9
$PLIMCHECK
 70
     0
  9
$PEXTMIN
 10
1.000000000000000E+20
 20
1.000000000000000E+20
 30
1.000000000000000E+20
  9
$PEXTMAX
 10
-1.000000000000000E+20
 20
-1.000000000000000E+20
 30
-1.000000000000000E+20
  9
$PLIMMIN
 10
0.0
 20
0.0
  9
$PLIMMAX
 10
12.0
 20
9.0
  9
$UNITMODE
 70
     0
  9
$VISRETAIN
 70
     1
  9
$PLINEGEN
 70
     0
  9
$PSLTSCALE
 70
     1
  9
$TREEDEPTH
 70
  3020
  9
$CMLSTYLE
  2
Standard
  9
$CMLJUST
 70
     0
  9
$CMLSCALE
 40
1.0
  9
$PROXYGRAPHICS
 70
     1
  9
$MEASUREMENT
 70
     0
  9
$CELWEIGHT
370
    -1
  9
$ENDCAPS
280
     0
  9
$JOINSTYLE
280
     0
  9
$LWDISPLAY
290
     0
  9
$INSUNITS
 70
     5
  9
$HYPERLINKBASE
  1

  9
$STYLESHEET
  1

  9
$XEDIT
290
     1
  9
$CEPSNTYPE
380
     0
  9
$PSTYLEMODE
290
     1
  9
$FINGERPRINTGUID
  2
{4D58F5E4-387E-45E7-B8FB-F5B05B08AF45}
  9
$VERSIONGUID
  2
{FAEB1C32-E019-11D5-929B-00C0DF256EC4}
  9
$EXTNAMES
290
     1
  9
$PSVPSCALE
 40
0.0
  9
$OLESTARTUP
290
     0
  9
$SORTENTS
280
   127
  9
$INDEXCTL
280
     0
  9
$HIDETEXT
280
     1
  9
$XCLIPFRAME
290
     0
  9
$HALOGAP
280
     0
  9
$OBSCOLOR
 70
   257
  9
$OBSLTYPE
280
     0
  9
$INTERSECTIONDISPLAY
280
     0
  9
$INTERSECTIONCOLOR
 70
   257
  9
$DIMASSOC
280
     2
  9
$PROJECTNAME
  1

  9
$CAMERADISPLAY
290
     0
  9
$LENSLENGTH
 40
50.0
  9
$CAMERAHEIGHT
 40
0.0
  9
$STEPSPERSEC
 40
2.0
  9
$STEPSIZE
 40
6.0
  9
$3DDWFPREC
 40
2.0
  9
$PSOLWIDTH
 40
0.25
  9
$PSOLHEIGHT
 40
4.0
  9
$LOFTANG1
 40
1.570796326794897
  9
$LOFTANG2
 40
1.570796326794897
  9
$LOFTMAG1
 40
0.0
  9
$LOFTMAG2
 40
0.0
  9
$LOFTPARAM
 70
     7
  9
$LOFTNORMALS
280
     1
  9
$LATITUDE
 40
37.795
  9
$LONGITUDE
 40
-122.394
  9
$NORTHDIRECTION
 40
0.0
  9
$TIMEZONE
 70
 -8000
  9
$LIGHTGLYPHDISPLAY
280
     1
  9
$TILEMODELIGHTSYNCH
280
     1
  9
$SOLIDHIST
280
     1
  9
$SHOWHIST
280
     1
  9
$DWFFRAME
280
     2
  9
$DGNFRAME
280
     2
  9
$REALWORLDSCALE
290
     1
  9
$INTERFERECOLOR
 62
   256
  9
$CSHADOW
280
     0
  9
$SHADOWPLANELOCATION
 40
0.0
  0
ENDSEC
  0
SECTION
  2
CLASSES
  0
CLASS
  1
ACDBDICTIONARYWDFLT
  2
AcDbDictionaryWithDefault
  3
ObjectDBX Classes
 90
        0
 91
        4
280
     0
281
     0
  0
CLASS
  1
VISUALSTYLE
  2
AcDbVisualStyle
  3
ObjectDBX Classes
 90
     4095
 91
        4
280
     0
281
     0
  0
CLASS
  1
MATERIAL
  2
AcDbMaterial
  3
ObjectDBX Classes
 90
     1153
 91
        4
280
     0
281
     0
  0
ENDSEC
  0
SECTION
  2
TABLES
  0
TABLE
  2
VPORT
  5
8
330
0
100
AcDbSymbolTable
 70
     1
  0
VPORT
  5
29
330
8
100
AcDbSymbolTableRecord
100
AcDbViewportTableRecord
  2
*Active
 70
     0
 10
0.0
 20
0.0
 11
1.0
 21
1.0
 12
10.42990654205607
 22
4.5
 13
0.0
 23
0.0
 14
0.5
 24
0.5
 15
0.5
 25
0.5
 16
0.0
 26
0.0
 36
1.0
 17
0.0
 27
0.0
 37
0.0
 40
9.0
 41
1.972972972850329
 42
50.0
 43
0.0
 44
0.0
 50
0.0
 51
0.0
 71
     0
 72
   100
 73
     1
 74
     3
 75
     0
 76
     0
 77
     0
 78
     0
281
     0
 65
     1
110
0.0
120
0.0
130
0.0
111
1.0
121
0.0
131
0.0
112
0.0
122
1.0
132
0.0
 79
     0
146
0.0
 60
     3
 61
     5
292
     1
282
     1
141
0.0
142
0.0
 63
   250
  0
ENDTAB
  0
TABLE
  2
LTYPE
  5
5
330
0
100
AcDbSymbolTable
 70
     1
  0
LTYPE
  5
14
330
5
100
AcDbSymbolTableRecord
100
AcDbLinetypeTableRecord
  2
ByBlock
 70
     0
  3

 72
    65
 73
     0
 40
0.0
  0
LTYPE
  5
15
330
5
100
AcDbSymbolTableRecord
100
AcDbLinetypeTableRecord
  2
ByLayer
 70
     0
  3

 72
    65
 73
     0
 40
0.0
  0
LTYPE
  5
16
330
5
100
AcDbSymbolTableRecord
100
AcDbLinetypeTableRecord
  2
Continuous
 70
     0
  3
Solid line
 72
    65
 73
     0
 40
0.0
  0
ENDTAB
  0
TABLE
  2
LAYER
  5
2
330
0
100
AcDbSymbolTable
 70
     2
  0
LAYER
  5
10
330
2
100
AcDbSymbolTableRecord
100
AcDbLayerTableRecord
  2
0
 70
     0
 62
     7
  6
Continuous
370
    -3
390
F
347
3E
  0
LAYER
  5
40
330
2
100
AcDbSymbolTableRecord
100
AcDbLayerTableRecord
  2
Layer 1
 70
     0
 62
     7
  6
Continuous
370
    -3
390
F
347
3E
  0
ENDTAB
  0
TABLE
  2
STYLE
  5
3
330
0
100
AcDbSymbolTable
 70
     1
  0
STYLE
  5
11
330
3
100
AcDbSymbolTableRecord
100
AcDbTextStyleTableRecord
  2
Standard
 70
     0
 40
0.0
 41
1.0
 50
0.0
 71
     0
 42
0.2
  3
txt
  4

  0
ENDTAB
  0
TABLE
  2
VIEW
  5
6
330
0
100
AcDbSymbolTable
 70
     0
  0
ENDTAB
  0
TABLE
  2
UCS
  5
7
330
0
100
AcDbSymbolTable
 70
     0
  0
ENDTAB
  0
TABLE
  2
APPID
  5
9
330
0
100
AcDbSymbolTable
 70
     2
  0
APPID
  5
12
330
9
100
AcDbSymbolTableRecord
100
AcDbRegAppTableRecord
  2
ACAD
 70
     0
  0
APPID
  5
3F
330
9
100
AcDbSymbolTableRecord
100
AcDbRegAppTableRecord
  2
ODA
 70
     0
  0
ENDTAB
  0
TABLE
  2
DIMSTYLE
  5
A
330
0
100
AcDbSymbolTable
 70
     1
100
AcDbDimStyleTable
  0
DIMSTYLE
105
27
330
A
100
AcDbSymbolTableRecord
100
AcDbDimStyleTableRecord
  2
Standard
 70
     0
178
     0
340
11
  0
ENDTAB
  0
TABLE
  2
BLOCK_RECORD
  5
1
330
0
100
AcDbSymbolTable
 70
     1
  0
BLOCK_RECORD
  5
1F
330
1
100
AcDbSymbolTableRecord
100
AcDbBlockTableRecord
  2
*Model_Space
340
22
 70
     0
280
     1
281
     0
  0
BLOCK_RECORD
  5
1B
330
1
100
AcDbSymbolTableRecord
100
AcDbBlockTableRecord
  2
*Paper_Space
340
1E
 70
     0
280
     1
281
     0
  0
BLOCK_RECORD
  5
23
330
1
100
AcDbSymbolTableRecord
100
AcDbBlockTableRecord
  2
*Paper_Space0
340
26
 70
     0
280
     1
281
     0
  0
ENDTAB
  0
ENDSEC
  0
SECTION
  2
BLOCKS
  0
BLOCK
  5
20
330
1F
100
AcDbEntity
  8
0
100
AcDbBlockBegin
  2
*Model_Space
 70
     0
 10
0.0
 20
0.0
 30
0.0
  3
*Model_Space
  1

  0
ENDBLK
  5
21
330
1F
100
AcDbEntity
  8
0
100
AcDbBlockEnd
  0
BLOCK
  5
1C
330
1B
100
AcDbEntity
 67
     1
  8
0
100
AcDbBlockBegin
  2
*Paper_Space
 70
     0
 10
0.0
 20
0.0
 30
0.0
  3
*Paper_Space
  1

  0
ENDBLK
  5
1D
330
1B
100
AcDbEntity
 67
     1
  8
0
100
AcDbBlockEnd
  0
BLOCK
  5
24
330
23
100
AcDbEntity
  8
0
100
AcDbBlockBegin
  2
*Paper_Space0
 70
     0
 10
0.0
 20
0.0
 30
0.0
  3
*Paper_Space0
  1

  0
ENDBLK
  5
25
330
23
100
AcDbEntity
  8
0
100
AcDbBlockEnd
  0
ENDSEC
  0
SECTION
  2
ENTITIES
  0
SPLINE
  5
41
330
1F
100
AcDbEntity
  8
Layer 1
100
AcDbSpline
210
0.0
220
0.0
230
1.0
 70
    11
 71
     3
 72
    60
 73
    56
 74
     0
 42
0.0000000001
 43
0.0000000001
 12
1.0
 22
0.0
 32
0.0
 13
1.0
 23
0.0
 33
0.0
 40
0.0
 40
0.0
 40
0.0
 40
0.0
 40
0.0666666666666667
 40
0.0666666666666667
 40
0.0666666666666667
 40
0.0666666666666667
 40
0.1333333333333333
 40
0.1333333333333333
 40
0.1333333333333333
 40
0.1333333333333333
 40
0.2
 40
0.2
 40
0.2
 40
0.2
 40
0.2666666666666667
 40
0.2666666666666667
 40
0.2666666666666667
 40
0.2666666666666667
 40
0.3333333333333333
 40
0.3333333333333333
 40
0.3333333333333333
 40
0.3333333333333333
 40
0.4
 40
0.4
 40
0.4
 40
0.4
 40
0.4666666666666667
 40
0.4666666666666667
 40
0.4666666666666667
 40
0.4666666666666667
 40
0.5333333333333333
 40
0.5333333333333333
 40
0.5333333333333333
 40
0.5333333333333333
 40
0.6
 40
0.6
 40
0.6
 40
0.6
 40
0.6666666666666666
 40
0.6666666666666666
 40
0.6666666666666666
 40
0.6666666666666666
 40
0.7333333333333333
 40
0.7333333333333333
 40
0.7333333333333333
 40
0.7333333333333333
 40
0.8
 40
0.8
 40
0.8
 40
0.8
 40
0.8666666666666667
 40
0.8666666666666667
 40
0.8666666666666667
 40
0.8666666666666667
 40
1.0
 40
1.0
 40
1.0
 40
1.0
 10
-2.26297
 20
6.42044
 30
0.0
 10
-2.26297
 20
6.42044
 30
0.0
 10
-2.26297
 20
6.82843
 30
0.0
 10
-2.26297
 20
6.82843
 30
0.0
 10
-2.26297
 20
6.82843
 30
0.0
 10
-2.26297
 20
6.82843
 30
0.0
 10
-2.21217
 20
6.82843
 30
0.0
 10
-2.21217
 20
6.82843
 30
0.0
 10
-2.21217
 20
6.82843
 30
0.0
 10
-2.21217
 20
6.82843
 30
0.0
 10
-2.21217
 20
6.64789
 30
0.0
 10
-2.21217
 20
6.64789
 30
0.0
 10
-2.21217
 20
6.64789
 30
0.0
 10
-2.18527
 20
6.68714
 30
0.0
 10
-2.15228
 20
6.70672
 30
0.0
 10
-2.1133
 20
6.70672
 30
0.0
 10
-2.1133
 20
6.70672
 30
0.0
 10
-2.08878
 20
6.70672
 30
0.0
 10
-2.06929
 20
6.69905
 30
0.0
 10
-2.05492
 20
6.68361
 30
0.0
 10
-2.05492
 20
6.68361
 30
0.0
 10
-2.04054
 20
6.66827
 30
0.0
 10
-2.03331
 20
6.64754
 30
0.0
 10
-2.03331
 20
6.62161
 30
0.0
 10
-2.03331
 20
6.62161
 30
0.0
 10
-2.03331
 20
6.62161
 30
0.0
 10
-2.03331
 20
6.42044
 30
0.0
 10
-2.03331
 20
6.42044
 30
0.0
 10
-2.03331
 20
6.42044
 30
0.0
 10
-2.03331
 20
6.42044
 30
0.0
 10
-2.08411
 20
6.42044
 30
0.0
 10
-2.08411
 20
6.42044
 30
0.0
 10
-2.08411
 20
6.42044
 30
0.0
 10
-2.08411
 20
6.42044
 30
0.0
 10
-2.08411
 20
6.60503
 30
0.0
 10
-2.08411
 20
6.60503
 30
0.0
 10
-2.08411
 20
6.60503
 30
0.0
 10
-2.08411
 20
6.62585
 30
0.0
 10
-2.0872
 20
6.64066
 30
0.0
 10
-2.09328
 20
6.64948
 30
0.0
 10
-2.09328
 20
6.64948
 30
0.0
 10
-2.09946
 20
6.65839
 30
0.0
 10
-2.1096
 20
6.6628
 30
0.0
 10
-2.1238
 20
6.6628
 30
0.0
 10
-2.1238
 20
6.6628
 30
0.0
 10
-2.15502
 20
6.6628
 30
0.0
 10
-2.18448
 20
6.64243
 30
0.0
 10
-2.21217
 20
6.60168
 30
0.0
 10
-2.21217
 20
6.60168
 30
0.0
 10
-2.21217
 20
6.60168
 30
0.0
 10
-2.21217
 20
6.42044
 30
0.0
 10
-2.21217
 20
6.42044
 30
0.0
 10
-2.21217
 20
6.42044
 30
0.0
 10
-2.21217
 20
6.42044
 30
0.0
 10
-2.26297
 20
6.42044
 30
0.0
 10
-2.26297
 20
6.42044
 30
0.0
  0
SPLINE
  5
42
330
1F
100
AcDbEntity
  8
Layer 1
100
AcDbSpline
210
0.0
220
0.0
230
1.0
 70
    11
 71
     3
 72
    80
 73
    76
 74
     0
 42
0.0000000001
 43
0.0000000001
 12
1.0
 22
0.0
 32
0.0
 13
1.0
 23
0.0
 33
0.0
 40
0.0
 40
0.0
 40
0.0
 40
0.0
 40
0.05
 40
0.05
 40
0.05
 40
0.05
 40
0.1
 40
0.1
 40
0.1
 40
0.1
 40
0.15
 40
0.15
 40
0.15
 40
0.15
 40
0.2
 40
0.2
 40
0.2
 40
0.2
 40
0.25
 40
0.25
 40
0.25
 40
0.25
 40
0.3
 40
0.3
 40
0.3
 40
0.3
 40
0.35
 40
0.35
 40
0.35
 40
0.35
 40
0.4
 40
0.4
 40
0.4
 40
0.4
 40
0.45
 40
0.45
 40
0.45
 40
0.45
 40
0.5
 40
0.5
 40
0.5
 40
0.5
 40
0.55
 40
0.55
 40
0.55
 40
0.55
 40
0.6
 40
0.6
 40
0.6
 40
0.6
 40
0.65
 40
0.65
 40
0.65
 40
0.65
 40
0.7
 40
0.7
 40
0.7
 40
0.7
 40
0.75
 40
0.75
 40
0.75
 40
0.75
 40
0.8
 40
0.8
 40
0.8
 40
0.8
 40
0.85
 40
0.85
 40
0.85
 40
0.85
 40
0.9
 40
0.9
 40
0.9
 40
0.9
 40
1.0
 40
1.0
 40
1.0
 40
1.0
 10
-1.78998
 20
6.45616
 30
0.0
 10
-1.82049
 20
6.42811
 30
0.0
 10
-1.84986
 20
6.41409
 30
0.0
 10
-1.87808
 20
6.41409
 30
0.0
 10
-1.87808
 20
6.41409
 30
0.0
 10
-1.90128
 20
6.41409
 30
0.0
 10
-1.92059
 20
6.42132
 30
0.0
 10
-1.93585
 20
6.43587
 30
0.0
 10
-1.93585
 20
6.43587
 30
0.0
 10
-1.9512
 20
6.45043
 30
0.0
 10
-1.95887
 20
6.46877
 30
0.0
 10
-1.95887
 20
6.49091
 30
0.0
 10
-1.95887
 20
6.49091
 30
0.0
 10
-1.95887
 20
6.52151
 30
0.0
 10
-1.946
 20
6.54506
 30
0.0
 10
-1.92024
 20
6.56146
 30
0.0
 10
-1.92024
 20
6.56146
 30
0.0
 10
-1.89449
 20
6.57787
 30
0.0
 10
-1.85754
 20
6.58607
 30
0.0
 10
-1.80938
 20
6.58607
 30
0.0
 10
-1.80938
 20
6.58607
 30
0.0
 10
-1.80938
 20
6.58607
 30
0.0
 10
-1.79747
 20
6.58607
 30
0.0
 10
-1.79747
 20
6.58607
 30
0.0
 10
-1.79747
 20
6.58607
 30
0.0
 10
-1.79747
 20
6.58607
 30
0.0
 10
-1.79747
 20
6.61985
 30
0.0
 10
-1.79747
 20
6.61985
 30
0.0
 10
-1.79747
 20
6.61985
 30
0.0
 10
-1.79747
 20
6.65239
 30
0.0
 10
-1.81441
 20
6.66862
 30
0.0
 10
-1.84836
 20
6.66862
 30
0.0
 10
-1.84836
 20
6.66862
 30
0.0
 10
-1.87465
 20
6.66862
 30
0.0
 10
-1.9034
 20
6.66033
 30
0.0
 10
-1.93453
 20
6.64375
 30
0.0
 10
-1.93453
 20
6.64375
 30
0.0
 10
-1.93453
 20
6.64375
 30
0.0
 10
-1.93453
 20
6.68555
 30
0.0
 10
-1.93453
 20
6.68555
 30
0.0
 10
-1.93453
 20
6.68555
 30
0.0
 10
-1.90031
 20
6.69967
 30
0.0
 10
-1.86803
 20
6.70672
 30
0.0
 10
-1.83778
 20
6.70672
 30
0.0
 10
-1.83778
 20
6.70672
 30
0.0
 10
-1.80665
 20
6.70672
 30
0.0
 10
-1.78363
 20
6.69967
 30
0.0
 10
-1.7689
 20
6.68547
 30
0.0
 10
-1.7689
 20
6.68547
 30
0.0
 10
-1.75408
 20
6.67127
 30
0.0
 10
-1.74667
 20
6.64939
 30
0.0
 10
-1.74667
 20
6.61985
 30
0.0
 10
-1.74667
 20
6.61985
 30
0.0
 10
-1.74667
 20
6.61985
 30
0.0
 10
-1.74667
 20
6.49311
 30
0.0
 10
-1.74667
 20
6.49311
 30
0.0
 10
-1.74667
 20
6.49311
 30
0.0
 10
-1.74667
 20
6.4641
 30
0.0
 10
-1.73777
 20
6.44954
 30
0.0
 10
-1.71986
 20
6.44954
 30
0.0
 10
-1.71986
 20
6.44954
 30
0.0
 10
-1.71766
 20
6.44954
 30
0.0
 10
-1.71439
 20
6.4499
 30
0.0
 10
-1.71007
 20
6.4506
 30
0.0
 10
-1.71007
 20
6.4506
 30
0.0
 10
-1.71007
 20
6.4506
 30
0.0
 10
-1.70646
 20
6.42238
 30
0.0
 10
-1.70646
 20
6.42238
 30
0.0
 10
-1.70646
 20
6.42238
 30
0.0
 10
-1.71801
 20
6.41682
 30
0.0
 10
-1.73071
 20
6.41409
 30
0.0
 10
-1.74465
 20
6.41409
 30
0.0
 10
-1.74465
 20
6.41409
 30
0.0
 10
-1.76837
 20
6.41409
 30
0.0
 10
-1.78345
 20
6.42811
 30
0.0
 10
-1.78998
 20
6.45616
 30
0.0
  0
SPLINE
  5
43
330
1F
100
AcDbEntity
  8
Layer 1
100
AcDbSpline
210
0.0
220
0.0
230
1.0
 70
    11
 71
     3
 72
    32
 73
    28
 74
     0
 42
0.0000000001
 43
0.0000000001
 12
1.0
 22
0.0
 32
0.0
 13
1.0
 23
0.0
 33
0.0
 40
0.0
 40
0.0
 40
0.0
 40
0.0
 40
0.125
 40
0.125
 40
0.125
 40
0.125
 40
0.25
 40
0.25
 40
0.25
 40
0.25
 40
0.375
 40
0.375
 40
0.375
 40
0.375
 40
0.5
 40
0.5
 40
0.5
 40
0.5
 40
0.625
 40
0.625
 40
0.625
 40
0.625
 40
0.75
 40
0.75
 40
0.75
 40
0.75
 40
1.0
 40
1.0
 40
1.0
 40
1.0
 10
-1.79747
 20
6.48385
 30
0.0
 10
-1.79747
 20
6.48385
 30
0.0
 10
-1.79747
 20
6.55591
 30
0.0
 10
-1.79747
 20
6.55591
 30
0.0
 10
-1.79747
 20
6.55591
 30
0.0
 10
-1.79747
 20
6.55591
 30
0.0
 10
-1.81379
 20
6.55644
 30
0.0
 10
-1.81379
 20
6.55644
 30
0.0
 10
-1.81379
 20
6.55644
 30
0.0
 10
-1.84201
 20
6.55644
 30
0.0
 10
-1.86477
 20
6.55123
 30
0.0
 10
-1.88214
 20
6.54083
 30
0.0
 10
-1.88214
 20
6.54083
 30
0.0
 10
-1.89943
 20
6.53033
 30
0.0
 10
-1.90807
 20
6.51648
 30
0.0
 10
-1.90807
 20
6.4992
 30
0.0
 10
-1.90807
 20
6.4992
 30
0.0
 10
-1.90807
 20
6.48712
 30
0.0
 10
-1.90375
 20
6.47688
 30
0.0
 10
-1.89519
 20
6.46851
 30
0.0
 10
-1.89519
 20
6.46851
 30
0.0
 10
-1.88655
 20
6.46013
 30
0.0
 10
-1.87606
 20
6.45589
 30
0.0
 10
-1.86362
 20
6.45589
 30
0.0
 10
-1.86362
 20
6.45589
 30
0.0
 10
-1.84245
 20
6.45589
 30
0.0
 10
-1.82041
 20
6.46524
 30
0.0
 10
-1.79747
 20
6.48385
 30
0.0
  0
SPLINE
  5
44
330
1F
100
AcDbEntity
  8
Layer 1
100
AcDbSpline
210
0.0
220
0.0
230
1.0
 70
    11
 71
     3
 72
    44
 73
    40
 74
     0
 42
0.0000000001
 43
0.0000000001
 12
1.0
 22
0.0
 32
0.0
 13
1.0
 23
0.0
 33
0.0
 40
0.0
 40
0.0
 40
0.0
 40
0.0
 40
0.0909090909090909
 40
0.0909090909090909
 40
0.0909090909090909
 40
0.0909090909090909
 40
0.1818181818181818
 40
0.1818181818181818
 40
0.1818181818181818
 40
0.1818181818181818
 40
0.2727272727272727
 40
0.2727272727272727
 40
0.2727272727272727
 40
0.2727272727272727
 40
0.3636363636363636
 40
0.3636363636363636
 40
0.3636363636363636
 40
0.3636363636363636
 40
0.4545454545454545
 40
0.4545454545454545
 40
0.4545454545454545
 40
0.4545454545454545
 40
0.5454545454545454
 40
0.5454545454545454
 40
0.5454545454545454
 40
0.5454545454545454
 40
0.6363636363636364
 40
0.6363636363636364
 40
0.6363636363636364
 40
0.6363636363636364
 40
0.7272727272727273
 40
0.7272727272727273
 40
0.7272727272727273
 40
0.7272727272727273
 40
0.8181818181818182
 40
0.8181818181818182
 40
0.8181818181818182
 40
0.8181818181818182
 40
1.0
 40
1.0
 40
1.0
 40
1.0
 10
-1.64234
 20
6.42044
 30
0.0
 10
-1.64234
 20
6.42044
 30
0.0
 10
-1.64234
 20
6.7009
 30
0.0
 10
-1.64234
 20
6.7009
 30
0.0
 10
-1.64234
 20
6.7009
 30
0.0
 10
-1.64234
 20
6.7009
 30
0.0
 10
-1.59154
 20
6.7009
 30
0.0
 10
-1.59154
 20
6.7009
 30
0.0
 10
-1.59154
 20
6.7009
 30
0.0
 10
-1.59154
 20
6.7009
 30
0.0
 10
-1.59154
 20
6.64789
 30
0.0
 10
-1.59154
 20
6.64789
 30
0.0
 10
-1.59154
 20
6.64789
 30
0.0
 10
-1.57134
 20
6.68714
 30
0.0
 10
-1.54206
 20
6.70672
 30
0.0
 10
-1.50361
 20
6.70672
 30
0.0
 10
-1.50361
 20
6.70672
 30
0.0
 10
-1.49841
 20
6.70672
 30
0.0
 10
-1.49294
 20
6.70628
 30
0.0
 10
-1.48729
 20
6.7054
 30
0.0
 10
-1.48729
 20
6.7054
 30
0.0
 10
-1.48729
 20
6.7054
 30
0.0
 10
-1.48729
 20
6.65786
 30
0.0
 10
-1.48729
 20
6.65786
 30
0.0
 10
-1.48729
 20
6.65786
 30
0.0
 10
-1.49611
 20
6.66077
 30
0.0
 10
-1.50387
 20
6.66227
 30
0.0
 10
-1.51058
 20
6.66227
 30
0.0
 10
-1.51058
 20
6.66227
 30
0.0
 10
-1.54286
 20
6.66227
 30
0.0
 10
-1.56984
 20
6.64322
 30
0.0
 10
-1.59154
 20
6.60503
 30
0.0
 10
-1.59154
 20
6.60503
 30
0.0
 10
-1.59154
 20
6.60503
 30
0.0
 10
-1.59154
 20
6.42044
 30
0.0
 10
-1.59154
 20
6.42044
 30
0.0
 10
-1.59154
 20
6.42044
 30
0.0
 10
-1.59154
 20
6.42044
 30
0.0
 10
-1.64234
 20
6.42044
 30
0.0
 10
-1.64234
 20
6.42044
 30
0.0
  0
SPLINE
  5
45
330
1F
100
AcDbEntity
  8
Layer 1
100
AcDbSpline
210
0.0
220
0.0
230
1.0
 70
    11
 71
     3
 72
    48
 73
    44
 74
     0
 42
0.0000000001
 43
0.0000000001
 12
1.0
 22
0.0
 32
0.0
 13
1.0
 23
0.0
 33
0.0
 40
0.0
 40
0.0
 40
0.0
 40
0.0
 40
0.0833333333333333
 40
0.0833333333333333
 40
0.0833333333333333
 40
0.0833333333333333
 40
0.1666666666666667
 40
0.1666666666666667
 40
0.1666666666666667
 40
0.1666666666666667
 40
0.25
 40
0.25
 40
0.25
 40
0.25
 40
0.3333333333333333
 40
0.3333333333333333
 40
0.3333333333333333
 40
0.3333333333333333
 40
0.4166666666666667
 40
0.4166666666666667
 40
0.4166666666666667
 40
0.4166666666666667
 40
0.5
 40
0.5
 40
0.5
 40
0.5
 40
0.5833333333333334
 40
0.5833333333333334
 40
0.5833333333333334
 40
0.5833333333333334
 40
0.6666666666666666
 40
0.6666666666666666
 40
0.6666666666666666
 40
0.6666666666666666
 40
0.75
 40
0.75
 40
0.75
 40
0.75
 40
0.8333333333333334
 40
0.8333333333333334
 40
0.8333333333333334
 40
0.8333333333333334
 40
1.0
 40
1.0
 40
1.0
 40
1.0
 10
-1.24537
 20
6.42044
 30
0.0
 10
-1.24537
 20
6.42044
 30
0.0
 10
-1.24537
 20
6.47309
 30
0.0
 10
-1.24537
 20
6.47309
 30
0.0
 10
-1.24537
 20
6.47309
 30
0.0
 10
-1.2661
 20
6.43376
 30
0.0
 10
-1.29732
 20
6.41409
 30
0.0
 10
-1.33904
 20
6.41409
 30
0.0
 10
-1.33904
 20
6.41409
 30
0.0
 10
-1.3729
 20
6.41409
 30
0.0
 10
-1.39954
 20
6.42635
 30
0.0
 10
-1.41894
 20
6.45096
 30
0.0
 10
-1.41894
 20
6.45096
 30
0.0
 10
-1.43834
 20
6.47556
 30
0.0
 10
-1.44804
 20
6.50916
 30
0.0
 10
-1.44804
 20
6.55176
 30
0.0
 10
-1.44804
 20
6.55176
 30
0.0
 10
-1.44804
 20
6.59833
 30
0.0
 10
-1.43702
 20
6.63581
 30
0.0
 10
-1.41506
 20
6.66421
 30
0.0
 10
-1.41506
 20
6.66421
 30
0.0
 10
-1.39301
 20
6.69252
 30
0.0
 10
-1.36408
 20
6.70672
 30
0.0
 10
-1.32819
 20
6.70672
 30
0.0
 10
-1.32819
 20
6.70672
 30
0.0
 10
-1.29494
 20
6.70672
 30
0.0
 10
-1.26725
 20
6.69402
 30
0.0
 10
-1.24537
 20
6.66853
 30
0.0
 10
-1.24537
 20
6.66853
 30
0.0
 10
-1.24537
 20
6.66853
 30
0.0
 10
-1.24537
 20
6.82843
 30
0.0
 10
-1.24537
 20
6.82843
 30
0.0
 10
-1.24537
 20
6.82843
 30
0.0
 10
-1.24537
 20
6.82843
 30
0.0
 10
-1.19457
 20
6.82843
 30
0.0
 10
-1.19457
 20
6.82843
 30
0.0
 10
-1.19457
 20
6.82843
 30
0.0
 10
-1.19457
 20
6.82843
 30
0.0
 10
-1.19457
 20
6.42044
 30
0.0
 10
-1.19457
 20
6.42044
 30
0.0
 10
-1.19457
 20
6.42044
 30
0.0
 10
-1.19457
 20
6.42044
 30
0.0
 10
-1.24537
 20
6.42044
 30
0.0
 10
-1.24537
 20
6.42044
 30
0.0
  0
SPLINE
  5
46
330
1F
100
AcDbEntity
  8
Layer 1
100
AcDbSpline
210
0.0
220
0.0
230
1.0
 70
    11
 71
     3
 72
    28
 73
    24
 74
     0
 42
0.0000000001
 43
0.0000000001
 12
1.0
 22
0.0
 32
0.0
 13
1.0
 23
0.0
 33
0.0
 40
0.0
 40
0.0
 40
0.0
 40
0.0
 40
0.1428571428571428
 40
0.1428571428571428
 40
0.1428571428571428
 40
0.1428571428571428
 40
0.2857142857142857
 40
0.2857142857142857
 40
0.2857142857142857
 40
0.2857142857142857
 40
0.4285714285714285
 40
0.4285714285714285
 40
0.4285714285714285
 40
0.4285714285714285
 40
0.5714285714285714
 40
0.5714285714285714
 40
0.5714285714285714
 40
0.5714285714285714
 40
0.7142857142857143
 40
0.7142857142857143
 40
0.7142857142857143
 40
0.7142857142857143
 40
1.0
 40
1.0
 40
1.0
 40
1.0
 10
-1.24537
 20
6.63378
 30
0.0
 10
-1.27174
 20
6.65698
 30
0.0
 10
-1.2967
 20
6.66862
 30
0.0
 10
-1.32034
 20
6.66862
 30
0.0
 10
-1.32034
 20
6.66862
 30
0.0
 10
-1.34362
 20
6.66862
 30
0.0
 10
-1.36161
 20
6.65892
 30
0.0
 10
-1.3744
 20
6.63943
 30
0.0
 10
-1.3744
 20
6.63943
 30
0.0
 10
-1.38719
 20
6.62003
 30
0.0
 10
-1.39354
 20
6.59251
 30
0.0
 10
-1.39354
 20
6.55688
 30
0.0
 10
-1.39354
 20
6.55688
 30
0.0
 10
-1.39354
 20
6.49135
 30
0.0
 10
-1.37184
 20
6.45854
 30
0.0
 10
-1.32836
 20
6.45854
 30
0.0
 10
-1.32836
 20
6.45854
 30
0.0
 10
-1.30014
 20
6.45854
 30
0.0
 10
-1.27245
 20
6.47397
 30
0.0
 10
-1.24537
 20
6.50475
 30
0.0
 10
-1.24537
 20
6.50475
 30
0.0
 10
-1.24537
 20
6.50475
 30
0.0
 10
-1.24537
 20
6.63378
 30
0.0
 10
-1.24537
 20
6.63378
 30
0.0
  0
SPLINE
  5
47
330
1F
100
AcDbEntity
  8
Layer 1
100
AcDbSpline
210
0.0
220
0.0
230
1.0
 70
    11
 71
     3
 72
    56
 73
    52
 74
     0
 42
0.0000000001
 43
0.0000000001
 12
1.0
 22
0.0
 32
0.0
 13
1.0
 23
0.0
 33
0.0
 40
0.0
 40
0.0
 40
0.0
 40
0.0
 40
0.0714285714285714
 40
0.0714285714285714
 40
0.0714285714285714
 40
0.0714285714285714
 40
0.1428571428571428
 40
0.1428571428571428
 40
0.1428571428571428
 40
0.1428571428571428
 40
0.2142857142857143
 40
0.2142857142857143
 40
0.2142857142857143
 40
0.2142857142857143
 40
0.2857142857142857
 40
0.2857142857142857
 40
0.2857142857142857
 40
0.2857142857142857
 40
0.3571428571428572
 40
0.3571428571428572
 40
0.3571428571428572
 40
0.3571428571428572
 40
0.4285714285714285
 40
0.4285714285714285
 40
0.4285714285714285
 40
0.4285714285714285
 40
0.5
 40
0.5
 40
0.5
 40
0.5
 40
0.5714285714285714
 40
0.5714285714285714
 40
0.5714285714285714
 40
0.5714285714285714
 40
0.6428571428571429
 40
0.6428571428571429
 40
0.6428571428571429
 40
0.6428571428571429
 40
0.7142857142857143
 40
0.7142857142857143
 40
0.7142857142857143
 40
0.7142857142857143
 40
0.7857142857142857
 40
0.7857142857142857
 40
0.7857142857142857
 40
0.7857142857142857
 40
0.8571428571428571
 40
0.8571428571428571
 40
0.8571428571428571
 40
0.8571428571428571
 40
1.0
 40
1.0
 40
1.0
 40
1.0
 10
-1.05999
 20
6.42044
 30
0.0
 10
-1.05999
 20
6.42044
 30
0.0
 10
-1.14042
 20
6.7009
 30
0.0
 10
-1.14042
 20
6.7009
 30
0.0
 10
-1.14042
 20
6.7009
 30
0.0
 10
-1.14042
 20
6.7009
 30
0.0
 10
-1.09086
 20
6.7009
 30
0.0
 10
-1.09086
 20
6.7009
 30
0.0
 10
-1.09086
 20
6.7009
 30
0.0
 10
-1.09086
 20
6.7009
 30
0.0
 10
-1.02921
 20
6.48315
 30
0.0
 10
-1.02921
 20
6.48315
 30
0.0
 10
-1.02921
 20
6.48315
 30
0.0
 10
-1.02921
 20
6.48315
 30
0.0
 10
-0.96271
 20
6.7009
 30
0.0
 10
-0.96271
 20
6.7009
 30
0.0
 10
-0.96271
 20
6.7009
 30
0.0
 10
-0.96271
 20
6.7009
 30
0.0
 10
-0.91191
 20
6.7009
 30
0.0
 10
-0.91191
 20
6.7009
 30
0.0
 10
-0.91191
 20
6.7009
 30
0.0
 10
-0.91191
 20
6.7009
 30
0.0
 10
-0.85344
 20
6.4835
 30
0.0
 10
-0.85344
 20
6.4835
 30
0.0
 10
-0.85344
 20
6.4835
 30
0.0
 10
-0.85344
 20
6.4835
 30
0.0
 10
-0.78271
 20
6.7009
 30
0.0
 10
-0.78271
 20
6.7009
 30
0.0
 10
-0.78271
 20
6.7009
 30
0.0
 10
-0.78271
 20
6.7009
 30
0.0
 10
-0.73931
 20
6.7009
 30
0.0
 10
-0.73931
 20
6.7009
 30
0.0
 10
-0.73931
 20
6.7009
 30
0.0
 10
-0.73931
 20
6.7009
 30
0.0
 10
-0.83086
 20
6.42044
 30
0.0
 10
-0.83086
 20
6.42044
 30
0.0
 10
-0.83086
 20
6.42044
 30
0.0
 10
-0.83086
 20
6.42044
 30
0.0
 10
-0.88166
 20
6.42044
 30
0.0
 10
-0.88166
 20
6.42044
 30
0.0
 10
-0.88166
 20
6.42044
 30
0.0
 10
-0.88166
 20
6.42044
 30
0.0
 10
-0.94181
 20
6.63916
 30
0.0
 10
-0.94181
 20
6.63916
 30
0.0
 10
-0.94181
 20
6.63916
 30
0.0
 10
-0.94181
 20
6.63916
 30
0.0
 10
-1.00919
 20
6.42044
 30
0.0
 10
-1.00919
 20
6.42044
 30
0.0
 10
-1.00919
 20
6.42044
 30
0.0
 10
-1.00919
 20
6.42044
 30
0.0
 10
-1.05999
 20
6.42044
 30
0.0
 10
-1.05999
 20
6.42044
 30
0.0
  0
SPLINE
  5
48
330
1F
100
AcDbEntity
  8
Layer 1
100
AcDbSpline
210
0.0
220
0.0
230
1.0
 70
    11
 71
     3
 72
    80
 73
    76
 74
     0
 42
0.0000000001
 43
0.0000000001
 12
1.0
 22
0.0
 32
0.0
 13
1.0
 23
0.0
 33
0.0
 40
0.0
 40
0.0
 40
0.0
 40
0.0
 40
0.05
 40
0.05
 40
0.05
 40
0.05
 40
0.1
 40
0.1
 40
0.1
 40
0.1
 40
0.15
 40
0.15
 40
0.15
 40
0.15
 40
0.2
 40
0.2
 40
0.2
 40
0.2
 40
0.25
 40
0.25
 40
0.25
 40
0.25
 40
0.3
 40
0.3
 40
0.3
 40
0.3
 40
0.35
 40
0.35
 40
0.35
 40
0.35
 40
0.4
 40
0.4
 40
0.4
 40
0.4
 40
0.45
 40
0.45
 40
0.45
 40
0.45
 40
0.5
 40
0.5
 40
0.5
 40
0.5
 40
0.55
 40
0.55
 40
0.55
 40
0.55
 40
0.6
 40
0.6
 40
0.6
 40
0.6
 40
0.65
 40
0.65
 40
0.65
 40
0.65
 40
0.7
 40
0.7
 40
0.7
 40
0.7
 40
0.75
 40
0.75
 40
0.75
 40
0.75
 40
0.8
 40
0.8
 40
0.8
 40
0.8
 40
0.85
 40
0.85
 40
0.85
 40
0.85
 40
0.9
 40
0.9
 40
0.9
 40
0.9
 40
1.0
 40
1.0
 40
1.0
 40
1.0
 10
-0.54052
 20
6.45616
 30
0.0
 10
-0.57103
 20
6.42811
 30
0.0
 10
-0.6004
 20
6.41409
 30
0.0
 10
-0.62862
 20
6.41409
 30
0.0
 10
-0.62862
 20
6.41409
 30
0.0
 10
-0.65182
 20
6.41409
 30
0.0
 10
-0.67113
 20
6.42132
 30
0.0
 10
-0.68639
 20
6.43587
 30
0.0
 10
-0.68639
 20
6.43587
 30
0.0
 10
-0.70174
 20
6.45043
 30
0.0
 10
-0.70941
 20
6.46877
 30
0.0
 10
-0.70941
 20
6.49091
 30
0.0
 10
-0.70941
 20
6.49091
 30
0.0
 10
-0.70941
 20
6.52151
 30
0.0
 10
-0.69654
 20
6.54506
 30
0.0
 10
-0.67078
 20
6.56146
 30
0.0
 10
-0.67078
 20
6.56146
 30
0.0
 10
-0.64503
 20
6.57787
 30
0.0
 10
-0.60808
 20
6.58607
 30
0.0
 10
-0.55992
 20
6.58607
 30
0.0
 10
-0.55992
 20
6.58607
 30
0.0
 10
-0.55992
 20
6.58607
 30
0.0
 10
-0.54801
 20
6.58607
 30
0.0
 10
-0.54801
 20
6.58607
 30
0.0
 10
-0.54801
 20
6.58607
 30
0.0
 10
-0.54801
 20
6.58607
 30
0.0
 10
-0.54801
 20
6.61985
 30
0.0
 10
-0.54801
 20
6.61985
 30
0.0
 10
-0.54801
 20
6.61985
 30
0.0
 10
-0.54801
 20
6.65239
 30
0.0
 10
-0.56495
 20
6.66862
 30
0.0
 10
-0.5989
 20
6.66862
 30
0.0
 10
-0.5989
 20
6.66862
 30
0.0
 10
-0.62519
 20
6.66862
 30
0.0
 10
-0.65394
 20
6.66033
 30
0.0
 10
-0.68507
 20
6.64375
 30
0.0
 10
-0.68507
 20
6.64375
 30
0.0
 10
-0.68507
 20
6.64375
 30
0.0
 10
-0.68507
 20
6.68555
 30
0.0
 10
-0.68507
 20
6.68555
 30
0.0
 10
-0.68507
 20
6.68555
 30
0.0
 10
-0.65085
 20
6.69967
 30
0.0
 10
-0.61857
 20
6.70672
 30
0.0
 10
-0.58832
 20
6.70672
 30
0.0
 10
-0.58832
 20
6.70672
 30
0.0
 10
-0.55719
 20
6.70672
 30
0.0
 10
-0.53417
 20
6.69967
 30
0.0
 10
-0.51944
 20
6.68547
 30
0.0
 10
-0.51944
 20
6.68547
 30
0.0
 10
-0.50462
 20
6.67127
 30
0.0
 10
-0.49721
 20
6.64939
 30
0.0
 10
-0.49721
 20
6.61985
 30
0.0
 10
-0.49721
 20
6.61985
 30
0.0
 10
-0.49721
 20
6.61985
 30
0.0
 10
-0.49721
 20
6.49311
 30
0.0
 10
-0.49721
 20
6.49311
 30
0.0
 10
-0.49721
 20
6.49311
 30
0.0
 10
-0.49721
 20
6.4641
 30
0.0
 10
-0.48831
 20
6.44954
 30
0.0
 10
-0.4704
 20
6.44954
 30
0.0
 10
-0.4704
 20
6.44954
 30
0.0
 10
-0.4682
 20
6.44954
 30
0.0
 10
-0.46493
 20
6.4499
 30
0.0
 10
-0.46061
 20
6.4506
 30
0.0
 10
-0.46061
 20
6.4506
 30
0.0
 10
-0.46061
 20
6.4506
 30
0.0
 10
-0.457
 20
6.42238
 30
0.0
 10
-0.457
 20
6.42238
 30
0.0
 10
-0.457
 20
6.42238
 30
0.0
 10
-0.46855
 20
6.41682
 30
0.0
 10
-0.48125
 20
6.41409
 30
0.0
 10
-0.49519
 20
6.41409
 30
0.0
 10
-0.49519
 20
6.41409
 30
0.0
 10
-0.51891
 20
6.41409
 30
0.0
 10
-0.53399
 20
6.42811
 30
0.0
 10
-0.54052
 20
6.45616
 30
0.0
  0
SPLINE
  5
49
330
1F
100
AcDbEntity
  8
Layer 1
100
AcDbSpline
210
0.0
220
0.0
230
1.0
 70
    11
 71
     3
 72
    32
 73
    28
 74
     0
 42
0.0000000001
 43
0.0000000001
 12
1.0
 22
0.0
 32
0.0
 13
1.0
 23
0.0
 33
0.0
 40
0.0
 40
0.0
 40
0.0
 40
0.0
 40
0.125
 40
0.125
 40
0.125
 40
0.125
 40
0.25
 40
0.25
 40
0.25
 40
0.25
 40
0.375
 40
0.375
 40
0.375
 40
0.375
 40
0.5
 40
0.5
 40
0.5
 40
0.5
 40
0.625
 40
0.625
 40
0.625
 40
0.625
 40
0.75
 40
0.75
 40
0.75
 40
0.75
 40
1.0
 40
1.0
 40
1.0
 40
1.0
 10
-0.54801
 20
6.48385
 30
0.0
 10
-0.54801
 20
6.48385
 30
0.0
 10
-0.54801
 20
6.55591
 30
0.0
 10
-0.54801
 20
6.55591
 30
0.0
 10
-0.54801
 20
6.55591
 30
0.0
 10
-0.54801
 20
6.55591
 30
0.0
 10
-0.56433
 20
6.55644
 30
0.0
 10
-0.56433
 20
6.55644
 30
0.0
 10
-0.56433
 20
6.55644
 30
0.0
 10
-0.59255
 20
6.55644
 30
0.0
 10
-0.61531
 20
6.55123
 30
0.0
 10
-0.63268
 20
6.54083
 30
0.0
 10
-0.63268
 20
6.54083
 30
0.0
 10
-0.64997
 20
6.53033
 30
0.0
 10
-0.65861
 20
6.51648
 30
0.0
 10
-0.65861
 20
6.4992
 30
0.0
 10
-0.65861
 20
6.4992
 30
0.0
 10
-0.65861
 20
6.48712
 30
0.0
 10
-0.65429
 20
6.47688
 30
0.0
 10
-0.64573
 20
6.46851
 30
0.0
 10
-0.64573
 20
6.46851
 30
0.0
 10
-0.63709
 20
6.46013
 30
0.0
 10
-0.6266
 20
6.45589
 30
0.0
 10
-0.61416
 20
6.45589
 30
0.0
 10
-0.61416
 20
6.45589
 30
0.0
 10
-0.59299
 20
6.45589
 30
0.0
 10
-0.57095
 20
6.46524
 30
0.0
 10
-0.54801
 20
6.48385
 30
0.0
  0
SPLINE
  5
4A
330
1F
100
AcDbEntity
  8
Layer 1
100
AcDbSpline
210
0.0
220
0.0
230
1.0
 70
    11
 71
     3
 72
    44
 73
    40
 74
     0
 42
0.0000000001
 43
0.0000000001
 12
1.0
 22
0.0
 32
0.0
 13
1.0
 23
0.0
 33
0.0
 40
0.0
 40
0.0
 40
0.0
 40
0.0
 40
0.0909090909090909
 40
0.0909090909090909
 40
0.0909090909090909
 40
0.0909090909090909
 40
0.1818181818181818
 40
0.1818181818181818
 40
0.1818181818181818
 40
0.1818181818181818
 40
0.2727272727272727
 40
0.2727272727272727
 40
0.2727272727272727
 40
0.2727272727272727
 40
0.3636363636363636
 40
0.3636363636363636
 40
0.3636363636363636
 40
0.3636363636363636
 40
0.4545454545454545
 40
0.4545454545454545
 40
0.4545454545454545
 40
0.4545454545454545
 40
0.5454545454545454
 40
0.5454545454545454
 40
0.5454545454545454
 40
0.5454545454545454
 40
0.6363636363636364
 40
0.6363636363636364
 40
0.6363636363636364
 40
0.6363636363636364
 40
0.7272727272727273
 40
0.7272727272727273
 40
0.7272727272727273
 40
0.7272727272727273
 40
0.8181818181818182
 40
0.8181818181818182
 40
0.8181818181818182
 40
0.8181818181818182
 40
1.0
 40
1.0
 40
1.0
 40
1.0
 10
-0.39288
 20
6.42044
 30
0.0
 10
-0.39288
 20
6.42044
 30
0.0
 10
-0.39288
 20
6.7009
 30
0.0
 10
-0.39288
 20
6.7009
 30
0.0
 10
-0.39288
 20
6.7009
 30
0.0
 10
-0.39288
 20
6.7009
 30
0.0
 10
-0.34208
 20
6.7009
 30
0.0
 10
-0.34208
 20
6.7009
 30
0.0
 10
-0.34208
 20
6.7009
 30
0.0
 10
-0.34208
 20
6.7009
 30
0.0
 10
-0.34208
 20
6.64789
 30
0.0
 10
-0.34208
 20
6.64789
 30
0.0
 10
-0.34208
 20
6.64789
 30
0.0
 10
-0.32188
 20
6.68714
 30
0.0
 10
-0.2926
 20
6.70672
 30
0.0
 10
-0.25415
 20
6.70672
 30
0.0
 10
-0.25415
 20
6.70672
 30
0.0
 10
-0.24895
 20
6.70672
 30
0.0
 10
-0.24348
 20
6.70628
 30
0.0
 10
-0.23783
 20
6.7054
 30
0.0
 10
-0.23783
 20
6.7054
 30
0.0
 10
-0.23783
 20
6.7054
 30
0.0
 10
-0.23783
 20
6.65786
 30
0.0
 10
-0.23783
 20
6.65786
 30
0.0
 10
-0.23783
 20
6.65786
 30
0.0
 10
-0.24665
 20
6.66077
 30
0.0
 10
-0.25441
 20
6.66227
 30
0.0
 10
-0.26112
 20
6.66227
 30
0.0
 10
-0.26112
 20
6.66227
 30
0.0
 10
-0.2934
 20
6.66227
 30
0.0
 10
-0.32038
 20
6.64322
 30
0.0
 10
-0.34208
 20
6.60503
 30
0.0
 10
-0.34208
 20
6.60503
 30
0.0
 10
-0.34208
 20
6.60503
 30
0.0
 10
-0.34208
 20
6.42044
 30
0.0
 10
-0.34208
 20
6.42044
 30
0.0
 10
-0.34208
 20
6.42044
 30
0.0
 10
-0.34208
 20
6.42044
 30
0.0
 10
-0.39288
 20
6.42044
 30
0.0
 10
-0.39288
 20
6.42044
 30
0.0
  0
SPLINE
  5
4B
330
1F
100
AcDbEntity
  8
Layer 1
100
AcDbSpline
210
0.0
220
0.0
230
1.0
 70
    11
 71
     3
 72
    52
 73
    48
 74
     0
 42
0.0000000001
 43
0.0000000001
 12
1.0
 22
0.0
 32
0.0
 13
1.0
 23
0.0
 33
0.0
 40
0.0
 40
0.0
 40
0.0
 40
0.0
 40
0.0769230769230769
 40
0.0769230769230769
 40
0.0769230769230769
 40
0.0769230769230769
 40
0.1538461538461539
 40
0.1538461538461539
 40
0.1538461538461539
 40
0.1538461538461539
 40
0.2307692307692308
 40
0.2307692307692308
 40
0.2307692307692308
 40
0.2307692307692308
 40
0.3076923076923077
 40
0.3076923076923077
 40
0.3076923076923077
 40
0.3076923076923077
 40
0.3846153846153846
 40
0.3846153846153846
 40
0.3846153846153846
 40
0.3846153846153846
 40
0.4615384615384616
 40
0.4615384615384616
 40
0.4615384615384616
 40
0.4615384615384616
 40
0.5384615384615384
 40
0.5384615384615384
 40
0.5384615384615384
 40
0.5384615384615384
 40
0.6153846153846154
 40
0.6153846153846154
 40
0.6153846153846154
 40
0.6153846153846154
 40
0.6923076923076923
 40
0.6923076923076923
 40
0.6923076923076923
 40
0.6923076923076923
 40
0.7692307692307693
 40
0.7692307692307693
 40
0.7692307692307693
 40
0.7692307692307693
 40
0.8461538461538461
 40
0.8461538461538461
 40
0.8461538461538461
 40
0.8461538461538461
 40
1.0
 40
1.0
 40
1.0
 40
1.0
 10
0.02949
 20
6.42944
 30
0.0
 10
-0.00464
 20
6.41921
 30
0.0
 10
-0.03384
 20
6.41409
 30
0.0
 10
-0.05818
 20
6.41409
 30
0.0
 10
-0.05818
 20
6.41409
 30
0.0
 10
-0.09972
 20
6.41409
 30
0.0
 10
-0.1335
 20
6.42785
 30
0.0
 10
-0.15951
 20
6.45528
 30
0.0
 10
-0.15951
 20
6.45528
 30
0.0
 10
-0.18553
 20
6.48271
 30
0.0
 10
-0.19858
 20
6.51825
 30
0.0
 10
-0.19858
 20
6.56199
 30
0.0
 10
-0.19858
 20
6.56199
 30
0.0
 10
-0.19858
 20
6.60441
 30
0.0
 10
-0.18712
 20
6.63925
 30
0.0
 10
-0.1641
 20
6.6665
 30
0.0
 10
-0.1641
 20
6.6665
 30
0.0
 10
-0.14108
 20
6.69367
 30
0.0
 10
-0.11162
 20
6.70725
 30
0.0
 10
-0.07573
 20
6.70725
 30
0.0
 10
-0.07573
 20
6.70725
 30
0.0
 10
-0.04177
 20
6.70725
 30
0.0
 10
-0.01549
 20
6.69517
 30
0.0
 10
0.00303
 20
6.671
 30
0.0
 10
0.00303
 20
6.671
 30
0.0
 10
0.02155
 20
6.64684
 30
0.0
 10
0.03081
 20
6.61262
 30
0.0
 10
0.03081
 20
6.56825
 30
0.0
 10
0.03081
 20
6.56825
 30
0.0
 10
0.03081
 20
6.56825
 30
0.0
 10
0.03055
 20
6.55273
 30
0.0
 10
0.03055
 20
6.55273
 30
0.0
 10
0.03055
 20
6.55273
 30
0.0
 10
0.03055
 20
6.55273
 30
0.0
 10
-0.14673
 20
6.55273
 30
0.0
 10
-0.14673
 20
6.55273
 30
0.0
 10
-0.14673
 20
6.55273
 30
0.0
 10
-0.13932
 20
6.4857
 30
0.0
 10
-0.1066
 20
6.45219
 30
0.0
 10
-0.04865
 20
6.45219
 30
0.0
 10
-0.04865
 20
6.45219
 30
0.0
 10
-0.0274
 20
6.45219
 30
0.0
 10
-0.00138
 20
6.45819
 30
0.0
 10
0.02949
 20
6.47018
 30
0.0
 10
0.02949
 20
6.47018
 30
0.0
 10
0.02949
 20
6.47018
 30
0.0
 10
0.02949
 20
6.42944
 30
0.0
 10
0.02949
 20
6.42944
 30
0.0
  0
SPLINE
  5
4C
330
1F
100
AcDbEntity
  8
Layer 1
100
AcDbSpline
210
0.0
220
0.0
230
1.0
 70
    11
 71
     3
 72
    16
 73
    12
 74
     0
 42
0.0000000001
 43
0.0000000001
 12
1.0
 22
0.0
 32
0.0
 13
1.0
 23
0.0
 33
0.0
 40
0.0
 40
0.0
 40
0.0
 40
0.0
 40
0.25
 40
0.25
 40
0.25
 40
0.25
 40
0.5
 40
0.5
 40
0.5
 40
0.5
 40
1.0
 40
1.0
 40
1.0
 40
1.0
 10
-0.14408
 20
6.59083
 30
0.0
 10
-0.14408
 20
6.59083
 30
0.0
 10
-0.02025
 20
6.59083
 30
0.0
 10
-0.02025
 20
6.59083
 30
0.0
 10
-0.02025
 20
6.59083
 30
0.0
 10
-0.02025
 20
6.64304
 30
0.0
 10
-0.03975
 20
6.66915
 30
0.0
 10
-0.07864
 20
6.66915
 30
0.0
 10
-0.07864
 20
6.66915
 30
0.0
 10
-0.1178
 20
6.66915
 30
0.0
 10
-0.13958
 20
6.64304
 30
0.0
 10
-0.14408
 20
6.59083
 30
0.0
  0
SPLINE
  5
4D
330
1F
100
AcDbEntity
  8
Layer 1
100
AcDbSpline
210
0.0
220
0.0
230
1.0
 70
    11
 71
     3
 72
    20
 73
    16
 74
     0
 42
0.0000000001
 43
0.0000000001
 12
1.0
 22
0.0
 32
0.0
 13
1.0
 23
0.0
 33
0.0
 40
0.0
 40
0.0
 40
0.0
 40
0.0
 40
0.2
 40
0.2
 40
0.2
 40
0.2
 40
0.4
 40
0.4
 40
0.4
 40
0.4
 40
0.6
 40
0.6
 40
0.6
 40
0.6
 40
1.0
 40
1.0
 40
1.0
 40
1.0
 10
0.08991
 20
6.38234
 30
0.0
 10
0.08991
 20
6.38234
 30
0.0
 10
0.08991
 20
6.42044
 30
0.0
 10
0.08991
 20
6.42044
 30
0.0
 10
0.08991
 20
6.42044
 30
0.0
 10
0.08991
 20
6.42044
 30
0.0
 10
0.31004
 20
6.42044
 30
0.0
 10
0.31004
 20
6.42044
 30
0.0
 10
0.31004
 20
6.42044
 30
0.0
 10
0.31004
 20
6.42044
 30
0.0
 10
0.31004
 20
6.38234
 30
0.0
 10
0.31004
 20
6.38234
 30
0.0
 10
0.31004
 20
6.38234
 30
0.0
 10
0.31004
 20
6.38234
 30
0.0
 10
0.08991
 20
6.38234
 30
0.0
 10
0.08991
 20
6.38234
 30
0.0
  0
SPLINE
  5
4E
330
1F
100
AcDbEntity
  8
Layer 1
100
AcDbSpline
210
0.0
220
0.0
230
1.0
 70
    11
 71
     3
 72
    60
 73
    56
 74
     0
 42
0.0000000001
 43
0.0000000001
 12
1.0
 22
0.0
 32
0.0
 13
1.0
 23
0.0
 33
0.0
 40
0.0
 40
0.0
 40
0.0
 40
0.0
 40
0.0666666666666667
 40
0.0666666666666667
 40
0.0666666666666667
 40
0.0666666666666667
 40
0.1333333333333333
 40
0.1333333333333333
 40
0.1333333333333333
 40
0.1333333333333333
 40
0.2
 40
0.2
 40
0.2
 40
0.2
 40
0.2666666666666667
 40
0.2666666666666667
 40
0.2666666666666667
 40
0.2666666666666667
 40
0.3333333333333333
 40
0.3333333333333333
 40
0.3333333333333333
 40
0.3333333333333333
 40
0.4
 40
0.4
 40
0.4
 40
0.4
 40
0.4666666666666667
 40
0.4666666666666667
 40
0.4666666666666667
 40
0.4666666666666667
 40
0.5333333333333333
 40
0.5333333333333333
 40
0.5333333333333333
 40
0.5333333333333333
 40
0.6
 40
0.6
 40
0.6
 40
0.6
 40
0.6666666666666666
 40
0.6666666666666666
 40
0.6666666666666666
 40
0.6666666666666666
 40
0.7333333333333333
 40
0.7333333333333333
 40
0.7333333333333333
 40
0.7333333333333333
 40
0.8
 40
0.8
 40
0.8
 40
0.8
 40
0.8666666666666667
 40
0.8666666666666667
 40
0.8666666666666667
 40
0.8666666666666667
 40
1.0
 40
1.0
 40
1.0
 40
1.0
 10
0.38307
 20
6.42044
 30
0.0
 10
0.38307
 20
6.42044
 30
0.0
 10
0.38307
 20
6.7009
 30
0.0
 10
0.38307
 20
6.7009
 30
0.0
 10
0.38307
 20
6.7009
 30
0.0
 10
0.38307
 20
6.7009
 30
0.0
 10
0.43387
 20
6.7009
 30
0.0
 10
0.43387
 20
6.7009
 30
0.0
 10
0.43387
 20
6.7009
 30
0.0
 10
0.43387
 20
6.7009
 30
0.0
 10
0.43387
 20
6.64789
 30
0.0
 10
0.43387
 20
6.64789
 30
0.0
 10
0.43387
 20
6.64789
 30
0.0
 10
0.46077
 20
6.68714
 30
0.0
 10
0.49376
 20
6.70672
 30
0.0
 10
0.53274
 20
6.70672
 30
0.0
 10
0.53274
 20
6.70672
 30
0.0
 10
0.55726
 20
6.70672
 30
0.0
 10
0.57675
 20
6.69905
 30
0.0
 10
0.59112
 20
6.68361
 30
0.0
 10
0.59112
 20
6.68361
 30
0.0
 10
0.6055
 20
6.66827
 30
0.0
 10
0.61273
 20
6.64754
 30
0.0
 10
0.61273
 20
6.62161
 30
0.0
 10
0.61273
 20
6.62161
 30
0.0
 10
0.61273
 20
6.62161
 30
0.0
 10
0.61273
 20
6.42044
 30
0.0
 10
0.61273
 20
6.42044
 30
0.0
 10
0.61273
 20
6.42044
 30
0.0
 10
0.61273
 20
6.42044
 30
0.0
 10
0.56193
 20
6.42044
 30
0.0
 10
0.56193
 20
6.42044
 30
0.0
 10
0.56193
 20
6.42044
 30
0.0
 10
0.56193
 20
6.42044
 30
0.0
 10
0.56193
 20
6.60503
 30
0.0
 10
0.56193
 20
6.60503
 30
0.0
 10
0.56193
 20
6.60503
 30
0.0
 10
0.56193
 20
6.62585
 30
0.0
 10
0.55884
 20
6.64066
 30
0.0
 10
0.55276
 20
6.64948
 30
0.0
 10
0.55276
 20
6.64948
 30
0.0
 10
0.54658
 20
6.65839
 30
0.0
 10
0.53644
 20
6.6628
 30
0.0
 10
0.52224
 20
6.6628
 30
0.0
 10
0.52224
 20
6.6628
 30
0.0
 10
0.49102
 20
6.6628
 30
0.0
 10
0.46156
 20
6.64243
 30
0.0
 10
0.43387
 20
6.60168
 30
0.0
 10
0.43387
 20
6.60168
 30
0.0
 10
0.43387
 20
6.60168
 30
0.0
 10
0.43387
 20
6.42044
 30
0.0
 10
0.43387
 20
6.42044
 30
0.0
 10
0.43387
 20
6.42044
 30
0.0
 10
0.43387
 20
6.42044
 30
0.0
 10
0.38307
 20
6.42044
 30
0.0
 10
0.38307
 20
6.42044
 30
0.0
  0
SPLINE
  5
4F
330
1F
100
AcDbEntity
  8
Layer 1
100
AcDbSpline
210
0.0
220
0.0
230
1.0
 70
    11
 71
     3
 72
    60
 73
    56
 74
     0
 42
0.0000000001
 43
0.0000000001
 12
1.0
 22
0.0
 32
0.0
 13
1.0
 23
0.0
 33
0.0
 40
0.0
 40
0.0
 40
0.0
 40
0.0
 40
0.0666666666666667
 40
0.0666666666666667
 40
0.0666666666666667
 40
0.0666666666666667
 40
0.1333333333333333
 40
0.1333333333333333
 40
0.1333333333333333
 40
0.1333333333333333
 40
0.2
 40
0.2
 40
0.2
 40
0.2
 40
0.2666666666666667
 40
0.2666666666666667
 40
0.2666666666666667
 40
0.2666666666666667
 40
0.3333333333333333
 40
0.3333333333333333
 40
0.3333333333333333
 40
0.3333333333333333
 40
0.4
 40
0.4
 40
0.4
 40
0.4
 40
0.4666666666666667
 40
0.4666666666666667
 40
0.4666666666666667
 40
0.4666666666666667
 40
0.5333333333333333
 40
0.5333333333333333
 40
0.5333333333333333
 40
0.5333333333333333
 40
0.6
 40
0.6
 40
0.6
 40
0.6
 40
0.6666666666666666
 40
0.6666666666666666
 40
0.6666666666666666
 40
0.6666666666666666
 40
0.7333333333333333
 40
0.7333333333333333
 40
0.7333333333333333
 40
0.7333333333333333
 40
0.8
 40
0.8
 40
0.8
 40
0.8
 40
0.8666666666666667
 40
0.8666666666666667
 40
0.8666666666666667
 40
0.8666666666666667
 40
1.0
 40
1.0
 40
1.0
 40
1.0
 10
0.88719
 20
6.42044
 30
0.0
 10
0.88719
 20
6.42044
 30
0.0
 10
0.88719
 20
6.47318
 30
0.0
 10
0.88719
 20
6.47318
 30
0.0
 10
0.88719
 20
6.47318
 30
0.0
 10
0.86012
 20
6.43376
 30
0.0
 10
0.82722
 20
6.41409
 30
0.0
 10
0.78859
 20
6.41409
 30
0.0
 10
0.78859
 20
6.41409
 30
0.0
 10
0.76407
 20
6.41409
 30
0.0
 10
0.74458
 20
6.42176
 30
0.0
 10
0.73012
 20
6.4372
 30
0.0
 10
0.73012
 20
6.4372
 30
0.0
 10
0.71557
 20
6.45263
 30
0.0
 10
0.70834
 20
6.47336
 30
0.0
 10
0.70834
 20
6.49955
 30
0.0
 10
0.70834
 20
6.49955
 30
0.0
 10
0.70834
 20
6.49955
 30
0.0
 10
0.70834
 20
6.7009
 30
0.0
 10
0.70834
 20
6.7009
 30
0.0
 10
0.70834
 20
6.7009
 30
0.0
 10
0.70834
 20
6.7009
 30
0.0
 10
0.75914
 20
6.7009
 30
0.0
 10
0.75914
 20
6.7009
 30
0.0
 10
0.75914
 20
6.7009
 30
0.0
 10
0.75914
 20
6.7009
 30
0.0
 10
0.75914
 20
6.51613
 30
0.0
 10
0.75914
 20
6.51613
 30
0.0
 10
0.75914
 20
6.51613
 30
0.0
 10
0.75914
 20
6.49505
 30
0.0
 10
0.76222
 20
6.48015
 30
0.0
 10
0.76831
 20
6.47133
 30
0.0
 10
0.76831
 20
6.47133
 30
0.0
 10
0.77448
 20
6.46242
 30
0.0
 10
0.78471
 20
6.45801
 30
0.0
 10
0.79909
 20
6.45801
 30
0.0
 10
0.79909
 20
6.45801
 30
0.0
 10
0.83013
 20
6.45801
 30
0.0
 10
0.85959
 20
6.47838
 30
0.0
 10
0.88719
 20
6.51922
 30
0.0
 10
0.88719
 20
6.51922
 30
0.0
 10
0.88719
 20
6.51922
 30
0.0
 10
0.88719
 20
6.7009
 30
0.0
 10
0.88719
 20
6.7009
 30
0.0
 10
0.88719
 20
6.7009
 30
0.0
 10
0.88719
 20
6.7009
 30
0.0
 10
0.938
 20
6.7009
 30
0.0
 10
0.938
 20
6.7009
 30
0.0
 10
0.938
 20
6.7009
 30
0.0
 10
0.938
 20
6.7009
 30
0.0
 10
0.938
 20
6.42044
 30
0.0
 10
0.938
 20
6.42044
 30
0.0
 10
0.938
 20
6.42044
 30
0.0
 10
0.938
 20
6.42044
 30
0.0
 10
0.88719
 20
6.42044
 30
0.0
 10
0.88719
 20
6.42044
 30
0.0
  0
SPLINE
  5
50
330
1F
100
AcDbEntity
  8
Layer 1
100
AcDbSpline
210
0.0
220
0.0
230
1.0
 70
    11
 71
     3
 72
    72
 73
    68
 74
     0
 42
0.0000000001
 43
0.0000000001
 12
1.0
 22
0.0
 32
0.0
 13
1.0
 23
0.0
 33
0.0
 40
0.0
 40
0.0
 40
0.0
 40
0.0
 40
0.0555555555555556
 40
0.0555555555555556
 40
0.0555555555555556
 40
0.0555555555555556
 40
0.1111111111111111
 40
0.1111111111111111
 40
0.1111111111111111
 40
0.1111111111111111
 40
0.1666666666666667
 40
0.1666666666666667
 40
0.1666666666666667
 40
0.1666666666666667
 40
0.2222222222222222
 40
0.2222222222222222
 40
0.2222222222222222
 40
0.2222222222222222
 40
0.2777777777777778
 40
0.2777777777777778
 40
0.2777777777777778
 40
0.2777777777777778
 40
0.3333333333333333
 40
0.3333333333333333
 40
0.3333333333333333
 40
0.3333333333333333
 40
0.3888888888888889
 40
0.3888888888888889
 40
0.3888888888888889
 40
0.3888888888888889
 40
0.4444444444444444
 40
0.4444444444444444
 40
0.4444444444444444
 40
0.4444444444444444
 40
0.5
 40
0.5
 40
0.5
 40
0.5
 40
0.5555555555555556
 40
0.5555555555555556
 40
0.5555555555555556
 40
0.5555555555555556
 40
0.6111111111111112
 40
0.6111111111111112
 40
0.6111111111111112
 40
0.6111111111111112
 40
0.6666666666666666
 40
0.6666666666666666
 40
0.6666666666666666
 40
0.6666666666666666
 40
0.7222222222222222
 40
0.7222222222222222
 40
0.7222222222222222
 40
0.7222222222222222
 40
0.7777777777777778
 40
0.7777777777777778
 40
0.7777777777777778
 40
0.7777777777777778
 40
0.8333333333333334
 40
0.8333333333333334
 40
0.8333333333333334
 40
0.8333333333333334
 40
0.8888888888888888
 40
0.8888888888888888
 40
0.8888888888888888
 40
0.8888888888888888
 40
1.0
 40
1.0
 40
1.0
 40
1.0
 10
1.16536
 20
6.42053
 30
0.0
 10
1.14966
 20
6.41621
 30
0.0
 10
1.13599
 20
6.41409
 30
0.0
 10
1.12444
 20
6.41409
 30
0.0
 10
1.12444
 20
6.41409
 30
0.0
 10
1.09851
 20
6.41409
 30
0.0
 10
1.07832
 20
6.4215
 30
0.0
 10
1.06385
 20
6.43632
 30
0.0
 10
1.06385
 20
6.43632
 30
0.0
 10
1.0493
 20
6.45113
 30
0.0
 10
1.04207
 20
6.47168
 30
0.0
 10
1.04207
 20
6.49805
 30
0.0
 10
1.04207
 20
6.49805
 30
0.0
 10
1.04207
 20
6.49805
 30
0.0
 10
1.04207
 20
6.6628
 30
0.0
 10
1.04207
 20
6.6628
 30
0.0
 10
1.04207
 20
6.6628
 30
0.0
 10
1.04207
 20
6.6628
 30
0.0
 10
1.00697
 20
6.6628
 30
0.0
 10
1.00697
 20
6.6628
 30
0.0
 10
1.00697
 20
6.6628
 30
0.0
 10
1.00697
 20
6.6628
 30
0.0
 10
1.00697
 20
6.7009
 30
0.0
 10
1.00697
 20
6.7009
 30
0.0
 10
1.00697
 20
6.7009
 30
0.0
 10
1.00697
 20
6.7009
 30
0.0
 10
1.04207
 20
6.7009
 30
0.0
 10
1.04207
 20
6.7009
 30
0.0
 10
1.04207
 20
6.7009
 30
0.0
 10
1.04207
 20
6.7009
 30
0.0
 10
1.04207
 20
6.75161
 30
0.0
 10
1.04207
 20
6.75161
 30
0.0
 10
1.04207
 20
6.75161
 30
0.0
 10
1.04207
 20
6.75161
 30
0.0
 10
1.09287
 20
6.75646
 30
0.0
 10
1.09287
 20
6.75646
 30
0.0
 10
1.09287
 20
6.75646
 30
0.0
 10
1.09287
 20
6.75646
 30
0.0
 10
1.09287
 20
6.7009
 30
0.0
 10
1.09287
 20
6.7009
 30
0.0
 10
1.09287
 20
6.7009
 30
0.0
 10
1.09287
 20
6.7009
 30
0.0
 10
1.16642
 20
6.7009
 30
0.0
 10
1.16642
 20
6.7009
 30
0.0
 10
1.16642
 20
6.7009
 30
0.0
 10
1.16642
 20
6.7009
 30
0.0
 10
1.16642
 20
6.6628
 30
0.0
 10
1.16642
 20
6.6628
 30
0.0
 10
1.16642
 20
6.6628
 30
0.0
 10
1.16642
 20
6.6628
 30
0.0
 10
1.09287
 20
6.6628
 30
0.0
 10
1.09287
 20
6.6628
 30
0.0
 10
1.09287
 20
6.6628
 30
0.0
 10
1.09287
 20
6.6628
 30
0.0
 10
1.09287
 20
6.50722
 30
0.0
 10
1.09287
 20
6.50722
 30
0.0
 10
1.09287
 20
6.50722
 30
0.0
 10
1.09287
 20
6.47053
 30
0.0
 10
1.10883
 20
6.45219
 30
0.0
 10
1.14067
 20
6.45219
 30
0.0
 10
1.14067
 20
6.45219
 30
0.0
 10
1.14746
 20
6.45219
 30
0.0
 10
1.15566
 20
6.45334
 30
0.0
 10
1.16536
 20
6.45554
 30
0.0
 10
1.16536
 20
6.45554
 30
0.0
 10
1.16536
 20
6.45554
 30
0.0
 10
1.16536
 20
6.42053
 30
0.0
 10
1.16536
 20
6.42053
 30
0.0
  0
SPLINE
  5
51
330
1F
100
AcDbEntity
  8
Layer 1
100
AcDbSpline
210
0.0
220
0.0
230
1.0
 70
    11
 71
     3
 72
    20
 73
    16
 74
     0
 42
0.0000000001
 43
0.0000000001
 12
1.0
 22
0.0
 32
0.0
 13
1.0
 23
0.0
 33
0.0
 40
0.0
 40
0.0
 40
0.0
 40
0.0
 40
0.2
 40
0.2
 40
0.2
 40
0.2
 40
0.4
 40
0.4
 40
0.4
 40
0.4
 40
0.6
 40
0.6
 40
0.6
 40
0.6
 40
1.0
 40
1.0
 40
1.0
 40
1.0
 10
1.20929
 20
6.38234
 30
0.0
 10
1.20929
 20
6.38234
 30
0.0
 10
1.20929
 20
6.42044
 30
0.0
 10
1.20929
 20
6.42044
 30
0.0
 10
1.20929
 20
6.42044
 30
0.0
 10
1.20929
 20
6.42044
 30
0.0
 10
1.42942
 20
6.42044
 30
0.0
 10
1.42942
 20
6.42044
 30
0.0
 10
1.42942
 20
6.42044
 30
0.0
 10
1.42942
 20
6.42044
 30
0.0
 10
1.42942
 20
6.38234
 30
0.0
 10
1.42942
 20
6.38234
 30
0.0
 10
1.42942
 20
6.38234
 30
0.0
 10
1.42942
 20
6.38234
 30
0.0
 10
1.20929
 20
6.38234
 30
0.0
 10
1.20929
 20
6.38234
 30
0.0
  0
SPLINE
  5
52
330
1F
100
AcDbEntity
  8
Layer 1
100
AcDbSpline
210
0.0
220
0.0
230
1.0
 70
    11
 71
     3
 72
    84
 73
    80
 74
     0
 42
0.0000000001
 43
0.0000000001
 12
1.0
 22
0.0
 32
0.0
 13
1.0
 23
0.0
 33
0.0
 40
0.0
 40
0.0
 40
0.0
 40
0.0
 40
0.0476190476190476
 40
0.0476190476190476
 40
0.0476190476190476
 40
0.0476190476190476
 40
0.0952380952380952
 40
0.0952380952380952
 40
0.0952380952380952
 40
0.0952380952380952
 40
0.1428571428571428
 40
0.1428571428571428
 40
0.1428571428571428
 40
0.1428571428571428
 40
0.1904761904761905
 40
0.1904761904761905
 40
0.1904761904761905
 40
0.1904761904761905
 40
0.2380952380952381
 40
0.2380952380952381
 40
0.2380952380952381
 40
0.2380952380952381
 40
0.2857142857142857
 40
0.2857142857142857
 40
0.2857142857142857
 40
0.2857142857142857
 40
0.3333333333333333
 40
0.3333333333333333
 40
0.3333333333333333
 40
0.3333333333333333
 40
0.3809523809523809
 40
0.3809523809523809
 40
0.3809523809523809
 40
0.3809523809523809
 40
0.4285714285714285
 40
0.4285714285714285
 40
0.4285714285714285
 40
0.4285714285714285
 40
0.4761904761904762
 40
0.4761904761904762
 40
0.4761904761904762
 40
0.4761904761904762
 40
0.5238095238095238
 40
0.5238095238095238
 40
0.5238095238095238
 40
0.5238095238095238
 40
0.5714285714285714
 40
0.5714285714285714
 40
0.5714285714285714
 40
0.5714285714285714
 40
0.6190476190476191
 40
0.6190476190476191
 40
0.6190476190476191
 40
0.6190476190476191
 40
0.6666666666666666
 40
0.6666666666666666
 40
0.6666666666666666
 40
0.6666666666666666
 40
0.7142857142857143
 40
0.7142857142857143
 40
0.7142857142857143
 40
0.7142857142857143
 40
0.7619047619047619
 40
0.7619047619047619
 40
0.7619047619047619
 40
0.7619047619047619
 40
0.8095238095238095
 40
0.8095238095238095
 40
0.8095238095238095
 40
0.8095238095238095
 40
0.8571428571428571
 40
0.8571428571428571
 40
0.8571428571428571
 40
0.8571428571428571
 40
0.9047619047619048
 40
0.9047619047619048
 40
0.9047619047619048
 40
0.9047619047619048
 40
1.0
 40
1.0
 40
1.0
 40
1.0
 10
1.50245
 20
6.42044
 30
0.0
 10
1.50245
 20
6.42044
 30
0.0
 10
1.50245
 20
6.7009
 30
0.0
 10
1.50245
 20
6.7009
 30
0.0
 10
1.50245
 20
6.7009
 30
0.0
 10
1.50245
 20
6.7009
 30
0.0
 10
1.55325
 20
6.7009
 30
0.0
 10
1.55325
 20
6.7009
 30
0.0
 10
1.55325
 20
6.7009
 30
0.0
 10
1.55325
 20
6.7009
 30
0.0
 10
1.55325
 20
6.64789
 30
0.0
 10
1.55325
 20
6.64789
 30
0.0
 10
1.55325
 20
6.64789
 30
0.0
 10
1.57803
 20
6.68714
 30
0.0
 10
1.60978
 20
6.70672
 30
0.0
 10
1.64868
 20
6.70672
 30
0.0
 10
1.64868
 20
6.70672
 30
0.0
 10
1.68616
 20
6.70672
 30
0.0
 10
1.71165
 20
6.68714
 30
0.0
 10
1.72523
 20
6.64789
 30
0.0
 10
1.72523
 20
6.64789
 30
0.0
 10
1.74931
 20
6.68749
 30
0.0
 10
1.78071
 20
6.70725
 30
0.0
 10
1.81925
 20
6.70725
 30
0.0
 10
1.81925
 20
6.70725
 30
0.0
 10
1.84385
 20
6.70725
 30
0.0
 10
1.86299
 20
6.70002
 30
0.0
 10
1.87666
 20
6.68547
 30
0.0
 10
1.87666
 20
6.68547
 30
0.0
 10
1.89033
 20
6.67091
 30
0.0
 10
1.89721
 20
6.65054
 30
0.0
 10
1.89721
 20
6.62435
 30
0.0
 10
1.89721
 20
6.62435
 30
0.0
 10
1.89721
 20
6.62435
 30
0.0
 10
1.89721
 20
6.42044
 30
0.0
 10
1.89721
 20
6.42044
 30
0.0
 10
1.89721
 20
6.42044
 30
0.0
 10
1.89721
 20
6.42044
 30
0.0
 10
1.84641
 20
6.42044
 30
0.0
 10
1.84641
 20
6.42044
 30
0.0
 10
1.84641
 20
6.42044
 30
0.0
 10
1.84641
 20
6.42044
 30
0.0
 10
1.84641
 20
6.61597
 30
0.0
 10
1.84641
 20
6.61597
 30
0.0
 10
1.84641
 20
6.61597
 30
0.0
 10
1.84641
 20
6.64789
 30
0.0
 10
1.83371
 20
6.66386
 30
0.0
 10
1.80831
 20
6.66386
 30
0.0
 10
1.80831
 20
6.66386
 30
0.0
 10
1.78194
 20
6.66386
 30
0.0
 10
1.75425
 20
6.64525
 30
0.0
 10
1.72523
 20
6.60794
 30
0.0
 10
1.72523
 20
6.60794
 30
0.0
 10
1.72523
 20
6.60794
 30
0.0
 10
1.72523
 20
6.42044
 30
0.0
 10
1.72523
 20
6.42044
 30
0.0
 10
1.72523
 20
6.42044
 30
0.0
 10
1.72523
 20
6.42044
 30
0.0
 10
1.67443
 20
6.42044
 30
0.0
 10
1.67443
 20
6.42044
 30
0.0
 10
1.67443
 20
6.42044
 30
0.0
 10
1.67443
 20
6.42044
 30
0.0
 10
1.67443
 20
6.61614
 30
0.0
 10
1.67443
 20
6.61614
 30
0.0
 10
1.67443
 20
6.61614
 30
0.0
 10
1.67443
 20
6.64834
 30
0.0
 10
1.66155
 20
6.66439
 30
0.0
 10
1.63571
 20
6.66439
 30
0.0
 10
1.63571
 20
6.66439
 30
0.0
 10
1.61005
 20
6.66439
 30
0.0
 10
1.58253
 20
6.64569
 30
0.0
 10
1.55325
 20
6.60821
 30
0.0
 10
1.55325
 20
6.60821
 30
0.0
 10
1.55325
 20
6.60821
 30
0.0
 10
1.55325
 20
6.42044
 30
0.0
 10
1.55325
 20
6.42044
 30
0.0
 10
1.55325
 20
6.42044
 30
0.0
 10
1.55325
 20
6.42044
 30
0.0
 10
1.50245
 20
6.42044
 30
0.0
 10
1.50245
 20
6.42044
 30
0.0
  0
SPLINE
  5
53
330
1F
100
AcDbEntity
  8
Layer 1
100
AcDbSpline
210
0.0
220
0.0
230
1.0
 70
    11
 71
     3
 72
    56
 73
    52
 74
     0
 42
0.0000000001
 43
0.0000000001
 12
1.0
 22
0.0
 32
0.0
 13
1.0
 23
0.0
 33
0.0
 40
0.0
 40
0.0
 40
0.0
 40
0.0
 40
0.0714285714285714
 40
0.0714285714285714
 40
0.0714285714285714
 40
0.0714285714285714
 40
0.1428571428571428
 40
0.1428571428571428
 40
0.1428571428571428
 40
0.1428571428571428
 40
0.2142857142857143
 40
0.2142857142857143
 40
0.2142857142857143
 40
0.2142857142857143
 40
0.2857142857142857
 40
0.2857142857142857
 40
0.2857142857142857
 40
0.2857142857142857
 40
0.3571428571428572
 40
0.3571428571428572
 40
0.3571428571428572
 40
0.3571428571428572
 40
0.4285714285714285
 40
0.4285714285714285
 40
0.4285714285714285
 40
0.4285714285714285
 40
0.5
 40
0.5
 40
0.5
 40
0.5
 40
0.5714285714285714
 40
0.5714285714285714
 40
0.5714285714285714
 40
0.5714285714285714
 40
0.6428571428571429
 40
0.6428571428571429
 40
0.6428571428571429
 40
0.6428571428571429
 40
0.7142857142857143
 40
0.7142857142857143
 40
0.7142857142857143
 40
0.7142857142857143
 40
0.7857142857142857
 40
0.7857142857142857
 40
0.7857142857142857
 40
0.7857142857142857
 40
0.8571428571428571
 40
0.8571428571428571
 40
0.8571428571428571
 40
0.8571428571428571
 40
1.0
 40
1.0
 40
1.0
 40
1.0
 10
2.03674
 20
6.6187
 30
0.0
 10
2.06108
 20
6.65019
 30
0.0
 10
2.09168
 20
6.66597
 30
0.0
 10
2.12855
 20
6.66597
 30
0.0
 10
2.12855
 20
6.66597
 30
0.0
 10
2.16197
 20
6.66597
 30
0.0
 10
2.18931
 20
6.65495
 30
0.0
 10
2.21066
 20
6.63281
 30
0.0
 10
2.21066
 20
6.63281
 30
0.0
 10
2.23191
 20
6.61068
 30
0.0
 10
2.24258
 20
6.58228
 30
0.0
 10
2.24258
 20
6.54762
 30
0.0
 10
2.24258
 20
6.54762
 30
0.0
 10
2.24258
 20
6.50784
 30
0.0
 10
2.23068
 20
6.47512
 30
0.0
 10
2.20678
 20
6.44946
 30
0.0
 10
2.20678
 20
6.44946
 30
0.0
 10
2.18288
 20
6.42379
 30
0.0
 10
2.15254
 20
6.41091
 30
0.0
 10
2.11558
 20
6.41091
 30
0.0
 10
2.11558
 20
6.41091
 30
0.0
 10
2.0736
 20
6.41091
 30
0.0
 10
2.04062
 20
6.42794
 30
0.0
 10
2.01689
 20
6.46189
 30
0.0
 10
2.01689
 20
6.46189
 30
0.0
 10
1.99308
 20
6.49593
 30
0.0
 10
1.98117
 20
6.54303
 30
0.0
 10
1.98117
 20
6.60309
 30
0.0
 10
1.98117
 20
6.60309
 30
0.0
 10
1.98117
 20
6.68405
 30
0.0
 10
2.00199
 20
6.74341
 30
0.0
 10
2.04353
 20
6.78133
 30
0.0
 10
2.04353
 20
6.78133
 30
0.0
 10
2.06611
 20
6.80215
 30
0.0
 10
2.09733
 20
6.81255
 30
0.0
 10
2.1371
 20
6.81255
 30
0.0
 10
2.1371
 20
6.81255
 30
0.0
 10
2.16021
 20
6.81255
 30
0.0
 10
2.18887
 20
6.80779
 30
0.0
 10
2.22301
 20
6.79827
 30
0.0
 10
2.22301
 20
6.79827
 30
0.0
 10
2.22301
 20
6.79827
 30
0.0
 10
2.22301
 20
6.75382
 30
0.0
 10
2.22301
 20
6.75382
 30
0.0
 10
2.22301
 20
6.75382
 30
0.0
 10
2.18693
 20
6.76758
 30
0.0
 10
2.1573
 20
6.77445
 30
0.0
 10
2.13402
 20
6.77445
 30
0.0
 10
2.13402
 20
6.77445
 30
0.0
 10
2.06919
 20
6.77445
 30
0.0
 10
2.03674
 20
6.72251
 30
0.0
 10
2.03674
 20
6.6187
 30
0.0
  0
SPLINE
  5
54
330
1F
100
AcDbEntity
  8
Layer 1
100
AcDbSpline
210
0.0
220
0.0
230
1.0
 70
    11
 71
     3
 72
    36
 73
    32
 74
     0
 42
0.0000000001
 43
0.0000000001
 12
1.0
 22
0.0
 32
0.0
 13
1.0
 23
0.0
 33
0.0
 40
0.0
 40
0.0
 40
0.0
 40
0.0
 40
0.1111111111111111
 40
0.1111111111111111
 40
0.1111111111111111
 40
0.1111111111111111
 40
0.2222222222222222
 40
0.2222222222222222
 40
0.2222222222222222
 40
0.2222222222222222
 40
0.3333333333333333
 40
0.3333333333333333
 40
0.3333333333333333
 40
0.3333333333333333
 40
0.4444444444444444
 40
0.4444444444444444
 40
0.4444444444444444
 40
0.4444444444444444
 40
0.5555555555555556
 40
0.5555555555555556
 40
0.5555555555555556
 40
0.5555555555555556
 40
0.6666666666666666
 40
0.6666666666666666
 40
0.6666666666666666
 40
0.6666666666666666
 40
0.7777777777777778
 40
0.7777777777777778
 40
0.7777777777777778
 40
0.7777777777777778
 40
1.0
 40
1.0
 40
1.0
 40
1.0
 10
2.19178
 20
6.53756
 30
0.0
 10
2.19178
 20
6.56587
 30
0.0
 10
2.18526
 20
6.58828
 30
0.0
 10
2.17212
 20
6.60477
 30
0.0
 10
2.17212
 20
6.60477
 30
0.0
 10
2.15898
 20
6.62126
 30
0.0
 10
2.14098
 20
6.62946
 30
0.0
 10
2.11814
 20
6.62946
 30
0.0
 10
2.11814
 20
6.62946
 30
0.0
 10
2.09636
 20
6.62946
 30
0.0
 10
2.07775
 20
6.62223
 30
0.0
 10
2.06223
 20
6.60768
 30
0.0
 10
2.06223
 20
6.60768
 30
0.0
 10
2.04662
 20
6.59321
 30
0.0
 10
2.03885
 20
6.57575
 30
0.0
 10
2.03885
 20
6.55538
 30
0.0
 10
2.03885
 20
6.55538
 30
0.0
 10
2.03885
 20
6.52328
 30
0.0
 10
2.04626
 20
6.49752
 30
0.0
 10
2.06099
 20
6.47812
 30
0.0
 10
2.06099
 20
6.47812
 30
0.0
 10
2.07581
 20
6.45872
 30
0.0
 10
2.09539
 20
6.44902
 30
0.0
 10
2.11973
 20
6.44902
 30
0.0
 10
2.11973
 20
6.44902
 30
0.0
 10
2.14187
 20
6.44902
 30
0.0
 10
2.15942
 20
6.45695
 30
0.0
 10
2.17238
 20
6.47283
 30
0.0
 10
2.17238
 20
6.47283
 30
0.0
 10
2.18535
 20
6.4887
 30
0.0
 10
2.19178
 20
6.51031
 30
0.0
 10
2.19178
 20
6.53756
 30
0.0
  0
SPLINE
  5
55
330
1F
100
AcDbEntity
  8
Layer 1
100
AcDbSpline
210
0.0
220
0.0
230
1.0
 70
    11
 71
     3
 72
    60
 73
    56
 74
     0
 42
0.0000000001
 43
0.0000000001
 12
1.0
 22
0.0
 32
0.0
 13
1.0
 23
0.0
 33
0.0
 40
0.0
 40
0.0
 40
0.0
 40
0.0
 40
0.0666666666666667
 40
0.0666666666666667
 40
0.0666666666666667
 40
0.0666666666666667
 40
0.1333333333333333
 40
0.1333333333333333
 40
0.1333333333333333
 40
0.1333333333333333
 40
0.2
 40
0.2
 40
0.2
 40
0.2
 40
0.2666666666666667
 40
0.2666666666666667
 40
0.2666666666666667
 40
0.2666666666666667
 40
0.3333333333333333
 40
0.3333333333333333
 40
0.3333333333333333
 40
0.3333333333333333
 40
0.4
 40
0.4
 40
0.4
 40
0.4
 40
0.4666666666666667
 40
0.4666666666666667
 40
0.4666666666666667
 40
0.4666666666666667
 40
0.5333333333333333
 40
0.5333333333333333
 40
0.5333333333333333
 40
0.5333333333333333
 40
0.6
 40
0.6
 40
0.6
 40
0.6
 40
0.6666666666666666
 40
0.6666666666666666
 40
0.6666666666666666
 40
0.6666666666666666
 40
0.7333333333333333
 40
0.7333333333333333
 40
0.7333333333333333
 40
0.7333333333333333
 40
0.8
 40
0.8
 40
0.8
 40
0.8
 40
0.8666666666666667
 40
0.8666666666666667
 40
0.8666666666666667
 40
0.8666666666666667
 40
1.0
 40
1.0
 40
1.0
 40
1.0
 10
-3.76701
 20
5.60729
 30
0.0
 10
-3.76701
 20
5.60729
 30
0.0
 10
-3.76701
 20
6.01528
 30
0.0
 10
-3.76701
 20
6.01528
 30
0.0
 10
-3.76701
 20
6.01528
 30
0.0
 10
-3.76701
 20
6.01528
 30
0.0
 10
-3.71621
 20
6.01528
 30
0.0
 10
-3.71621
 20
6.01528
 30
0.0
 10
-3.71621
 20
6.01528
 30
0.0
 10
-3.71621
 20
6.01528
 30
0.0
 10
-3.71621
 20
5.83474
 30
0.0
 10
-3.71621
 20
5.83474
 30
0.0
 10
-3.71621
 20
5.83474
 30
0.0
 10
-3.68931
 20
5.87399
 30
0.0
 10
-3.65632
 20
5.89357
 30
0.0
 10
-3.61734
 20
5.89357
 30
0.0
 10
-3.61734
 20
5.89357
 30
0.0
 10
-3.59282
 20
5.89357
 30
0.0
 10
-3.57333
 20
5.8859
 30
0.0
 10
-3.55896
 20
5.87046
 30
0.0
 10
-3.55896
 20
5.87046
 30
0.0
 10
-3.54458
 20
5.85512
 30
0.0
 10
-3.53735
 20
5.83439
 30
0.0
 10
-3.53735
 20
5.80846
 30
0.0
 10
-3.53735
 20
5.80846
 30
0.0
 10
-3.53735
 20
5.80846
 30
0.0
 10
-3.53735
 20
5.60729
 30
0.0
 10
-3.53735
 20
5.60729
 30
0.0
 10
-3.53735
 20
5.60729
 30
0.0
 10
-3.53735
 20
5.60729
 30
0.0
 10
-3.58815
 20
5.60729
 30
0.0
 10
-3.58815
 20
5.60729
 30
0.0
 10
-3.58815
 20
5.60729
 30
0.0
 10
-3.58815
 20
5.60729
 30
0.0
 10
-3.58815
 20
5.79188
 30
0.0
 10
-3.58815
 20
5.79188
 30
0.0
 10
-3.58815
 20
5.79188
 30
0.0
 10
-3.58815
 20
5.8127
 30
0.0
 10
-3.59124
 20
5.82751
 30
0.0
 10
-3.59732
 20
5.83633
 30
0.0
 10
-3.59732
 20
5.83633
 30
0.0
 10
-3.6035
 20
5.84524
 30
0.0
 10
-3.61364
 20
5.84965
 30
0.0
 10
-3.62784
 20
5.84965
 30
0.0
 10
-3.62784
 20
5.84965
 30
0.0
 10
-3.65906
 20
5.84965
 30
0.0
 10
-3.68852
 20
5.82928
 30
0.0
 10
-3.71621
 20
5.78853
 30
0.0
 10
-3.71621
 20
5.78853
 30
0.0
 10
-3.71621
 20
5.78853
 30
0.0
 10
-3.71621
 20
5.60729
 30
0.0
 10
-3.71621
 20
5.60729
 30
0.0
 10
-3.71621
 20
5.60729
 30
0.0
 10
-3.71621
 20
5.60729
 30
0.0
 10
-3.76701
 20
5.60729
 30
0.0
 10
-3.76701
 20
5.60729
 30
0.0
  0
SPLINE
  5
56
330
1F
100
AcDbEntity
  8
Layer 1
100
AcDbSpline
210
0.0
220
0.0
230
1.0
 70
    11
 71
     3
 72
    72
 73
    68
 74
     0
 42
0.0000000001
 43
0.0000000001
 12
1.0
 22
0.0
 32
0.0
 13
1.0
 23
0.0
 33
0.0
 40
0.0
 40
0.0
 40
0.0
 40
0.0
 40
0.0555555555555556
 40
0.0555555555555556
 40
0.0555555555555556
 40
0.0555555555555556
 40
0.1111111111111111
 40
0.1111111111111111
 40
0.1111111111111111
 40
0.1111111111111111
 40
0.1666666666666667
 40
0.1666666666666667
 40
0.1666666666666667
 40
0.1666666666666667
 40
0.2222222222222222
 40
0.2222222222222222
 40
0.2222222222222222
 40
0.2222222222222222
 40
0.2777777777777778
 40
0.2777777777777778
 40
0.2777777777777778
 40
0.2777777777777778
 40
0.3333333333333333
 40
0.3333333333333333
 40
0.3333333333333333
 40
0.3333333333333333
 40
0.3888888888888889
 40
0.3888888888888889
 40
0.3888888888888889
 40
0.3888888888888889
 40
0.4444444444444444
 40
0.4444444444444444
 40
0.4444444444444444
 40
0.4444444444444444
 40
0.5
 40
0.5
 40
0.5
 40
0.5
 40
0.5555555555555556
 40
0.5555555555555556
 40
0.5555555555555556
 40
0.5555555555555556
 40
0.6111111111111112
 40
0.6111111111111112
 40
0.6111111111111112
 40
0.6111111111111112
 40
0.6666666666666666
 40
0.6666666666666666
 40
0.6666666666666666
 40
0.6666666666666666
 40
0.7222222222222222
 40
0.7222222222222222
 40
0.7222222222222222
 40
0.7222222222222222
 40
0.7777777777777778
 40
0.7777777777777778
 40
0.7777777777777778
 40
0.7777777777777778
 40
0.8333333333333334
 40
0.8333333333333334
 40
0.8333333333333334
 40
0.8333333333333334
 40
0.8888888888888888
 40
0.8888888888888888
 40
0.8888888888888888
 40
0.8888888888888888
 40
1.0
 40
1.0
 40
1.0
 40
1.0
 10
-3.31316
 20
5.60738
 30
0.0
 10
-3.32886
 20
5.60306
 30
0.0
 10
-3.34253
 20
5.60094
 30
0.0
 10
-3.35408
 20
5.60094
 30
0.0
 10
-3.35408
 20
5.60094
 30
0.0
 10
-3.38001
 20
5.60094
 30
0.0
 10
-3.4002
 20
5.60835
 30
0.0
 10
-3.41467
 20
5.62317
 30
0.0
 10
-3.41467
 20
5.62317
 30
0.0
 10
-3.42922
 20
5.63798
 30
0.0
 10
-3.43645
 20
5.65853
 30
0.0
 10
-3.43645
 20
5.6849
 30
0.0
 10
-3.43645
 20
5.6849
 30
0.0
 10
-3.43645
 20
5.6849
 30
0.0
 10
-3.43645
 20
5.84965
 30
0.0
 10
-3.43645
 20
5.84965
 30
0.0
 10
-3.43645
 20
5.84965
 30
0.0
 10
-3.43645
 20
5.84965
 30
0.0
 10
-3.47155
 20
5.84965
 30
0.0
 10
-3.47155
 20
5.84965
 30
0.0
 10
-3.47155
 20
5.84965
 30
0.0
 10
-3.47155
 20
5.84965
 30
0.0
 10
-3.47155
 20
5.88775
 30
0.0
 10
-3.47155
 20
5.88775
 30
0.0
 10
-3.47155
 20
5.88775
 30
0.0
 10
-3.47155
 20
5.88775
 30
0.0
 10
-3.43645
 20
5.88775
 30
0.0
 10
-3.43645
 20
5.88775
 30
0.0
 10
-3.43645
 20
5.88775
 30
0.0
 10
-3.43645
 20
5.88775
 30
0.0
 10
-3.43645
 20
5.93846
 30
0.0
 10
-3.43645
 20
5.93846
 30
0.0
 10
-3.43645
 20
5.93846
 30
0.0
 10
-3.43645
 20
5.93846
 30
0.0
 10
-3.38565
 20
5.94331
 30
0.0
 10
-3.38565
 20
5.94331
 30
0.0
 10
-3.38565
 20
5.94331
 30
0.0
 10
-3.38565
 20
5.94331
 30
0.0
 10
-3.38565
 20
5.88775
 30
0.0
 10
-3.38565
 20
5.88775
 30
0.0
 10
-3.38565
 20
5.88775
 30
0.0
 10
-3.38565
 20
5.88775
 30
0.0
 10
-3.3121
 20
5.88775
 30
0.0
 10
-3.3121
 20
5.88775
 30
0.0
 10
-3.3121
 20
5.88775
 30
0.0
 10
-3.3121
 20
5.88775
 30
0.0
 10
-3.3121
 20
5.84965
 30
0.0
 10
-3.3121
 20
5.84965
 30
0.0
 10
-3.3121
 20
5.84965
 30
0.0
 10
-3.3121
 20
5.84965
 30
0.0
 10
-3.38565
 20
5.84965
 30
0.0
 10
-3.38565
 20
5.84965
 30
0.0
 10
-3.38565
 20
5.84965
 30
0.0
 10
-3.38565
 20
5.84965
 30
0.0
 10
-3.38565
 20
5.69407
 30
0.0
 10
-3.38565
 20
5.69407
 30
0.0
 10
-3.38565
 20
5.69407
 30
0.0
 10
-3.38565
 20
5.65738
 30
0.0
 10
-3.36969
 20
5.63904
 30
0.0
 10
-3.33785
 20
5.63904
 30
0.0
 10
-3.33785
 20
5.63904
 30
0.0
 10
-3.33106
 20
5.63904
 30
0.0
 10
-3.32286
 20
5.64019
 30
0.0
 10
-3.31316
 20
5.64239
 30
0.0
 10
-3.31316
 20
5.64239
 30
0.0
 10
-3.31316
 20
5.64239
 30
0.0
 10
-3.31316
 20
5.60738
 30
0.0
 10
-3.31316
 20
5.60738
 30
0.0
  0
SPLINE
  5
57
330
1F
100
AcDbEntity
  8
Layer 1
100
AcDbSpline
210
0.0
220
0.0
230
1.0
 70
    11
 71
     3
 72
    72
 73
    68
 74
     0
 42
0.0000000001
 43
0.0000000001
 12
1.0
 22
0.0
 32
0.0
 13
1.0
 23
0.0
 33
0.0
 40
0.0
 40
0.0
 40
0.0
 40
0.0
 40
0.0555555555555556
 40
0.0555555555555556
 40
0.0555555555555556
 40
0.0555555555555556
 40
0.1111111111111111
 40
0.1111111111111111
 40
0.1111111111111111
 40
0.1111111111111111
 40
0.1666666666666667
 40
0.1666666666666667
 40
0.1666666666666667
 40
0.1666666666666667
 40
0.2222222222222222
 40
0.2222222222222222
 40
0.2222222222222222
 40
0.2222222222222222
 40
0.2777777777777778
 40
0.2777777777777778
 40
0.2777777777777778
 40
0.2777777777777778
 40
0.3333333333333333
 40
0.3333333333333333
 40
0.3333333333333333
 40
0.3333333333333333
 40
0.3888888888888889
 40
0.3888888888888889
 40
0.3888888888888889
 40
0.3888888888888889
 40
0.4444444444444444
 40
0.4444444444444444
 40
0.4444444444444444
 40
0.4444444444444444
 40
0.5
 40
0.5
 40
0.5
 40
0.5
 40
0.5555555555555556
 40
0.5555555555555556
 40
0.5555555555555556
 40
0.5555555555555556
 40
0.6111111111111112
 40
0.6111111111111112
 40
0.6111111111111112
 40
0.6111111111111112
 40
0.6666666666666666
 40
0.6666666666666666
 40
0.6666666666666666
 40
0.6666666666666666
 40
0.7222222222222222
 40
0.7222222222222222
 40
0.7222222222222222
 40
0.7222222222222222
 40
0.7777777777777778
 40
0.7777777777777778
 40
0.7777777777777778
 40
0.7777777777777778
 40
0.8333333333333334
 40
0.8333333333333334
 40
0.8333333333333334
 40
0.8333333333333334
 40
0.8888888888888888
 40
0.8888888888888888
 40
0.8888888888888888
 40
0.8888888888888888
 40
1.0
 40
1.0
 40
1.0
 40
1.0
 10
-3.11525
 20
5.60738
 30
0.0
 10
-3.13095
 20
5.60306
 30
0.0
 10
-3.14462
 20
5.60094
 30
0.0
 10
-3.15617
 20
5.60094
 30
0.0
 10
-3.15617
 20
5.60094
 30
0.0
 10
-3.1821
 20
5.60094
 30
0.0
 10
-3.20229
 20
5.60835
 30
0.0
 10
-3.21676
 20
5.62317
 30
0.0
 10
-3.21676
 20
5.62317
 30
0.0
 10
-3.23131
 20
5.63798
 30
0.0
 10
-3.23854
 20
5.65853
 30
0.0
 10
-3.23854
 20
5.6849
 30
0.0
 10
-3.23854
 20
5.6849
 30
0.0
 10
-3.23854
 20
5.6849
 30
0.0
 10
-3.23854
 20
5.84965
 30
0.0
 10
-3.23854
 20
5.84965
 30
0.0
 10
-3.23854
 20
5.84965
 30
0.0
 10
-3.23854
 20
5.84965
 30
0.0
 10
-3.27364
 20
5.84965
 30
0.0
 10
-3.27364
 20
5.84965
 30
0.0
 10
-3.27364
 20
5.84965
 30
0.0
 10
-3.27364
 20
5.84965
 30
0.0
 10
-3.27364
 20
5.88775
 30
0.0
 10
-3.27364
 20
5.88775
 30
0.0
 10
-3.27364
 20
5.88775
 30
0.0
 10
-3.27364
 20
5.88775
 30
0.0
 10
-3.23854
 20
5.88775
 30
0.0
 10
-3.23854
 20
5.88775
 30
0.0
 10
-3.23854
 20
5.88775
 30
0.0
 10
-3.23854
 20
5.88775
 30
0.0
 10
-3.23854
 20
5.93846
 30
0.0
 10
-3.23854
 20
5.93846
 30
0.0
 10
-3.23854
 20
5.93846
 30
0.0
 10
-3.23854
 20
5.93846
 30
0.0
 10
-3.18774
 20
5.94331
 30
0.0
 10
-3.18774
 20
5.94331
 30
0.0
 10
-3.18774
 20
5.94331
 30
0.0
 10
-3.18774
 20
5.94331
 30
0.0
 10
-3.18774
 20
5.88775
 30
0.0
 10
-3.18774
 20
5.88775
 30
0.0
 10
-3.18774
 20
5.88775
 30
0.0
 10
-3.18774
 20
5.88775
 30
0.0
 10
-3.11419
 20
5.88775
 30
0.0
 10
-3.11419
 20
5.88775
 30
0.0
 10
-3.11419
 20
5.88775
 30
0.0
 10
-3.11419
 20
5.88775
 30
0.0
 10
-3.11419
 20
5.84965
 30
0.0
 10
-3.11419
 20
5.84965
 30
0.0
 10
-3.11419
 20
5.84965
 30
0.0
 10
-3.11419
 20
5.84965
 30
0.0
 10
-3.18774
 20
5.84965
 30
0.0
 10
-3.18774
 20
5.84965
 30
0.0
 10
-3.18774
 20
5.84965
 30
0.0
 10
-3.18774
 20
5.84965
 30
0.0
 10
-3.18774
 20
5.69407
 30
0.0
 10
-3.18774
 20
5.69407
 30
0.0
 10
-3.18774
 20
5.69407
 30
0.0
 10
-3.18774
 20
5.65738
 30
0.0
 10
-3.17178
 20
5.63904
 30
0.0
 10
-3.13994
 20
5.63904
 30
0.0
 10
-3.13994
 20
5.63904
 30
0.0
 10
-3.13315
 20
5.63904
 30
0.0
 10
-3.12495
 20
5.64019
 30
0.0
 10
-3.11525
 20
5.64239
 30
0.0
 10
-3.11525
 20
5.64239
 30
0.0
 10
-3.11525
 20
5.64239
 30
0.0
 10
-3.11525
 20
5.60738
 30
0.0
 10
-3.11525
 20
5.60738
 30
0.0
  0
SPLINE
  5
58
330
1F
100
AcDbEntity
  8
Layer 1
100
AcDbSpline
210
0.0
220
0.0
230
1.0
 70
    11
 71
     3
 72
    48
 73
    44
 74
     0
 42
0.0000000001
 43
0.0000000001
 12
1.0
 22
0.0
 32
0.0
 13
1.0
 23
0.0
 33
0.0
 40
0.0
 40
0.0
 40
0.0
 40
0.0
 40
0.0833333333333333
 40
0.0833333333333333
 40
0.0833333333333333
 40
0.0833333333333333
 40
0.1666666666666667
 40
0.1666666666666667
 40
0.1666666666666667
 40
0.1666666666666667
 40
0.25
 40
0.25
 40
0.25
 40
0.25
 40
0.3333333333333333
 40
0.3333333333333333
 40
0.3333333333333333
 40
0.3333333333333333
 40
0.4166666666666667
 40
0.4166666666666667
 40
0.4166666666666667
 40
0.4166666666666667
 40
0.5
 40
0.5
 40
0.5
 40
0.5
 40
0.5833333333333334
 40
0.5833333333333334
 40
0.5833333333333334
 40
0.5833333333333334
 40
0.6666666666666666
 40
0.6666666666666666
 40
0.6666666666666666
 40
0.6666666666666666
 40
0.75
 40
0.75
 40
0.75
 40
0.75
 40
0.8333333333333334
 40
0.8333333333333334
 40
0.8333333333333334
 40
0.8333333333333334
 40
1.0
 40
1.0
 40
1.0
 40
1.0
 10
-3.04275
 20
5.50516
 30
0.0
 10
-3.04275
 20
5.50516
 30
0.0
 10
-3.04275
 20
5.88775
 30
0.0
 10
-3.04275
 20
5.88775
 30
0.0
 10
-3.04275
 20
5.88775
 30
0.0
 10
-3.04275
 20
5.88775
 30
0.0
 10
-2.99195
 20
5.88775
 30
0.0
 10
-2.99195
 20
5.88775
 30
0.0
 10
-2.99195
 20
5.88775
 30
0.0
 10
-2.99195
 20
5.88775
 30
0.0
 10
-2.99195
 20
5.83474
 30
0.0
 10
-2.99195
 20
5.83474
 30
0.0
 10
-2.99195
 20
5.83474
 30
0.0
 10
-2.97114
 20
5.87399
 30
0.0
 10
-2.93983
 20
5.89357
 30
0.0
 10
-2.89811
 20
5.89357
 30
0.0
 10
-2.89811
 20
5.89357
 30
0.0
 10
-2.86433
 20
5.89357
 30
0.0
 10
-2.83778
 20
5.88131
 30
0.0
 10
-2.81838
 20
5.85671
 30
0.0
 10
-2.81838
 20
5.85671
 30
0.0
 10
-2.79898
 20
5.8321
 30
0.0
 10
-2.78928
 20
5.7985
 30
0.0
 10
-2.78928
 20
5.7559
 30
0.0
 10
-2.78928
 20
5.7559
 30
0.0
 10
-2.78928
 20
5.70951
 30
0.0
 10
-2.8003
 20
5.67203
 30
0.0
 10
-2.82226
 20
5.64363
 30
0.0
 10
-2.82226
 20
5.64363
 30
0.0
 10
-2.84422
 20
5.61514
 30
0.0
 10
-2.87315
 20
5.60094
 30
0.0
 10
-2.90896
 20
5.60094
 30
0.0
 10
-2.90896
 20
5.60094
 30
0.0
 10
-2.94221
 20
5.60094
 30
0.0
 10
-2.9699
 20
5.61364
 30
0.0
 10
-2.99195
 20
5.63913
 30
0.0
 10
-2.99195
 20
5.63913
 30
0.0
 10
-2.99195
 20
5.63913
 30
0.0
 10
-2.99195
 20
5.50516
 30
0.0
 10
-2.99195
 20
5.50516
 30
0.0
 10
-2.99195
 20
5.50516
 30
0.0
 10
-2.99195
 20
5.50516
 30
0.0
 10
-3.04275
 20
5.50516
 30
0.0
 10
-3.04275
 20
5.50516
 30
0.0
  0
SPLINE
  5
59
330
1F
100
AcDbEntity
  8
Layer 1
100
AcDbSpline
210
0.0
220
0.0
230
1.0
 70
    11
 71
     3
 72
    28
 73
    24
 74
     0
 42
0.0000000001
 43
0.0000000001
 12
1.0
 22
0.0
 32
0.0
 13
1.0
 23
0.0
 33
0.0
 40
0.0
 40
0.0
 40
0.0
 40
0.0
 40
0.1428571428571428
 40
0.1428571428571428
 40
0.1428571428571428
 40
0.1428571428571428
 40
0.2857142857142857
 40
0.2857142857142857
 40
0.2857142857142857
 40
0.2857142857142857
 40
0.4285714285714285
 40
0.4285714285714285
 40
0.4285714285714285
 40
0.4285714285714285
 40
0.5714285714285714
 40
0.5714285714285714
 40
0.5714285714285714
 40
0.5714285714285714
 40
0.7142857142857143
 40
0.7142857142857143
 40
0.7142857142857143
 40
0.7142857142857143
 40
1.0
 40
1.0
 40
1.0
 40
1.0
 10
-2.99195
 20
5.67414
 30
0.0
 10
-2.96576
 20
5.65077
 30
0.0
 10
-2.9408
 20
5.63904
 30
0.0
 10
-2.91707
 20
5.63904
 30
0.0
 10
-2.91707
 20
5.63904
 30
0.0
 10
-2.8937
 20
5.63904
 30
0.0
 10
-2.87562
 20
5.64883
 30
0.0
 10
-2.86292
 20
5.66832
 30
0.0
 10
-2.86292
 20
5.66832
 30
0.0
 10
-2.85013
 20
5.68781
 30
0.0
 10
-2.84378
 20
5.71524
 30
0.0
 10
-2.84378
 20
5.7507
 30
0.0
 10
-2.84378
 20
5.7507
 30
0.0
 10
-2.84378
 20
5.81631
 30
0.0
 10
-2.86548
 20
5.84912
 30
0.0
 10
-2.90887
 20
5.84912
 30
0.0
 10
-2.90887
 20
5.84912
 30
0.0
 10
-2.93727
 20
5.84912
 30
0.0
 10
-2.96496
 20
5.83377
 30
0.0
 10
-2.99195
 20
5.80299
 30
0.0
 10
-2.99195
 20
5.80299
 30
0.0
 10
-2.99195
 20
5.80299
 30
0.0
 10
-2.99195
 20
5.67414
 30
0.0
 10
-2.99195
 20
5.67414
 30
0.0
  0
SPLINE
  5
5A
330
1F
100
AcDbEntity
  8
Layer 1
100
AcDbSpline
210
0.0
220
0.0
230
1.0
 70
    11
 71
     3
 72
    20
 73
    16
 74
     0
 42
0.0000000001
 43
0.0000000001
 12
1.0
 22
0.0
 32
0.0
 13
1.0
 23
0.0
 33
0.0
 40
0.0
 40
0.0
 40
0.0
 40
0.0
 40
0.2
 40
0.2
 40
0.2
 40
0.2
 40
0.4
 40
0.4
 40
0.4
 40
0.4
 40
0.6
 40
0.6
 40
0.6
 40
0.6
 40
1.0
 40
1.0
 40
1.0
 40
1.0
 10
-2.70232
 20
5.60729
 30
0.0
 10
-2.70232
 20
5.60729
 30
0.0
 10
-2.70232
 20
5.65809
 30
0.0
 10
-2.70232
 20
5.65809
 30
0.0
 10
-2.70232
 20
5.65809
 30
0.0
 10
-2.70232
 20
5.65809
 30
0.0
 10
-2.65152
 20
5.65809
 30
0.0
 10
-2.65152
 20
5.65809
 30
0.0
 10
-2.65152
 20
5.65809
 30
0.0
 10
-2.65152
 20
5.65809
 30
0.0
 10
-2.65152
 20
5.60729
 30
0.0
 10
-2.65152
 20
5.60729
 30
0.0
 10
-2.65152
 20
5.60729
 30
0.0
 10
-2.65152
 20
5.60729
 30
0.0
 10
-2.70232
 20
5.60729
 30
0.0
 10
-2.70232
 20
5.60729
 30
0.0
  0
SPLINE
  5
5B
330
1F
100
AcDbEntity
  8
Layer 1
100
AcDbSpline
210
0.0
220
0.0
230
1.0
 70
    11
 71
     3
 72
    20
 73
    16
 74
     0
 42
0.0000000001
 43
0.0000000001
 12
1.0
 22
0.0
 32
0.0
 13
1.0
 23
0.0
 33
0.0
 40
0.0
 40
0.0
 40
0.0
 40
0.0
 40
0.2
 40
0.2
 40
0.2
 40
0.2
 40
0.4
 40
0.4
 40
0.4
 40
0.4
 40
0.6
 40
0.6
 40
0.6
 40
0.6
 40
1.0
 40
1.0
 40
1.0
 40
1.0
 10
-2.70232
 20
5.83695
 30
0.0
 10
-2.70232
 20
5.83695
 30
0.0
 10
-2.70232
 20
5.88775
 30
0.0
 10
-2.70232
 20
5.88775
 30
0.0
 10
-2.70232
 20
5.88775
 30
0.0
 10
-2.70232
 20
5.88775
 30
0.0
 10
-2.65152
 20
5.88775
 30
0.0
 10
-2.65152
 20
5.88775
 30
0.0
 10
-2.65152
 20
5.88775
 30
0.0
 10
-2.65152
 20
5.88775
 30
0.0
 10
-2.65152
 20
5.83695
 30
0.0
 10
-2.65152
 20
5.83695
 30
0.0
 10
-2.65152
 20
5.83695
 30
0.0
 10
-2.65152
 20
5.83695
 30
0.0
 10
-2.70232
 20
5.83695
 30
0.0
 10
-2.70232
 20
5.83695
 30
0.0
  0
SPLINE
  5
5C
330
1F
100
AcDbEntity
  8
Layer 1
100
AcDbSpline
210
0.0
220
0.0
230
1.0
 70
    11
 71
     3
 72
    20
 73
    16
 74
     0
 42
0.0000000001
 43
0.0000000001
 12
1.0
 22
0.0
 32
0.0
 13
1.0
 23
0.0
 33
0.0
 40
0.0
 40
0.0
 40
0.0
 40
0.0
 40
0.2
 40
0.2
 40
0.2
 40
0.2
 40
0.4
 40
0.4
 40
0.4
 40
0.4
 40
0.6
 40
0.6
 40
0.6
 40
0.6
 40
1.0
 40
1.0
 40
1.0
 40
1.0
 10
-2.53599
 20
5.53056
 30
0.0
 10
-2.53599
 20
5.53056
 30
0.0
 10
-2.3999
 20
5.98988
 30
0.0
 10
-2.3999
 20
5.98988
 30
0.0
 10
-2.3999
 20
5.98988
 30
0.0
 10
-2.3999
 20
5.98988
 30
0.0
 10
-2.37301
 20
5.98988
 30
0.0
 10
-2.37301
 20
5.98988
 30
0.0
 10
-2.37301
 20
5.98988
 30
0.0
 10
-2.37301
 20
5.98988
 30
0.0
 10
-2.50909
 20
5.53056
 30
0.0
 10
-2.50909
 20
5.53056
 30
0.0
 10
-2.50909
 20
5.53056
 30
0.0
 10
-2.50909
 20
5.53056
 30
0.0
 10
-2.53599
 20
5.53056
 30
0.0
 10
-2.53599
 20
5.53056
 30
0.0
  0
SPLINE
  5
5D
330
1F
100
AcDbEntity
  8
Layer 1
100
AcDbSpline
210
0.0
220
0.0
230
1.0
 70
    11
 71
     3
 72
    20
 73
    16
 74
     0
 42
0.0000000001
 43
0.0000000001
 12
1.0
 22
0.0
 32
0.0
 13
1.0
 23
0.0
 33
0.0
 40
0.0
 40
0.0
 40
0.0
 40
0.0
 40
0.2
 40
0.2
 40
0.2
 40
0.2
 40
0.4
 40
0.4
 40
0.4
 40
0.4
 40
0.6
 40
0.6
 40
0.6
 40
0.6
 40
1.0
 40
1.0
 40
1.0
 40
1.0
 10
-2.25853
 20
5.53056
 30
0.0
 10
-2.25853
 20
5.53056
 30
0.0
 10
-2.12244
 20
5.98988
 30
0.0
 10
-2.12244
 20
5.98988
 30
0.0
 10
-2.12244
 20
5.98988
 30
0.0
 10
-2.12244
 20
5.98988
 30
0.0
 10
-2.09555
 20
5.98988
 30
0.0
 10
-2.09555
 20
5.98988
 30
0.0
 10
-2.09555
 20
5.98988
 30
0.0
 10
-2.09555
 20
5.98988
 30
0.0
 10
-2.23163
 20
5.53056
 30
0.0
 10
-2.23163
 20
5.53056
 30
0.0
 10
-2.23163
 20
5.53056
 30
0.0
 10
-2.23163
 20
5.53056
 30
0.0
 10
-2.25853
 20
5.53056
 30
0.0
 10
-2.25853
 20
5.53056
 30
0.0
  0
SPLINE
  5
5E
330
1F
100
AcDbEntity
  8
Layer 1
100
AcDbSpline
210
0.0
220
0.0
230
1.0
 70
    11
 71
     3
 72
    36
 73
    32
 74
     0
 42
0.0000000001
 43
0.0000000001
 12
1.0
 22
0.0
 32
0.0
 13
1.0
 23
0.0
 33
0.0
 40
0.0
 40
0.0
 40
0.0
 40
0.0
 40
0.1111111111111111
 40
0.1111111111111111
 40
0.1111111111111111
 40
0.1111111111111111
 40
0.2222222222222222
 40
0.2222222222222222
 40
0.2222222222222222
 40
0.2222222222222222
 40
0.3333333333333333
 40
0.3333333333333333
 40
0.3333333333333333
 40
0.3333333333333333
 40
0.4444444444444444
 40
0.4444444444444444
 40
0.4444444444444444
 40
0.4444444444444444
 40
0.5555555555555556
 40
0.5555555555555556
 40
0.5555555555555556
 40
0.5555555555555556
 40
0.6666666666666666
 40
0.6666666666666666
 40
0.6666666666666666
 40
0.6666666666666666
 40
0.7777777777777778
 40
0.7777777777777778
 40
0.7777777777777778
 40
0.7777777777777778
 40
1.0
 40
1.0
 40
1.0
 40
1.0
 10
-1.87576
 20
5.60094
 30
0.0
 10
-1.91695
 20
5.60094
 30
0.0
 10
-1.94958
 20
5.61408
 30
0.0
 10
-1.97357
 20
5.64036
 30
0.0
 10
-1.97357
 20
5.64036
 30
0.0
 10
-1.99765
 20
5.66665
 30
0.0
 10
-2.00964
 20
5.70236
 30
0.0
 10
-2.00964
 20
5.74743
 30
0.0
 10
-2.00964
 20
5.74743
 30
0.0
 10
-2.00964
 20
5.79241
 30
0.0
 10
-1.99765
 20
5.82804
 30
0.0
 10
-1.97357
 20
5.85424
 30
0.0
 10
-1.97357
 20
5.85424
 30
0.0
 10
-1.94958
 20
5.88043
 30
0.0
 10
-1.91695
 20
5.89357
 30
0.0
 10
-1.87576
 20
5.89357
 30
0.0
 10
-1.87576
 20
5.89357
 30
0.0
 10
-1.83458
 20
5.89357
 30
0.0
 10
-1.80195
 20
5.88043
 30
0.0
 10
-1.77796
 20
5.85424
 30
0.0
 10
-1.77796
 20
5.85424
 30
0.0
 10
-1.75388
 20
5.82804
 30
0.0
 10
-1.74188
 20
5.79241
 30
0.0
 10
-1.74188
 20
5.74743
 30
0.0
 10
-1.74188
 20
5.74743
 30
0.0
 10
-1.74188
 20
5.70236
 30
0.0
 10
-1.75388
 20
5.66665
 30
0.0
 10
-1.77796
 20
5.64036
 30
0.0
 10
-1.77796
 20
5.64036
 30
0.0
 10
-1.80195
 20
5.61408
 30
0.0
 10
-1.83458
 20
5.60094
 30
0.0
 10
-1.87576
 20
5.60094
 30
0.0
  0
SPLINE
  5
5F
330
1F
100
AcDbEntity
  8
Layer 1
100
AcDbSpline
210
0.0
220
0.0
230
1.0
 70
    11
 71
     3
 72
    36
 73
    32
 74
     0
 42
0.0000000001
 43
0.0000000001
 12
1.0
 22
0.0
 32
0.0
 13
1.0
 23
0.0
 33
0.0
 40
0.0
 40
0.0
 40
0.0
 40
0.0
 40
0.1111111111111111
 40
0.1111111111111111
 40
0.1111111111111111
 40
0.1111111111111111
 40
0.2222222222222222
 40
0.2222222222222222
 40
0.2222222222222222
 40
0.2222222222222222
 40
0.3333333333333333
 40
0.3333333333333333
 40
0.3333333333333333
 40
0.3333333333333333
 40
0.4444444444444444
 40
0.4444444444444444
 40
0.4444444444444444
 40
0.4444444444444444
 40
0.5555555555555556
 40
0.5555555555555556
 40
0.5555555555555556
 40
0.5555555555555556
 40
0.6666666666666666
 40
0.6666666666666666
 40
0.6666666666666666
 40
0.6666666666666666
 40
0.7777777777777778
 40
0.7777777777777778
 40
0.7777777777777778
 40
0.7777777777777778
 40
1.0
 40
1.0
 40
1.0
 40
1.0
 10
-1.87585
 20
5.63904
 30
0.0
 10
-1.85072
 20
5.63904
 30
0.0
 10
-1.83114
 20
5.64848
 30
0.0
 10
-1.8172
 20
5.66744
 30
0.0
 10
-1.8172
 20
5.66744
 30
0.0
 10
-1.80336
 20
5.68631
 30
0.0
 10
-1.79639
 20
5.71304
 30
0.0
 10
-1.79639
 20
5.74743
 30
0.0
 10
-1.79639
 20
5.74743
 30
0.0
 10
-1.79639
 20
5.78174
 30
0.0
 10
-1.80336
 20
5.80837
 30
0.0
 10
-1.8172
 20
5.82725
 30
0.0
 10
-1.8172
 20
5.82725
 30
0.0
 10
-1.83114
 20
5.84603
 30
0.0
 10
-1.85072
 20
5.85547
 30
0.0
 10
-1.87585
 20
5.85547
 30
0.0
 10
-1.87585
 20
5.85547
 30
0.0
 10
-1.90108
 20
5.85547
 30
0.0
 10
-1.92066
 20
5.84603
 30
0.0
 10
-1.93441
 20
5.82725
 30
0.0
 10
-1.93441
 20
5.82725
 30
0.0
 10
-1.94826
 20
5.80837
 30
0.0
 10
-1.95514
 20
5.78174
 30
0.0
 10
-1.95514
 20
5.74743
 30
0.0
 10
-1.95514
 20
5.74743
 30
0.0
 10
-1.95514
 20
5.71304
 30
0.0
 10
-1.94826
 20
5.68631
 30
0.0
 10
-1.93441
 20
5.66744
 30
0.0
 10
-1.93441
 20
5.66744
 30
0.0
 10
-1.92066
 20
5.64848
 30
0.0
 10
-1.90108
 20
5.63904
 30
0.0
 10
-1.87585
 20
5.63904
 30
0.0
  0
SPLINE
  5
60
330
1F
100
AcDbEntity
  8
Layer 1
100
AcDbSpline
210
0.0
220
0.0
230
1.0
 70
    11
 71
     3
 72
    36
 73
    32
 74
     0
 42
0.0000000001
 43
0.0000000001
 12
1.0
 22
0.0
 32
0.0
 13
1.0
 23
0.0
 33
0.0
 40
0.0
 40
0.0
 40
0.0
 40
0.0
 40
0.1111111111111111
 40
0.1111111111111111
 40
0.1111111111111111
 40
0.1111111111111111
 40
0.2222222222222222
 40
0.2222222222222222
 40
0.2222222222222222
 40
0.2222222222222222
 40
0.3333333333333333
 40
0.3333333333333333
 40
0.3333333333333333
 40
0.3333333333333333
 40
0.4444444444444444
 40
0.4444444444444444
 40
0.4444444444444444
 40
0.4444444444444444
 40
0.5555555555555556
 40
0.5555555555555556
 40
0.5555555555555556
 40
0.5555555555555556
 40
0.6666666666666666
 40
0.6666666666666666
 40
0.6666666666666666
 40
0.6666666666666666
 40
0.7777777777777778
 40
0.7777777777777778
 40
0.7777777777777778
 40
0.7777777777777778
 40
1.0
 40
1.0
 40
1.0
 40
1.0
 10
-1.55067
 20
5.60094
 30
0.0
 10
-1.59186
 20
5.60094
 30
0.0
 10
-1.62449
 20
5.61408
 30
0.0
 10
-1.64848
 20
5.64036
 30
0.0
 10
-1.64848
 20
5.64036
 30
0.0
 10
-1.67256
 20
5.66665
 30
0.0
 10
-1.68455
 20
5.70236
 30
0.0
 10
-1.68455
 20
5.74743
 30
0.0
 10
-1.68455
 20
5.74743
 30
0.0
 10
-1.68455
 20
5.79241
 30
0.0
 10
-1.67256
 20
5.82804
 30
0.0
 10
-1.64848
 20
5.85424
 30
0.0
 10
-1.64848
 20
5.85424
 30
0.0
 10
-1.62449
 20
5.88043
 30
0.0
 10
-1.59186
 20
5.89357
 30
0.0
 10
-1.55067
 20
5.89357
 30
0.0
 10
-1.55067
 20
5.89357
 30
0.0
 10
-1.50949
 20
5.89357
 30
0.0
 10
-1.47686
 20
5.88043
 30
0.0
 10
-1.45287
 20
5.85424
 30
0.0
 10
-1.45287
 20
5.85424
 30
0.0
 10
-1.42879
 20
5.82804
 30
0.0
 10
-1.41679
 20
5.79241
 30
0.0
 10
-1.41679
 20
5.74743
 30
0.0
 10
-1.41679
 20
5.74743
 30
0.0
 10
-1.41679
 20
5.70236
 30
0.0
 10
-1.42879
 20
5.66665
 30
0.0
 10
-1.45287
 20
5.64036
 30
0.0
 10
-1.45287
 20
5.64036
 30
0.0
 10
-1.47686
 20
5.61408
 30
0.0
 10
-1.50949
 20
5.60094
 30
0.0
 10
-1.55067
 20
5.60094
 30
0.0
  0
SPLINE
  5
61
330
1F
100
AcDbEntity
  8
Layer 1
100
AcDbSpline
210
0.0
220
0.0
230
1.0
 70
    11
 71
     3
 72
    36
 73
    32
 74
     0
 42
0.0000000001
 43
0.0000000001
 12
1.0
 22
0.0
 32
0.0
 13
1.0
 23
0.0
 33
0.0
 40
0.0
 40
0.0
 40
0.0
 40
0.0
 40
0.1111111111111111
 40
0.1111111111111111
 40
0.1111111111111111
 40
0.1111111111111111
 40
0.2222222222222222
 40
0.2222222222222222
 40
0.2222222222222222
 40
0.2222222222222222
 40
0.3333333333333333
 40
0.3333333333333333
 40
0.3333333333333333
 40
0.3333333333333333
 40
0.4444444444444444
 40
0.4444444444444444
 40
0.4444444444444444
 40
0.4444444444444444
 40
0.5555555555555556
 40
0.5555555555555556
 40
0.5555555555555556
 40
0.5555555555555556
 40
0.6666666666666666
 40
0.6666666666666666
 40
0.6666666666666666
 40
0.6666666666666666
 40
0.7777777777777778
 40
0.7777777777777778
 40
0.7777777777777778
 40
0.7777777777777778
 40
1.0
 40
1.0
 40
1.0
 40
1.0
 10
-1.55076
 20
5.63904
 30
0.0
 10
-1.52563
 20
5.63904
 30
0.0
 10
-1.50605
 20
5.64848
 30
0.0
 10
-1.49211
 20
5.66744
 30
0.0
 10
-1.49211
 20
5.66744
 30
0.0
 10
-1.47827
 20
5.68631
 30
0.0
 10
-1.4713
 20
5.71304
 30
0.0
 10
-1.4713
 20
5.74743
 30
0.0
 10
-1.4713
 20
5.74743
 30
0.0
 10
-1.4713
 20
5.78174
 30
0.0
 10
-1.47827
 20
5.80837
 30
0.0
 10
-1.49211
 20
5.82725
 30
0.0
 10
-1.49211
 20
5.82725
 30
0.0
 10
-1.50605
 20
5.84603
 30
0.0
 10
-1.52563
 20
5.85547
 30
0.0
 10
-1.55076
 20
5.85547
 30
0.0
 10
-1.55076
 20
5.85547
 30
0.0
 10
-1.57599
 20
5.85547
 30
0.0
 10
-1.59557
 20
5.84603
 30
0.0
 10
-1.60932
 20
5.82725
 30
0.0
 10
-1.60932
 20
5.82725
 30
0.0
 10
-1.62317
 20
5.80837
 30
0.0
 10
-1.63005
 20
5.78174
 30
0.0
 10
-1.63005
 20
5.74743
 30
0.0
 10
-1.63005
 20
5.74743
 30
0.0
 10
-1.63005
 20
5.71304
 30
0.0
 10
-1.62317
 20
5.68631
 30
0.0
 10
-1.60932
 20
5.66744
 30
0.0
 10
-1.60932
 20
5.66744
 30
0.0
 10
-1.59557
 20
5.64848
 30
0.0
 10
-1.57599
 20
5.63904
 30
0.0
 10
-1.55076
 20
5.63904
 30
0.0
  0
SPLINE
  5
62
330
1F
100
AcDbEntity
  8
Layer 1
100
AcDbSpline
210
0.0
220
0.0
230
1.0
 70
    11
 71
     3
 72
    84
 73
    80
 74
     0
 42
0.0000000001
 43
0.0000000001
 12
1.0
 22
0.0
 32
0.0
 13
1.0
 23
0.0
 33
0.0
 40
0.0
 40
0.0
 40
0.0
 40
0.0
 40
0.0476190476190476
 40
0.0476190476190476
 40
0.0476190476190476
 40
0.0476190476190476
 40
0.0952380952380952
 40
0.0952380952380952
 40
0.0952380952380952
 40
0.0952380952380952
 40
0.1428571428571428
 40
0.1428571428571428
 40
0.1428571428571428
 40
0.1428571428571428
 40
0.1904761904761905
 40
0.1904761904761905
 40
0.1904761904761905
 40
0.1904761904761905
 40
0.2380952380952381
 40
0.2380952380952381
 40
0.2380952380952381
 40
0.2380952380952381
 40
0.2857142857142857
 40
0.2857142857142857
 40
0.2857142857142857
 40
0.2857142857142857
 40
0.3333333333333333
 40
0.3333333333333333
 40
0.3333333333333333
 40
0.3333333333333333
 40
0.3809523809523809
 40
0.3809523809523809
 40
0.3809523809523809
 40
0.3809523809523809
 40
0.4285714285714285
 40
0.4285714285714285
 40
0.4285714285714285
 40
0.4285714285714285
 40
0.4761904761904762
 40
0.4761904761904762
 40
0.4761904761904762
 40
0.4761904761904762
 40
0.5238095238095238
 40
0.5238095238095238
 40
0.5238095238095238
 40
0.5238095238095238
 40
0.5714285714285714
 40
0.5714285714285714
 40
0.5714285714285714
 40
0.5714285714285714
 40
0.6190476190476191
 40
0.6190476190476191
 40
0.6190476190476191
 40
0.6190476190476191
 40
0.6666666666666666
 40
0.6666666666666666
 40
0.6666666666666666
 40
0.6666666666666666
 40
0.7142857142857143
 40
0.7142857142857143
 40
0.7142857142857143
 40
0.7142857142857143
 40
0.7619047619047619
 40
0.7619047619047619
 40
0.7619047619047619
 40
0.7619047619047619
 40
0.8095238095238095
 40
0.8095238095238095
 40
0.8095238095238095
 40
0.8095238095238095
 40
0.8571428571428571
 40
0.8571428571428571
 40
0.8571428571428571
 40
0.8571428571428571
 40
0.9047619047619048
 40
0.9047619047619048
 40
0.9047619047619048
 40
0.9047619047619048
 40
1.0
 40
1.0
 40
1.0
 40
1.0
 10
-1.33724
 20
5.60729
 30
0.0
 10
-1.33724
 20
5.60729
 30
0.0
 10
-1.33724
 20
5.88775
 30
0.0
 10
-1.33724
 20
5.88775
 30
0.0
 10
-1.33724
 20
5.88775
 30
0.0
 10
-1.33724
 20
5.88775
 30
0.0
 10
-1.28644
 20
5.88775
 30
0.0
 10
-1.28644
 20
5.88775
 30
0.0
 10
-1.28644
 20
5.88775
 30
0.0
 10
-1.28644
 20
5.88775
 30
0.0
 10
-1.28644
 20
5.83474
 30
0.0
 10
-1.28644
 20
5.83474
 30
0.0
 10
-1.28644
 20
5.83474
 30
0.0
 10
-1.26166
 20
5.87399
 30
0.0
 10
-1.22991
 20
5.89357
 30
0.0
 10
-1.19101
 20
5.89357
 30
0.0
 10
-1.19101
 20
5.89357
 30
0.0
 10
-1.15353
 20
5.89357
 30
0.0
 10
-1.12804
 20
5.87399
 30
0.0
 10
-1.11446
 20
5.83474
 30
0.0
 10
-1.11446
 20
5.83474
 30
0.0
 10
-1.09038
 20
5.87434
 30
0.0
 10
-1.05898
 20
5.8941
 30
0.0
 10
-1.02044
 20
5.8941
 30
0.0
 10
-1.02044
 20
5.8941
 30
0.0
 10
-0.99584
 20
5.8941
 30
0.0
 10
-0.9767
 20
5.88687
 30
0.0
 10
-0.96303
 20
5.87232
 30
0.0
 10
-0.96303
 20
5.87232
 30
0.0
 10
-0.94936
 20
5.85776
 30
0.0
 10
-0.94248
 20
5.83739
 30
0.0
 10
-0.94248
 20
5.8112
 30
0.0
 10
-0.94248
 20
5.8112
 30
0.0
 10
-0.94248
 20
5.8112
 30
0.0
 10
-0.94248
 20
5.60729
 30
0.0
 10
-0.94248
 20
5.60729
 30
0.0
 10
-0.94248
 20
5.60729
 30
0.0
 10
-0.94248
 20
5.60729
 30
0.0
 10
-0.99328
 20
5.60729
 30
0.0
 10
-0.99328
 20
5.60729
 30
0.0
 10
-0.99328
 20
5.60729
 30
0.0
 10
-0.99328
 20
5.60729
 30
0.0
 10
-0.99328
 20
5.80282
 30
0.0
 10
-0.99328
 20
5.80282
 30
0.0
 10
-0.99328
 20
5.80282
 30
0.0
 10
-0.99328
 20
5.83474
 30
0.0
 10
-1.00598
 20
5.85071
 30
0.0
 10
-1.03138
 20
5.85071
 30
0.0
 10
-1.03138
 20
5.85071
 30
0.0
 10
-1.05775
 20
5.85071
 30
0.0
 10
-1.08544
 20
5.8321
 30
0.0
 10
-1.11446
 20
5.79479
 30
0.0
 10
-1.11446
 20
5.79479
 30
0.0
 10
-1.11446
 20
5.79479
 30
0.0
 10
-1.11446
 20
5.60729
 30
0.0
 10
-1.11446
 20
5.60729
 30
0.0
 10
-1.11446
 20
5.60729
 30
0.0
 10
-1.11446
 20
5.60729
 30
0.0
 10
-1.16526
 20
5.60729
 30
0.0
 10
-1.16526
 20
5.60729
 30
0.0
 10
-1.16526
 20
5.60729
 30
0.0
 10
-1.16526
 20
5.60729
 30
0.0
 10
-1.16526
 20
5.80299
 30
0.0
 10
-1.16526
 20
5.80299
 30
0.0
 10
-1.16526
 20
5.80299
 30
0.0
 10
-1.16526
 20
5.83519
 30
0.0
 10
-1.17814
 20
5.85124
 30
0.0
 10
-1.20398
 20
5.85124
 30
0.0
 10
-1.20398
 20
5.85124
 30
0.0
 10
-1.22964
 20
5.85124
 30
0.0
 10
-1.25716
 20
5.83254
 30
0.0
 10
-1.28644
 20
5.79506
 30
0.0
 10
-1.28644
 20
5.79506
 30
0.0
 10
-1.28644
 20
5.79506
 30
0.0
 10
-1.28644
 20
5.60729
 30
0.0
 10
-1.28644
 20
5.60729
 30
0.0
 10
-1.28644
 20
5.60729
 30
0.0
 10
-1.28644
 20
5.60729
 30
0.0
 10
-1.33724
 20
5.60729
 30
0.0
 10
-1.33724
 20
5.60729
 30
0.0
  0
SPLINE
  5
63
330
1F
100
AcDbEntity
  8
Layer 1
100
AcDbSpline
210
0.0
220
0.0
230
1.0
 70
    11
 71
     3
 72
    20
 73
    16
 74
     0
 42
0.0000000001
 43
0.0000000001
 12
1.0
 22
0.0
 32
0.0
 13
1.0
 23
0.0
 33
0.0
 40
0.0
 40
0.0
 40
0.0
 40
0.0
 40
0.2
 40
0.2
 40
0.2
 40
0.2
 40
0.4
 40
0.4
 40
0.4
 40
0.4
 40
0.6
 40
0.6
 40
0.6
 40
0.6
 40
1.0
 40
1.0
 40
1.0
 40
1.0
 10
-0.84211
 20
5.60729
 30
0.0
 10
-0.84211
 20
5.60729
 30
0.0
 10
-0.84211
 20
5.67132
 30
0.0
 10
-0.84211
 20
5.67132
 30
0.0
 10
-0.84211
 20
5.67132
 30
0.0
 10
-0.84211
 20
5.67132
 30
0.0
 10
-0.77808
 20
5.67132
 30
0.0
 10
-0.77808
 20
5.67132
 30
0.0
 10
-0.77808
 20
5.67132
 30
0.0
 10
-0.77808
 20
5.67132
 30
0.0
 10
-0.77808
 20
5.60729
 30
0.0
 10
-0.77808
 20
5.60729
 30
0.0
 10
-0.77808
 20
5.60729
 30
0.0
 10
-0.77808
 20
5.60729
 30
0.0
 10
-0.84211
 20
5.60729
 30
0.0
 10
-0.84211
 20
5.60729
 30
0.0
  0
SPLINE
  5
64
330
1F
100
AcDbEntity
  8
Layer 1
100
AcDbSpline
210
0.0
220
0.0
230
1.0
 70
    11
 71
     3
 72
    20
 73
    16
 74
     0
 42
0.0000000001
 43
0.0000000001
 12
1.0
 22
0.0
 32
0.0
 13
1.0
 23
0.0
 33
0.0
 40
0.0
 40
0.0
 40
0.0
 40
0.0
 40
0.2
 40
0.2
 40
0.2
 40
0.2
 40
0.4
 40
0.4
 40
0.4
 40
0.4
 40
0.6
 40
0.6
 40
0.6
 40
0.6
 40
1.0
 40
1.0
 40
1.0
 40
1.0
 10
-0.67578
 20
5.60729
 30
0.0
 10
-0.67578
 20
5.60729
 30
0.0
 10
-0.67578
 20
6.01528
 30
0.0
 10
-0.67578
 20
6.01528
 30
0.0
 10
-0.67578
 20
6.01528
 30
0.0
 10
-0.67578
 20
6.01528
 30
0.0
 10
-0.62498
 20
6.01528
 30
0.0
 10
-0.62498
 20
6.01528
 30
0.0
 10
-0.62498
 20
6.01528
 30
0.0
 10
-0.62498
 20
6.01528
 30
0.0
 10
-0.62498
 20
5.60729
 30
0.0
 10
-0.62498
 20
5.60729
 30
0.0
 10
-0.62498
 20
5.60729
 30
0.0
 10
-0.62498
 20
5.60729
 30
0.0
 10
-0.67578
 20
5.60729
 30
0.0
 10
-0.67578
 20
5.60729
 30
0.0
  0
SPLINE
  5
65
330
1F
100
AcDbEntity
  8
Layer 1
100
AcDbSpline
210
0.0
220
0.0
230
1.0
 70
    11
 71
     3
 72
    72
 73
    68
 74
     0
 42
0.0000000001
 43
0.0000000001
 12
1.0
 22
0.0
 32
0.0
 13
1.0
 23
0.0
 33
0.0
 40
0.0
 40
0.0
 40
0.0
 40
0.0
 40
0.0555555555555556
 40
0.0555555555555556
 40
0.0555555555555556
 40
0.0555555555555556
 40
0.1111111111111111
 40
0.1111111111111111
 40
0.1111111111111111
 40
0.1111111111111111
 40
0.1666666666666667
 40
0.1666666666666667
 40
0.1666666666666667
 40
0.1666666666666667
 40
0.2222222222222222
 40
0.2222222222222222
 40
0.2222222222222222
 40
0.2222222222222222
 40
0.2777777777777778
 40
0.2777777777777778
 40
0.2777777777777778
 40
0.2777777777777778
 40
0.3333333333333333
 40
0.3333333333333333
 40
0.3333333333333333
 40
0.3333333333333333
 40
0.3888888888888889
 40
0.3888888888888889
 40
0.3888888888888889
 40
0.3888888888888889
 40
0.4444444444444444
 40
0.4444444444444444
 40
0.4444444444444444
 40
0.4444444444444444
 40
0.5
 40
0.5
 40
0.5
 40
0.5
 40
0.5555555555555556
 40
0.5555555555555556
 40
0.5555555555555556
 40
0.5555555555555556
 40
0.6111111111111112
 40
0.6111111111111112
 40
0.6111111111111112
 40
0.6111111111111112
 40
0.6666666666666666
 40
0.6666666666666666
 40
0.6666666666666666
 40
0.6666666666666666
 40
0.7222222222222222
 40
0.7222222222222222
 40
0.7222222222222222
 40
0.7222222222222222
 40
0.7777777777777778
 40
0.7777777777777778
 40
0.7777777777777778
 40
0.7777777777777778
 40
0.8333333333333334
 40
0.8333333333333334
 40
0.8333333333333334
 40
0.8333333333333334
 40
0.8888888888888888
 40
0.8888888888888888
 40
0.8888888888888888
 40
0.8888888888888888
 40
1.0
 40
1.0
 40
1.0
 40
1.0
 10
-0.39744
 20
5.60738
 30
0.0
 10
-0.41314
 20
5.60306
 30
0.0
 10
-0.42681
 20
5.60094
 30
0.0
 10
-0.43836
 20
5.60094
 30
0.0
 10
-0.43836
 20
5.60094
 30
0.0
 10
-0.46429
 20
5.60094
 30
0.0
 10
-0.48448
 20
5.60835
 30
0.0
 10
-0.49895
 20
5.62317
 30
0.0
 10
-0.49895
 20
5.62317
 30
0.0
 10
-0.5135
 20
5.63798
 30
0.0
 10
-0.52073
 20
5.65853
 30
0.0
 10
-0.52073
 20
5.6849
 30
0.0
 10
-0.52073
 20
5.6849
 30
0.0
 10
-0.52073
 20
5.6849
 30
0.0
 10
-0.52073
 20
5.84965
 30
0.0
 10
-0.52073
 20
5.84965
 30
0.0
 10
-0.52073
 20
5.84965
 30
0.0
 10
-0.52073
 20
5.84965
 30
0.0
 10
-0.55583
 20
5.84965
 30
0.0
 10
-0.55583
 20
5.84965
 30
0.0
 10
-0.55583
 20
5.84965
 30
0.0
 10
-0.55583
 20
5.84965
 30
0.0
 10
-0.55583
 20
5.88775
 30
0.0
 10
-0.55583
 20
5.88775
 30
0.0
 10
-0.55583
 20
5.88775
 30
0.0
 10
-0.55583
 20
5.88775
 30
0.0
 10
-0.52073
 20
5.88775
 30
0.0
 10
-0.52073
 20
5.88775
 30
0.0
 10
-0.52073
 20
5.88775
 30
0.0
 10
-0.52073
 20
5.88775
 30
0.0
 10
-0.52073
 20
5.93846
 30
0.0
 10
-0.52073
 20
5.93846
 30
0.0
 10
-0.52073
 20
5.93846
 30
0.0
 10
-0.52073
 20
5.93846
 30
0.0
 10
-0.46993
 20
5.94331
 30
0.0
 10
-0.46993
 20
5.94331
 30
0.0
 10
-0.46993
 20
5.94331
 30
0.0
 10
-0.46993
 20
5.94331
 30
0.0
 10
-0.46993
 20
5.88775
 30
0.0
 10
-0.46993
 20
5.88775
 30
0.0
 10
-0.46993
 20
5.88775
 30
0.0
 10
-0.46993
 20
5.88775
 30
0.0
 10
-0.39638
 20
5.88775
 30
0.0
 10
-0.39638
 20
5.88775
 30
0.0
 10
-0.39638
 20
5.88775
 30
0.0
 10
-0.39638
 20
5.88775
 30
0.0
 10
-0.39638
 20
5.84965
 30
0.0
 10
-0.39638
 20
5.84965
 30
0.0
 10
-0.39638
 20
5.84965
 30
0.0
 10
-0.39638
 20
5.84965
 30
0.0
 10
-0.46993
 20
5.84965
 30
0.0
 10
-0.46993
 20
5.84965
 30
0.0
 10
-0.46993
 20
5.84965
 30
0.0
 10
-0.46993
 20
5.84965
 30
0.0
 10
-0.46993
 20
5.69407
 30
0.0
 10
-0.46993
 20
5.69407
 30
0.0
 10
-0.46993
 20
5.69407
 30
0.0
 10
-0.46993
 20
5.65738
 30
0.0
 10
-0.45397
 20
5.63904
 30
0.0
 10
-0.42213
 20
5.63904
 30
0.0
 10
-0.42213
 20
5.63904
 30
0.0
 10
-0.41534
 20
5.63904
 30
0.0
 10
-0.40714
 20
5.64019
 30
0.0
 10
-0.39744
 20
5.64239
 30
0.0
 10
-0.39744
 20
5.64239
 30
0.0
 10
-0.39744
 20
5.64239
 30
0.0
 10
-0.39744
 20
5.60738
 30
0.0
 10
-0.39744
 20
5.60738
 30
0.0
  0
SPLINE
  5
66
330
1F
100
AcDbEntity
  8
Layer 1
100
AcDbSpline
210
0.0
220
0.0
230
1.0
 70
    11
 71
     3
 72
    20
 73
    16
 74
     0
 42
0.0000000001
 43
0.0000000001
 12
1.0
 22
0.0
 32
0.0
 13
1.0
 23
0.0
 33
0.0
 40
0.0
 40
0.0
 40
0.0
 40
0.0
 40
0.2
 40
0.2
 40
0.2
 40
0.2
 40
0.4
 40
0.4
 40
0.4
 40
0.4
 40
0.6
 40
0.6
 40
0.6
 40
0.6
 40
1.0
 40
1.0
 40
1.0
 40
1.0
 10
-0.31859
 20
5.53056
 30
0.0
 10
-0.31859
 20
5.53056
 30
0.0
 10
-0.1825
 20
5.98988
 30
0.0
 10
-0.1825
 20
5.98988
 30
0.0
 10
-0.1825
 20
5.98988
 30
0.0
 10
-0.1825
 20
5.98988
 30
0.0
 10
-0.15561
 20
5.98988
 30
0.0
 10
-0.15561
 20
5.98988
 30
0.0
 10
-0.15561
 20
5.98988
 30
0.0
 10
-0.15561
 20
5.98988
 30
0.0
 10
-0.29169
 20
5.53056
 30
0.0
 10
-0.29169
 20
5.53056
 30
0.0
 10
-0.29169
 20
5.53056
 30
0.0
 10
-0.29169
 20
5.53056
 30
0.0
 10
-0.31859
 20
5.53056
 30
0.0
 10
-0.31859
 20
5.53056
 30
0.0
  0
SPLINE
  5
67
330
1F
100
AcDbEntity
  8
Layer 1
100
AcDbSpline
210
0.0
220
0.0
230
1.0
 70
    11
 71
     3
 72
    52
 73
    48
 74
     0
 42
0.0000000001
 43
0.0000000001
 12
1.0
 22
0.0
 32
0.0
 13
1.0
 23
0.0
 33
0.0
 40
0.0
 40
0.0
 40
0.0
 40
0.0
 40
0.0769230769230769
 40
0.0769230769230769
 40
0.0769230769230769
 40
0.0769230769230769
 40
0.1538461538461539
 40
0.1538461538461539
 40
0.1538461538461539
 40
0.1538461538461539
 40
0.2307692307692308
 40
0.2307692307692308
 40
0.2307692307692308
 40
0.2307692307692308
 40
0.3076923076923077
 40
0.3076923076923077
 40
0.3076923076923077
 40
0.3076923076923077
 40
0.3846153846153846
 40
0.3846153846153846
 40
0.3846153846153846
 40
0.3846153846153846
 40
0.4615384615384616
 40
0.4615384615384616
 40
0.4615384615384616
 40
0.4615384615384616
 40
0.5384615384615384
 40
0.5384615384615384
 40
0.5384615384615384
 40
0.5384615384615384
 40
0.6153846153846154
 40
0.6153846153846154
 40
0.6153846153846154
 40
0.6153846153846154
 40
0.6923076923076923
 40
0.6923076923076923
 40
0.6923076923076923
 40
0.6923076923076923
 40
0.7692307692307693
 40
0.7692307692307693
 40
0.7692307692307693
 40
0.7692307692307693
 40
0.8461538461538461
 40
0.8461538461538461
 40
0.8461538461538461
 40
0.8461538461538461
 40
1.0
 40
1.0
 40
1.0
 40
1.0
 10
0.15837
 20
5.61629
 30
0.0
 10
0.12424
 20
5.60606
 30
0.0
 10
0.09504
 20
5.60094
 30
0.0
 10
0.0707
 20
5.60094
 30
0.0
 10
0.0707
 20
5.60094
 30
0.0
 10
0.02916
 20
5.60094
 30
0.0
 10
-0.00462
 20
5.6147
 30
0.0
 10
-0.03063
 20
5.64213
 30
0.0
 10
-0.03063
 20
5.64213
 30
0.0
 10
-0.05665
 20
5.66956
 30
0.0
 10
-0.0697
 20
5.7051
 30
0.0
 10
-0.0697
 20
5.74884
 30
0.0
 10
-0.0697
 20
5.74884
 30
0.0
 10
-0.0697
 20
5.79126
 30
0.0
 10
-0.05824
 20
5.8261
 30
0.0
 10
-0.03522
 20
5.85335
 30
0.0
 10
-0.03522
 20
5.85335
 30
0.0
 10
-0.0122
 20
5.88052
 30
0.0
 10
0.01726
 20
5.8941
 30
0.0
 10
0.05315
 20
5.8941
 30
0.0
 10
0.05315
 20
5.8941
 30
0.0
 10
0.08711
 20
5.8941
 30
0.0
 10
0.11339
 20
5.88202
 30
0.0
 10
0.13191
 20
5.85785
 30
0.0
 10
0.13191
 20
5.85785
 30
0.0
 10
0.15043
 20
5.83369
 30
0.0
 10
0.15969
 20
5.79947
 30
0.0
 10
0.15969
 20
5.7551
 30
0.0
 10
0.15969
 20
5.7551
 30
0.0
 10
0.15969
 20
5.7551
 30
0.0
 10
0.15943
 20
5.73958
 30
0.0
 10
0.15943
 20
5.73958
 30
0.0
 10
0.15943
 20
5.73958
 30
0.0
 10
0.15943
 20
5.73958
 30
0.0
 10
-0.01785
 20
5.73958
 30
0.0
 10
-0.01785
 20
5.73958
 30
0.0
 10
-0.01785
 20
5.73958
 30
0.0
 10
-0.01044
 20
5.67255
 30
0.0
 10
0.02228
 20
5.63904
 30
0.0
 10
0.08023
 20
5.63904
 30
0.0
 10
0.08023
 20
5.63904
 30
0.0
 10
0.10148
 20
5.63904
 30
0.0
 10
0.1275
 20
5.64504
 30
0.0
 10
0.15837
 20
5.65703
 30
0.0
 10
0.15837
 20
5.65703
 30
0.0
 10
0.15837
 20
5.65703
 30
0.0
 10
0.15837
 20
5.61629
 30
0.0
 10
0.15837
 20
5.61629
 30
0.0
  0
SPLINE
  5
68
330
1F
100
AcDbEntity
  8
Layer 1
100
AcDbSpline
210
0.0
220
0.0
230
1.0
 70
    11
 71
     3
 72
    16
 73
    12
 74
     0
 42
0.0000000001
 43
0.0000000001
 12
1.0
 22
0.0
 32
0.0
 13
1.0
 23
0.0
 33
0.0
 40
0.0
 40
0.0
 40
0.0
 40
0.0
 40
0.25
 40
0.25
 40
0.25
 40
0.25
 40
0.5
 40
0.5
 40
0.5
 40
0.5
 40
1.0
 40
1.0
 40
1.0
 40
1.0
 10
-0.0152
 20
5.77768
 30
0.0
 10
-0.0152
 20
5.77768
 30
0.0
 10
0.10863
 20
5.77768
 30
0.0
 10
0.10863
 20
5.77768
 30
0.0
 10
0.10863
 20
5.77768
 30
0.0
 10
0.10863
 20
5.82989
 30
0.0
 10
0.08913
 20
5.856
 30
0.0
 10
0.05024
 20
5.856
 30
0.0
 10
0.05024
 20
5.856
 30
0.0
 10
0.01108
 20
5.856
 30
0.0
 10
-0.0107
 20
5.82989
 30
0.0
 10
-0.0152
 20
5.77768
 30
0.0
  0
SPLINE
  5
69
330
1F
100
AcDbEntity
  8
Layer 1
100
AcDbSpline
210
0.0
220
0.0
230
1.0
 70
    11
 71
     3
 72
    32
 73
    28
 74
     0
 42
0.0000000001
 43
0.0000000001
 12
1.0
 22
0.0
 32
0.0
 13
1.0
 23
0.0
 33
0.0
 40
0.0
 40
0.0
 40
0.0
 40
0.0
 40
0.125
 40
0.125
 40
0.125
 40
0.125
 40
0.25
 40
0.25
 40
0.25
 40
0.25
 40
0.375
 40
0.375
 40
0.375
 40
0.375
 40
0.5
 40
0.5
 40
0.5
 40
0.5
 40
0.625
 40
0.625
 40
0.625
 40
0.625
 40
0.75
 40
0.75
 40
0.75
 40
0.75
 40
1.0
 40
1.0
 40
1.0
 40
1.0
 10
0.30575
 20
5.60729
 30
0.0
 10
0.30575
 20
5.60729
 30
0.0
 10
0.20132
 20
5.88775
 30
0.0
 10
0.20132
 20
5.88775
 30
0.0
 10
0.20132
 20
5.88775
 30
0.0
 10
0.20132
 20
5.88775
 30
0.0
 10
0.25212
 20
5.88775
 30
0.0
 10
0.25212
 20
5.88775
 30
0.0
 10
0.25212
 20
5.88775
 30
0.0
 10
0.25212
 20
5.88775
 30
0.0
 10
0.33353
 20
5.66982
 30
0.0
 10
0.33353
 20
5.66982
 30
0.0
 10
0.33353
 20
5.66982
 30
0.0
 10
0.33353
 20
5.66982
 30
0.0
 10
0.41969
 20
5.88775
 30
0.0
 10
0.41969
 20
5.88775
 30
0.0
 10
0.41969
 20
5.88775
 30
0.0
 10
0.41969
 20
5.88775
 30
0.0
 10
0.4675
 20
5.88775
 30
0.0
 10
0.4675
 20
5.88775
 30
0.0
 10
0.4675
 20
5.88775
 30
0.0
 10
0.4675
 20
5.88775
 30
0.0
 10
0.35663
 20
5.60729
 30
0.0
 10
0.35663
 20
5.60729
 30
0.0
 10
0.35663
 20
5.60729
 30
0.0
 10
0.35663
 20
5.60729
 30
0.0
 10
0.30575
 20
5.60729
 30
0.0
 10
0.30575
 20
5.60729
 30
0.0
  0
SPLINE
  5
6A
330
1F
100
AcDbEntity
  8
Layer 1
100
AcDbSpline
210
0.0
220
0.0
230
1.0
 70
    11
 71
     3
 72
    36
 73
    32
 74
     0
 42
0.0000000001
 43
0.0000000001
 12
1.0
 22
0.0
 32
0.0
 13
1.0
 23
0.0
 33
0.0
 40
0.0
 40
0.0
 40
0.0
 40
0.0
 40
0.1111111111111111
 40
0.1111111111111111
 40
0.1111111111111111
 40
0.1111111111111111
 40
0.2222222222222222
 40
0.2222222222222222
 40
0.2222222222222222
 40
0.2222222222222222
 40
0.3333333333333333
 40
0.3333333333333333
 40
0.3333333333333333
 40
0.3333333333333333
 40
0.4444444444444444
 40
0.4444444444444444
 40
0.4444444444444444
 40
0.4444444444444444
 40
0.5555555555555556
 40
0.5555555555555556
 40
0.5555555555555556
 40
0.5555555555555556
 40
0.6666666666666666
 40
0.6666666666666666
 40
0.6666666666666666
 40
0.6666666666666666
 40
0.7777777777777778
 40
0.7777777777777778
 40
0.7777777777777778
 40
0.7777777777777778
 40
1.0
 40
1.0
 40
1.0
 40
1.0
 10
0.63287
 20
5.60094
 30
0.0
 10
0.59168
 20
5.60094
 30
0.0
 10
0.55905
 20
5.61408
 30
0.0
 10
0.53506
 20
5.64036
 30
0.0
 10
0.53506
 20
5.64036
 30
0.0
 10
0.51098
 20
5.66665
 30
0.0
 10
0.49899
 20
5.70236
 30
0.0
 10
0.49899
 20
5.74743
 30
0.0
 10
0.49899
 20
5.74743
 30
0.0
 10
0.49899
 20
5.79241
 30
0.0
 10
0.51098
 20
5.82804
 30
0.0
 10
0.53506
 20
5.85424
 30
0.0
 10
0.53506
 20
5.85424
 30
0.0
 10
0.55905
 20
5.88043
 30
0.0
 10
0.59168
 20
5.89357
 30
0.0
 10
0.63287
 20
5.89357
 30
0.0
 10
0.63287
 20
5.89357
 30
0.0
 10
0.67405
 20
5.89357
 30
0.0
 10
0.70668
 20
5.88043
 30
0.0
 10
0.73067
 20
5.85424
 30
0.0
 10
0.73067
 20
5.85424
 30
0.0
 10
0.75475
 20
5.82804
 30
0.0
 10
0.76675
 20
5.79241
 30
0.0
 10
0.76675
 20
5.74743
 30
0.0
 10
0.76675
 20
5.74743
 30
0.0
 10
0.76675
 20
5.70236
 30
0.0
 10
0.75475
 20
5.66665
 30
0.0
 10
0.73067
 20
5.64036
 30
0.0
 10
0.73067
 20
5.64036
 30
0.0
 10
0.70668
 20
5.61408
 30
0.0
 10
0.67405
 20
5.60094
 30
0.0
 10
0.63287
 20
5.60094
 30
0.0
  0
SPLINE
  5
6B
330
1F
100
AcDbEntity
  8
Layer 1
100
AcDbSpline
210
0.0
220
0.0
230
1.0
 70
    11
 71
     3
 72
    36
 73
    32
 74
     0
 42
0.0000000001
 43
0.0000000001
 12
1.0
 22
0.0
 32
0.0
 13
1.0
 23
0.0
 33
0.0
 40
0.0
 40
0.0
 40
0.0
 40
0.0
 40
0.1111111111111111
 40
0.1111111111111111
 40
0.1111111111111111
 40
0.1111111111111111
 40
0.2222222222222222
 40
0.2222222222222222
 40
0.2222222222222222
 40
0.2222222222222222
 40
0.3333333333333333
 40
0.3333333333333333
 40
0.3333333333333333
 40
0.3333333333333333
 40
0.4444444444444444
 40
0.4444444444444444
 40
0.4444444444444444
 40
0.4444444444444444
 40
0.5555555555555556
 40
0.5555555555555556
 40
0.5555555555555556
 40
0.5555555555555556
 40
0.6666666666666666
 40
0.6666666666666666
 40
0.6666666666666666
 40
0.6666666666666666
 40
0.7777777777777778
 40
0.7777777777777778
 40
0.7777777777777778
 40
0.7777777777777778
 40
1.0
 40
1.0
 40
1.0
 40
1.0
 10
0.63278
 20
5.63904
 30
0.0
 10
0.65791
 20
5.63904
 30
0.0
 10
0.67749
 20
5.64848
 30
0.0
 10
0.69143
 20
5.66744
 30
0.0
 10
0.69143
 20
5.66744
 30
0.0
 10
0.70527
 20
5.68631
 30
0.0
 10
0.71224
 20
5.71304
 30
0.0
 10
0.71224
 20
5.74743
 30
0.0
 10
0.71224
 20
5.74743
 30
0.0
 10
0.71224
 20
5.78174
 30
0.0
 10
0.70527
 20
5.80837
 30
0.0
 10
0.69143
 20
5.82725
 30
0.0
 10
0.69143
 20
5.82725
 30
0.0
 10
0.67749
 20
5.84603
 30
0.0
 10
0.65791
 20
5.85547
 30
0.0
 10
0.63278
 20
5.85547
 30
0.0
 10
0.63278
 20
5.85547
 30
0.0
 10
0.60755
 20
5.85547
 30
0.0
 10
0.58797
 20
5.84603
 30
0.0
 10
0.57422
 20
5.82725
 30
0.0
 10
0.57422
 20
5.82725
 30
0.0
 10
0.56037
 20
5.80837
 30
0.0
 10
0.55349
 20
5.78174
 30
0.0
 10
0.55349
 20
5.74743
 30
0.0
 10
0.55349
 20
5.74743
 30
0.0
 10
0.55349
 20
5.71304
 30
0.0
 10
0.56037
 20
5.68631
 30
0.0
 10
0.57422
 20
5.66744
 30
0.0
 10
0.57422
 20
5.66744
 30
0.0
 10
0.58797
 20
5.64848
 30
0.0
 10
0.60755
 20
5.63904
 30
0.0
 10
0.63278
 20
5.63904
 30
0.0
  0
SPLINE
  5
6C
330
1F
100
AcDbEntity
  8
Layer 1
100
AcDbSpline
210
0.0
220
0.0
230
1.0
 70
    11
 71
     3
 72
    48
 73
    44
 74
     0
 42
0.0000000001
 43
0.0000000001
 12
1.0
 22
0.0
 32
0.0
 13
1.0
 23
0.0
 33
0.0
 40
0.0
 40
0.0
 40
0.0
 40
0.0
 40
0.0833333333333333
 40
0.0833333333333333
 40
0.0833333333333333
 40
0.0833333333333333
 40
0.1666666666666667
 40
0.1666666666666667
 40
0.1666666666666667
 40
0.1666666666666667
 40
0.25
 40
0.25
 40
0.25
 40
0.25
 40
0.3333333333333333
 40
0.3333333333333333
 40
0.3333333333333333
 40
0.3333333333333333
 40
0.4166666666666667
 40
0.4166666666666667
 40
0.4166666666666667
 40
0.4166666666666667
 40
0.5
 40
0.5
 40
0.5
 40
0.5
 40
0.5833333333333334
 40
0.5833333333333334
 40
0.5833333333333334
 40
0.5833333333333334
 40
0.6666666666666666
 40
0.6666666666666666
 40
0.6666666666666666
 40
0.6666666666666666
 40
0.75
 40
0.75
 40
0.75
 40
0.75
 40
0.8333333333333334
 40
0.8333333333333334
 40
0.8333333333333334
 40
0.8333333333333334
 40
1.0
 40
1.0
 40
1.0
 40
1.0
 10
0.8463
 20
5.60729
 30
0.0
 10
0.8463
 20
5.60729
 30
0.0
 10
0.8463
 20
6.01528
 30
0.0
 10
0.8463
 20
6.01528
 30
0.0
 10
0.8463
 20
6.01528
 30
0.0
 10
0.8463
 20
6.01528
 30
0.0
 10
0.8971
 20
6.01528
 30
0.0
 10
0.8971
 20
6.01528
 30
0.0
 10
0.8971
 20
6.01528
 30
0.0
 10
0.8971
 20
6.01528
 30
0.0
 10
0.8971
 20
5.75167
 30
0.0
 10
0.8971
 20
5.75167
 30
0.0
 10
0.8971
 20
5.75167
 30
0.0
 10
0.8971
 20
5.75167
 30
0.0
 10
1.01616
 20
5.88775
 30
0.0
 10
1.01616
 20
5.88775
 30
0.0
 10
1.01616
 20
5.88775
 30
0.0
 10
1.01616
 20
5.88775
 30
0.0
 10
1.07102
 20
5.88775
 30
0.0
 10
1.07102
 20
5.88775
 30
0.0
 10
1.07102
 20
5.88775
 30
0.0
 10
1.07102
 20
5.88775
 30
0.0
 10
0.95725
 20
5.75687
 30
0.0
 10
0.95725
 20
5.75687
 30
0.0
 10
0.95725
 20
5.75687
 30
0.0
 10
0.95725
 20
5.75687
 30
0.0
 10
1.09483
 20
5.60729
 30
0.0
 10
1.09483
 20
5.60729
 30
0.0
 10
1.09483
 20
5.60729
 30
0.0
 10
1.09483
 20
5.60729
 30
0.0
 10
1.02939
 20
5.60729
 30
0.0
 10
1.02939
 20
5.60729
 30
0.0
 10
1.02939
 20
5.60729
 30
0.0
 10
1.02939
 20
5.60729
 30
0.0
 10
0.8971
 20
5.75114
 30
0.0
 10
0.8971
 20
5.75114
 30
0.0
 10
0.8971
 20
5.75114
 30
0.0
 10
0.8971
 20
5.75114
 30
0.0
 10
0.8971
 20
5.60729
 30
0.0
 10
0.8971
 20
5.60729
 30
0.0
 10
0.8971
 20
5.60729
 30
0.0
 10
0.8971
 20
5.60729
 30
0.0
 10
0.8463
 20
5.60729
 30
0.0
 10
0.8463
 20
5.60729
 30
0.0
  0
SPLINE
  5
6D
330
1F
100
AcDbEntity
  8
Layer 1
100
AcDbSpline
210
0.0
220
0.0
230
1.0
 70
    11
 71
     3
 72
    52
 73
    48
 74
     0
 42
0.0000000001
 43
0.0000000001
 12
1.0
 22
0.0
 32
0.0
 13
1.0
 23
0.0
 33
0.0
 40
0.0
 40
0.0
 40
0.0
 40
0.0
 40
0.0769230769230769
 40
0.0769230769230769
 40
0.0769230769230769
 40
0.0769230769230769
 40
0.1538461538461539
 40
0.1538461538461539
 40
0.1538461538461539
 40
0.1538461538461539
 40
0.2307692307692308
 40
0.2307692307692308
 40
0.2307692307692308
 40
0.2307692307692308
 40
0.3076923076923077
 40
0.3076923076923077
 40
0.3076923076923077
 40
0.3076923076923077
 40
0.3846153846153846
 40
0.3846153846153846
 40
0.3846153846153846
 40
0.3846153846153846
 40
0.4615384615384616
 40
0.4615384615384616
 40
0.4615384615384616
 40
0.4615384615384616
 40
0.5384615384615384
 40
0.5384615384615384
 40
0.5384615384615384
 40
0.5384615384615384
 40
0.6153846153846154
 40
0.6153846153846154
 40
0.6153846153846154
 40
0.6153846153846154
 40
0.6923076923076923
 40
0.6923076923076923
 40
0.6923076923076923
 40
0.6923076923076923
 40
0.7692307692307693
 40
0.7692307692307693
 40
0.7692307692307693
 40
0.7692307692307693
 40
0.8461538461538461
 40
0.8461538461538461
 40
0.8461538461538461
 40
0.8461538461538461
 40
1.0
 40
1.0
 40
1.0
 40
1.0
 10
1.36145
 20
5.61629
 30
0.0
 10
1.32732
 20
5.60606
 30
0.0
 10
1.29812
 20
5.60094
 30
0.0
 10
1.27378
 20
5.60094
 30
0.0
 10
1.27378
 20
5.60094
 30
0.0
 10
1.23224
 20
5.60094
 30
0.0
 10
1.19846
 20
5.6147
 30
0.0
 10
1.17245
 20
5.64213
 30
0.0
 10
1.17245
 20
5.64213
 30
0.0
 10
1.14643
 20
5.66956
 30
0.0
 10
1.13338
 20
5.7051
 30
0.0
 10
1.13338
 20
5.74884
 30
0.0
 10
1.13338
 20
5.74884
 30
0.0
 10
1.13338
 20
5.79126
 30
0.0
 10
1.14484
 20
5.8261
 30
0.0
 10
1.16786
 20
5.85335
 30
0.0
 10
1.16786
 20
5.85335
 30
0.0
 10
1.19088
 20
5.88052
 30
0.0
 10
1.22034
 20
5.8941
 30
0.0
 10
1.25623
 20
5.8941
 30
0.0
 10
1.25623
 20
5.8941
 30
0.0
 10
1.29019
 20
5.8941
 30
0.0
 10
1.31647
 20
5.88202
 30
0.0
 10
1.33499
 20
5.85785
 30
0.0
 10
1.33499
 20
5.85785
 30
0.0
 10
1.35351
 20
5.83369
 30
0.0
 10
1.36277
 20
5.79947
 30
0.0
 10
1.36277
 20
5.7551
 30
0.0
 10
1.36277
 20
5.7551
 30
0.0
 10
1.36277
 20
5.7551
 30
0.0
 10
1.36251
 20
5.73958
 30
0.0
 10
1.36251
 20
5.73958
 30
0.0
 10
1.36251
 20
5.73958
 30
0.0
 10
1.36251
 20
5.73958
 30
0.0
 10
1.18523
 20
5.73958
 30
0.0
 10
1.18523
 20
5.73958
 30
0.0
 10
1.18523
 20
5.73958
 30
0.0
 10
1.19264
 20
5.67255
 30
0.0
 10
1.22536
 20
5.63904
 30
0.0
 10
1.28331
 20
5.63904
 30
0.0
 10
1.28331
 20
5.63904
 30
0.0
 10
1.30456
 20
5.63904
 30
0.0
 10
1.33058
 20
5.64504
 30
0.0
 10
1.36145
 20
5.65703
 30
0.0
 10
1.36145
 20
5.65703
 30
0.0
 10
1.36145
 20
5.65703
 30
0.0
 10
1.36145
 20
5.61629
 30
0.0
 10
1.36145
 20
5.61629
 30
0.0
  0
SPLINE
  5
6E
330
1F
100
AcDbEntity
  8
Layer 1
100
AcDbSpline
210
0.0
220
0.0
230
1.0
 70
    11
 71
     3
 72
    16
 73
    12
 74
     0
 42
0.0000000001
 43
0.0000000001
 12
1.0
 22
0.0
 32
0.0
 13
1.0
 23
0.0
 33
0.0
 40
0.0
 40
0.0
 40
0.0
 40
0.0
 40
0.25
 40
0.25
 40
0.25
 40
0.25
 40
0.5
 40
0.5
 40
0.5
 40
0.5
 40
1.0
 40
1.0
 40
1.0
 40
1.0
 10
1.18788
 20
5.77768
 30
0.0
 10
1.18788
 20
5.77768
 30
0.0
 10
1.31171
 20
5.77768
 30
0.0
 10
1.31171
 20
5.77768
 30
0.0
 10
1.31171
 20
5.77768
 30
0.0
 10
1.31171
 20
5.82989
 30
0.0
 10
1.29221
 20
5.856
 30
0.0
 10
1.25332
 20
5.856
 30
0.0
 10
1.25332
 20
5.856
 30
0.0
 10
1.21416
 20
5.856
 30
0.0
 10
1.19238
 20
5.82989
 30
0.0
 10
1.18788
 20
5.77768
 30
0.0
  0
SPLINE
  5
6F
330
1F
100
AcDbEntity
  8
Layer 1
100
AcDbSpline
210
0.0
220
0.0
230
1.0
 70
    11
 71
     3
 72
    20
 73
    16
 74
     0
 42
0.0000000001
 43
0.0000000001
 12
1.0
 22
0.0
 32
0.0
 13
1.0
 23
0.0
 33
0.0
 40
0.0
 40
0.0
 40
0.0
 40
0.0
 40
0.2
 40
0.2
 40
0.2
 40
0.2
 40
0.4
 40
0.4
 40
0.4
 40
0.4
 40
0.6
 40
0.6
 40
0.6
 40
0.6
 40
1.0
 40
1.0
 40
1.0
 40
1.0
 10
1.42187
 20
5.56919
 30
0.0
 10
1.42187
 20
5.56919
 30
0.0
 10
1.42187
 20
5.60729
 30
0.0
 10
1.42187
 20
5.60729
 30
0.0
 10
1.42187
 20
5.60729
 30
0.0
 10
1.42187
 20
5.60729
 30
0.0
 10
1.642
 20
5.60729
 30
0.0
 10
1.642
 20
5.60729
 30
0.0
 10
1.642
 20
5.60729
 30
0.0
 10
1.642
 20
5.60729
 30
0.0
 10
1.642
 20
5.56919
 30
0.0
 10
1.642
 20
5.56919
 30
0.0
 10
1.642
 20
5.56919
 30
0.0
 10
1.642
 20
5.56919
 30
0.0
 10
1.42187
 20
5.56919
 30
0.0
 10
1.42187
 20
5.56919
 30
0.0
  0
SPLINE
  5
70
330
1F
100
AcDbEntity
  8
Layer 1
100
AcDbSpline
210
0.0
220
0.0
230
1.0
 70
    11
 71
     3
 72
    60
 73
    56
 74
     0
 42
0.0000000001
 43
0.0000000001
 12
1.0
 22
0.0
 32
0.0
 13
1.0
 23
0.0
 33
0.0
 40
0.0
 40
0.0
 40
0.0
 40
0.0
 40
0.0666666666666667
 40
0.0666666666666667
 40
0.0666666666666667
 40
0.0666666666666667
 40
0.1333333333333333
 40
0.1333333333333333
 40
0.1333333333333333
 40
0.1333333333333333
 40
0.2
 40
0.2
 40
0.2
 40
0.2
 40
0.2666666666666667
 40
0.2666666666666667
 40
0.2666666666666667
 40
0.2666666666666667
 40
0.3333333333333333
 40
0.3333333333333333
 40
0.3333333333333333
 40
0.3333333333333333
 40
0.4
 40
0.4
 40
0.4
 40
0.4
 40
0.4666666666666667
 40
0.4666666666666667
 40
0.4666666666666667
 40
0.4666666666666667
 40
0.5333333333333333
 40
0.5333333333333333
 40
0.5333333333333333
 40
0.5333333333333333
 40
0.6
 40
0.6
 40
0.6
 40
0.6
 40
0.6666666666666666
 40
0.6666666666666666
 40
0.6666666666666666
 40
0.6666666666666666
 40
0.7333333333333333
 40
0.7333333333333333
 40
0.7333333333333333
 40
0.7333333333333333
 40
0.8
 40
0.8
 40
0.8
 40
0.8
 40
0.8666666666666667
 40
0.8666666666666667
 40
0.8666666666666667
 40
0.8666666666666667
 40
1.0
 40
1.0
 40
1.0
 40
1.0
 10
1.71503
 20
5.60729
 30
0.0
 10
1.71503
 20
5.60729
 30
0.0
 10
1.71503
 20
6.01528
 30
0.0
 10
1.71503
 20
6.01528
 30
0.0
 10
1.71503
 20
6.01528
 30
0.0
 10
1.71503
 20
6.01528
 30
0.0
 10
1.76583
 20
6.01528
 30
0.0
 10
1.76583
 20
6.01528
 30
0.0
 10
1.76583
 20
6.01528
 30
0.0
 10
1.76583
 20
6.01528
 30
0.0
 10
1.76583
 20
5.83474
 30
0.0
 10
1.76583
 20
5.83474
 30
0.0
 10
1.76583
 20
5.83474
 30
0.0
 10
1.79273
 20
5.87399
 30
0.0
 10
1.82572
 20
5.89357
 30
0.0
 10
1.8647
 20
5.89357
 30
0.0
 10
1.8647
 20
5.89357
 30
0.0
 10
1.88922
 20
5.89357
 30
0.0
 10
1.90871
 20
5.8859
 30
0.0
 10
1.92308
 20
5.87046
 30
0.0
 10
1.92308
 20
5.87046
 30
0.0
 10
1.93746
 20
5.85512
 30
0.0
 10
1.94469
 20
5.83439
 30
0.0
 10
1.94469
 20
5.80846
 30
0.0
 10
1.94469
 20
5.80846
 30
0.0
 10
1.94469
 20
5.80846
 30
0.0
 10
1.94469
 20
5.60729
 30
0.0
 10
1.94469
 20
5.60729
 30
0.0
 10
1.94469
 20
5.60729
 30
0.0
 10
1.94469
 20
5.60729
 30
0.0
 10
1.89389
 20
5.60729
 30
0.0
 10
1.89389
 20
5.60729
 30
0.0
 10
1.89389
 20
5.60729
 30
0.0
 10
1.89389
 20
5.60729
 30
0.0
 10
1.89389
 20
5.79188
 30
0.0
 10
1.89389
 20
5.79188
 30
0.0
 10
1.89389
 20
5.79188
 30
0.0
 10
1.89389
 20
5.8127
 30
0.0
 10
1.8908
 20
5.82751
 30
0.0
 10
1.88472
 20
5.83633
 30
0.0
 10
1.88472
 20
5.83633
 30
0.0
 10
1.87854
 20
5.84524
 30
0.0
 10
1.8684
 20
5.84965
 30
0.0
 10
1.8542
 20
5.84965
 30
0.0
 10
1.8542
 20
5.84965
 30
0.0
 10
1.82298
 20
5.84965
 30
0.0
 10
1.79352
 20
5.82928
 30
0.0
 10
1.76583
 20
5.78853
 30
0.0
 10
1.76583
 20
5.78853
 30
0.0
 10
1.76583
 20
5.78853
 30
0.0
 10
1.76583
 20
5.60729
 30
0.0
 10
1.76583
 20
5.60729
 30
0.0
 10
1.76583
 20
5.60729
 30
0.0
 10
1.76583
 20
5.60729
 30
0.0
 10
1.71503
 20
5.60729
 30
0.0
 10
1.71503
 20
5.60729
 30
0.0
  0
SPLINE
  5
71
330
1F
100
AcDbEntity
  8
Layer 1
100
AcDbSpline
210
0.0
220
0.0
230
1.0
 70
    11
 71
     3
 72
    80
 73
    76
 74
     0
 42
0.0000000001
 43
0.0000000001
 12
1.0
 22
0.0
 32
0.0
 13
1.0
 23
0.0
 33
0.0
 40
0.0
 40
0.0
 40
0.0
 40
0.0
 40
0.05
 40
0.05
 40
0.05
 40
0.05
 40
0.1
 40
0.1
 40
0.1
 40
0.1
 40
0.15
 40
0.15
 40
0.15
 40
0.15
 40
0.2
 40
0.2
 40
0.2
 40
0.2
 40
0.25
 40
0.25
 40
0.25
 40
0.25
 40
0.3
 40
0.3
 40
0.3
 40
0.3
 40
0.35
 40
0.35
 40
0.35
 40
0.35
 40
0.4
 40
0.4
 40
0.4
 40
0.4
 40
0.45
 40
0.45
 40
0.45
 40
0.45
 40
0.5
 40
0.5
 40
0.5
 40
0.5
 40
0.55
 40
0.55
 40
0.55
 40
0.55
 40
0.6
 40
0.6
 40
0.6
 40
0.6
 40
0.65
 40
0.65
 40
0.65
 40
0.65
 40
0.7
 40
0.7
 40
0.7
 40
0.7
 40
0.75
 40
0.75
 40
0.75
 40
0.75
 40
0.8
 40
0.8
 40
0.8
 40
0.8
 40
0.85
 40
0.85
 40
0.85
 40
0.85
 40
0.9
 40
0.9
 40
0.9
 40
0.9
 40
1.0
 40
1.0
 40
1.0
 40
1.0
 10
2.18802
 20
5.64301
 30
0.0
 10
2.15751
 20
5.61496
 30
0.0
 10
2.12814
 20
5.60094
 30
0.0
 10
2.09992
 20
5.60094
 30
0.0
 10
2.09992
 20
5.60094
 30
0.0
 10
2.07672
 20
5.60094
 30
0.0
 10
2.05741
 20
5.60817
 30
0.0
 10
2.04215
 20
5.62272
 30
0.0
 10
2.04215
 20
5.62272
 30
0.0
 10
2.0268
 20
5.63728
 30
0.0
 10
2.01913
 20
5.65562
 30
0.0
 10
2.01913
 20
5.67776
 30
0.0
 10
2.01913
 20
5.67776
 30
0.0
 10
2.01913
 20
5.70836
 30
0.0
 10
2.032
 20
5.73191
 30
0.0
 10
2.05776
 20
5.74831
 30
0.0
 10
2.05776
 20
5.74831
 30
0.0
 10
2.08351
 20
5.76472
 30
0.0
 10
2.12046
 20
5.77292
 30
0.0
 10
2.16862
 20
5.77292
 30
0.0
 10
2.16862
 20
5.77292
 30
0.0
 10
2.16862
 20
5.77292
 30
0.0
 10
2.18053
 20
5.77292
 30
0.0
 10
2.18053
 20
5.77292
 30
0.0
 10
2.18053
 20
5.77292
 30
0.0
 10
2.18053
 20
5.77292
 30
0.0
 10
2.18053
 20
5.8067
 30
0.0
 10
2.18053
 20
5.8067
 30
0.0
 10
2.18053
 20
5.8067
 30
0.0
 10
2.18053
 20
5.83924
 30
0.0
 10
2.16359
 20
5.85547
 30
0.0
 10
2.12964
 20
5.85547
 30
0.0
 10
2.12964
 20
5.85547
 30
0.0
 10
2.10335
 20
5.85547
 30
0.0
 10
2.0746
 20
5.84718
 30
0.0
 10
2.04347
 20
5.8306
 30
0.0
 10
2.04347
 20
5.8306
 30
0.0
 10
2.04347
 20
5.8306
 30
0.0
 10
2.04347
 20
5.8724
 30
0.0
 10
2.04347
 20
5.8724
 30
0.0
 10
2.04347
 20
5.8724
 30
0.0
 10
2.07769
 20
5.88652
 30
0.0
 10
2.10997
 20
5.89357
 30
0.0
 10
2.14022
 20
5.89357
 30
0.0
 10
2.14022
 20
5.89357
 30
0.0
 10
2.17135
 20
5.89357
 30
0.0
 10
2.19437
 20
5.88652
 30
0.0
 10
2.2091
 20
5.87232
 30
0.0
 10
2.2091
 20
5.87232
 30
0.0
 10
2.22392
 20
5.85812
 30
0.0
 10
2.23133
 20
5.83624
 30
0.0
 10
2.23133
 20
5.8067
 30
0.0
 10
2.23133
 20
5.8067
 30
0.0
 10
2.23133
 20
5.8067
 30
0.0
 10
2.23133
 20
5.67996
 30
0.0
 10
2.23133
 20
5.67996
 30
0.0
 10
2.23133
 20
5.67996
 30
0.0
 10
2.23133
 20
5.65095
 30
0.0
 10
2.24023
 20
5.63639
 30
0.0
 10
2.25814
 20
5.63639
 30
0.0
 10
2.25814
 20
5.63639
 30
0.0
 10
2.26034
 20
5.63639
 30
0.0
 10
2.26361
 20
5.63675
 30
0.0
 10
2.26793
 20
5.63745
 30
0.0
 10
2.26793
 20
5.63745
 30
0.0
 10
2.26793
 20
5.63745
 30
0.0
 10
2.27154
 20
5.60923
 30
0.0
 10
2.27154
 20
5.60923
 30
0.0
 10
2.27154
 20
5.60923
 30
0.0
 10
2.25999
 20
5.60367
 30
0.0
 10
2.24729
 20
5.60094
 30
0.0
 10
2.23335
 20
5.60094
 30
0.0
 10
2.23335
 20
5.60094
 30
0.0
 10
2.20963
 20
5.60094
 30
0.0
 10
2.19455
 20
5.61496
 30
0.0
 10
2.18802
 20
5.64301
 30
0.0
  0
SPLINE
  5
72
330
1F
100
AcDbEntity
  8
Layer 1
100
AcDbSpline
210
0.0
220
0.0
230
1.0
 70
    11
 71
     3
 72
    32
 73
    28
 74
     0
 42
0.0000000001
 43
0.0000000001
 12
1.0
 22
0.0
 32
0.0
 13
1.0
 23
0.0
 33
0.0
 40
0.0
 40
0.0
 40
0.0
 40
0.0
 40
0.125
 40
0.125
 40
0.125
 40
0.125
 40
0.25
 40
0.25
 40
0.25
 40
0.25
 40
0.375
 40
0.375
 40
0.375
 40
0.375
 40
0.5
 40
0.5
 40
0.5
 40
0.5
 40
0.625
 40
0.625
 40
0.625
 40
0.625
 40
0.75
 40
0.75
 40
0.75
 40
0.75
 40
1.0
 40
1.0
 40
1.0
 40
1.0
 10
2.18053
 20
5.6707
 30
0.0
 10
2.18053
 20
5.6707
 30
0.0
 10
2.18053
 20
5.74276
 30
0.0
 10
2.18053
 20
5.74276
 30
0.0
 10
2.18053
 20
5.74276
 30
0.0
 10
2.18053
 20
5.74276
 30
0.0
 10
2.16421
 20
5.74329
 30
0.0
 10
2.16421
 20
5.74329
 30
0.0
 10
2.16421
 20
5.74329
 30
0.0
 10
2.13599
 20
5.74329
 30
0.0
 10
2.11323
 20
5.73808
 30
0.0
 10
2.09586
 20
5.72768
 30
0.0
 10
2.09586
 20
5.72768
 30
0.0
 10
2.07857
 20
5.71718
 30
0.0
 10
2.06993
 20
5.70333
 30
0.0
 10
2.06993
 20
5.68605
 30
0.0
 10
2.06993
 20
5.68605
 30
0.0
 10
2.06993
 20
5.67397
 30
0.0
 10
2.07425
 20
5.66373
 30
0.0
 10
2.08281
 20
5.65536
 30
0.0
 10
2.08281
 20
5.65536
 30
0.0
 10
2.09145
 20
5.64698
 30
0.0
 10
2.10194
 20
5.64274
 30
0.0
 10
2.11438
 20
5.64274
 30
0.0
 10
2.11438
 20
5.64274
 30
0.0
 10
2.13555
 20
5.64274
 30
0.0
 10
2.15759
 20
5.65209
 30
0.0
 10
2.18053
 20
5.6707
 30
0.0
  0
SPLINE
  5
73
330
1F
100
AcDbEntity
  8
Layer 1
100
AcDbSpline
210
0.0
220
0.0
230
1.0
 70
    11
 71
     3
 72
    84
 73
    80
 74
     0
 42
0.0000000001
 43
0.0000000001
 12
1.0
 22
0.0
 32
0.0
 13
1.0
 23
0.0
 33
0.0
 40
0.0
 40
0.0
 40
0.0
 40
0.0
 40
0.0476190476190476
 40
0.0476190476190476
 40
0.0476190476190476
 40
0.0476190476190476
 40
0.0952380952380952
 40
0.0952380952380952
 40
0.0952380952380952
 40
0.0952380952380952
 40
0.1428571428571428
 40
0.1428571428571428
 40
0.1428571428571428
 40
0.1428571428571428
 40
0.1904761904761905
 40
0.1904761904761905
 40
0.1904761904761905
 40
0.1904761904761905
 40
0.2380952380952381
 40
0.2380952380952381
 40
0.2380952380952381
 40
0.2380952380952381
 40
0.2857142857142857
 40
0.2857142857142857
 40
0.2857142857142857
 40
0.2857142857142857
 40
0.3333333333333333
 40
0.3333333333333333
 40
0.3333333333333333
 40
0.3333333333333333
 40
0.3809523809523809
 40
0.3809523809523809
 40
0.3809523809523809
 40
0.3809523809523809
 40
0.4285714285714285
 40
0.4285714285714285
 40
0.4285714285714285
 40
0.4285714285714285
 40
0.4761904761904762
 40
0.4761904761904762
 40
0.4761904761904762
 40
0.4761904761904762
 40
0.5238095238095238
 40
0.5238095238095238
 40
0.5238095238095238
 40
0.5238095238095238
 40
0.5714285714285714
 40
0.5714285714285714
 40
0.5714285714285714
 40
0.5714285714285714
 40
0.6190476190476191
 40
0.6190476190476191
 40
0.6190476190476191
 40
0.6190476190476191
 40
0.6666666666666666
 40
0.6666666666666666
 40
0.6666666666666666
 40
0.6666666666666666
 40
0.7142857142857143
 40
0.7142857142857143
 40
0.7142857142857143
 40
0.7142857142857143
 40
0.7619047619047619
 40
0.7619047619047619
 40
0.7619047619047619
 40
0.7619047619047619
 40
0.8095238095238095
 40
0.8095238095238095
 40
0.8095238095238095
 40
0.8095238095238095
 40
0.8571428571428571
 40
0.8571428571428571
 40
0.8571428571428571
 40
0.8571428571428571
 40
0.9047619047619048
 40
0.9047619047619048
 40
0.9047619047619048
 40
0.9047619047619048
 40
1.0
 40
1.0
 40
1.0
 40
1.0
 10
2.33566
 20
5.60729
 30
0.0
 10
2.33566
 20
5.60729
 30
0.0
 10
2.33566
 20
5.88775
 30
0.0
 10
2.33566
 20
5.88775
 30
0.0
 10
2.33566
 20
5.88775
 30
0.0
 10
2.33566
 20
5.88775
 30
0.0
 10
2.38646
 20
5.88775
 30
0.0
 10
2.38646
 20
5.88775
 30
0.0
 10
2.38646
 20
5.88775
 30
0.0
 10
2.38646
 20
5.88775
 30
0.0
 10
2.38646
 20
5.83474
 30
0.0
 10
2.38646
 20
5.83474
 30
0.0
 10
2.38646
 20
5.83474
 30
0.0
 10
2.41124
 20
5.87399
 30
0.0
 10
2.44299
 20
5.89357
 30
0.0
 10
2.48189
 20
5.89357
 30
0.0
 10
2.48189
 20
5.89357
 30
0.0
 10
2.51937
 20
5.89357
 30
0.0
 10
2.54486
 20
5.87399
 30
0.0
 10
2.55844
 20
5.83474
 30
0.0
 10
2.55844
 20
5.83474
 30
0.0
 10
2.58252
 20
5.87434
 30
0.0
 10
2.61392
 20
5.8941
 30
0.0
 10
2.65246
 20
5.8941
 30
0.0
 10
2.65246
 20
5.8941
 30
0.0
 10
2.67706
 20
5.8941
 30
0.0
 10
2.6962
 20
5.88687
 30
0.0
 10
2.70987
 20
5.87232
 30
0.0
 10
2.70987
 20
5.87232
 30
0.0
 10
2.72354
 20
5.85776
 30
0.0
 10
2.73042
 20
5.83739
 30
0.0
 10
2.73042
 20
5.8112
 30
0.0
 10
2.73042
 20
5.8112
 30
0.0
 10
2.73042
 20
5.8112
 30
0.0
 10
2.73042
 20
5.60729
 30
0.0
 10
2.73042
 20
5.60729
 30
0.0
 10
2.73042
 20
5.60729
 30
0.0
 10
2.73042
 20
5.60729
 30
0.0
 10
2.67962
 20
5.60729
 30
0.0
 10
2.67962
 20
5.60729
 30
0.0
 10
2.67962
 20
5.60729
 30
0.0
 10
2.67962
 20
5.60729
 30
0.0
 10
2.67962
 20
5.80282
 30
0.0
 10
2.67962
 20
5.80282
 30
0.0
 10
2.67962
 20
5.80282
 30
0.0
 10
2.67962
 20
5.83474
 30
0.0
 10
2.66692
 20
5.85071
 30
0.0
 10
2.64152
 20
5.85071
 30
0.0
 10
2.64152
 20
5.85071
 30
0.0
 10
2.61515
 20
5.85071
 30
0.0
 10
2.58746
 20
5.8321
 30
0.0
 10
2.55844
 20
5.79479
 30
0.0
 10
2.55844
 20
5.79479
 30
0.0
 10
2.55844
 20
5.79479
 30
0.0
 10
2.55844
 20
5.60729
 30
0.0
 10
2.55844
 20
5.60729
 30
0.0
 10
2.55844
 20
5.60729
 30
0.0
 10
2.55844
 20
5.60729
 30
0.0
 10
2.50764
 20
5.60729
 30
0.0
 10
2.50764
 20
5.60729
 30
0.0
 10
2.50764
 20
5.60729
 30
0.0
 10
2.50764
 20
5.60729
 30
0.0
 10
2.50764
 20
5.80299
 30
0.0
 10
2.50764
 20
5.80299
 30
0.0
 10
2.50764
 20
5.80299
 30
0.0
 10
2.50764
 20
5.83519
 30
0.0
 10
2.49476
 20
5.85124
 30
0.0
 10
2.46892
 20
5.85124
 30
0.0
 10
2.46892
 20
5.85124
 30
0.0
 10
2.44326
 20
5.85124
 30
0.0
 10
2.41574
 20
5.83254
 30
0.0
 10
2.38646
 20
5.79506
 30
0.0
 10
2.38646
 20
5.79506
 30
0.0
 10
2.38646
 20
5.79506
 30
0.0
 10
2.38646
 20
5.60729
 30
0.0
 10
2.38646
 20
5.60729
 30
0.0
 10
2.38646
 20
5.60729
 30
0.0
 10
2.38646
 20
5.60729
 30
0.0
 10
2.33566
 20
5.60729
 30
0.0
 10
2.33566
 20
5.60729
 30
0.0
  0
SPLINE
  5
74
330
1F
100
AcDbEntity
  8
Layer 1
100
AcDbSpline
210
0.0
220
0.0
230
1.0
 70
    11
 71
     3
 72
    84
 73
    80
 74
     0
 42
0.0000000001
 43
0.0000000001
 12
1.0
 22
0.0
 32
0.0
 13
1.0
 23
0.0
 33
0.0
 40
0.0
 40
0.0
 40
0.0
 40
0.0
 40
0.0476190476190476
 40
0.0476190476190476
 40
0.0476190476190476
 40
0.0476190476190476
 40
0.0952380952380952
 40
0.0952380952380952
 40
0.0952380952380952
 40
0.0952380952380952
 40
0.1428571428571428
 40
0.1428571428571428
 40
0.1428571428571428
 40
0.1428571428571428
 40
0.1904761904761905
 40
0.1904761904761905
 40
0.1904761904761905
 40
0.1904761904761905
 40
0.2380952380952381
 40
0.2380952380952381
 40
0.2380952380952381
 40
0.2380952380952381
 40
0.2857142857142857
 40
0.2857142857142857
 40
0.2857142857142857
 40
0.2857142857142857
 40
0.3333333333333333
 40
0.3333333333333333
 40
0.3333333333333333
 40
0.3333333333333333
 40
0.3809523809523809
 40
0.3809523809523809
 40
0.3809523809523809
 40
0.3809523809523809
 40
0.4285714285714285
 40
0.4285714285714285
 40
0.4285714285714285
 40
0.4285714285714285
 40
0.4761904761904762
 40
0.4761904761904762
 40
0.4761904761904762
 40
0.4761904761904762
 40
0.5238095238095238
 40
0.5238095238095238
 40
0.5238095238095238
 40
0.5238095238095238
 40
0.5714285714285714
 40
0.5714285714285714
 40
0.5714285714285714
 40
0.5714285714285714
 40
0.6190476190476191
 40
0.6190476190476191
 40
0.6190476190476191
 40
0.6190476190476191
 40
0.6666666666666666
 40
0.6666666666666666
 40
0.6666666666666666
 40
0.6666666666666666
 40
0.7142857142857143
 40
0.7142857142857143
 40
0.7142857142857143
 40
0.7142857142857143
 40
0.7619047619047619
 40
0.7619047619047619
 40
0.7619047619047619
 40
0.7619047619047619
 40
0.8095238095238095
 40
0.8095238095238095
 40
0.8095238095238095
 40
0.8095238095238095
 40
0.8571428571428571
 40
0.8571428571428571
 40
0.8571428571428571
 40
0.8571428571428571
 40
0.9047619047619048
 40
0.9047619047619048
 40
0.9047619047619048
 40
0.9047619047619048
 40
1.0
 40
1.0
 40
1.0
 40
1.0
 10
2.82973
 20
5.60729
 30
0.0
 10
2.82973
 20
5.60729
 30
0.0
 10
2.82973
 20
5.88775
 30
0.0
 10
2.82973
 20
5.88775
 30
0.0
 10
2.82973
 20
5.88775
 30
0.0
 10
2.82973
 20
5.88775
 30
0.0
 10
2.88053
 20
5.88775
 30
0.0
 10
2.88053
 20
5.88775
 30
0.0
 10
2.88053
 20
5.88775
 30
0.0
 10
2.88053
 20
5.88775
 30
0.0
 10
2.88053
 20
5.83474
 30
0.0
 10
2.88053
 20
5.83474
 30
0.0
 10
2.88053
 20
5.83474
 30
0.0
 10
2.90531
 20
5.87399
 30
0.0
 10
2.93706
 20
5.89357
 30
0.0
 10
2.97596
 20
5.89357
 30
0.0
 10
2.97596
 20
5.89357
 30
0.0
 10
3.01344
 20
5.89357
 30
0.0
 10
3.03893
 20
5.87399
 30
0.0
 10
3.05251
 20
5.83474
 30
0.0
 10
3.05251
 20
5.83474
 30
0.0
 10
3.07659
 20
5.87434
 30
0.0
 10
3.10799
 20
5.8941
 30
0.0
 10
3.14653
 20
5.8941
 30
0.0
 10
3.14653
 20
5.8941
 30
0.0
 10
3.17113
 20
5.8941
 30
0.0
 10
3.19027
 20
5.88687
 30
0.0
 10
3.20394
 20
5.87232
 30
0.0
 10
3.20394
 20
5.87232
 30
0.0
 10
3.21761
 20
5.85776
 30
0.0
 10
3.22449
 20
5.83739
 30
0.0
 10
3.22449
 20
5.8112
 30
0.0
 10
3.22449
 20
5.8112
 30
0.0
 10
3.22449
 20
5.8112
 30
0.0
 10
3.22449
 20
5.60729
 30
0.0
 10
3.22449
 20
5.60729
 30
0.0
 10
3.22449
 20
5.60729
 30
0.0
 10
3.22449
 20
5.60729
 30
0.0
 10
3.17369
 20
5.60729
 30
0.0
 10
3.17369
 20
5.60729
 30
0.0
 10
3.17369
 20
5.60729
 30
0.0
 10
3.17369
 20
5.60729
 30
0.0
 10
3.17369
 20
5.80282
 30
0.0
 10
3.17369
 20
5.80282
 30
0.0
 10
3.17369
 20
5.80282
 30
0.0
 10
3.17369
 20
5.83474
 30
0.0
 10
3.16099
 20
5.85071
 30
0.0
 10
3.13559
 20
5.85071
 30
0.0
 10
3.13559
 20
5.85071
 30
0.0
 10
3.10922
 20
5.85071
 30
0.0
 10
3.08153
 20
5.8321
 30
0.0
 10
3.05251
 20
5.79479
 30
0.0
 10
3.05251
 20
5.79479
 30
0.0
 10
3.05251
 20
5.79479
 30
0.0
 10
3.05251
 20
5.60729
 30
0.0
 10
3.05251
 20
5.60729
 30
0.0
 10
3.05251
 20
5.60729
 30
0.0
 10
3.05251
 20
5.60729
 30
0.0
 10
3.00171
 20
5.60729
 30
0.0
 10
3.00171
 20
5.60729
 30
0.0
 10
3.00171
 20
5.60729
 30
0.0
 10
3.00171
 20
5.60729
 30
0.0
 10
3.00171
 20
5.80299
 30
0.0
 10
3.00171
 20
5.80299
 30
0.0
 10
3.00171
 20
5.80299
 30
0.0
 10
3.00171
 20
5.83519
 30
0.0
 10
2.98883
 20
5.85124
 30
0.0
 10
2.96299
 20
5.85124
 30
0.0
 10
2.96299
 20
5.85124
 30
0.0
 10
2.93733
 20
5.85124
 30
0.0
 10
2.90981
 20
5.83254
 30
0.0
 10
2.88053
 20
5.79506
 30
0.0
 10
2.88053
 20
5.79506
 30
0.0
 10
2.88053
 20
5.79506
 30
0.0
 10
2.88053
 20
5.60729
 30
0.0
 10
2.88053
 20
5.60729
 30
0.0
 10
2.88053
 20
5.60729
 30
0.0
 10
2.88053
 20
5.60729
 30
0.0
 10
2.82973
 20
5.60729
 30
0.0
 10
2.82973
 20
5.60729
 30
0.0
  0
SPLINE
  5
75
330
1F
100
AcDbEntity
  8
Layer 1
100
AcDbSpline
210
0.0
220
0.0
230
1.0
 70
    11
 71
     3
 72
    52
 73
    48
 74
     0
 42
0.0000000001
 43
0.0000000001
 12
1.0
 22
0.0
 32
0.0
 13
1.0
 23
0.0
 33
0.0
 40
0.0
 40
0.0
 40
0.0
 40
0.0
 40
0.0769230769230769
 40
0.0769230769230769
 40
0.0769230769230769
 40
0.0769230769230769
 40
0.1538461538461539
 40
0.1538461538461539
 40
0.1538461538461539
 40
0.1538461538461539
 40
0.2307692307692308
 40
0.2307692307692308
 40
0.2307692307692308
 40
0.2307692307692308
 40
0.3076923076923077
 40
0.3076923076923077
 40
0.3076923076923077
 40
0.3076923076923077
 40
0.3846153846153846
 40
0.3846153846153846
 40
0.3846153846153846
 40
0.3846153846153846
 40
0.4615384615384616
 40
0.4615384615384616
 40
0.4615384615384616
 40
0.4615384615384616
 40
0.5384615384615384
 40
0.5384615384615384
 40
0.5384615384615384
 40
0.5384615384615384
 40
0.6153846153846154
 40
0.6153846153846154
 40
0.6153846153846154
 40
0.6153846153846154
 40
0.6923076923076923
 40
0.6923076923076923
 40
0.6923076923076923
 40
0.6923076923076923
 40
0.7692307692307693
 40
0.7692307692307693
 40
0.7692307692307693
 40
0.7692307692307693
 40
0.8461538461538461
 40
0.8461538461538461
 40
0.8461538461538461
 40
0.8461538461538461
 40
1.0
 40
1.0
 40
1.0
 40
1.0
 10
3.52965
 20
5.61629
 30
0.0
 10
3.49552
 20
5.60606
 30
0.0
 10
3.46632
 20
5.60094
 30
0.0
 10
3.44198
 20
5.60094
 30
0.0
 10
3.44198
 20
5.60094
 30
0.0
 10
3.40044
 20
5.60094
 30
0.0
 10
3.36666
 20
5.6147
 30
0.0
 10
3.34065
 20
5.64213
 30
0.0
 10
3.34065
 20
5.64213
 30
0.0
 10
3.31463
 20
5.66956
 30
0.0
 10
3.30158
 20
5.7051
 30
0.0
 10
3.30158
 20
5.74884
 30
0.0
 10
3.30158
 20
5.74884
 30
0.0
 10
3.30158
 20
5.79126
 30
0.0
 10
3.31304
 20
5.8261
 30
0.0
 10
3.33606
 20
5.85335
 30
0.0
 10
3.33606
 20
5.85335
 30
0.0
 10
3.35908
 20
5.88052
 30
0.0
 10
3.38854
 20
5.8941
 30
0.0
 10
3.42443
 20
5.8941
 30
0.0
 10
3.42443
 20
5.8941
 30
0.0
 10
3.45839
 20
5.8941
 30
0.0
 10
3.48467
 20
5.88202
 30
0.0
 10
3.50319
 20
5.85785
 30
0.0
 10
3.50319
 20
5.85785
 30
0.0
 10
3.52171
 20
5.83369
 30
0.0
 10
3.53097
 20
5.79947
 30
0.0
 10
3.53097
 20
5.7551
 30
0.0
 10
3.53097
 20
5.7551
 30
0.0
 10
3.53097
 20
5.7551
 30
0.0
 10
3.53071
 20
5.73958
 30
0.0
 10
3.53071
 20
5.73958
 30
0.0
 10
3.53071
 20
5.73958
 30
0.0
 10
3.53071
 20
5.73958
 30
0.0
 10
3.35343
 20
5.73958
 30
0.0
 10
3.35343
 20
5.73958
 30
0.0
 10
3.35343
 20
5.73958
 30
0.0
 10
3.36084
 20
5.67255
 30
0.0
 10
3.39356
 20
5.63904
 30
0.0
 10
3.45151
 20
5.63904
 30
0.0
 10
3.45151
 20
5.63904
 30
0.0
 10
3.47276
 20
5.63904
 30
0.0
 10
3.49878
 20
5.64504
 30
0.0
 10
3.52965
 20
5.65703
 30
0.0
 10
3.52965
 20
5.65703
 30
0.0
 10
3.52965
 20
5.65703
 30
0.0
 10
3.52965
 20
5.61629
 30
0.0
 10
3.52965
 20
5.61629
 30
0.0
  0
SPLINE
  5
76
330
1F
100
AcDbEntity
  8
Layer 1
100
AcDbSpline
210
0.0
220
0.0
230
1.0
 70
    11
 71
     3
 72
    16
 73
    12
 74
     0
 42
0.0000000001
 43
0.0000000001
 12
1.0
 22
0.0
 32
0.0
 13
1.0
 23
0.0
 33
0.0
 40
0.0
 40
0.0
 40
0.0
 40
0.0
 40
0.25
 40
0.25
 40
0.25
 40
0.25
 40
0.5
 40
0.5
 40
0.5
 40
0.5
 40
1.0
 40
1.0
 40
1.0
 40
1.0
 10
3.35608
 20
5.77768
 30
0.0
 10
3.35608
 20
5.77768
 30
0.0
 10
3.47991
 20
5.77768
 30
0.0
 10
3.47991
 20
5.77768
 30
0.0
 10
3.47991
 20
5.77768
 30
0.0
 10
3.47991
 20
5.82989
 30
0.0
 10
3.46041
 20
5.856
 30
0.0
 10
3.42152
 20
5.856
 30
0.0
 10
3.42152
 20
5.856
 30
0.0
 10
3.38236
 20
5.856
 30
0.0
 10
3.36058
 20
5.82989
 30
0.0
 10
3.35608
 20
5.77768
 30
0.0
  0
SPLINE
  5
77
330
1F
100
AcDbEntity
  8
Layer 1
100
AcDbSpline
210
0.0
220
0.0
230
1.0
 70
    11
 71
     3
 72
    44
 73
    40
 74
     0
 42
0.0000000001
 43
0.0000000001
 12
1.0
 22
0.0
 32
0.0
 13
1.0
 23
0.0
 33
0.0
 40
0.0
 40
0.0
 40
0.0
 40
0.0
 40
0.0909090909090909
 40
0.0909090909090909
 40
0.0909090909090909
 40
0.0909090909090909
 40
0.1818181818181818
 40
0.1818181818181818
 40
0.1818181818181818
 40
0.1818181818181818
 40
0.2727272727272727
 40
0.2727272727272727
 40
0.2727272727272727
 40
0.2727272727272727
 40
0.3636363636363636
 40
0.3636363636363636
 40
0.3636363636363636
 40
0.3636363636363636
 40
0.4545454545454545
 40
0.4545454545454545
 40
0.4545454545454545
 40
0.4545454545454545
 40
0.5454545454545454
 40
0.5454545454545454
 40
0.5454545454545454
 40
0.5454545454545454
 40
0.6363636363636364
 40
0.6363636363636364
 40
0.6363636363636364
 40
0.6363636363636364
 40
0.7272727272727273
 40
0.7272727272727273
 40
0.7272727272727273
 40
0.7272727272727273
 40
0.8181818181818182
 40
0.8181818181818182
 40
0.8181818181818182
 40
0.8181818181818182
 40
1.0
 40
1.0
 40
1.0
 40
1.0
 10
3.61864
 20
5.60729
 30
0.0
 10
3.61864
 20
5.60729
 30
0.0
 10
3.61864
 20
5.88775
 30
0.0
 10
3.61864
 20
5.88775
 30
0.0
 10
3.61864
 20
5.88775
 30
0.0
 10
3.61864
 20
5.88775
 30
0.0
 10
3.66944
 20
5.88775
 30
0.0
 10
3.66944
 20
5.88775
 30
0.0
 10
3.66944
 20
5.88775
 30
0.0
 10
3.66944
 20
5.88775
 30
0.0
 10
3.66944
 20
5.83474
 30
0.0
 10
3.66944
 20
5.83474
 30
0.0
 10
3.66944
 20
5.83474
 30
0.0
 10
3.68964
 20
5.87399
 30
0.0
 10
3.71892
 20
5.89357
 30
0.0
 10
3.75737
 20
5.89357
 30
0.0
 10
3.75737
 20
5.89357
 30
0.0
 10
3.76257
 20
5.89357
 30
0.0
 10
3.76804
 20
5.89313
 30
0.0
 10
3.77369
 20
5.89225
 30
0.0
 10
3.77369
 20
5.89225
 30
0.0
 10
3.77369
 20
5.89225
 30
0.0
 10
3.77369
 20
5.84471
 30
0.0
 10
3.77369
 20
5.84471
 30
0.0
 10
3.77369
 20
5.84471
 30
0.0
 10
3.76487
 20
5.84762
 30
0.0
 10
3.75711
 20
5.84912
 30
0.0
 10
3.7504
 20
5.84912
 30
0.0
 10
3.7504
 20
5.84912
 30
0.0
 10
3.71812
 20
5.84912
 30
0.0
 10
3.69114
 20
5.83007
 30
0.0
 10
3.66944
 20
5.79188
 30
0.0
 10
3.66944
 20
5.79188
 30
0.0
 10
3.66944
 20
5.79188
 30
0.0
 10
3.66944
 20
5.60729
 30
0.0
 10
3.66944
 20
5.60729
 30
0.0
 10
3.66944
 20
5.60729
 30
0.0
 10
3.66944
 20
5.60729
 30
0.0
 10
3.61864
 20
5.60729
 30
0.0
 10
3.61864
 20
5.60729
 30
0.0
  0
SPLINE
  5
78
330
1F
100
AcDbEntity
  8
Layer 1
370
    53
100
AcDbSpline
210
0.0
220
0.0
230
1.0
 70
    11
 71
     3
 72
    52
 73
    48
 74
     0
 42
0.0000000001
 43
0.0000000001
 12
1.0
 22
0.0
 32
0.0
 13
1.0
 23
0.0
 33
0.0
 40
0.0
 40
0.0
 40
0.0
 40
0.0
 40
0.0769230769230769
 40
0.0769230769230769
 40
0.0769230769230769
 40
0.0769230769230769
 40
0.1538461538461539
 40
0.1538461538461539
 40
0.1538461538461539
 40
0.1538461538461539
 40
0.2307692307692308
 40
0.2307692307692308
 40
0.2307692307692308
 40
0.2307692307692308
 40
0.3076923076923077
 40
0.3076923076923077
 40
0.3076923076923077
 40
0.3076923076923077
 40
0.3846153846153846
 40
0.3846153846153846
 40
0.3846153846153846
 40
0.3846153846153846
 40
0.4615384615384616
 40
0.4615384615384616
 40
0.4615384615384616
 40
0.4615384615384616
 40
0.5384615384615384
 40
0.5384615384615384
 40
0.5384615384615384
 40
0.5384615384615384
 40
0.6153846153846154
 40
0.6153846153846154
 40
0.6153846153846154
 40
0.6153846153846154
 40
0.6923076923076923
 40
0.6923076923076923
 40
0.6923076923076923
 40
0.6923076923076923
 40
0.7692307692307693
 40
0.7692307692307693
 40
0.7692307692307693
 40
0.7692307692307693
 40
0.8461538461538461
 40
0.8461538461538461
 40
0.8461538461538461
 40
0.8461538461538461
 40
1.0
 40
1.0
 40
1.0
 40
1.0
 10
-0.57735
 20
1.5
 30
0.0
 10
-0.57735
 20
1.5
 30
0.0
 10
-0.43301
 20
1.75
 30
0.0
 10
-0.43301
 20
1.75
 30
0.0
 10
-0.43301
 20
1.75
 30
0.0
 10
-0.43301
 20
1.75
 30
0.0
 10
-0.28868
 20
2.0
 30
0.0
 10
-0.28868
 20
2.0
 30
0.0
 10
-0.28868
 20
2.0
 30
0.0
 10
-0.28868
 20
2.0
 30
0.0
 10
0.0
 20
2.0
 30
0.0
 10
0.0
 20
2.0
 30
0.0
 10
0.0
 20
2.0
 30
0.0
 10
0.0
 20
2.0
 30
0.0
 10
0.28868
 20
2.0
 30
0.0
 10
0.28868
 20
2.0
 30
0.0
 10
0.28868
 20
2.0
 30
0.0
 10
0.28868
 20
2.0
 30
0.0
 10
0.43301
 20
1.75
 30
0.0
 10
0.43301
 20
1.75
 30
0.0
 10
0.43301
 20
1.75
 30
0.0
 10
0.43301
 20
1.75
 30
0.0
 10
0.57735
 20
1.5
 30
0.0
 10
0.57735
 20
1.5
 30
0.0
 10
0.57735
 20
1.5
 30
0.0
 10
0.57735
 20
1.5
 30
0.0
 10
0.43301
 20
1.25
 30
0.0
 10
0.43301
 20
1.25
 30
0.0
 10
0.43301
 20
1.25
 30
0.0
 10
0.43301
 20
1.25
 30
0.0
 10
0.28868
 20
1.0
 30
0.0
 10
0.28868
 20
1.0
 30
0.0
 10
0.28868
 20
1.0
 30
0.0
 10
0.28868
 20
1.0
 30
0.0
 10
0.0
 20
1.0
 30
0.0
 10
0.0
 20
1.0
 30
0.0
 10
0.0
 20
1.0
 30
0.0
 10
0.0
 20
1.0
 30
0.0
 10
-0.28868
 20
1.0
 30
0.0
 10
-0.28868
 20
1.0
 30
0.0
 10
-0.28868
 20
1.0
 30
0.0
 10
-0.28868
 20
1.0
 30
0.0
 10
-0.43301
 20
1.25
 30
0.0
 10
-0.43301
 20
1.25
 30
0.0
 10
-0.43301
 20
1.25
 30
0.0
 10
-0.43301
 20
1.25
 30
0.0
 10
-0.57735
 20
1.5
 30
0.0
 10
-0.57735
 20
1.5
 30
0.0
  0
SPLINE
  5
79
330
1F
100
AcDbEntity
  8
Layer 1
370
    53
100
AcDbSpline
210
0.0
220
0.0
230
1.0
 70
    11
 71
     3
 72
    20
 73
    16
 74
     0
 42
0.0000000001
 43
0.0000000001
 12
1.0
 22
0.0
 32
0.0
 13
1.0
 23
0.0
 33
0.0
 40
0.0
 40
0.0
 40
0.0
 40
0.0
 40
0.2
 40
0.2
 40
0.2
 40
0.2
 40
0.4
 40
0.4
 40
0.4
 40
0.4
 40
0.6
 40
0.6
 40
0.6
 40
0.6
 40
1.0
 40
1.0
 40
1.0
 40
1.0
 10
-0.3
 20
1.5
 30
0.0
 10
-0.3
 20
1.66568
 30
0.0
 10
-0.16568
 20
1.8
 30
0.0
 10
0.0
 20
1.8
 30
0.0
 10
0.0
 20
1.8
 30
0.0
 10
0.16568
 20
1.8
 30
0.0
 10
0.3
 20
1.66568
 30
0.0
 10
0.3
 20
1.5
 30
0.0
 10
0.3
 20
1.5
 30
0.0
 10
0.3
 20
1.33432
 30
0.0
 10
0.16568
 20
1.2
 30
0.0
 10
0.0
 20
1.2
 30
0.0
 10
0.0
 20
1.2
 30
0.0
 10
-0.16568
 20
1.2
 30
0.0
 10
-0.3
 20
1.33432
 30
0.0
 10
-0.3
 20
1.5
 30
0.0
  0
LWPOLYLINE
  5
7A
330
1F
100
AcDbEntity
  8
Layer 1
370
    53
100
AcDbPolyline
 90
        5
 70
     1
 43
0.0
 10
-0.57735
 20
-0.24498
 10
0.57735
 20
-0.24498
 10
0.57735
 20
0.24502
 10
-0.57735
 20
0.24502
 10
-0.57735
 20
-0.24498
  0
LWPOLYLINE
  5
7B
330
1F
100
AcDbEntity
  8
Layer 1
370
    53
100
AcDbPolyline
 90
        5
 70
     1
 43
0.0
 10
-0.5
 20
-0.24498
 10
0.5
 20
-0.24498
 10
0.5
 20
0.24502
 10
-0.5
 20
0.24502
 10
-0.5
 20
-0.24498
  0
ENDSEC
  0
SECTION
  2
OBJECTS
  0
DICTIONARY
  5
C
330
0
100
AcDbDictionary
281
     1
  3
ACAD_GROUP
350
D
  3
ACAD_LAYOUT
350
1A
  3
ACAD_MATERIAL
350
3B
  3
ACAD_MLEADERSTYLE
350
9D
  3
ACAD_MLINESTYLE
350
17
  3
ACAD_PLOTSETTINGS
350
19
  3
ACAD_PLOTSTYLENAME
350
E
  3
ACAD_TABLESTYLE
350
9C
  3
ACAD_VISUALSTYLE
350
2A
  0
DICTIONARY
  5
D
102
{ACAD_REACTORS
330
C
102
}
330
C
100
AcDbDictionary
281
     1
  0
DICTIONARY
  5
1A
102
{ACAD_REACTORS
330
C
102
}
330
C
100
AcDbDictionary
281
     1
  3
Layout1
350
1E
  3
Layout2
350
26
  3
Model
350
22
  0
DICTIONARY
  5
3B
102
{ACAD_REACTORS
330
C
102
}
330
C
100
AcDbDictionary
281
     1
  3
ByBlock
350
3D
  3
ByLayer
350
3C
  3
Global
350
3E
  0
DICTIONARY
  5
9D
102
{ACAD_REACTORS
330
C
102
}
330
C
100
AcDbDictionary
281
     1
  0
DICTIONARY
  5
17
102
{ACAD_REACTORS
330
C
102
}
330
C
100
AcDbDictionary
281
     1
  3
Standard
350
18
  0
DICTIONARY
  5
19
102
{ACAD_REACTORS
330
C
102
}
330
C
100
AcDbDictionary
281
     1
  0
ACDBDICTIONARYWDFLT
  5
E
102
{ACAD_REACTORS
330
C
102
}
330
C
100
AcDbDictionary
281
     1
  3
Normal
350
F
100
AcDbDictionaryWithDefault
340
F
  0
DICTIONARY
  5
9C
102
{ACAD_REACTORS
330
C
102
}
330
C
100
AcDbDictionary
281
     1
  0
DICTIONARY
  5
2A
102
{ACAD_REACTORS
330
C
102
}
330
C
100
AcDbDictionary
281
     1
  3
2dWireframe
350
2F
  3
3D Hidden
350
31
  3
3dWireframe
350
30
  3
Basic
350
32
  3
Brighten
350
36
  3
ColorChange
350
3A
  3
Conceptual
350
34
  3
Dim
350
35
  3
Facepattern
350
39
  3
Flat
350
2B
  3
FlatWithEdges
350
2C
  3
Gouraud
350
2D
  3
GouraudWithEdges
350
2E
  3
Linepattern
350
38
  3
Realistic
350
33
  3
Thicken
350
37
  0
LAYOUT
  5
1E
102
{ACAD_REACTORS
330
1A
102
}
330
1A
100
AcDbPlotSettings
  1

  2
none_device
  4

  6

 40
0.0
 41
0.0
 42
0.0
 43
0.0
 44
0.0
 45
0.0
 46
0.0
 47
0.0
 48
0.0
 49
0.0
140
0.0
141
0.0
142
1.0
143
1.0
 70
   688
 72
     0
 73
     0
 74
     5
  7

 75
    16
 76
     0
 77
     2
 78
   300
147
1.0
148
0.0
149
0.0
100
AcDbLayout
  1
Layout1
 70
     1
 71
     1
 10
0.0
 20
0.0
 11
12.0
 21
9.0
 12
0.0
 22
0.0
 32
0.0
 14
1.000000000000000E+20
 24
1.000000000000000E+20
 34
1.000000000000000E+20
 15
-1.000000000000000E+20
 25
-1.000000000000000E+20
 35
-1.000000000000000E+20
146
0.0
 13
0.0
 23
0.0
 33
0.0
 16
1.0
 26
0.0
 36
0.0
 17
0.0
 27
1.0
 37
0.0
 76
     0
330
1B
  0
LAYOUT
  5
26
102
{ACAD_REACTORS
330
1A
102
}
330
1A
100
AcDbPlotSettings
  1

  2
none_device
  4

  6

 40
0.0
 41
0.0
 42
0.0
 43
0.0
 44
0.0
 45
0.0
 46
0.0
 47
0.0
 48
0.0
 49
0.0
140
0.0
141
0.0
142
1.0
143
1.0
 70
   688
 72
     0
 73
     0
 74
     5
  7

 75
    16
 76
     0
 77
     2
 78
   300
147
1.0
148
0.0
149
0.0
100
AcDbLayout
  1
Layout2
 70
     1
 71
     2
 10
0.0
 20
0.0
 11
0.0
 21
0.0
 12
0.0
 22
0.0
 32
0.0
 14
0.0
 24
0.0
 34
0.0
 15
0.0
 25
0.0
 35
0.0
146
0.0
 13
0.0
 23
0.0
 33
0.0
 16
1.0
 26
0.0
 36
0.0
 17
0.0
 27
1.0
 37
0.0
 76
     0
330
23
  0
LAYOUT
  5
22
102
{ACAD_REACTORS
330
1A
102
}
330
1A
100
AcDbPlotSettings
  1

  2
none_device
  4

  6

 40
0.0
 41
0.0
 42
0.0
 43
0.0
 44
0.0
 45
0.0
 46
0.0
 47
0.0
 48
0.0
 49
0.0
140
0.0
141
0.0
142
1.0
143
1.0
 70
  1712
 72
     0
 73
     0
 74
     0
  7

 75
     0
 76
     0
 77
     2
 78
   300
147
1.0
148
0.0
149
0.0
100
AcDbLayout
  1
Model
 70
     1
 71
     0
 10
0.0
 20
0.0
 11
12.0
 21
9.0
 12
0.0
 22
0.0
 32
0.0
 14
-3.76701
 24
-0.27144
 34
0.0
 15
3.77369
 25
6.82843
 35
0.0
146
0.0
 13
0.0
 23
0.0
 33
0.0
 16
1.0
 26
0.0
 36
0.0
 17
0.0
 27
1.0
 37
0.0
 76
     0
330
1F
331
29
  0
MATERIAL
  5
3D
102
{ACAD_REACTORS
330
3B
102
}
330
3B
100
AcDbMaterial
  1
ByBlock
 72
     1
 94
      127
  0
MATERIAL
  5
3C
102
{ACAD_REACTORS
330
3B
102
}
330
3B
100
AcDbMaterial
  1
ByLayer
 72
     1
 94
      127
  0
MATERIAL
  5
3E
102
{ACAD_REACTORS
330
3B
102
}
330
3B
100
AcDbMaterial
  1
Global
 72
     1
 94
      127
  0
MLINESTYLE
  5
18
102
{ACAD_REACTORS
330
17
102
}
330
17
100
AcDbMlineStyle
  2
Standard
 70
     0
  3

 62
   256
 51
90.0
 52
90.0
 71
     2
 49
0.5
 62
   256
  6
BYLAYER
 49
-0.5
 62
   256
  6
BYLAYER
  0
ACDBPLACEHOLDER
  5
F
102
{ACAD_REACTORS
330
E
102
}
330
E
  0
VISUALSTYLE
  5
2F
102
{ACAD_REACTORS
330
2A
102
}
102
{ACAD_XDICTIONARY
360
84
102
}
330
2A
100
AcDbVisualStyle
  2
2dWireframe
 70
     4
 71
     0
 72
     2
 73
     0
 90
        0
 40
-0.6
 41
-30.0
 62
     5
 63
     7
421
 16777215
 74
     1
 91
        4
 64
     7
 65
   257
 75
     1
175
     1
 42
1.0
 92
        0
 66
   257
 43
1.0
 76
     1
 77
     6
 78
     2
 67
     7
 79
     5
170
     0
171
     0
290
     0
174
     0
 93
        1
 44
0.0
173
     0
291
     0
 45
0.0
  0
VISUALSTYLE
  5
31
102
{ACAD_REACTORS
330
2A
102
}
102
{ACAD_XDICTIONARY
360
88
102
}
330
2A
100
AcDbVisualStyle
  2
3D Hidden
 70
     6
 71
     1
 72
     2
 73
     2
 90
        0
 40
-0.6
 41
-30.0
 62
     5
 63
     7
421
 16777215
 74
     2
 91
        2
 64
     7
 65
   257
 75
     2
175
     1
 42
40.0
 92
        0
 66
   257
 43
1.0
 76
     1
 77
     6
 78
     2
 67
     7
 79
     3
170
     0
171
     0
290
     0
174
     0
 93
        1
 44
0.0
173
     0
291
     0
 45
0.0
  0
VISUALSTYLE
  5
30
102
{ACAD_REACTORS
330
2A
102
}
102
{ACAD_XDICTIONARY
360
86
102
}
330
2A
100
AcDbVisualStyle
  2
3dWireframe
 70
     5
 71
     0
 72
     2
 73
     0
 90
        0
 40
-0.6
 41
-30.0
 62
     5
 63
     7
421
 16777215
 74
     1
 91
        4
 64
     7
 65
   257
 75
     1
175
     1
 42
1.0
 92
        0
 66
   257
 43
1.0
 76
     1
 77
     6
 78
     2
 67
     7
 79
     5
170
     0
171
     0
290
     0
174
     0
 93
        1
 44
0.0
173
     0
291
     0
 45
0.0
  0
VISUALSTYLE
  5
32
102
{ACAD_REACTORS
330
2A
102
}
102
{ACAD_XDICTIONARY
360
8A
102
}
330
2A
100
AcDbVisualStyle
  2
Basic
 70
     7
 71
     1
 72
     0
 73
     1
 90
        0
 40
-0.6
 41
-30.0
 62
     5
 63
     7
421
 16777215
 74
     0
 91
        4
 64
     7
 65
   257
 75
     1
175
     1
 42
1.0
 92
        8
 66
     7
 43
1.0
 76
     1
 77
     6
 78
     2
 67
     7
 79
     5
170
     0
171
     0
290
     0
174
     0
 93
        1
 44
0.0
173
     0
291
     1
 45
0.0
  0
VISUALSTYLE
  5
36
102
{ACAD_REACTORS
330
2A
102
}
102
{ACAD_XDICTIONARY
360
92
102
}
330
2A
100
AcDbVisualStyle
  2
Brighten
 70
    12
 71
     2
 72
     2
 73
     0
 90
        0
 40
-0.6
 41
-30.0
 62
     5
 63
     7
421
 16777215
 74
     1
 91
        4
 64
     7
 65
   257
 75
     1
175
     1
 42
1.0
 92
        8
 66
     7
 43
1.0
 76
     1
 77
     6
 78
     2
 67
     7
 79
     5
170
     0
171
     0
290
     0
174
     0
 93
        1
 44
50.0
173
     0
291
     1
 45
0.0
  0
VISUALSTYLE
  5
3A
102
{ACAD_REACTORS
330
2A
102
}
102
{ACAD_XDICTIONARY
360
9A
102
}
330
2A
100
AcDbVisualStyle
  2
ColorChange
 70
    16
 71
     2
 72
     2
 73
     3
 90
        0
 40
-0.6
 41
-30.0
 62
     5
 63
     8
421
  8421504
 74
     1
 91
        4
 64
     7
 65
   257
 75
     1
175
     1
 42
1.0
 92
        8
 66
     8
424
  8421504
 43
1.0
 76
     1
 77
     6
 78
     2
 67
     7
 79
     5
170
     0
171
     0
290
     0
174
     0
 93
        1
 44
0.0
173
     0
291
     1
 45
0.0
  0
VISUALSTYLE
  5
34
102
{ACAD_REACTORS
330
2A
102
}
102
{ACAD_XDICTIONARY
360
8E
102
}
330
2A
100
AcDbVisualStyle
  2
Conceptual
 70
     9
 71
     3
 72
     2
 73
     0
 90
        0
 40
-0.6
 41
-30.0
 62
     5
 63
     7
421
 16777215
 74
     2
 91
        2
 64
     7
 65
   257
 75
     1
175
     1
 42
40.0
 92
        8
 66
     7
 43
1.0
 76
     1
 77
     6
 78
     2
 67
     7
 79
     3
170
     0
171
     0
290
     0
174
     0
 93
        1
 44
0.0
173
     0
291
     0
 45
0.0
  0
VISUALSTYLE
  5
35
102
{ACAD_REACTORS
330
2A
102
}
102
{ACAD_XDICTIONARY
360
90
102
}
330
2A
100
AcDbVisualStyle
  2
Dim
 70
    11
 71
     2
 72
     2
 73
     0
 90
        0
 40
-0.6
 41
-30.0
 62
     5
 63
     7
421
 16777215
 74
     1
 91
        4
 64
     7
 65
   257
 75
     1
175
     1
 42
1.0
 92
        8
 66
     7
 43
1.0
 76
     1
 77
     6
 78
     2
 67
     7
 79
     5
170
     0
171
     0
290
     0
174
     0
 93
        1
 44
-50.0
173
     0
291
     1
 45
0.0
  0
VISUALSTYLE
  5
39
102
{ACAD_REACTORS
330
2A
102
}
102
{ACAD_XDICTIONARY
360
98
102
}
330
2A
100
AcDbVisualStyle
  2
Facepattern
 70
    15
 71
     2
 72
     2
 73
     0
 90
        0
 40
-0.6
 41
-30.0
 62
     5
 63
     7
421
 16777215
 74
     1
 91
        4
 64
     7
 65
   257
 75
     1
175
     1
 42
1.0
 92
        8
 66
     7
 43
1.0
 76
     1
 77
     6
 78
     2
 67
     7
 79
     5
170
     0
171
     0
290
     0
174
     0
 93
        1
 44
0.0
173
     0
291
     1
 45
0.0
  0
VISUALSTYLE
  5
2B
102
{ACAD_REACTORS
330
2A
102
}
102
{ACAD_XDICTIONARY
360
7C
102
}
330
2A
100
AcDbVisualStyle
  2
Flat
 70
     0
 71
     2
 72
     1
 73
     1
 90
        2
 40
-0.6
 41
30.0
 62
     5
 63
     7
421
 16777215
 74
     0
 91
        4
 64
     7
 65
   257
 75
     1
175
     1
 42
1.0
 92
        8
 66
     7
 43
1.0
 76
     1
 77
     6
 78
     2
 67
     7
 79
     5
170
     0
171
     0
290
     0
174
     0
 93
       13
 44
0.0
173
     0
291
     1
 45
0.0
  0
VISUALSTYLE
  5
2C
102
{ACAD_REACTORS
330
2A
102
}
102
{ACAD_XDICTIONARY
360
7E
102
}
330
2A
100
AcDbVisualStyle
  2
FlatWithEdges
 70
     1
 71
     2
 72
     1
 73
     1
 90
        2
 40
-0.6
 41
30.0
 62
     5
 63
     7
421
 16777215
 74
     1
 91
        4
 64
     7
 65
   257
 75
     1
175
     1
 42
1.0
 92
        0
 66
   257
 43
1.0
 76
     1
 77
     6
 78
     2
 67
     7
 79
     5
170
     0
171
     0
290
     0
174
     0
 93
       13
 44
0.0
173
     0
291
     1
 45
0.0
  0
VISUALSTYLE
  5
2D
102
{ACAD_REACTORS
330
2A
102
}
102
{ACAD_XDICTIONARY
360
80
102
}
330
2A
100
AcDbVisualStyle
  2
Gouraud
 70
     2
 71
     2
 72
     2
 73
     1
 90
        2
 40
-0.6
 41
30.0
 62
     5
 63
     7
421
 16777215
 74
     0
 91
        4
 64
     7
 65
   257
 75
     1
175
     1
 42
1.0
 92
        0
 66
     7
 43
1.0
 76
     1
 77
     6
 78
     2
 67
     7
 79
     5
170
     0
171
     0
290
     0
174
     0
 93
       13
 44
0.0
173
     0
291
     1
 45
0.0
  0
VISUALSTYLE
  5
2E
102
{ACAD_REACTORS
330
2A
102
}
102
{ACAD_XDICTIONARY
360
82
102
}
330
2A
100
AcDbVisualStyle
  2
GouraudWithEdges
 70
     3
 71
     2
 72
     2
 73
     1
 90
        2
 40
-0.6
 41
30.0
 62
     5
 63
     7
421
 16777215
 74
     1
 91
        4
 64
     7
 65
   257
 75
     1
175
     1
 42
1.0
 92
        0
 66
   257
 43
1.0
 76
     1
 77
     6
 78
     2
 67
     7
 79
     5
170
     0
171
     0
290
     0
174
     0
 93
       13
 44
0.0
173
     0
291
     1
 45
0.0
  0
VISUALSTYLE
  5
38
102
{ACAD_REACTORS
330
2A
102
}
102
{ACAD_XDICTIONARY
360
96
102
}
330
2A
100
AcDbVisualStyle
  2
Linepattern
 70
    14
 71
     2
 72
     2
 73
     0
 90
        0
 40
-0.6
 41
-30.0
 62
     5
 63
     7
421
 16777215
 74
     1
 91
        4
 64
     7
 65
   257
 75
     7
175
     7
 42
1.0
 92
        8
 66
     7
 43
1.0
 76
     1
 77
     6
 78
     2
 67
     7
 79
     5
170
     0
171
     0
290
     0
174
     0
 93
        1
 44
0.0
173
     0
291
     1
 45
0.0
  0
VISUALSTYLE
  5
33
102
{ACAD_REACTORS
330
2A
102
}
102
{ACAD_XDICTIONARY
360
8C
102
}
330
2A
100
AcDbVisualStyle
  2
Realistic
 70
     8
 71
     2
 72
     2
 73
     0
 90
        0
 40
-0.6
 41
-30.0
 62
     5
 63
     7
421
 16777215
 74
     1
 91
        0
 64
     7
 65
   257
 75
     1
175
     1
 42
1.0
 92
        8
 66
     8
424
  7895160
 43
1.0
 76
     1
 77
     6
 78
     2
 67
     7
 79
     5
170
     0
171
     0
290
     0
174
     0
 93
       13
 44
0.0
173
     0
291
     0
 45
0.0
  0
VISUALSTYLE
  5
37
102
{ACAD_REACTORS
330
2A
102
}
102
{ACAD_XDICTIONARY
360
94
102
}
330
2A
100
AcDbVisualStyle
  2
Thicken
 70
    13
 71
     2
 72
     2
 73
     0
 90
        0
 40
-0.6
 41
-30.0
 62
     5
 63
     7
421
 16777215
 74
     1
 91
        4
 64
     7
 65
   257
 75
     1
175
     1
 42
1.0
 92
       12
 66
     7
 43
1.0
 76
     1
 77
     6
 78
     2
 67
     7
 79
     5
170
     0
171
     0
290
     0
174
     0
 93
        1
 44
0.0
173
     0
291
     1
 45
0.0
  0
DICTIONARY
  5
84
330
2F
100
AcDbDictionary
280
     1
281
     1
  3
ACAD_XREC_ROUNDTRIP
360
85
  0
DICTIONARY
  5
88
330
31
100
AcDbDictionary
280
     1
281
     1
  3
ACAD_XREC_ROUNDTRIP
360
89
  0
DICTIONARY
  5
86
330
30
100
AcDbDictionary
280
     1
281
     1
  3
ACAD_XREC_ROUNDTRIP
360
87
  0
DICTIONARY
  5
8A
330
32
100
AcDbDictionary
280
     1
281
     1
  3
ACAD_XREC_ROUNDTRIP
360
8B
  0
DICTIONARY
  5
92
330
36
100
AcDbDictionary
280
     1
281
     1
  3
ACAD_XREC_ROUNDTRIP
360
93
  0
DICTIONARY
  5
9A
330
3A
100
AcDbDictionary
280
     1
281
     1
  3
ACAD_XREC_ROUNDTRIP
360
9B
  0
DICTIONARY
  5
8E
330
34
100
AcDbDictionary
280
     1
281
     1
  3
ACAD_XREC_ROUNDTRIP
360
8F
  0
DICTIONARY
  5
90
330
35
100
AcDbDictionary
280
     1
281
     1
  3
ACAD_XREC_ROUNDTRIP
360
91
  0
DICTIONARY
  5
98
330
39
100
AcDbDictionary
280
     1
281
     1
  3
ACAD_XREC_ROUNDTRIP
360
99
  0
DICTIONARY
  5
7C
330
2B
100
AcDbDictionary
280
     1
281
     1
  3
ACAD_XREC_ROUNDTRIP
360
7D
  0
DICTIONARY
  5
7E
330
2C
100
AcDbDictionary
280
     1
281
     1
  3
ACAD_XREC_ROUNDTRIP
360
7F
  0
DICTIONARY
  5
80
330
2D
100
AcDbDictionary
280
     1
281
     1
  3
ACAD_XREC_ROUNDTRIP
360
81
  0
DICTIONARY
  5
82
330
2E
100
AcDbDictionary
280
     1
281
     1
  3
ACAD_XREC_ROUNDTRIP
360
83
  0
DICTIONARY
  5
96
330
38
100
AcDbDictionary
280
     1
281
     1
  3
ACAD_XREC_ROUNDTRIP
360
97
  0
DICTIONARY
  5
8C
330
33
100
AcDbDictionary
280
     1
281
     1
  3
ACAD_XREC_ROUNDTRIP
360
8D
  0
DICTIONARY
  5
94
330
37
100
AcDbDictionary
280
     1
281
     1
  3
ACAD_XREC_ROUNDTRIP
360
95
  0
XRECORD
  5
85
102
{ACAD_REACTORS
330
84
102
}
330
84
100
AcDbXrecord
280
     1
102
RTVSPropertyOp0
 70
     1
102
RTVSPropertyOp1
 70
     1
102
RTVSPropertyOp2
 70
     1
102
RTVSPropertyOp3
 70
     1
102
RTVSPropertyOp4
 70
     1
102
RTVSPropertyOp5
 70
     1
102
RTVSPropertyOp6
 70
     1
102
RTVSPropertyOp7
 70
     1
102
RTVSPropertyOp8
 70
     1
102
RTVSPropertyOp9
 70
     1
102
RTVSPropertyOp10
 70
     1
102
RTVSPropertyOp11
 70
     1
102
RTVSPropertyOp12
 70
     1
102
RTVSPropertyOp13
 70
     1
102
RTVSPropertyOp14
 70
     1
102
RTVSPropertyOp15
 70
     1
102
RTVSPropertyOp16
 70
     1
102
RTVSPropertyOp17
 70
     1
102
RTVSPropertyOp18
 70
     1
102
RTVSPropertyOp19
 70
     1
102
RTVSPropertyOp20
 70
     1
102
RTVSPropertyOp21
 70
     1
102
RTVSPropertyOp22
 70
     1
102
RTVSPropertyOp23
 70
     1
102
RTVSPropertyOp24
 70
     1
102
RTVSPropertyOp25
 70
     1
102
RTVSPropertyOp26
 70
     1
102
RTVSPropertyOp27
 70
     1
102
RTVSPropertyOp28
 70
     1
102
RTVSPropertyOp29
 70
     1
102
RTVSPropertyOp30
 70
     1
102
RTVSPropertyOp31
 70
     1
102
RTVSPropertyOp32
 70
     1
  0
XRECORD
  5
89
102
{ACAD_REACTORS
330
88
102
}
330
88
100
AcDbXrecord
280
     1
102
RTVSPropertyOp0
 70
     1
102
RTVSPropertyOp1
 70
     1
102
RTVSPropertyOp2
 70
     1
102
RTVSPropertyOp3
 70
     1
102
RTVSPropertyOp4
 70
     1
102
RTVSPropertyOp5
 70
     1
102
RTVSPropertyOp6
 70
     1
102
RTVSPropertyOp7
 70
     1
102
RTVSPropertyOp8
 70
     1
102
RTVSPropertyOp9
 70
     1
102
RTVSPropertyOp10
 70
     1
102
RTVSPropertyOp11
 70
     1
102
RTVSPropertyOp12
 70
     1
102
RTVSPropertyOp13
 70
     1
102
RTVSPropertyOp14
 70
     1
102
RTVSPropertyOp15
 70
     1
102
RTVSPropertyOp16
 70
     1
102
RTVSPropertyOp17
 70
     1
102
RTVSPropertyOp18
 70
     1
102
RTVSPropertyOp19
 70
     1
102
RTVSPropertyOp20
 70
     1
102
RTVSPropertyOp21
 70
     1
102
RTVSPropertyOp22
 70
     1
102
RTVSPropertyOp23
 70
     1
102
RTVSPropertyOp24
 70
     1
102
RTVSPropertyOp25
 70
     1
102
RTVSPropertyOp26
 70
     1
102
RTVSPropertyOp27
 70
     1
102
RTVSPropertyOp28
 70
     1
102
RTVSPropertyOp29
 70
     1
102
RTVSPropertyOp30
 70
     1
102
RTVSPropertyOp31
 70
     1
102
RTVSPropertyOp32
 70
     1
  0
XRECORD
  5
87
102
{ACAD_REACTORS
330
86
102
}
330
86
100
AcDbXrecord
280
     1
102
RTVSPropertyOp0
 70
     1
102
RTVSPropertyOp1
 70
     1
102
RTVSPropertyOp2
 70
     1
102
RTVSPropertyOp3
 70
     1
102
RTVSPropertyOp4
 70
     1
102
RTVSPropertyOp5
 70
     1
102
RTVSPropertyOp6
 70
     1
102
RTVSPropertyOp7
 70
     1
102
RTVSPropertyOp8
 70
     1
102
RTVSPropertyOp9
 70
     1
102
RTVSPropertyOp10
 70
     1
102
RTVSPropertyOp11
 70
     1
102
RTVSPropertyOp12
 70
     1
102
RTVSPropertyOp13
 70
     1
102
RTVSPropertyOp14
 70
     1
102
RTVSPropertyOp15
 70
     1
102
RTVSPropertyOp16
 70
     1
102
RTVSPropertyOp17
 70
     1
102
RTVSPropertyOp18
 70
     1
102
RTVSPropertyOp19
 70
     1
102
RTVSPropertyOp20
 70
     1
102
RTVSPropertyOp21
 70
     1
102
RTVSPropertyOp22
 70
     1
102
RTVSPropertyOp23
 70
     1
102
RTVSPropertyOp24
 70
     1
102
RTVSPropertyOp25
 70
     1
102
RTVSPropertyOp26
 70
     1
102
RTVSPropertyOp27
 70
     1
102
RTVSPropertyOp28
 70
     1
102
RTVSPropertyOp29
 70
     1
102
RTVSPropertyOp30
 70
     1
102
RTVSPropertyOp31
 70
     1
102
RTVSPropertyOp32
 70
     1
  0
XRECORD
  5
8B
102
{ACAD_REACTORS
330
8A
102
}
330
8A
100
AcDbXrecord
280
     1
102
RTVSPropertyOp0
 70
     1
102
RTVSPropertyOp1
 70
     1
102
RTVSPropertyOp2
 70
     1
102
RTVSPropertyOp3
 70
     1
102
RTVSPropertyOp4
 70
     1
102
RTVSPropertyOp5
 70
     1
102
RTVSPropertyOp6
 70
     1
102
RTVSPropertyOp7
 70
     1
102
RTVSPropertyOp8
 70
     1
102
RTVSPropertyOp9
 70
     1
102
RTVSPropertyOp10
 70
     1
102
RTVSPropertyOp11
 70
     1
102
RTVSPropertyOp12
 70
     1
102
RTVSPropertyOp13
 70
     1
102
RTVSPropertyOp14
 70
     1
102
RTVSPropertyOp15
 70
     1
102
RTVSPropertyOp16
 70
     1
102
RTVSPropertyOp17
 70
     1
102
RTVSPropertyOp18
 70
     1
102
RTVSPropertyOp19
 70
     1
102
RTVSPropertyOp20
 70
     1
102
RTVSPropertyOp21
 70
     1
102
RTVSPropertyOp22
 70
     1
102
RTVSPropertyOp23
 70
     1
102
RTVSPropertyOp24
 70
     1
102
RTVSPropertyOp25
 70
     1
102
RTVSPropertyOp26
 70
     1
102
RTVSPropertyOp27
 70
     1
102
RTVSPropertyOp28
 70
     1
102
RTVSPropertyOp29
 70
     1
102
RTVSPropertyOp30
 70
     1
102
RTVSPropertyOp31
 70
     1
102
RTVSPropertyOp32
 70
     1
  0
XRECORD
  5
93
102
{ACAD_REACTORS
330
92
102
}
330
92
100
AcDbXrecord
280
     1
102
RTVSPropertyOp0
 70
     1
102
RTVSPropertyOp1
 70
     1
102
RTVSPropertyOp2
 70
     1
102
RTVSPropertyOp3
 70
     1
102
RTVSPropertyOp4
 70
     1
102
RTVSPropertyOp5
 70
     1
102
RTVSPropertyOp6
 70
     1
102
RTVSPropertyOp7
 70
     1
102
RTVSPropertyOp8
 70
     1
102
RTVSPropertyOp9
 70
     1
102
RTVSPropertyOp10
 70
     1
102
RTVSPropertyOp11
 70
     1
102
RTVSPropertyOp12
 70
     1
102
RTVSPropertyOp13
 70
     1
102
RTVSPropertyOp14
 70
     1
102
RTVSPropertyOp15
 70
     1
102
RTVSPropertyOp16
 70
     1
102
RTVSPropertyOp17
 70
     1
102
RTVSPropertyOp18
 70
     1
102
RTVSPropertyOp19
 70
     1
102
RTVSPropertyOp20
 70
     1
102
RTVSPropertyOp21
 70
     1
102
RTVSPropertyOp22
 70
     1
102
RTVSPropertyOp23
 70
     1
102
RTVSPropertyOp24
 70
     1
102
RTVSPropertyOp25
 70
     1
102
RTVSPropertyOp26
 70
     1
102
RTVSPropertyOp27
 70
     1
102
RTVSPropertyOp28
 70
     1
102
RTVSPropertyOp29
 70
     1
102
RTVSPropertyOp30
 70
     1
102
RTVSPropertyOp31
 70
     1
102
RTVSPropertyOp32
 70
     1
  0
XRECORD
  5
9B
102
{ACAD_REACTORS
330
9A
102
}
330
9A
100
AcDbXrecord
280
     1
102
RTVSPropertyOp0
 70
     1
102
RTVSPropertyOp1
 70
     1
102
RTVSPropertyOp2
 70
     1
102
RTVSPropertyOp3
 70
     1
102
RTVSPropertyOp4
 70
     1
102
RTVSPropertyOp5
 70
     1
102
RTVSPropertyOp6
 70
     1
102
RTVSPropertyOp7
 70
     1
102
RTVSPropertyOp8
 70
     1
102
RTVSPropertyOp9
 70
     1
102
RTVSPropertyOp10
 70
     1
102
RTVSPropertyOp11
 70
     1
102
RTVSPropertyOp12
 70
     1
102
RTVSPropertyOp13
 70
     1
102
RTVSPropertyOp14
 70
     1
102
RTVSPropertyOp15
 70
     1
102
RTVSPropertyOp16
 70
     1
102
RTVSPropertyOp17
 70
     1
102
RTVSPropertyOp18
 70
     1
102
RTVSPropertyOp19
 70
     1
102
RTVSPropertyOp20
 70
     1
102
RTVSPropertyOp21
 70
     1
102
RTVSPropertyOp22
 70
     1
102
RTVSPropertyOp23
 70
     1
102
RTVSPropertyOp24
 70
     1
102
RTVSPropertyOp25
 70
     1
102
RTVSPropertyOp26
 70
     1
102
RTVSPropertyOp27
 70
     1
102
RTVSPropertyOp28
 70
     1
102
RTVSPropertyOp29
 70
     1
102
RTVSPropertyOp30
 70
     1
102
RTVSPropertyOp31
 70
     1
102
RTVSPropertyOp32
 70
     1
  0
XRECORD
  5
8F
102
{ACAD_REACTORS
330
8E
102
}
330
8E
100
AcDbXrecord
280
     1
102
RTVSPropertyOp0
 70
     1
102
RTVSPropertyOp1
 70
     1
102
RTVSPropertyOp2
 70
     1
102
RTVSPropertyOp3
 70
     1
102
RTVSPropertyOp4
 70
     1
102
RTVSPropertyOp5
 70
     1
102
RTVSPropertyOp6
 70
     1
102
RTVSPropertyOp7
 70
     1
102
RTVSPropertyOp8
 70
     1
102
RTVSPropertyOp9
 70
     1
102
RTVSPropertyOp10
 70
     1
102
RTVSPropertyOp11
 70
     1
102
RTVSPropertyOp12
 70
     1
102
RTVSPropertyOp13
 70
     1
102
RTVSPropertyOp14
 70
     1
102
RTVSPropertyOp15
 70
     1
102
RTVSPropertyOp16
 70
     1
102
RTVSPropertyOp17
 70
     1
102
RTVSPropertyOp18
 70
     1
102
RTVSPropertyOp19
 70
     1
102
RTVSPropertyOp20
 70
     1
102
RTVSPropertyOp21
 70
     1
102
RTVSPropertyOp22
 70
     1
102
RTVSPropertyOp23
 70
     1
102
RTVSPropertyOp24
 70
     1
102
RTVSPropertyOp25
 70
     1
102
RTVSPropertyOp26
 70
     1
102
RTVSPropertyOp27
 70
     1
102
RTVSPropertyOp28
 70
     1
102
RTVSPropertyOp29
 70
     1
102
RTVSPropertyOp30
 70
     1
102
RTVSPropertyOp31
 70
     1
102
RTVSPropertyOp32
 70
     1
  0
XRECORD
  5
91
102
{ACAD_REACTORS
330
90
102
}
330
90
100
AcDbXrecord
280
     1
102
RTVSPropertyOp0
 70
     1
102
RTVSPropertyOp1
 70
     1
102
RTVSPropertyOp2
 70
     1
102
RTVSPropertyOp3
 70
     1
102
RTVSPropertyOp4
 70
     1
102
RTVSPropertyOp5
 70
     1
102
RTVSPropertyOp6
 70
     1
102
RTVSPropertyOp7
 70
     1
102
RTVSPropertyOp8
 70
     1
102
RTVSPropertyOp9
 70
     1
102
RTVSPropertyOp10
 70
     1
102
RTVSPropertyOp11
 70
     1
102
RTVSPropertyOp12
 70
     1
102
RTVSPropertyOp13
 70
     1
102
RTVSPropertyOp14
 70
     1
102
RTVSPropertyOp15
 70
     1
102
RTVSPropertyOp16
 70
     1
102
RTVSPropertyOp17
 70
     1
102
RTVSPropertyOp18
 70
     1
102
RTVSPropertyOp19
 70
     1
102
RTVSPropertyOp20
 70
     1
102
RTVSPropertyOp21
 70
     1
102
RTVSPropertyOp22
 70
     1
102
RTVSPropertyOp23
 70
     1
102
RTVSPropertyOp24
 70
     1
102
RTVSPropertyOp25
 70
     1
102
RTVSPropertyOp26
 70
     1
102
RTVSPropertyOp27
 70
     1
102
RTVSPropertyOp28
 70
     1
102
RTVSPropertyOp29
 70
     1
102
RTVSPropertyOp30
 70
     1
102
RTVSPropertyOp31
 70
     1
102
RTVSPropertyOp32
 70
     1
  0
XRECORD
  5
99
102
{ACAD_REACTORS
330
98
102
}
330
98
100
AcDbXrecord
280
     1
102
RTVSPropertyOp0
 70
     1
102
RTVSPropertyOp1
 70
     1
102
RTVSPropertyOp2
 70
     1
102
RTVSPropertyOp3
 70
     1
102
RTVSPropertyOp4
 70
     1
102
RTVSPropertyOp5
 70
     1
102
RTVSPropertyOp6
 70
     1
102
RTVSPropertyOp7
 70
     1
102
RTVSPropertyOp8
 70
     1
102
RTVSPropertyOp9
 70
     1
102
RTVSPropertyOp10
 70
     1
102
RTVSPropertyOp11
 70
     1
102
RTVSPropertyOp12
 70
     1
102
RTVSPropertyOp13
 70
     1
102
RTVSPropertyOp14
 70
     1
102
RTVSPropertyOp15
 70
     1
102
RTVSPropertyOp16
 70
     1
102
RTVSPropertyOp17
 70
     1
102
RTVSPropertyOp18
 70
     1
102
RTVSPropertyOp19
 70
     1
102
RTVSPropertyOp20
 70
     1
102
RTVSPropertyOp21
 70
     1
102
RTVSPropertyOp22
 70
     1
102
RTVSPropertyOp23
 70
     1
102
RTVSPropertyOp24
 70
     1
102
RTVSPropertyOp25
 70
     1
102
RTVSPropertyOp26
 70
     1
102
RTVSPropertyOp27
 70
     1
102
RTVSPropertyOp28
 70
     1
102
RTVSPropertyOp29
 70
     1
102
RTVSPropertyOp30
 70
     1
102
RTVSPropertyOp31
 70
     1
102
RTVSPropertyOp32
 70
     1
  0
XRECORD
  5
7D
102
{ACAD_REACTORS
330
7C
102
}
330
7C
100
AcDbXrecord
280
     1
102
RTVSPropertyOp0
 70
     1
102
RTVSPropertyOp1
 70
     1
102
RTVSPropertyOp2
 70
     1
102
RTVSPropertyOp3
 70
     1
102
RTVSPropertyOp4
 70
     1
102
RTVSPropertyOp5
 70
     1
102
RTVSPropertyOp6
 70
     1
102
RTVSPropertyOp7
 70
     1
102
RTVSPropertyOp8
 70
     1
102
RTVSPropertyOp9
 70
     1
102
RTVSPropertyOp10
 70
     1
102
RTVSPropertyOp11
 70
     1
102
RTVSPropertyOp12
 70
     1
102
RTVSPropertyOp13
 70
     1
102
RTVSPropertyOp14
 70
     1
102
RTVSPropertyOp15
 70
     1
102
RTVSPropertyOp16
 70
     1
102
RTVSPropertyOp17
 70
     1
102
RTVSPropertyOp18
 70
     1
102
RTVSPropertyOp19
 70
     1
102
RTVSPropertyOp20
 70
     1
102
RTVSPropertyOp21
 70
     1
102
RTVSPropertyOp22
 70
     1
102
RTVSPropertyOp23
 70
     1
102
RTVSPropertyOp24
 70
     1
102
RTVSPropertyOp25
 70
     1
102
RTVSPropertyOp26
 70
     1
102
RTVSPropertyOp27
 70
     1
102
RTVSPropertyOp28
 70
     1
102
RTVSPropertyOp29
 70
     1
102
RTVSPropertyOp30
 70
     1
102
RTVSPropertyOp31
 70
     1
102
RTVSPropertyOp32
 70
     1
  0
XRECORD
  5
7F
102
{ACAD_REACTORS
330
7E
102
}
330
7E
100
AcDbXrecord
280
     1
102
RTVSPropertyOp0
 70
     1
102
RTVSPropertyOp1
 70
     1
102
RTVSPropertyOp2
 70
     1
102
RTVSPropertyOp3
 70
     1
102
RTVSPropertyOp4
 70
     1
102
RTVSPropertyOp5
 70
     1
102
RTVSPropertyOp6
 70
     1
102
RTVSPropertyOp7
 70
     1
102
RTVSPropertyOp8
 70
     1
102
RTVSPropertyOp9
 70
     1
102
RTVSPropertyOp10
 70
     1
102
RTVSPropertyOp11
 70
     1
102
RTVSPropertyOp12
 70
     1
102
RTVSPropertyOp13
 70
     1
102
RTVSPropertyOp14
 70
     1
102
RTVSPropertyOp15
 70
     1
102
RTVSPropertyOp16
 70
     1
102
RTVSPropertyOp17
 70
     1
102
RTVSPropertyOp18
 70
     1
102
RTVSPropertyOp19
 70
     1
102
RTVSPropertyOp20
 70
     1
102
RTVSPropertyOp21
 70
     1
102
RTVSPropertyOp22
 70
     1
102
RTVSPropertyOp23
 70
     1
102
RTVSPropertyOp24
 70
     1
102
RTVSPropertyOp25
 70
     1
102
RTVSPropertyOp26
 70
     1
102
RTVSPropertyOp27
 70
     1
102
RTVSPropertyOp28
 70
     1
102
RTVSPropertyOp29
 70
     1
102
RTVSPropertyOp30
 70
     1
102
RTVSPropertyOp31
 70
     1
102
RTVSPropertyOp32
 70
     1
  0
XRECORD
  5
81
102
{ACAD_REACTORS
330
80
102
}
330
80
100
AcDbXrecord
280
     1
102
RTVSPropertyOp0
 70
     1
102
RTVSPropertyOp1
 70
     1
102
RTVSPropertyOp2
 70
     1
102
RTVSPropertyOp3
 70
     1
102
RTVSPropertyOp4
 70
     1
102
RTVSPropertyOp5
 70
     1
102
RTVSPropertyOp6
 70
     1
102
RTVSPropertyOp7
 70
     1
102
RTVSPropertyOp8
 70
     1
102
RTVSPropertyOp9
 70
     1
102
RTVSPropertyOp10
 70
     1
102
RTVSPropertyOp11
 70
     1
102
RTVSPropertyOp12
 70
     1
102
RTVSPropertyOp13
 70
     1
102
RTVSPropertyOp14
 70
     1
102
RTVSPropertyOp15
 70
     1
102
RTVSPropertyOp16
 70
     1
102
RTVSPropertyOp17
 70
     1
102
RTVSPropertyOp18
 70
     1
102
RTVSPropertyOp19
 70
     1
102
RTVSPropertyOp20
 70
     1
102
RTVSPropertyOp21
 70
     1
102
RTVSPropertyOp22
 70
     1
102
RTVSPropertyOp23
 70
     1
102
RTVSPropertyOp24
 70
     1
102
RTVSPropertyOp25
 70
     1
102
RTVSPropertyOp26
 70
     1
102
RTVSPropertyOp27
 70
     1
102
RTVSPropertyOp28
 70
     1
102
RTVSPropertyOp29
 70
     1
102
RTVSPropertyOp30
 70
     1
102
RTVSPropertyOp31
 70
     1
102
RTVSPropertyOp32
 70
     1
  0
XRECORD
  5
83
102
{ACAD_REACTORS
330
82
102
}
330
82
100
AcDbXrecord
280
     1
102
RTVSPropertyOp0
 70
     1
102
RTVSPropertyOp1
 70
     1
102
RTVSPropertyOp2
 70
     1
102
RTVSPropertyOp3
 70
     1
102
RTVSPropertyOp4
 70
     1
102
RTVSPropertyOp5
 70
     1
102
RTVSPropertyOp6
 70
     1
102
RTVSPropertyOp7
 70
     1
102
RTVSPropertyOp8
 70
     1
102
RTVSPropertyOp9
 70
     1
102
RTVSPropertyOp10
 70
     1
102
RTVSPropertyOp11
 70
     1
102
RTVSPropertyOp12
 70
     1
102
RTVSPropertyOp13
 70
     1
102
RTVSPropertyOp14
 70
     1
102
RTVSPropertyOp15
 70
     1
102
RTVSPropertyOp16
 70
     1
102
RTVSPropertyOp17
 70
     1
102
RTVSPropertyOp18
 70
     1
102
RTVSPropertyOp19
 70
     1
102
RTVSPropertyOp20
 70
     1
102
RTVSPropertyOp21
 70
     1
102
RTVSPropertyOp22
 70
     1
102
RTVSPropertyOp23
 70
     1
102
RTVSPropertyOp24
 70
     1
102
RTVSPropertyOp25
 70
     1
102
RTVSPropertyOp26
 70
     1
102
RTVSPropertyOp27
 70
     1
102
RTVSPropertyOp28
 70
     1
102
RTVSPropertyOp29
 70
     1
102
RTVSPropertyOp30
 70
     1
102
RTVSPropertyOp31
 70
     1
102
RTVSPropertyOp32
 70
     1
  0
XRECORD
  5
97
102
{ACAD_REACTORS
330
96
102
}
330
96
100
AcDbXrecord
280
     1
102
RTVSPropertyOp0
 70
     1
102
RTVSPropertyOp1
 70
     1
102
RTVSPropertyOp2
 70
     1
102
RTVSPropertyOp3
 70
     1
102
RTVSPropertyOp4
 70
     1
102
RTVSPropertyOp5
 70
     1
102
RTVSPropertyOp6
 70
     1
102
RTVSPropertyOp7
 70
     1
102
RTVSPropertyOp8
 70
     1
102
RTVSPropertyOp9
 70
     1
102
RTVSPropertyOp10
 70
     1
102
RTVSPropertyOp11
 70
     1
102
RTVSPropertyOp12
 70
     1
102
RTVSPropertyOp13
 70
     1
102
RTVSPropertyOp14
 70
     1
102
RTVSPropertyOp15
 70
     1
102
RTVSPropertyOp16
 70
     1
102
RTVSPropertyOp17
 70
     1
102
RTVSPropertyOp18
 70
     1
102
RTVSPropertyOp19
 70
     1
102
RTVSPropertyOp20
 70
     1
102
RTVSPropertyOp21
 70
     1
102
RTVSPropertyOp22
 70
     1
102
RTVSPropertyOp23
 70
     1
102
RTVSPropertyOp24
 70
     1
102
RTVSPropertyOp25
 70
     1
102
RTVSPropertyOp26
 70
     1
102
RTVSPropertyOp27
 70
     1
102
RTVSPropertyOp28
 70
     1
102
RTVSPropertyOp29
 70
     1
102
RTVSPropertyOp30
 70
     1
102
RTVSPropertyOp31
 70
     1
102
RTVSPropertyOp32
 70
     1
  0
XRECORD
  5
8D
102
{ACAD_REACTORS
330
8C
102
}
330
8C
100
AcDbXrecord
280
     1
102
RTVSPropertyOp0
 70
     1
102
RTVSPropertyOp1
 70
     1
102
RTVSPropertyOp2
 70
     1
102
RTVSPropertyOp3
 70
     1
102
RTVSPropertyOp4
 70
     1
102
RTVSPropertyOp5
 70
     1
102
RTVSPropertyOp6
 70
     1
102
RTVSPropertyOp7
 70
     1
102
RTVSPropertyOp8
 70
     1
102
RTVSPropertyOp9
 70
     1
102
RTVSPropertyOp10
 70
     1
102
RTVSPropertyOp11
 70
     1
102
RTVSPropertyOp12
 70
     1
102
RTVSPropertyOp13
 70
     1
102
RTVSPropertyOp14
 70
     1
102
RTVSPropertyOp15
 70
     1
102
RTVSPropertyOp16
 70
     1
102
RTVSPropertyOp17
 70
     1
102
RTVSPropertyOp18
 70
     1
102
RTVSPropertyOp19
 70
     1
102
RTVSPropertyOp20
 70
     1
102
RTVSPropertyOp21
 70
     1
102
RTVSPropertyOp22
 70
     1
102
RTVSPropertyOp23
 70
     1
102
RTVSPropertyOp24
 70
     1
102
RTVSPropertyOp25
 70
     1
102
RTVSPropertyOp26
 70
     1
102
RTVSPropertyOp27
 70
     1
102
RTVSPropertyOp28
 70
     1
102
RTVSPropertyOp29
 70
     1
102
RTVSPropertyOp30
 70
     1
102
RTVSPropertyOp31
 70
     1
102
RTVSPropertyOp32
 70
     1
  0
XRECORD
  5
95
102
{ACAD_REACTORS
330
94
102
}
330
94
100
AcDbXrecord
280
     1
102
RTVSPropertyOp0
 70
     1
102
RTVSPropertyOp1
 70
     1
102
RTVSPropertyOp2
 70
     1
102
RTVSPropertyOp3
 70
     1
102
RTVSPropertyOp4
 70
     1
102
RTVSPropertyOp5
 70
     1
102
RTVSPropertyOp6
 70
     1
102
RTVSPropertyOp7
 70
     1
102
RTVSPropertyOp8
 70
     1
102
RTVSPropertyOp9
 70
     1
102
RTVSPropertyOp10
 70
     1
102
RTVSPropertyOp11
 70
     1
102
RTVSPropertyOp12
 70
     1
102
RTVSPropertyOp13
 70
     1
102
RTVSPropertyOp14
 70
     1
102
RTVSPropertyOp15
 70
     1
102
RTVSPropertyOp16
 70
     1
102
RTVSPropertyOp17
 70
     1
102
RTVSPropertyOp18
 70
     1
102
RTVSPropertyOp19
 70
     1
102
RTVSPropertyOp20
 70
     1
102
RTVSPropertyOp21
 70
     1
102
RTVSPropertyOp22
 70
     1
102
RTVSPropertyOp23
 70
     1
102
RTVSPropertyOp24
 70
     1
102
RTVSPropertyOp25
 70
     1
102
RTVSPropertyOp26
 70
     1
102
RTVSPropertyOp27
 70
     1
102
RTVSPropertyOp28
 70
     1
102
RTVSPropertyOp29
 70
     1
102
RTVSPropertyOp30
 70
     1
102
RTVSPropertyOp31
 70
     1
102
RTVSPropertyOp32
 70
     1
  0
ENDSEC
  0
EOF
